<svg width="48" height="62" viewBox="0 0 48 62" fill="none" xmlns="http://www.w3.org/2000/svg">
<path fill-rule="evenodd" clip-rule="evenodd" d="M37.3432 1.92808L37.9596 3.88405L42.2059 17.3848L48 15.5873L43.1373 0.129883L37.3432 1.92808ZM45.1112 43.3117H34.2517C33.6927 43.3087 33.1537 43.5179 32.7449 43.8966C32.5553 44.0712 32.4036 44.2824 32.2993 44.5174C32.1949 44.7524 32.1401 45.0061 32.1381 45.2629V48.679C32.14 48.9358 32.1948 49.1894 32.2992 49.4242C32.4035 49.6591 32.5552 49.8703 32.7449 50.0447C33.1536 50.4236 33.6926 50.6331 34.2517 50.6303H45.1112V43.3117ZM40.4731 32.1825H40.9402C42.0319 32.1712 43.0907 32.5534 43.9202 33.2584C44.2856 33.5628 44.5811 33.9416 44.7865 34.3692C44.992 34.7967 45.1027 35.263 45.1112 35.7367V41.842H34.2517C33.313 41.8403 32.4093 42.1959 31.7265 42.8356C31.3908 43.1464 31.1227 43.5222 30.9387 43.9397C30.7547 44.3573 30.6588 44.8078 30.6567 45.2636V48.6797C30.6588 49.1354 30.7548 49.5858 30.9387 50.0033C31.1227 50.4207 31.3908 50.7963 31.7265 51.107C32.4093 51.7467 33.313 52.1021 34.2517 52.1H45.1112V57.7754C45.1027 58.2491 44.992 58.7154 44.7865 59.1429C44.5811 59.5705 44.2856 59.9493 43.9202 60.2537C43.0907 60.9587 42.0319 61.3409 40.9402 61.3296H4.16888C3.07795 61.3399 2.02024 60.9572 1.1917 60.2524C0.82612 59.9479 0.530566 59.5692 0.324986 59.1416C0.119405 58.7141 0.00858318 58.2478 0 57.7741V31.2201C0.874342 31.8797 1.95103 32.2196 3.04841 32.1825H40.4731ZM14.7948 15.0649L16.8262 10.7803C17.2858 9.84652 18.585 8.87601 20.1054 8.08097C21.7481 7.17979 23.5494 6.59919 25.4119 6.37051L33.8483 5.90124C33.909 5.89796 33.969 5.88722 34.027 5.86927L36.7666 5.01914L39.9992 15.2948L37.2597 16.145C37.1528 16.178 37.0549 16.2348 36.9734 16.3109C33.401 19.6584 29.4465 20.3847 25.1057 21.1811C23.5504 21.4668 21.9477 21.7606 20.267 22.1897C19.964 22.2858 19.6391 22.2914 19.3328 22.2059C19.0265 22.1205 18.7522 21.9476 18.5439 21.7089C18.3887 21.5228 18.2735 21.307 18.2056 21.075C18.1355 20.8475 18.1142 20.6079 18.1432 20.3718C18.1887 20.0787 18.32 19.8053 18.5208 19.5858C18.7216 19.3663 18.9831 19.2103 19.2726 19.1374L27.7282 16.3871C27.9103 16.3238 28.0603 16.1923 28.146 16.0206C28.2317 15.8489 28.2463 15.6507 28.1867 15.4684C28.1271 15.2862 27.998 15.1344 27.827 15.0455C27.6561 14.9566 27.4568 14.9377 27.272 14.9929L19.7431 17.4412C18.345 16.2106 16.632 15.387 14.7928 15.0609L14.7948 15.0649ZM4.63049 30.7134C3.61236 29.2404 3.00658 27.5251 2.87514 25.7432C2.34148 25.7172 1.81134 25.8421 1.34629 26.1033C0.881241 26.3646 0.500374 26.7515 0.247927 27.2191C0.101271 27.535 0.025328 27.8788 0.025328 28.2266C0.025328 28.5745 0.101271 28.9183 0.247927 29.2342C0.517105 29.7258 0.925747 30.128 1.42312 30.391C1.92049 30.654 2.48469 30.7661 3.04567 30.7134H4.63049ZM19.5322 30.7134C20.9365 29.14 21.7091 27.1085 21.7026 25.006C21.7033 24.6171 21.6779 24.2286 21.6265 23.843C21.6051 23.6893 21.5802 23.537 21.5519 23.386C21.2464 23.4567 20.9396 23.5311 20.6314 23.6091C20.0602 23.7795 19.4512 23.7797 18.8799 23.6094C18.3086 23.4392 17.8003 23.1061 17.4179 22.6515C17.1314 22.3128 16.9179 21.9193 16.7906 21.4953C16.6631 21.0723 16.626 20.6276 16.6817 20.1895C16.7357 19.7415 16.8963 19.3127 17.1502 18.9386C17.4041 18.5644 17.744 18.2556 18.1419 18.0377C16.4127 16.7822 14.2774 16.2052 12.146 16.4175C10.0146 16.6298 8.03732 17.6165 6.59373 19.1881C5.15014 20.7596 4.34201 22.8053 4.3245 24.9324C4.30699 27.0594 5.08133 29.118 6.49885 30.7128L19.5322 30.7134ZM23.1552 25.7405H38.1576C38.5786 25.7336 38.9883 25.8756 39.3136 26.1411C39.4404 26.2415 39.5435 26.3681 39.616 26.5121C39.6885 26.6561 39.7286 26.814 39.7335 26.9749V30.7155H21.3992C22.4185 29.242 23.0246 27.5256 23.1552 25.7426V25.7405ZM15.6797 22.4141C15.382 21.8543 14.8889 21.4214 14.2928 21.1968C14.1185 21.1278 13.9383 21.0743 13.7545 21.0369V20.1786C13.7545 19.9838 13.6766 19.797 13.5379 19.6593C13.3991 19.5215 13.211 19.4441 13.0148 19.4441C12.8187 19.4441 12.6305 19.5215 12.4918 19.6593C12.3531 19.797 12.2752 19.9838 12.2752 20.1786V21.0723C12.2067 21.09 12.1382 21.1117 12.0628 21.1362C11.4962 21.3135 11.0034 21.6698 10.6595 22.1509C10.4904 22.3879 10.3727 22.6571 10.3137 22.9416C10.2548 23.2261 10.2559 23.5196 10.3171 23.8036C10.3339 23.8798 10.3551 23.955 10.3808 24.0287C10.8431 25.4086 11.8663 25.5814 12.8888 25.7548C13.4785 25.8548 14.0682 25.9548 14.2497 26.4961C14.2497 26.5056 14.2586 26.5308 14.2675 26.5696C14.2846 26.6595 14.283 26.752 14.2629 26.8414C14.2428 26.9307 14.2045 27.015 14.1504 27.0892C13.9897 27.3053 13.7629 27.464 13.5038 27.5414C13.4433 27.5605 13.3818 27.5764 13.3196 27.589C12.9742 27.6642 12.6142 27.6363 12.2847 27.5088C12.0242 27.4172 11.8054 27.2357 11.6683 26.9974C11.6251 26.9115 11.5652 26.8349 11.4922 26.772C11.4191 26.7091 11.3343 26.6611 11.2425 26.6308C11.1508 26.6004 11.0539 26.5883 10.9575 26.5952C10.861 26.602 10.7669 26.6276 10.6804 26.6706C10.5939 26.7135 10.5168 26.773 10.4535 26.8455C10.3901 26.9181 10.3418 27.0023 10.3112 27.0934C10.2807 27.1845 10.2685 27.2807 10.2754 27.3765C10.2823 27.4722 10.3081 27.5657 10.3513 27.6516C10.6488 28.2116 11.142 28.6445 11.7382 28.869C11.9123 28.938 12.0922 28.9914 12.2758 29.0288V29.8347C12.2758 30.0296 12.3538 30.2164 12.4925 30.3541C12.6312 30.4919 12.8193 30.5693 13.0155 30.5693C13.2117 30.5693 13.3998 30.4919 13.5385 30.3541C13.6773 30.2164 13.7552 30.0296 13.7552 29.8347V28.9928C13.8237 28.9751 13.8922 28.9533 13.9682 28.9289C14.5336 28.7506 15.0253 28.3944 15.3688 27.9141C15.5377 27.6771 15.6553 27.4079 15.7143 27.1234C15.7732 26.839 15.7722 26.5455 15.7112 26.2615C15.6939 26.1863 15.6726 26.1121 15.6475 26.0391C15.1845 24.6578 14.1606 24.4844 13.1367 24.3109C12.5477 24.211 11.9594 24.1117 11.7786 23.5717C11.7714 23.5494 11.7654 23.5267 11.7608 23.5037C11.7429 23.4133 11.744 23.3203 11.7641 23.2304C11.7841 23.1405 11.8226 23.0557 11.8772 22.9813C12.0378 22.7653 12.2647 22.6068 12.5238 22.5298C12.584 22.5106 12.6453 22.4948 12.7073 22.4822C13.0528 22.4075 13.4127 22.4357 13.7422 22.5631C14.0029 22.6544 14.2217 22.836 14.3586 23.0745C14.4001 23.1633 14.4591 23.2429 14.5321 23.3086C14.6052 23.3744 14.6908 23.4249 14.7838 23.4572C14.8769 23.4895 14.9755 23.5029 15.0739 23.4967C15.1723 23.4904 15.2684 23.4647 15.3565 23.4209C15.4447 23.3771 15.5231 23.3162 15.5872 23.2418C15.6512 23.1674 15.6996 23.081 15.7294 22.9877C15.7592 22.8944 15.7699 22.7961 15.7607 22.6986C15.7516 22.6012 15.7229 22.5065 15.6763 22.4203L15.6797 22.4141ZM37.2624 46.2858C37.44 46.4702 37.5391 46.7155 37.5391 46.9706C37.5391 47.2258 37.44 47.4711 37.2624 47.6555C37.1781 47.7416 37.0773 47.81 36.9659 47.8567C36.8545 47.9035 36.7348 47.9275 36.6138 47.9275C36.4929 47.9275 36.3732 47.9035 36.2618 47.8567C36.1504 47.81 36.0496 47.7416 35.9652 47.6555C35.7877 47.4711 35.6885 47.2258 35.6885 46.9706C35.6885 46.7155 35.7877 46.4702 35.9652 46.2858C36.0497 46.1998 36.1505 46.1316 36.2619 46.0849C36.3733 46.0383 36.4929 46.0143 36.6138 46.0143C36.7347 46.0143 36.8544 46.0383 36.9657 46.0849C37.0771 46.1316 37.178 46.1998 37.2624 46.2858ZM36.6138 44.5454C36.9322 44.5459 37.2471 44.6097 37.5402 44.7332C37.8332 44.8567 38.0983 45.0372 38.3199 45.2642C38.7671 45.7212 39.0173 46.3334 39.0173 46.9706C39.0173 47.6079 38.7671 48.22 38.3199 48.677C38.0988 48.9046 37.8337 49.0857 37.5406 49.2093C37.2475 49.333 36.9323 49.3967 36.6138 49.3967C36.2954 49.3967 35.9801 49.333 35.687 49.2093C35.3939 49.0857 35.1289 48.9046 34.9078 48.677C34.4605 48.22 34.2103 47.6079 34.2103 46.9706C34.2103 46.3334 34.4605 45.7212 34.9078 45.2642C35.1293 45.0371 35.3944 44.8564 35.6874 44.7328C35.9804 44.6092 36.2955 44.5453 36.6138 44.5447V44.5454Z" fill="#7268EF"/>
</svg>
