<svg width="1200" height="452" viewBox="0 0 1200 452" fill="none" xmlns="http://www.w3.org/2000/svg">
<mask id="mask0_186_180024" style="mask-type:luminance" maskUnits="userSpaceOnUse" x="0" y="0" width="1200" height="452">
<path d="M612.28 858.9V0L0.000244141 0V858.9H612.28Z" fill="white"/>
</mask>
<g mask="url(#mask0_186_180024)">
<mask id="mask1_186_180024" style="mask-type:luminance" maskUnits="userSpaceOnUse" x="0" y="0" width="1200" height="452">
<path d="M612.28 858.9V0L0.000244141 0V858.9H612.28Z" fill="white"/>
</mask>
<g mask="url(#mask1_186_180024)">
<path d="M612.28 858.9V0L0.000244141 0V858.9H612.28Z" fill="url(#paint0_linear_186_180024)"/>
<path style="mix-blend-mode:overlay" opacity="0.52" fill-rule="evenodd" clip-rule="evenodd" d="M312.99 151.84C312.99 151.7 312.99 151.56 312.99 151.42L722.54 146.38C720.54 116.32 722.24 131.34 717.39 101.35L312.86 150.32C312.83 150.19 312.79 150.05 312.76 149.9C312.71 149.76 312.67 149.63 312.62 149.49L707.69 67.19C695.77 38.21 702.4 52.5 687.81 24.33L312.14 148.46C312.06 148.32 311.98 148.2 311.91 148.07C311.82 147.95 311.73 147.82 311.64 147.7L667.21 -6.87C646.29 -32.5 657.34 -19.99 634.09 -44.4L310.85 146.78C310.72 146.68 310.61 146.56 310.48 146.45C310.36 146.35 310.24 146.24 310.11 146.14L604.1 -70.62C575.54 -91.47 590.28 -81.44 559.83 -100.73L309.02 145.4C308.87 145.32 308.73 145.24 308.58 145.15C308.42 145.07 308.26 144.99 308.11 144.92L522.14 -120.52C487.43 -135.43 505.1 -128.47 469.15 -141.44L306.83 144.42C306.65 144.36 306.48 144.31 306.31 144.27C306.13 144.22 305.96 144.17 305.78 144.13L425.88 -153.54C387.39 -161.38 406.77 -158 367.7 -163.72L304.38 143.89C304.2 143.87 304.03 143.84 303.82 143.83C303.65 143.82 303.45 143.81 303.28 143.8L322.18 -167.22C282.45 -167.56 302.3 -167.92 262.81 -166.15L301.81 143.83C301.63 143.84 301.44 143.86 301.25 143.88C301.07 143.91 300.9 143.93 300.71 143.96L217.24 -160.94C178.51 -153.74 197.71 -157.86 159.69 -148.57L299.32 144.25C299.15 144.3 298.97 144.35 298.8 144.41C298.62 144.46 298.45 144.52 298.28 144.58L117.35 -134.89C82.36 -120.62 99.5001 -128.22 65.9301 -112.1L297.03 145.14C296.88 145.23 296.73 145.31 296.58 145.39C296.44 145.48 296.29 145.57 296.15 145.66L29.6001 -90.98C0.430054 -70.63 14.5301 -81.18 -12.6799 -59.32L295.13 146.43C295.01 146.53 294.89 146.64 294.76 146.75C294.66 146.85 294.54 146.97 294.42 147.09L-41.0699 -31.99C-62.7699 -6.69 -52.52 -19.63 -71.8499 6.85001L293.68 148.04C293.6 148.15 293.51 148.29 293.44 148.42C293.37 148.55 293.29 148.68 293.22 148.82L-90.4299 38.83C-103.17 67.54 -97.4799 53.04 -107.5 82.38L292.81 149.87C292.78 150.01 292.74 150.15 292.71 150.29C292.68 150.43 292.66 150.56 292.63 150.71L-114.94 116.69C-117.86 146.79 -108.62 131.5 -108.75 161.69L292.58 151.8C292.58 151.94 292.6 152.08 292.61 152.22C292.63 152.36 292.65 152.51 292.67 152.65L-113.29 196.53C-106.28 226.37 -110.47 211.58 -100.68 240.94L292.98 153.72C293.03 153.85 293.1 153.99 293.16 154.13C293.22 154.25 293.3 154.38 293.36 154.52L-85.3899 273.93C-68.7699 301.46 -77.7 287.94 -58.6199 314.44L294 155.51C294.11 155.63 294.22 155.76 294.3 155.87C294.42 155.98 294.52 156.1 294.63 156.22L-33.0999 343.36C-8.18994 366.74 -21.1799 355.4 5.85005 377.4L295.57 157.05C295.7 157.14 295.84 157.24 295.98 157.33C296.12 157.42 296.26 157.52 296.4 157.61L39.94 400.58C71.76 418.6 55.4701 410.04 88.9001 426.31L297.6 158.23C297.76 158.3 297.93 158.36 298.1 158.44C298.26 158.5 298.43 158.56 298.6 158.62L129.73 442.42C166.7 453.91 147.98 448.67 185.86 458.12L299.96 159.01C300.15 159.06 300.31 159.09 300.49 159.12C300.69 159.15 300.87 159.18 301.05 159.2L230.77 465.97C269.94 470.05 250.25 468.53 289.85 470.5L302.49 159.3C302.67 159.3 302.86 159.3 303.03 159.3C303.23 159.3 303.41 159.28 303.59 159.28L335.58 469.67C375.14 466.24 355.45 468.49 394.62 462.92L305.02 159.12C305.21 159.08 305.38 159.05 305.56 159.01C305.73 158.97 305.91 158.93 306.09 158.89L438.98 453.38C476.14 442.56 457.82 448.47 493.93 435.64L307.42 158.45C307.58 158.39 307.75 158.32 307.91 158.25C308.07 158.18 308.22 158.11 308.38 158.04L533.53 418.09C565.84 400.65 550.12 409.79 580.71 390.68L309.54 157.36C309.68 157.28 309.82 157.17 309.94 157.08C310.08 156.97 310.21 156.87 310.35 156.77L1200.27 366.29C638.92 343.3 626.64 355.13 650.09 330.8L311.22 155.91C311.33 155.79 311.43 155.67 311.53 155.56C311.61 155.44 311.71 155.31 311.8 155.19L673.79 300.9C691.19 273.66 683.13 287.51 697.95 259.32L312.38 154.18C312.44 154.05 312.5 153.91 312.56 153.77C312.59 153.64 312.66 153.5 312.7 153.37L711.08 225.84C718.95 196.22 715.73 211.08 720.77 181.24L312.94 152.29C312.94 152.15 312.97 152.01 312.97 151.85L312.99 151.84Z" fill="url(#paint1_radial_186_180024)"/>
</g>
<g filter="url(#filter0_d_186_180024)">
<path d="M139.931 246.03C117.551 246.03 98.8906 229.25 96.5206 207L85.3806 102.59C84.0706 90.29 88.0606 77.97 96.3206 68.77C104.591 59.57 116.421 54.3 128.791 54.3H483.491C495.861 54.3 507.691 59.57 515.961 68.77C524.231 77.97 528.221 90.29 526.901 102.59L515.761 207C513.391 229.25 494.721 246.03 472.351 246.03H139.931Z" fill="url(#paint2_linear_186_180024)"/>
</g>
<path d="M465.681 234.69C465.681 232.21 467.691 230.19 470.181 230.19C472.661 230.19 474.681 232.21 474.681 234.69C474.681 237.17 472.661 239.19 470.181 239.19C467.691 239.19 465.681 237.17 465.681 234.69ZM140.011 239.19H139.921C137.441 239.19 135.421 237.17 135.421 234.69C135.421 232.21 137.441 230.19 139.921 230.19H140.181C142.661 230.19 144.681 232.21 144.681 234.69C144.681 237.17 142.661 239.19 140.181 239.19H140.011ZM487.281 231.41C485.851 229.38 486.341 226.57 488.371 225.14C490.401 223.71 493.211 224.2 494.641 226.23C496.071 228.26 495.581 231.07 493.551 232.5C492.761 233.05 491.861 233.32 490.961 233.32C489.551 233.32 488.161 232.65 487.281 231.41ZM116.751 231.01C114.821 229.45 114.521 226.61 116.081 224.68C117.641 222.75 120.481 222.45 122.411 224.01C124.341 225.58 124.641 228.41 123.081 230.34C122.191 231.44 120.891 232.01 119.581 232.01C118.581 232.01 117.581 231.68 116.751 231.01ZM502.221 215.56C499.821 214.88 498.431 212.39 499.111 210C499.791 207.61 502.271 206.22 504.671 206.9C507.051 207.57 508.451 210.06 507.771 212.45C507.211 214.43 505.411 215.73 503.441 215.73C503.041 215.73 502.631 215.67 502.221 215.56ZM103.911 210.05C103.391 207.62 104.951 205.23 107.381 204.71C109.811 204.2 112.201 205.75 112.721 208.18C113.231 210.62 111.681 213.01 109.251 213.52C108.931 213.59 108.621 213.62 108.311 213.62C106.231 213.62 104.361 212.17 103.911 210.05ZM505.761 193.9C503.281 193.64 501.491 191.42 501.761 188.95C502.021 186.48 504.241 184.69 506.711 184.95C509.181 185.22 510.971 187.43 510.711 189.9C510.461 192.21 508.511 193.93 506.241 193.93C506.081 193.93 505.921 193.93 505.761 193.9ZM101.331 187.74C101.071 185.27 102.861 183.06 105.331 182.79C107.801 182.53 110.021 184.32 110.281 186.79C110.551 189.26 108.761 191.48 106.291 191.74C106.121 191.76 105.961 191.77 105.801 191.77C103.531 191.77 101.581 190.05 101.331 187.74ZM508.091 172.03C505.621 171.76 503.831 169.54 504.091 167.07C504.361 164.6 506.571 162.81 509.041 163.08C511.511 163.34 513.311 165.56 513.041 168.03C512.791 170.34 510.841 172.05 508.571 172.05C508.411 172.05 508.251 172.05 508.091 172.03ZM99.001 165.87C98.741 163.4 100.531 161.18 103.001 160.91C105.471 160.65 107.691 162.44 107.951 164.91C108.211 167.38 106.421 169.6 103.951 169.87C103.791 169.88 103.631 169.89 103.471 169.89C101.201 169.89 99.251 168.18 99.001 165.87ZM510.421 150.15C507.951 149.89 506.161 147.67 506.421 145.2C506.691 142.73 508.911 140.94 511.381 141.2C513.851 141.46 515.641 143.68 515.371 146.15C515.131 148.46 513.181 150.18 510.901 150.18C510.741 150.18 510.581 150.18 510.421 150.15ZM96.671 143.99C96.411 141.52 98.191 139.3 100.671 139.04C103.141 138.78 105.351 140.57 105.621 143.04C105.881 145.51 104.091 147.72 101.621 147.99C101.461 148.01 101.301 148.02 101.141 148.02C98.871 148.02 96.911 146.3 96.671 143.99ZM512.761 128.27C510.291 128.01 508.491 125.79 508.761 123.32C509.021 120.85 511.241 119.06 513.711 119.32C516.181 119.59 517.971 121.81 517.711 124.28C517.461 126.59 515.511 128.3 513.241 128.3C513.081 128.3 512.921 128.3 512.761 128.27ZM94.341 122.12C94.071 119.64 95.861 117.43 98.331 117.16C100.801 116.9 103.021 118.69 103.281 121.16C103.551 123.63 101.761 125.85 99.291 126.11C99.121 126.13 98.961 126.14 98.801 126.14C96.531 126.14 94.581 124.43 94.341 122.12ZM515.091 106.4C512.621 106.13 510.831 103.92 511.091 101.45C511.361 98.97 513.571 97.19 516.041 97.45C518.521 97.71 520.301 99.93 520.041 102.4C519.791 104.71 517.841 106.42 515.571 106.42C515.411 106.42 515.251 106.42 515.091 106.4ZM92.021 100.01C91.891 97.53 93.781 95.4 96.271 95.27C98.751 95.13 100.871 97.03 101.011 99.51C101.151 101.99 99.251 104.11 96.771 104.25C96.681 104.25 96.601 104.25 96.521 104.25C94.141 104.25 92.161 102.4 92.021 100V100.01ZM507.081 83.23C505.771 81.12 506.411 78.35 508.521 77.03C510.631 75.72 513.411 76.36 514.721 78.47C516.041 80.58 515.391 83.36 513.291 84.67C512.541 85.13 511.721 85.35 510.911 85.35C509.411 85.35 507.941 84.6 507.081 83.23ZM99.951 82.7C97.931 81.25 97.481 78.43 98.931 76.42C100.381 74.4 103.201 73.95 105.211 75.4C107.231 76.86 107.681 79.67 106.231 81.68C105.351 82.9 103.971 83.55 102.571 83.55C101.661 83.55 100.741 83.27 99.951 82.7ZM492.561 71.67C490.211 70.86 488.961 68.3 489.771 65.95C490.581 63.6 493.141 62.35 495.491 63.16C497.841 63.97 499.091 66.53 498.281 68.88C497.641 70.75 495.891 71.91 494.021 71.91C493.541 71.91 493.041 71.83 492.561 71.67ZM115.981 67.96C115.331 65.56 116.741 63.08 119.141 62.43C121.541 61.78 124.011 63.2 124.661 65.59C125.321 67.99 123.901 70.47 121.501 71.12C121.111 71.23 120.711 71.28 120.321 71.28C118.341 71.28 116.531 69.96 115.981 67.96ZM467.721 65.65C467.721 63.16 469.741 61.14 472.221 61.14C474.711 61.14 476.721 63.16 476.721 65.65C476.721 68.13 474.711 70.15 472.221 70.15C469.741 70.15 467.721 68.13 467.721 65.65ZM445.721 65.65C445.721 63.16 447.741 61.14 450.221 61.14C452.711 61.14 454.721 63.16 454.721 65.65C454.721 68.13 452.711 70.15 450.221 70.15C447.741 70.15 445.721 68.13 445.721 65.65ZM423.721 65.65C423.721 63.16 425.741 61.14 428.221 61.14C430.711 61.14 432.721 63.16 432.721 65.65C432.721 68.13 430.711 70.15 428.221 70.15C425.741 70.15 423.721 68.13 423.721 65.65ZM181.721 65.65C181.721 63.16 183.741 61.14 186.221 61.14C188.711 61.14 190.721 63.16 190.721 65.65C190.721 68.13 188.711 70.15 186.221 70.15C183.741 70.15 181.721 68.13 181.721 65.65ZM159.721 65.65C159.721 63.16 161.741 61.14 164.221 61.14C166.711 61.14 168.721 63.16 168.721 65.65C168.721 68.13 166.711 70.15 164.221 70.15C161.741 70.15 159.721 68.13 159.721 65.65ZM137.721 65.65C137.721 63.16 139.741 61.14 142.221 61.14C144.711 61.14 146.721 63.16 146.721 65.65C146.721 68.13 144.711 70.15 142.221 70.15C139.741 70.15 137.721 68.13 137.721 65.65Z" fill="white"/>
<path d="M472.351 223.35H139.931C129.201 223.35 120.211 215.26 119.071 204.59L107.931 100.18C106.611 87.78 116.321 76.97 128.791 76.97H483.491C495.961 76.97 505.671 87.78 504.351 100.18L493.211 204.59C492.071 215.26 483.071 223.35 472.351 223.35Z" fill="url(#paint3_linear_186_180024)"/>
<g filter="url(#filter1_d_186_180024)">
<path d="M424.61 252.51H187.67C180.75 252.51 174.59 246.88 173.88 239.87L171.87 219.78C171.14 212.48 176.34 206.5 183.5 206.5H428.76C435.92 206.5 441.12 212.48 440.39 219.78L438.38 239.87C437.68 246.88 431.51 252.51 424.59 252.51H424.61Z" fill="url(#paint4_linear_186_180024)"/>
</g>
<path d="M560.021 84.5C578.522 84.5 593.521 69.5015 593.521 51C593.521 32.4985 578.522 17.5 560.021 17.5C541.519 17.5 526.521 32.4985 526.521 51C526.521 69.5015 541.519 84.5 560.021 84.5Z" fill="url(#paint5_linear_186_180024)"/>
<path d="M560.02 79.78C575.915 79.78 588.8 66.8947 588.8 51C588.8 35.1052 575.915 22.22 560.02 22.22C544.126 22.22 531.24 35.1052 531.24 51C531.24 66.8947 544.126 79.78 560.02 79.78Z" fill="url(#paint6_linear_186_180024)"/>
<path d="M553.118 59.4391V56.213L553.925 56.6886C553.842 56.6886 553.753 56.6955 553.656 56.7093C553.573 56.7093 553.491 56.7093 553.408 56.7093C552.801 56.7093 552.098 56.6404 551.299 56.5025C550.499 56.3508 549.727 56.1303 548.982 55.8407L549.024 51.9115H550.802L551.154 54.0002C551.54 54.1794 551.94 54.3104 552.353 54.3931C552.781 54.4759 553.194 54.5172 553.594 54.5172C554.104 54.5172 554.559 54.4483 554.959 54.3104C555.359 54.1726 555.683 53.9658 555.931 53.69C556.179 53.4005 556.303 53.0489 556.303 52.6353C556.303 52.1942 556.172 51.8426 555.91 51.5807C555.648 51.3049 555.297 51.0843 554.855 50.9189C554.428 50.7535 553.952 50.6018 553.429 50.4639C552.905 50.3123 552.381 50.1468 551.857 49.9676C551.347 49.7884 550.871 49.5609 550.43 49.2852C550.003 48.9957 549.658 48.6234 549.396 48.1685C549.134 47.6997 549.003 47.1138 549.003 46.4107C549.003 45.487 549.224 44.7218 549.665 44.1152C550.12 43.4948 550.733 43.026 551.505 42.7089C552.277 42.3918 553.139 42.2264 554.09 42.2126L553.118 42.771V39.5656H555.124V42.7503L554.318 42.2126H554.525C554.911 42.2126 555.359 42.2609 555.869 42.3574C556.393 42.4401 556.903 42.5504 557.399 42.6883C557.909 42.8261 558.35 42.9709 558.723 43.1225L558.516 46.7209H556.758L556.365 44.7356C556.062 44.6253 555.738 44.5426 555.393 44.4874C555.062 44.4185 554.725 44.384 554.38 44.384C553.939 44.384 553.525 44.4461 553.139 44.5701C552.753 44.6804 552.443 44.4527 552.208 45.1078C551.974 45.3422 551.857 45.6662 551.857 46.0798C551.857 46.4796 551.988 46.8105 552.25 47.0724C552.526 47.3206 552.877 47.5343 553.304 47.7135C553.746 47.8789 554.228 48.0375 554.752 48.1891C555.276 48.327 555.8 48.4924 556.324 48.6855C556.848 48.8647 557.323 49.106 557.751 49.4093C558.192 49.6988 558.543 50.0779 558.805 50.5467C559.067 51.0016 559.198 51.5807 559.198 52.2838C559.198 53.2075 558.971 53.9864 558.516 54.6206C558.075 55.241 557.468 55.7236 556.696 56.0682C555.938 56.4129 555.09 56.6197 554.152 56.6886L555.124 56.0682V59.4391H553.118ZM565.514 56.9575C564.012 56.9575 562.454 56.5921 560.841 55.8614L561.647 53.7934C562.226 54.0554 562.812 54.2622 563.405 54.4138C563.998 54.5655 564.549 54.6413 565.059 54.6413C565.597 54.6413 566.073 54.5517 566.486 54.3725C566.9 54.1794 567.217 53.9037 567.438 53.5453C567.672 53.1868 567.789 52.7456 567.789 52.2217C567.789 51.5738 567.603 51.0912 567.231 50.7741C566.872 50.4433 566.348 50.2227 565.659 50.1124C564.984 49.9883 564.156 49.9263 563.178 49.9263H561.709L561.999 42.1713H570.25L570.209 44.4461H564.087L564.915 43.9291L564.687 48.3959L563.922 47.7755H565.163C566.542 47.7755 567.651 47.9479 568.492 48.2925C569.333 48.6372 569.94 49.1335 570.312 49.7815C570.698 50.4157 570.891 51.174 570.891 52.0563C570.891 53.1317 570.657 54.0347 570.188 54.7654C569.733 55.4823 569.099 56.0269 568.286 56.3991C567.472 56.7713 566.548 56.9575 565.514 56.9575Z" fill="white"/>
<g filter="url(#filter2_d_186_180024)">
<path d="M520.31 799.99V631.67C520.31 621.447 512.022 1200.16 501.8 1200.16H110.48C100.257 1200.16 91.9695 621.447 91.9695 631.67V799.99C91.9695 810.213 100.257 818.5 110.48 818.5H501.8C512.022 818.5 520.31 810.213 520.31 799.99Z" fill="url(#paint7_linear_186_180024)"/>
<path d="M501.02 617.38H111.26C103.738 617.38 97.6396 623.478 97.6396 631V800.67C97.6396 808.192 103.738 814.29 111.26 814.29H501.02C508.542 814.29 514.64 808.192 514.64 800.67V631C514.64 623.478 508.542 617.38 501.02 617.38Z" fill="url(#paint8_linear_186_180024)"/>
</g>
<g filter="url(#filter3_d_186_180024)">
<path d="M159.16 634.09L168.549 650.8L187.349 654.56L174.349 668.66L176.579 687.7L159.16 679.69L141.739 687.7L143.979 668.66L130.979 654.56L149.779 650.8L159.16 634.09Z" fill="url(#paint9_linear_186_180024)"/>
<g style="mix-blend-mode:multiply">
<path d="M157.46 674.21V670.88L158.63 671.54H158.12C157.52 671.54 156.78 671.47 155.88 671.33C154.98 671.19 154.12 670.96 153.28 670.65V666.06H155.88L156.31 667.96C156.64 668.1 156.98 668.21 157.35 668.28C157.71 668.35 158.07 668.39 158.41 668.39C158.78 668.39 159.11 668.35 159.39 668.26C159.67 668.17 159.9 668.04 160.07 667.85C160.24 667.67 160.33 667.43 160.33 667.15C160.33 666.78 160.2 666.49 159.95 666.27C159.69 666.06 159.35 665.89 158.93 665.76C158.5 665.63 158.03 665.51 157.52 665.39C157.01 665.27 156.5 665.12 155.98 664.94C155.47 664.76 155 664.52 154.57 664.22C154.14 663.92 153.8 663.52 153.55 663.02C153.29 662.52 153.17 661.9 153.17 661.14C153.17 660.09 153.42 659.21 153.93 658.51C154.43 657.81 155.12 657.29 155.99 656.93C156.86 656.57 157.83 656.4 158.91 656.4L157.48 657.15V653.76H160.36V657.13L159.23 656.4H159.38C159.78 656.4 160.27 656.45 160.85 656.56C161.43 656.67 162.01 656.79 162.59 656.94C163.17 657.09 163.64 657.24 164.01 657.38L163.73 661.5H161.17L160.68 659.75C160.44 659.68 160.19 659.63 159.94 659.6C159.69 659.57 159.45 659.56 159.2 659.56C158.86 659.56 158.55 659.6 158.27 659.67C157.99 659.74 157.77 659.86 157.61 660.01C157.45 660.17 157.36 660.38 157.36 660.65C157.36 660.98 157.49 661.24 157.76 661.44C158.02 661.64 158.37 661.81 158.79 661.94C159.22 662.08 159.69 662.21 160.21 662.33C160.73 662.46 161.25 662.61 161.76 662.8C162.27 662.99 162.74 663.23 163.17 663.55C163.6 663.86 163.94 664.27 164.21 664.76C164.47 665.25 164.6 665.87 164.6 666.63C164.6 667.65 164.35 668.52 163.85 669.21C163.35 669.91 162.68 670.45 161.82 670.83C160.97 671.21 160.01 671.44 158.94 671.51L160.35 670.68V674.2H157.47L157.46 674.21Z" fill="#D69731"/>
</g>
<path d="M450.999 634.09L460.389 650.8L479.189 654.56L466.189 668.66L468.419 687.7L450.999 679.69L433.579 687.7L435.809 668.66L422.819 654.56L441.619 650.8L450.999 634.09Z" fill="url(#paint10_linear_186_180024)"/>
<g style="mix-blend-mode:multiply">
<path d="M449.289 674.21V670.88L450.459 671.54H449.949C449.349 671.54 448.609 671.47 447.709 671.33C446.809 671.19 445.949 670.96 445.109 670.65V666.06H447.709L448.139 667.96C448.469 668.1 448.809 668.21 449.179 668.28C449.539 668.35 449.899 668.39 450.239 668.39C450.609 668.39 450.939 668.35 451.219 668.26C451.499 668.17 451.729 668.04 451.899 667.85C452.069 667.67 452.159 667.43 452.159 667.15C452.159 666.78 452.029 666.49 451.779 666.27C451.519 666.06 451.179 665.89 450.759 665.76C450.329 665.63 449.452 665.51 449.349 665.39C448.839 665.27 448.329 665.12 447.809 664.94C447.299 664.76 446.829 664.52 446.399 664.22C445.969 663.92 445.629 663.52 445.379 663.02C445.119 662.52 444.999 661.9 444.999 661.14C444.999 660.09 445.249 659.21 445.759 658.51C446.259 657.81 446.949 657.29 447.819 656.93C448.689 656.57 449.659 656.4 450.739 656.4L449.309 657.15V653.76H452.189V657.13L451.059 656.4H451.209C451.609 656.4 452.099 656.45 452.679 656.56C453.259 656.67 453.839 656.79 454.419 656.94C454.999 657.09 455.469 657.24 455.839 657.38L455.559 661.5H452.999L452.509 659.75C452.269 659.68 452.019 659.63 451.769 659.6C451.519 659.57 451.279 659.56 451.029 659.56C450.689 659.56 450.379 659.6 450.099 659.67C449.819 659.74 449.599 659.86 449.439 660.01C449.279 660.17 449.189 660.38 449.189 660.65C449.189 660.98 449.319 661.24 449.589 661.44C449.849 661.64 450.199 661.81 450.629 661.94C451.059 662.08 451.529 662.21 452.049 662.33C452.569 662.46 453.089 662.61 453.599 662.8C454.109 662.99 454.579 663.23 455.009 663.55C455.439 663.86 455.779 664.27 456.049 664.76C456.309 665.25 456.439 665.87 456.439 666.63C456.439 667.65 456.189 668.52 455.689 669.21C455.189 669.91 454.519 670.45 453.659 670.83C452.809 671.21 451.849 671.44 450.779 671.51L452.189 670.68V674.2H449.309L449.289 674.21Z" fill="#D69731"/>
</g>
<path d="M232.119 634.09L241.509 650.8L260.309 654.56L247.309 668.66L249.539 687.7L232.119 679.69L214.699 687.7L216.939 668.66L203.939 654.56L222.739 650.8L232.119 634.09Z" fill="url(#paint11_linear_186_180024)"/>
<g style="mix-blend-mode:multiply">
<path d="M230.409 674.21V670.88L231.579 671.54H231.069C230.469 671.54 229.729 671.47 228.829 671.33C227.929 671.19 227.069 670.96 226.229 670.65V666.06H228.829L229.259 667.96C229.589 668.1 229.929 668.21 230.299 668.28C230.659 668.35 231.019 668.39 231.359 668.39C231.729 668.39 232.059 668.35 232.339 668.26C232.619 668.17 232.849 668.04 233.019 667.85C233.189 667.67 233.279 667.43 233.279 667.15C233.279 666.78 233.149 666.49 232.899 666.27C232.649 666.05 232.299 665.89 231.879 665.76C231.449 665.63 230.979 665.51 230.469 665.39C229.959 665.27 229.449 665.12 228.929 664.94C228.419 664.76 227.949 664.52 227.519 664.22C227.089 663.92 226.749 663.52 226.499 663.02C226.239 662.52 226.119 661.9 226.119 661.14C226.119 660.09 226.369 659.21 226.879 658.51C227.379 657.81 228.069 657.29 228.939 656.93C229.809 656.57 230.779 656.4 231.452 656.4L230.429 657.15V653.76H233.309V657.13L232.179 656.4H232.329C232.729 656.4 233.219 656.45 233.799 656.56C234.379 656.67 234.959 656.79 235.539 656.94C236.119 657.09 236.589 657.24 236.959 657.38L236.679 661.5H234.119L233.629 659.75C233.389 659.68 233.139 659.63 232.889 659.6C232.639 659.57 232.399 659.56 232.149 659.56C231.809 659.56 231.499 659.6 231.219 659.67C230.939 659.74 230.719 659.86 230.559 660.01C230.399 660.17 230.309 660.38 230.309 660.65C230.309 660.98 230.439 661.24 230.709 661.44C230.969 661.64 231.319 661.81 231.749 661.94C232.179 662.08 232.649 662.21 233.169 662.33C233.689 662.46 234.209 662.61 234.719 662.8C235.229 662.99 235.699 663.23 236.129 663.55C236.559 663.87 236.899 664.27 237.169 664.76C237.429 665.25 237.559 665.87 237.559 666.63C237.559 667.65 237.309 668.52 236.809 669.21C236.309 669.91 235.639 670.45 234.779 670.83C233.929 671.21 232.969 671.44 231.899 671.51L233.309 670.68V674.2H230.429L230.409 674.21Z" fill="#D69731"/>
</g>
<path d="M305.079 634.09L314.469 650.8L333.269 654.56L320.269 668.66L322.499 687.7L305.079 679.69L287.659 687.7L289.899 668.66L276.899 654.56L295.699 650.8L305.079 634.09Z" fill="url(#paint12_linear_186_180024)"/>
<g style="mix-blend-mode:multiply">
<path d="M303.369 674.21V670.88L304.539 671.54H304.029C303.429 671.54 302.689 671.47 301.789 671.33C300.889 671.19 300.029 670.96 299.189 670.65V666.06H301.789L302.219 667.96C302.549 668.1 302.889 668.21 303.259 668.28C303.619 668.35 303.979 668.39 304.319 668.39C304.689 668.39 305.019 668.35 305.299 668.26C305.579 668.17 305.809 668.04 305.979 667.85C306.149 667.67 306.239 667.43 306.239 667.15C306.239 666.78 306.109 666.49 305.452 666.27C305.599 666.06 305.259 665.89 304.839 665.76C304.409 665.63 303.939 665.51 303.429 665.39C302.919 665.27 302.409 665.12 301.889 664.94C301.379 664.76 300.909 664.52 300.479 664.22C300.049 663.92 299.709 663.52 299.459 663.02C299.199 662.52 299.079 661.9 299.079 661.14C299.079 660.09 299.329 659.21 299.839 658.51C300.339 657.81 301.029 657.29 301.899 656.93C302.769 656.57 303.739 656.4 304.819 656.4L303.389 657.15V653.76H306.269V657.13L305.139 656.4H305.289C305.689 656.4 306.179 656.45 306.759 656.56C307.339 656.67 307.919 656.79 308.499 656.94C309.079 657.09 309.549 657.24 309.919 657.38L309.639 661.5H307.079L306.589 659.75C306.349 659.68 306.099 659.63 305.849 659.6C305.599 659.57 305.359 659.56 305.109 659.56C304.769 659.56 304.459 659.6 304.179 659.67C303.899 659.74 303.679 659.86 303.519 660.01C303.359 660.17 303.269 660.38 303.269 660.65C303.269 660.98 303.399 661.24 303.669 661.44C303.929 661.64 304.279 661.81 304.709 661.94C305.139 662.08 305.609 662.21 306.129 662.33C306.649 662.46 307.169 662.61 307.679 662.8C308.189 662.99 308.659 663.23 309.089 663.55C309.519 663.86 309.452 664.27 310.129 664.76C310.389 665.25 310.519 665.87 310.519 666.63C310.519 667.65 310.269 668.52 309.769 669.21C309.269 669.91 308.599 670.45 307.739 670.83C306.889 671.21 305.929 671.44 304.452 671.51L306.269 670.68V674.2H303.389L303.369 674.21Z" fill="#D69731"/>
</g>
<path d="M378.039 634.09L387.429 650.8L406.229 654.56L393.229 668.66L395.459 687.7L378.039 679.69L360.619 687.7L362.452 668.66L349.452 654.56L368.659 650.8L378.039 634.09Z" fill="url(#paint13_linear_186_180024)"/>
<g style="mix-blend-mode:multiply">
<path d="M376.329 674.21V670.88L377.499 671.54H376.989C376.389 671.54 375.649 671.47 374.749 671.33C373.849 671.19 372.989 670.96 372.149 670.65V666.06H374.749L375.179 667.96C375.509 668.1 375.849 668.21 376.219 668.28C376.579 668.35 376.939 668.39 377.279 668.39C377.649 668.39 377.979 668.35 378.259 668.26C378.539 668.17 378.769 668.04 378.939 667.85C379.109 667.67 379.199 667.43 379.199 667.15C379.199 666.78 379.069 666.49 378.819 666.27C378.559 666.06 378.219 665.89 377.799 665.76C377.369 665.63 376.899 665.51 376.389 665.39C375.879 665.27 375.369 665.12 374.849 664.94C374.339 664.76 373.869 664.52 373.439 664.22C373.009 663.92 372.669 663.52 372.419 663.02C372.159 662.52 372.039 661.9 372.039 661.14C372.039 660.09 372.289 659.21 372.799 658.51C373.299 657.81 373.989 657.29 374.452 656.93C375.729 656.57 376.699 656.4 377.779 656.4L376.349 657.15V653.76H379.229V657.13L378.099 656.4H378.249C378.649 656.4 379.139 656.45 379.719 656.56C380.299 656.67 380.879 656.79 381.459 656.94C382.039 657.09 382.509 657.24 382.879 657.38L382.599 661.5H380.039L379.549 659.75C379.309 659.68 379.059 659.63 378.809 659.6C378.559 659.57 378.319 659.56 378.069 659.56C377.729 659.56 377.419 659.6 377.139 659.67C376.452 659.74 376.639 659.86 376.479 660.01C376.319 660.17 376.229 660.38 376.229 660.65C376.229 660.98 376.359 661.24 376.629 661.44C376.889 661.64 377.239 661.81 377.669 661.94C378.099 662.08 378.569 662.21 379.089 662.33C379.609 662.46 380.129 662.61 380.639 662.8C381.149 662.99 381.619 663.23 382.049 663.55C382.479 663.87 382.819 664.27 383.089 664.76C383.349 665.25 383.479 665.87 383.479 666.63C383.479 667.65 383.229 668.52 382.729 669.21C382.229 669.91 381.559 670.45 380.699 670.83C379.849 671.21 378.889 671.44 377.819 671.51L379.229 670.68V674.2H376.349L376.329 674.21Z" fill="#D69731"/>
</g>
<path d="M159.16 700.71L168.549 717.43L187.349 721.19L174.349 735.28L176.579 754.32L159.16 746.32L141.739 754.32L143.979 735.28L130.979 721.19L149.779 717.43L159.16 700.71Z" fill="url(#paint14_linear_186_180024)"/>
<g style="mix-blend-mode:multiply">
<path d="M157.46 740.84V737.51L158.63 738.17H158.12C157.52 738.17 156.78 738.1 155.88 737.96C154.98 737.82 154.12 737.59 153.28 737.28V732.69H155.88L156.31 734.59C156.64 734.73 156.98 734.84 157.35 734.91C157.71 734.98 158.07 735.02 158.41 735.02C158.78 735.02 159.11 734.98 159.39 734.89C159.67 734.8 159.9 734.67 160.07 734.48C160.24 734.3 160.33 734.06 160.33 733.78C160.33 733.41 160.2 733.12 159.95 732.9C159.69 732.69 159.35 732.52 158.93 732.39C158.5 732.26 158.03 732.14 157.52 732.02C157.01 731.9 156.5 731.75 155.98 731.57C155.47 731.39 155 731.15 154.57 730.85C154.14 730.55 153.8 730.15 153.55 729.65C153.29 729.15 153.17 728.53 153.17 727.77C153.17 726.72 153.42 725.84 153.93 725.14C154.43 724.44 155.12 723.92 155.99 723.56C156.86 723.2 157.83 723.03 158.91 723.03L157.48 723.78V720.39H160.36V723.76L159.23 723.03H159.38C159.78 723.03 160.27 723.08 160.85 723.19C161.43 723.3 162.01 723.42 162.59 723.57C163.17 723.72 163.64 723.87 164.01 724.01L163.73 728.13H161.17L160.68 726.38C160.44 726.31 160.19 726.26 159.94 726.23C159.69 726.2 159.45 726.19 159.2 726.19C158.86 726.19 158.55 726.23 158.27 726.3C157.99 726.37 157.77 726.49 157.61 726.64C157.45 726.8 157.36 727.01 157.36 727.28C157.36 727.61 157.49 727.87 157.76 728.07C158.02 728.27 158.37 728.44 158.79 728.57C159.22 728.71 159.69 728.84 160.21 728.96C160.73 729.09 161.25 729.24 161.76 729.43C162.27 729.61 162.74 729.86 163.17 730.18C163.6 730.49 163.94 730.9 164.21 731.39C164.47 731.88 164.6 732.5 164.6 733.26C164.6 734.28 164.35 735.15 163.85 735.84C163.35 736.54 162.68 737.08 161.82 737.46C160.97 737.84 160.01 738.07 158.94 738.14L160.35 737.31V740.83H157.47L157.46 740.84Z" fill="#D69731"/>
</g>
<path d="M450.999 700.71L460.389 717.43L479.189 721.19L466.189 735.28L468.419 754.32L450.999 746.32L433.579 754.32L435.809 735.28L422.819 721.19L441.619 717.43L450.999 700.71Z" fill="url(#paint15_linear_186_180024)"/>
<g style="mix-blend-mode:multiply">
<path d="M449.289 740.84V737.51L450.459 738.17H449.949C449.349 738.17 448.609 738.1 447.709 737.96C446.809 737.82 445.949 737.59 445.109 737.28V732.69H447.709L448.139 734.59C448.469 734.73 448.809 734.84 449.179 734.91C449.539 734.98 449.899 735.02 450.239 735.02C450.609 735.02 450.939 734.98 451.219 734.89C451.499 734.8 451.729 734.67 451.899 734.48C452.069 734.3 452.159 734.06 452.159 733.78C452.159 733.41 452.029 733.12 451.779 732.9C451.519 732.69 451.179 732.52 450.759 732.39C450.329 732.26 449.452 732.14 449.349 732.02C448.839 731.9 448.329 731.75 447.809 731.57C447.299 731.39 446.829 731.15 446.399 730.85C445.969 730.55 445.629 730.15 445.379 729.65C445.119 729.15 444.999 728.53 444.999 727.77C444.999 726.72 445.249 725.84 445.759 725.14C446.259 724.44 446.949 723.92 447.819 723.56C448.689 723.2 449.659 723.03 450.739 723.03L449.309 723.78V720.39H452.189V723.76L451.059 723.03H451.209C451.609 723.03 452.099 723.08 452.679 723.19C453.259 723.3 453.839 723.42 454.419 723.57C454.999 723.72 455.469 723.87 455.839 724.01L455.559 728.13H452.999L452.509 726.38C452.269 726.31 452.019 726.26 451.769 726.23C451.519 726.2 451.279 726.19 451.029 726.19C450.689 726.19 450.379 726.23 450.099 726.3C449.819 726.37 449.599 726.49 449.439 726.64C449.279 726.8 449.189 727.01 449.189 727.28C449.189 727.61 449.319 727.87 449.589 728.07C449.849 728.27 450.199 728.44 450.629 728.57C451.059 728.71 451.529 728.84 452.049 728.96C452.569 729.09 453.089 729.24 453.599 729.43C454.109 729.61 454.579 729.86 455.009 730.18C455.439 730.49 455.779 730.9 456.049 731.39C456.309 731.88 456.439 732.5 456.439 733.26C456.439 734.28 456.189 735.15 455.689 735.84C455.189 736.54 454.519 737.08 453.659 737.46C452.809 737.84 451.849 738.07 450.779 738.14L452.189 737.31V740.83H449.309L449.289 740.84Z" fill="#D69731"/>
</g>
<path d="M232.119 700.71L241.509 717.43L260.309 721.19L247.309 735.28L249.539 754.32L232.119 746.32L214.699 754.32L216.939 735.28L203.939 721.19L222.739 717.43L232.119 700.71Z" fill="url(#paint16_linear_186_180024)"/>
<g style="mix-blend-mode:multiply">
<path d="M230.409 740.84V737.51L231.579 738.17H231.069C230.469 738.17 229.729 738.1 228.829 737.96C227.929 737.82 227.069 737.59 226.229 737.28V732.69H228.829L229.259 734.59C229.589 734.73 229.929 734.84 230.299 734.91C230.659 734.98 231.019 735.02 231.359 735.02C231.729 735.02 232.059 734.98 232.339 734.89C232.619 734.8 232.849 734.67 233.019 734.48C233.189 734.3 233.279 734.06 233.279 733.78C233.279 733.41 233.149 733.12 232.899 732.9C232.649 732.68 232.299 732.52 231.879 732.39C231.449 732.26 230.979 732.14 230.469 732.02C229.959 731.9 229.449 731.75 228.929 731.57C228.419 731.39 227.949 731.15 227.519 730.85C227.089 730.55 226.749 730.15 226.499 729.65C226.239 729.15 226.119 728.53 226.119 727.77C226.119 726.72 226.369 725.84 226.879 725.14C227.379 724.44 228.069 723.92 228.939 723.56C229.809 723.2 230.779 723.03 231.452 723.03L230.429 723.78V720.39H233.309V723.76L232.179 723.03H232.329C232.729 723.03 233.219 723.08 233.799 723.19C234.379 723.3 234.959 723.42 235.539 723.57C236.119 723.72 236.589 723.87 236.959 724.01L236.679 728.13H234.119L233.629 726.38C233.389 726.31 233.139 726.26 232.889 726.23C232.639 726.2 232.399 726.19 232.149 726.19C231.809 726.19 231.499 726.23 231.219 726.3C230.939 726.37 230.719 726.49 230.559 726.64C230.399 726.8 230.309 727.01 230.309 727.28C230.309 727.61 230.439 727.87 230.709 728.07C230.969 728.27 231.319 728.44 231.749 728.57C232.179 728.71 232.649 728.84 233.169 728.96C233.689 729.09 234.209 729.24 234.719 729.43C235.229 729.61 235.699 729.86 236.129 730.18C236.559 730.5 236.899 730.9 237.169 731.39C237.429 731.88 237.559 732.5 237.559 733.26C237.559 734.28 237.309 735.15 236.809 735.84C236.309 736.54 235.639 737.08 234.779 737.46C233.929 737.84 232.969 738.07 231.899 738.14L233.309 737.31V740.83H230.429L230.409 740.84Z" fill="#D69731"/>
</g>
<path d="M305.079 700.71L314.469 717.43L333.269 721.19L320.269 735.28L322.499 754.32L305.079 746.32L287.659 754.32L289.899 735.28L276.899 721.19L295.699 717.43L305.079 700.71Z" fill="url(#paint17_linear_186_180024)"/>
<g style="mix-blend-mode:multiply">
<path d="M303.369 740.84V737.51L304.539 738.17H304.029C303.429 738.17 302.689 738.1 301.789 737.96C300.889 737.82 300.029 737.59 299.189 737.28V732.69H301.789L302.219 734.59C302.549 734.73 302.889 734.84 303.259 734.91C303.619 734.98 303.979 735.02 304.319 735.02C304.689 735.02 305.019 734.98 305.299 734.89C305.579 734.8 305.809 734.67 305.979 734.48C306.149 734.3 306.239 734.06 306.239 733.78C306.239 733.41 306.109 733.12 305.452 732.9C305.599 732.69 305.259 732.52 304.839 732.39C304.409 732.26 303.939 732.14 303.429 732.02C302.919 731.9 302.409 731.75 301.889 731.57C301.379 731.39 300.909 731.15 300.479 730.85C300.049 730.55 299.709 730.15 299.459 729.65C299.199 729.15 299.079 728.53 299.079 727.77C299.079 726.72 299.329 725.84 299.839 725.14C300.339 724.44 301.029 723.92 301.899 723.56C302.769 723.2 303.739 723.03 304.819 723.03L303.389 723.78V720.39H306.269V723.76L305.139 723.03H305.289C305.689 723.03 306.179 723.08 306.759 723.19C307.339 723.3 307.919 723.42 308.499 723.57C309.079 723.72 309.549 723.87 309.919 724.01L309.639 728.13H307.079L306.589 726.38C306.349 726.31 306.099 726.26 305.849 726.23C305.599 726.2 305.359 726.19 305.109 726.19C304.769 726.19 304.459 726.23 304.179 726.3C303.899 726.37 303.679 726.49 303.519 726.64C303.359 726.8 303.269 727.01 303.269 727.28C303.269 727.61 303.399 727.87 303.669 728.07C303.929 728.27 304.279 728.44 304.709 728.57C305.139 728.71 305.609 728.84 306.129 728.96C306.649 729.09 307.169 729.24 307.679 729.43C308.189 729.61 308.659 729.86 309.089 730.18C309.519 730.49 309.452 730.9 310.129 731.39C310.389 731.88 310.519 732.5 310.519 733.26C310.519 734.28 310.269 735.15 309.769 735.84C309.269 736.54 308.599 737.08 307.739 737.46C306.889 737.84 305.929 738.07 304.452 738.14L306.269 737.31V740.83H303.389L303.369 740.84Z" fill="#D69731"/>
</g>
<path d="M378.039 700.71L387.429 717.43L406.229 721.19L393.229 735.28L395.459 754.32L378.039 746.32L360.619 754.32L362.452 735.28L349.452 721.19L368.659 717.43L378.039 700.71Z" fill="url(#paint18_linear_186_180024)"/>
<g style="mix-blend-mode:multiply">
<path d="M376.329 740.84V737.51L377.499 738.17H376.989C376.389 738.17 375.649 738.1 374.749 737.96C373.849 737.82 372.989 737.59 372.149 737.28V732.69H374.749L375.179 734.59C375.509 734.73 375.849 734.84 376.219 734.91C376.579 734.98 376.939 735.02 377.279 735.02C377.649 735.02 377.979 734.98 378.259 734.89C378.539 734.8 378.769 734.67 378.939 734.48C379.109 734.3 379.199 734.06 379.199 733.78C379.199 733.41 379.069 733.12 378.819 732.9C378.559 732.69 378.219 732.52 377.799 732.39C377.369 732.26 376.899 732.14 376.389 732.02C375.879 731.9 375.369 731.75 374.849 731.57C374.339 731.39 373.869 731.15 373.439 730.85C373.009 730.55 372.669 730.15 372.419 729.65C372.159 729.15 372.039 728.53 372.039 727.77C372.039 726.72 372.289 725.84 372.799 725.14C373.299 724.44 373.989 723.92 374.452 723.56C375.729 723.2 376.699 723.03 377.779 723.03L376.349 723.78V720.39H379.229V723.76L378.099 723.03H378.249C378.649 723.03 379.139 723.08 379.719 723.19C380.299 723.3 380.879 723.42 381.459 723.57C382.039 723.72 382.509 723.87 382.879 724.01L382.599 728.13H380.039L379.549 726.38C379.309 726.31 379.059 726.26 378.809 726.23C378.559 726.2 378.319 726.19 378.069 726.19C377.729 726.19 377.419 726.23 377.139 726.3C376.452 726.37 376.639 726.49 376.479 726.64C376.319 726.8 376.229 727.01 376.229 727.28C376.229 727.61 376.359 727.87 376.629 728.07C376.889 728.27 377.239 728.44 377.669 728.57C378.099 728.71 378.569 728.84 379.089 728.96C379.609 729.09 380.129 729.24 380.639 729.43C381.149 729.61 381.619 729.86 382.049 730.18C382.479 730.5 382.819 730.9 383.089 731.39C383.349 731.88 383.479 732.5 383.479 733.26C383.479 734.28 383.229 735.15 382.729 735.84C382.229 736.54 381.559 737.08 380.699 737.46C379.849 737.84 378.889 738.07 377.819 738.14L379.229 737.31V740.83H376.349L376.329 740.84Z" fill="#D69731"/>
</g>
</g>
<g filter="url(#filter4_d_186_180024)">
<path d="M421.37 773.83H190.33C182.333 773.83 175.85 780.313 175.85 788.31V814.68C175.85 822.677 182.333 829.16 190.33 829.16H421.37C429.367 829.16 435.85 822.677 435.85 814.68V788.31C435.85 780.313 429.367 773.83 421.37 773.83Z" fill="url(#paint19_linear_186_180024)"/>
</g>
<path style="mix-blend-mode:color-dodge" opacity="0.83" d="M407.189 801.17C454.134 801.17 492.189 790.425 492.189 777.17C492.189 763.915 454.134 753.17 407.189 753.17C360.245 753.17 322.189 763.915 322.189 777.17C322.189 790.425 360.245 801.17 407.189 801.17Z" fill="url(#paint20_radial_186_180024)"/>
<path style="mix-blend-mode:color-dodge" opacity="0.83" d="M440.189 638.17C487.134 638.17 525.189 627.425 525.189 614.17C525.189 600.915 487.134 590.17 440.189 590.17C393.245 590.17 355.189 600.915 355.189 614.17C355.189 627.425 393.245 638.17 440.189 638.17Z" fill="url(#paint21_radial_186_180024)"/>
<g filter="url(#filter5_d_186_180024)">
<path d="M-36.0808 761.89C-36.2408 761.5 -39.0908 754.79 -39.0908 754.79L-36.9208 755.87C-35.7908 743.95 -19.9308 728.87 2.55918 719.53C23.5592 710.81 44.0292 709.71 54.1692 715.8L56.6692 714.53L59.8292 722.04C64.9792 734.43 47.6792 753.4 21.1892 764.4C-5.30082 775.4 -30.9408 774.28 -36.0908 761.89H-36.0808Z" fill="url(#paint22_radial_186_180024)"/>
<path d="M56.5195 714.21C51.3695 701.82 25.7295 700.69 -0.760464 711.7C-27.2505 722.7 -44.5505 741.67 -39.4005 754.06C-34.2505 766.45 -8.61046 767.58 17.8795 756.57C44.3695 745.57 61.6695 726.6 56.5195 714.21Z" fill="url(#paint23_linear_186_180024)"/>
<path d="M3.08966 720.96C18.6397 714.5 33.6897 715.16 36.7097 722.43C39.7297 729.7 29.5797 740.83 14.0297 747.29C-1.52034 753.75 -16.5703 753.09 -19.5903 745.81C-22.6103 738.54 -12.4603 727.41 3.08966 720.95V720.96Z" fill="white"/>
<path d="M0.92012 715.76C-2.09988 717.01 -4.95988 718.39 -7.65988 719.86L-9.37988 715.71C-6.63988 714.28 -3.75988 712.94 -0.769882 711.69C2.38012 710.38 5.52012 709.25 8.62012 708.28L10.3501 712.44C7.26012 713.34 4.10012 714.44 0.92012 715.76Z" fill="white"/>
<path d="M21.3594 710.09L26.4594 704.5C32.1994 703.9 37.4494 704.02 41.9494 704.83L36.9194 710.34C32.5594 709.39 27.2294 709.3 21.3594 710.08V710.09Z" fill="white"/>
<path d="M16.1895 752.5C19.3595 751.18 22.3695 749.72 25.1895 748.16L26.9195 752.32C24.0495 753.83 21.0295 755.25 17.8795 756.56C14.8795 757.8 11.8995 758.89 8.94949 759.83L7.22949 755.68C10.1795 754.81 13.1795 753.75 16.1895 752.5Z" fill="white"/>
<path d="M46.5698 728.84L54.1398 729.17C51.9098 732.91 48.6198 736.73 44.4498 740.43L37.0098 740.1C41.3498 736.42 44.6398 732.56 46.5798 728.84H46.5698Z" fill="white"/>
<path d="M47.8293 717.82C47.0693 716 45.7793 714.48 44.0293 713.26L53.0193 709.52C54.5793 710.84 55.7593 712.41 56.5093 714.21C56.9593 715.29 57.2293 716.42 57.3493 717.58L48.5593 721.23C48.5193 720.04 48.2793 718.89 47.8293 717.81V717.82Z" fill="white"/>
<path d="M56.6497 714.54L56.6797 714.52L59.8397 722.03C60.2897 723.11 60.5597 724.24 60.6797 725.41L57.3297 717.38C57.2197 716.4 56.9896 715.45 56.6396 714.54H56.6497Z" fill="#C7C7C7"/>
<path d="M54.1592 729.13L57.4492 737.03C55.2192 740.77 51.9092 744.6 47.7292 748.29L44.4492 740.42C48.6292 736.71 51.9292 732.88 54.1592 729.13Z" fill="#C7C7C7"/>
<path d="M17.88 756.56C21.03 755.25 24.05 753.83 26.91 752.32L30.18 760.18C27.33 761.68 24.33 763.09 21.2 764.39C18.2 765.64 15.22 766.72 12.27 767.66L9 759.81C11.93 758.88 14.9 757.8 17.88 756.56Z" fill="#C7C7C7"/>
<path style="mix-blend-mode:overlay" d="M4.81977 761.04C3.37978 744.42 1.94977 727.8 0.509769 711.18C0.0797691 711.35 -0.340229 711.52 -0.770229 711.69C-27.2602 722.69 -44.5602 741.66 -39.4102 754.05C-35.1202 764.38 -16.5802 766.87 4.81977 761.04Z" fill="url(#paint24_linear_186_180024)"/>
</g>
<g filter="url(#filter6_d_186_180024)">
<path d="M553.6 537.86C553.32 537.55 548.44 532.13 548.44 532.13L550.85 532.44C548.03 520.8 558.11 501.37 576.33 485.21C593.34 470.12 612.33 462.41 623.91 464.86L625.86 462.84L631.3 468.91C640.21 478.95 630.03 502.51 608.58 521.55C587.13 540.59 562.51 547.88 553.61 537.85L553.6 537.86Z" fill="url(#paint25_radial_186_180024)"/>
<path d="M625.59 462.6C616.68 452.56 592.07 459.86 570.62 478.9C549.17 497.94 538.99 521.5 547.9 531.54C556.81 541.58 581.42 534.28 602.87 515.24C624.32 496.2 634.5 472.64 625.59 462.6Z" fill="url(#paint26_linear_186_180024)"/>
<path d="M577.28 486.4C589.87 475.23 604.32 470.94 609.55 476.83C614.78 482.72 608.81 496.55 596.21 507.73C583.62 518.9 569.17 523.19 563.94 517.3C558.71 511.41 564.68 497.58 577.28 486.4Z" fill="white"/>
<path d="M553.03 511.99L545.89 514.11C547.15 509.69 549.37 504.9 552.44 500L559.71 497.85C556.41 502.79 554.12 507.65 553.03 512V511.99Z" fill="white"/>
<path d="M573.54 482.19C571.1 484.36 568.83 486.6 566.77 488.87L563.79 485.51C565.92 483.27 568.2 481.06 570.62 478.9C573.17 476.63 575.77 474.54 578.38 472.61L581.37 475.98C578.74 477.83 576.11 479.91 573.54 482.19Z" fill="white"/>
<path d="M554.94 525.29C555.72 526.17 556.64 526.88 557.7 527.44L550.58 533.76C549.58 533.15 548.68 532.41 547.91 531.53C546.61 530.07 545.72 528.32 545.21 526.34L552.49 519.88C552.83 521.98 553.63 523.81 554.94 525.29Z" fill="white"/>
<path d="M579.99 525.15L577.03 532C571.88 534.17 566.98 535.5 562.63 535.91L565.63 528.96C569.85 528.8 574.77 527.48 579.99 525.15Z" fill="white"/>
<path d="M591.01 470.17L594.01 463.22C599.24 460.79 604.25 459.18 608.76 458.49L605.8 465.34C601.37 465.86 596.3 467.52 591 470.17H591.01Z" fill="white"/>
<path d="M599.95 511.95C602.52 509.67 604.89 507.31 607.05 504.92L610.04 508.29C607.82 510.65 605.43 512.98 602.88 515.25C600.45 517.4 597.99 519.4 595.51 521.25L592.53 517.89C595.03 516.11 597.52 514.13 599.97 511.96L599.95 511.95Z" fill="white"/>
<path d="M602.87 515.24C605.42 512.98 607.81 510.65 610.03 508.29L615.69 514.65C1200.48 517 611.11 519.31 608.57 521.56C606.14 523.71 603.67 525.72 601.19 527.56L595.54 521.2C598.01 519.36 600.46 517.37 602.87 515.23V515.24Z" fill="#C7C7C7"/>
<path d="M562.53 535.92C566.91 535.52 571.84 534.19 577.03 532L582.67 538.35C577.47 540.54 572.53 541.87 568.15 542.25L562.521 535.92H562.53Z" fill="#C7C7C7"/>
<path d="M550.57 533.76L554.81 539.03C554.38 538.67 553.98 538.28 553.6 537.86C553.35 537.58 549.4 533.2 548.59 532.29C548.69 532.36 548.79 532.44 548.88 532.51C549.4 532.97 549.97 533.39 550.57 533.76Z" fill="#C7C7C7"/>
<path style="mix-blend-mode:overlay" d="M591.99 523.73C585.21 508.48 578.44 493.24 571.66 477.99C571.31 478.29 570.97 478.58 570.62 478.89C549.17 497.93 538.99 521.49 547.9 531.53C555.32 539.9 573.66 536.21 591.99 523.72V523.73Z" fill="url(#paint27_linear_186_180024)"/>
</g>
<g filter="url(#filter7_d_186_180024)">
<path d="M-23.2599 250.35C-23.5199 250.02 -28.1699 244.4 -28.1699 244.4L-25.7799 244.82C-28.0799 233.07 -17.1599 214.1 1.74008 198.76C19.3901 184.43 38.7001 177.56 50.1601 180.51L52.2001 178.58L57.3701 184.88C65.8301 195.3 54.6301 218.4 32.3601 236.47C10.0901 254.55 -14.8199 260.76 -23.2699 250.34L-23.2599 250.35Z" fill="url(#paint28_radial_186_180024)"/>
<path d="M26.9582 229.918C49.2248 211.842 60.4212 188.745 51.9662 178.33C43.5111 167.915 18.6063 174.126 -3.6603 192.202C-25.9269 210.278 -37.1234 233.375 -28.6683 243.79C-20.2132 254.205 4.6916 247.994 26.9582 229.918Z" fill="url(#paint29_linear_186_180024)"/>
<path d="M2.6604 199.98C15.7304 189.37 30.3504 185.72 35.3104 191.84C40.2704 197.95 33.7004 211.51 20.6304 222.12C7.5604 232.73 -7.0596 236.38 -12.0196 230.26C-16.9796 224.15 -10.4096 210.59 2.6604 199.98Z" fill="white"/>
<path d="M-0.889297 195.61C-3.4193 197.67 -5.7793 199.81 -7.9493 201.98L-10.7793 198.49C-8.5593 196.34 -6.1793 194.23 -3.6593 192.19C-1.0093 190.04 1.6807 188.06 4.3707 186.25L7.2107 189.75C4.5007 191.49 1.7807 193.44 -0.879303 195.61H-0.889297Z" fill="white"/>
<path d="M3.67035 238.82L0.420349 245.53C-4.81965 247.47 -9.76965 248.59 -14.1396 248.8L-10.8397 241.99C-6.61965 242.01 -1.63965 240.92 3.67035 238.81V238.82Z" fill="white"/>
<path d="M17.0908 184.37L20.3908 177.56C25.7208 175.36 30.7908 173.97 35.3408 173.48L32.0908 180.19C27.6408 180.52 22.5008 181.95 17.1008 184.37H17.0908Z" fill="white"/>
<path d="M24.1907 226.5C26.8607 224.33 29.3307 222.08 31.5907 219.78L34.4307 223.28C32.1107 225.54 29.6207 227.77 26.9707 229.92C24.4507 231.96 21.9007 233.86 19.3407 235.59L16.5107 232.1C19.0907 230.43 21.6607 228.56 24.2007 226.5H24.1907Z" fill="white"/>
<path d="M46.5904 195.18L53.9404 193.35C52.8704 197.57 50.7904 202.17 47.8404 206.9L40.6104 208.7C43.7204 203.94 45.7804 199.3 46.5804 195.18H46.5904Z" fill="white"/>
<path d="M44.6607 184.25C43.4207 182.72 41.7407 181.63 39.7207 180.95L47.2807 174.81C49.1507 175.64 50.7307 176.8 51.9607 178.31C52.7007 179.22 53.2807 180.22 53.7207 181.31L46.3307 187.31C45.9507 186.18 45.3907 185.15 44.6607 184.24V184.25Z" fill="white"/>
<path d="M52.1904 178.61L52.2204 178.59L57.3904 184.89C58.1304 185.8 58.7104 186.8 59.1504 187.89L53.6604 181.14C53.2704 180.23 52.7804 179.39 52.1904 178.61Z" fill="#C7C7C7"/>
<path d="M53.9601 193.3L59.3601 199.93C58.2801 204.15 56.2001 208.76 53.2501 213.49L47.8701 206.87C50.8301 202.13 52.9001 197.52 53.9701 193.29L53.9601 193.3Z" fill="#C7C7C7"/>
<path d="M26.9604 229.92C29.6104 227.77 32.1003 225.55 34.4203 223.29L39.7904 229.9C37.4804 232.15 35.0104 234.36 32.3704 236.49C29.8504 238.54 27.3004 240.43 24.7304 242.16L19.3604 235.56C21.9004 233.83 24.4404 231.95 26.9504 229.92H26.9604Z" fill="#C7C7C7"/>
<path d="M-14.2402 248.8C-9.85023 248.6 -4.87023 247.48 0.419769 245.52L5.77977 252.11C0.48977 254.07 -4.50023 255.18 -8.89023 255.37L-14.2302 248.8H-14.2402Z" fill="#C7C7C7"/>
<path style="mix-blend-mode:overlay" d="M15.7202 237.92C9.62024 222.39 3.52024 206.86 -2.57976 191.34C-2.93976 191.62 -3.29976 191.9 -3.65976 192.19C-25.9298 210.27 -37.1198 233.37 -28.6698 243.78C-21.6198 252.46 -3.13977 249.58 15.7202 237.91V237.92Z" fill="url(#paint30_linear_186_180024)"/>
</g>
<g filter="url(#filter8_d_186_180024)">
<path d="M14.7605 336.47C14.9305 336.09 17.8604 329.41 17.8604 329.41L18.5605 331.73C28.0205 324.38 49.8704 325.59 72.0804 335.56C92.8304 344.87 107.66 359.01 110.18 370.58L112.82 371.53L109.52 378.98C104.03 391.22 78.3604 391.63 52.1904 379.89C26.0204 368.15 9.26044 348.71 14.7504 336.47H14.7605Z" fill="url(#paint31_radial_186_180024)"/>
<path d="M112.95 371.167C118.441 358.927 101.678 339.489 75.5105 327.75C49.3425 316.012 23.6782 316.419 18.1877 328.658C12.6971 340.898 29.4594 360.337 55.6273 372.075C81.7953 383.813 107.46 383.407 112.95 371.167Z" fill="url(#paint32_linear_186_180024)"/>
<path d="M71.4 336.93C86.76 343.82 96.6 355.23 93.38 362.42C90.16 369.61 75.09 369.84 59.73 362.95C44.37 356.06 34.53 344.65 37.75 337.46C40.97 330.27 56.04 330.04 71.4 336.93Z" fill="white"/>
<path d="M38.11 325.32L33.25 319.68C37.79 319.02 43.08 319.07 48.81 319.86L53.76 325.6C47.89 324.62 42.53 324.53 38.11 325.33V325.32Z" fill="white"/>
<path d="M73.7098 331.79C70.7298 330.45 67.7598 329.31 64.8398 328.36L66.6798 324.26C69.5998 325.28 72.5498 326.45 75.5098 327.78C78.6198 329.18 81.5998 330.68 84.4298 332.27L82.5898 336.38C79.8198 334.74 76.8498 333.2 73.7098 331.79Z" fill="white"/>
<path d="M26.7602 332.53C26.2802 333.6 26.0102 334.74 25.9302 335.93L17.2402 332.03C17.3902 330.87 17.6902 329.75 18.1702 328.68C18.9702 326.9 20.2002 325.37 21.7902 324.09L30.6802 328.08C28.9002 329.25 27.5602 330.74 26.7602 332.54V332.53Z" fill="white"/>
<path d="M37.1802 355.31L29.7202 355.43C25.6202 351.62 22.4002 347.71 20.2402 343.91L27.8002 343.79C29.6802 347.57 32.9002 351.52 37.1702 355.31H37.1802Z" fill="white"/>
<path d="M91.8398 342.77L99.3998 342.65C103.77 346.42 107.29 350.33 109.78 354.16L102.32 354.28C100.02 350.46 96.4298 346.51 91.8398 342.77Z" fill="white"/>
<path d="M57.4201 368.09C60.5601 369.5 63.6801 370.69 66.7501 371.67L64.9101 375.78C61.8401 374.73 58.7401 373.5 55.6201 372.11C52.6601 370.78 49.8201 369.35 47.1201 367.85L48.9601 363.75C51.6101 365.3 54.4401 366.76 57.4201 368.09Z" fill="white"/>
<path d="M95.4707 373.99L100.421 379.73C96.1707 380.67 91.1307 380.89 85.5807 380.39L80.7207 374.75C86.3707 375.39 91.4407 375.13 95.4807 373.99H95.4707Z" fill="white"/>
<path d="M104.371 367.34C105.181 365.54 105.391 363.55 105.091 361.45L113.981 365.44C114.081 367.48 113.761 369.42 112.961 371.2C112.481 372.26 111.851 373.24 111.081 374.12L102.391 370.22C103.231 369.37 103.901 368.41 104.381 367.34H104.371Z" fill="white"/>
<path d="M112.79 371.52H112.82L109.52 378.99C109.04 380.06 108.41 381.03 107.64 381.92L111.19 373.98C111.83 373.23 112.36 372.41 112.79 371.53V371.52Z" fill="#C7C7C7"/>
<path d="M100.47 379.71L96.9801 387.52C92.7301 388.46 87.6801 388.68 82.1201 388.17L85.6001 380.38C91.1601 380.88 96.2201 380.66 100.47 379.71Z" fill="#C7C7C7"/>
<path d="M55.6204 372.1C58.7304 373.5 61.8404 374.72 64.9004 375.77L61.4204 383.54C58.3704 382.49 55.2904 381.28 52.1904 379.89C49.2304 378.56 46.3904 377.13 43.6904 375.63L47.1604 367.87C49.8504 369.36 52.6704 370.78 55.6104 372.1H55.6204Z" fill="#C7C7C7"/>
<path d="M20.2002 343.82C22.3602 347.65 25.6002 351.6 29.7302 355.43L26.2602 363.18C22.1302 359.34 18.8902 355.38 16.7402 351.55L20.2002 343.82Z" fill="#C7C7C7"/>
<path d="M17.2504 332.03L14.1904 338.06C14.3404 337.52 14.5304 336.99 14.7604 336.48C14.9104 336.14 17.2804 330.74 17.7704 329.62C17.7404 329.74 17.7204 329.86 17.6904 329.98C17.4804 330.65 17.3304 331.34 17.2404 332.04L17.2504 332.03Z" fill="#C7C7C7"/>
<path style="mix-blend-mode:overlay" d="M43.4096 365.67C54.5296 353.23 65.6396 340.79 76.7596 328.35C76.3396 328.16 75.9296 327.96 75.5096 327.77C49.3396 316.03 23.6696 316.44 18.1796 328.68C13.5996 338.89 24.4996 354.09 43.4096 365.67Z" fill="url(#paint33_linear_186_180024)"/>
</g>
<g filter="url(#filter9_d_186_180024)">
<path d="M-19.7503 517.22C-19.4703 516.9 -14.7103 511.38 -14.7103 511.38V513.81C-3.52034 509.56 17.0097 517.13 35.3197 533.18C52.4197 548.17 62.4497 566.04 61.4597 577.84L63.7097 579.53L58.3697 585.69C49.5297 595.78 24.8697 588.64 3.29966 569.73C-18.2703 550.83 -28.5903 527.32 -19.7503 517.23V517.22Z" fill="url(#paint34_radial_186_180024)"/>
<path d="M63.917 579.247C72.7586 569.158 62.4406 545.656 40.8711 526.754C19.3016 507.851 -5.35141 500.706 -14.193 510.795C-23.0346 520.884 -12.7166 544.386 8.85284 563.289C30.4223 582.192 55.0754 589.336 63.917 579.247Z" fill="url(#paint35_linear_186_180024)"/>
<path d="M34.2701 534.28C46.9301 545.38 52.9901 559.17 47.8001 565.1C42.6101 571.03 28.1401 566.83 15.4801 555.73C2.82011 544.63 -3.2399 530.84 1.9501 524.91C7.1401 518.99 21.6101 523.18 34.2701 534.28Z" fill="white"/>
<path d="M5.85035 513.42L2.86035 506.6C7.40035 507.3 12.4304 508.9 17.6804 511.34L20.7304 518.28C15.4104 515.62 10.3103 513.96 5.85035 513.43V513.42Z" fill="white"/>
<path d="M37.9807 530.04C35.5207 527.89 33.0207 525.92 30.5107 524.16L33.4707 520.78C35.9607 522.61 38.4407 524.6 40.8807 526.73C43.4507 528.98 45.8507 531.29 48.0907 533.64L45.1207 537.03C42.9507 534.65 40.5607 532.3 37.9807 530.04Z" fill="white"/>
<path d="M52.0898 545.87L59.3598 547.98C62.4298 552.86 64.6498 557.63 65.8998 562.03L58.7398 559.95C57.6698 555.62 55.3898 550.79 52.0898 545.87Z" fill="white"/>
<path d="M11.7605 559.97C14.3405 562.23 16.9805 564.29 19.6305 566.13L16.6605 569.52C14.0405 567.61 11.4305 565.53 8.86047 563.28C6.42047 561.14 4.13047 558.94 1.98047 556.71L4.94047 553.33C7.02047 555.59 9.30047 557.81 11.7505 559.96L11.7605 559.97Z" fill="white"/>
<path d="M46.4098 576.77L49.4598 583.71C45.1198 583.36 40.2398 582.09 35.0798 579.98L32.0898 573.16C37.3098 575.43 42.2198 576.67 46.4198 576.77H46.4098Z" fill="white"/>
<path d="M56.8604 573.03C58.1604 571.55 58.9503 569.71 59.2803 567.61L66.6004 574.03C66.1004 576.01 65.2204 577.77 63.9304 579.24C63.1604 580.12 62.2704 580.86 61.2704 581.48L54.1104 575.2C55.1604 574.63 56.0804 573.91 56.8504 573.03H56.8604Z" fill="white"/>
<path d="M63.6897 579.5L63.7197 579.52L58.3797 585.68C57.6097 586.56 56.7197 587.3 55.7197 587.92L61.4497 581.37C62.2797 580.84 63.0297 580.21 63.6997 579.5H63.6897Z" fill="#C7C7C7"/>
<path d="M49.4997 583.71L43.8697 590.15C39.5297 589.8 34.6397 588.53 29.4697 586.41L35.0897 579.99C40.2597 582.1 45.1597 583.37 49.4997 583.71Z" fill="#C7C7C7"/>
<path d="M8.86016 563.28C11.4202 565.53 14.0302 567.61 16.6502 569.51L11.0402 575.92C8.44016 574.02 5.84016 571.96 3.29016 569.72C0.850161 567.58 -1.44984 565.38 -3.58984 563.15L2.01015 556.75C4.14015 558.97 6.42016 561.15 8.85016 563.28H8.86016Z" fill="#C7C7C7"/>
<path style="mix-blend-mode:overlay" d="M-0.91951 553.54C13.3605 544.91 27.6405 536.28 41.9105 527.65C41.5705 527.34 41.2305 527.04 40.8905 526.73C19.3205 507.83 -5.3395 500.68 -14.1795 510.77C-21.5495 519.18 -15.5995 536.92 -0.91951 553.54Z" fill="url(#paint36_linear_186_180024)"/>
</g>
<g filter="url(#filter10_d_186_180024)">
<path d="M7.96939 -33.69C8.24939 -34.01 13.0094 -39.53 13.0094 -39.53V-37.1C24.1994 -41.35 44.7294 -33.78 63.0394 -17.73C80.1394 -2.73997 90.1694 15.13 89.1794 26.93L91.4294 28.62L86.0894 34.78C77.2494 44.87 52.5894 37.73 31.0194 18.82C9.44938 -0.0799637 -0.870611 -23.59 7.96939 -33.68V-33.69Z" fill="url(#paint37_radial_186_180024)"/>
<path d="M91.6435 28.3246C100.485 18.2355 90.1671 -5.26681 68.5977 -24.1694C47.0282 -43.072 22.3752 -50.2168 13.5336 -40.1278C4.69195 -30.0388 15.0099 -6.53646 36.5794 12.3661C58.1489 31.2687 82.8019 38.4136 91.6435 28.3246Z" fill="url(#paint38_linear_186_180024)"/>
<path d="M61.9898 -16.63C74.6498 -5.53 80.7098 8.25999 75.5198 14.18C70.3298 20.1 55.4528 15.91 43.1998 4.81C30.5398 -6.29 24.4798 -20.08 29.6698 -26.01C34.4528 -31.93 49.3298 -27.74 61.9898 -16.64V-16.63Z" fill="white"/>
<path d="M79.8096 -5.03998L87.0796 -2.92998C90.1496 1.95002 92.3696 6.72001 93.6196 11.12L86.4596 9.04001C85.3896 4.71001 83.1096 -0.119978 79.8096 -5.03998Z" fill="white"/>
<path d="M39.4802 9.05003C42.0602 11.31 44.7002 13.37 47.3502 15.21L44.3802 18.6C41.7602 16.69 39.1502 14.61 36.5802 12.36C34.1402 10.22 31.8502 8.02002 29.7002 5.79002L32.6602 2.41003C34.7402 4.67003 37.0202 6.89002 39.4702 9.04002L39.4802 9.05003Z" fill="white"/>
<path d="M74.1198 25.86L77.1698 32.8C72.8298 32.45 67.9498 31.18 62.7898 29.07L59.7998 22.25C65.0198 24.52 69.9298 25.76 74.1298 25.86H74.1198Z" fill="white"/>
<path d="M84.5703 22.12C85.8703 20.64 86.6603 18.8 86.9903 16.7L94.3103 23.12C93.8103 25.1 92.9303 26.86 91.6403 28.33C90.8703 29.21 89.9803 29.95 88.9803 30.57L81.8203 24.29C82.8703 23.72 83.7903 23 84.5603 22.12H84.5703Z" fill="white"/>
<path d="M91.3997 28.59L91.4297 28.61L86.0897 34.77C85.3197 35.65 84.4297 36.39 83.4297 37.01L89.1597 30.46C89.9897 29.93 90.7397 29.3 91.4097 28.59H91.3997Z" fill="#C7C7C7"/>
<path d="M77.2097 32.8L71.5797 39.24C67.2397 38.89 62.3497 37.62 57.1797 35.5L62.7997 29.08C67.9697 31.19 72.8697 32.46 77.2097 32.8Z" fill="#C7C7C7"/>
<path d="M36.5799 12.36C39.1399 14.61 41.7499 16.69 44.3699 18.59L38.7599 25C36.1599 23.1 33.5599 21.04 31.0099 18.8C28.5699 16.66 26.2699 14.46 24.1299 12.23L29.7299 5.83002C31.4529 8.05002 34.1399 10.23 36.5699 12.36H36.5799Z" fill="#C7C7C7"/>
<path style="mix-blend-mode:overlay" d="M26.7895 2.63005C41.0695 -5.99995 55.3495 -14.63 69.6195 -23.26C69.2795 -23.57 68.9395 -23.87 68.5995 -24.18C47.0295 -43.08 22.3695 -50.23 13.5295 -40.14C6.15948 -31.73 12.1095 -13.99 26.7895 2.63005Z" fill="url(#paint39_linear_186_180024)"/>
</g>
<g filter="url(#filter11_d_186_180024)">
<path d="M533.421 168.22C533.701 167.9 538.461 162.38 538.461 162.38V164.81C549.651 160.56 570.181 168.13 588.491 184.18C605.591 199.17 615.621 217.04 614.631 228.84L616.881 230.53L611.541 236.69C602.701 246.78 578.041 239.64 556.471 220.73C534.901 201.83 524.581 178.32 533.421 168.23V168.22Z" fill="url(#paint40_radial_186_180024)"/>
<path d="M617.1 230.24C625.94 220.15 615.62 196.64 594.05 177.74C572.48 158.84 547.82 151.69 538.98 161.78C530.14 171.87 540.46 195.38 562.03 214.28C583.6 233.18 608.26 240.33 617.1 230.24Z" fill="url(#paint41_linear_186_180024)"/>
<path d="M587.44 185.28C600.1 196.38 606.16 210.17 600.97 216.09C595.78 222.01 581.31 217.82 568.65 206.72C555.99 195.62 549.93 181.83 555.12 175.91C560.31 169.99 574.78 174.18 587.44 185.28Z" fill="white"/>
<path d="M559.02 164.42L556.03 157.6C560.57 158.3 565.6 159.9 570.85 162.34L573.9 169.28C568.58 166.62 563.48 164.96 559.02 164.43V164.42Z" fill="white"/>
<path d="M591.151 181.05C588.691 178.9 586.191 176.93 583.681 175.17L586.641 171.79C589.131 173.62 591.611 175.61 594.051 177.74C596.621 179.99 599.021 182.3 601.261 184.65L598.291 188.04C596.121 185.66 593.731 183.31 591.151 181.05Z" fill="white"/>
<path d="M546.06 167.98C545.29 168.86 544.69 169.87 544.27 170.98L537.11 164.7C537.59 163.63 538.22 162.65 538.98 161.77C540.27 160.3 541.89 159.2 543.79 158.44L551.11 164.86C549.07 165.46 547.35 166.49 546.05 167.97L546.06 167.98Z" fill="white"/>
<path d="M549.33 192.82L542.17 190.74C539.37 185.9 537.44 181.21 536.49 176.94L543.76 179.05C544.45 183.21 546.37 187.94 549.34 192.82H549.33Z" fill="white"/>
<path d="M605.26 196.87L612.53 198.98C615.6 203.86 617.82 208.63 619.07 213.03L611.91 210.95C610.84 206.62 608.56 201.79 605.26 196.87Z" fill="white"/>
<path d="M564.93 210.97C567.51 213.23 570.15 215.29 572.8 217.13L569.83 220.52C567.21 218.61 564.6 216.53 562.03 214.28C559.59 212.14 557.3 209.94 555.16 207.71L558.12 204.33C560.2 206.59 562.48 208.81 564.93 210.96V210.97Z" fill="white"/>
<path d="M599.57 227.78L602.62 234.72C598.28 234.37 593.4 233.1 588.24 230.99L585.25 224.17C590.47 226.44 595.38 227.68 599.58 227.78H599.57Z" fill="white"/>
<path d="M610.021 224.03C611.321 222.55 612.11 220.71 612.44 218.61L619.76 225.03C619.26 227.01 618.38 228.77 617.09 230.24C616.32 231.12 615.43 231.86 614.43 232.48L607.271 226.2C608.321 225.63 609.24 224.91 610.01 224.03H610.021Z" fill="white"/>
<path d="M616.851 230.5L616.881 230.52L611.541 236.68C610.771 237.56 609.881 238.3 608.881 238.92L614.611 232.37C615.441 231.84 616.191 231.21 616.861 230.5H616.851Z" fill="#C7C7C7"/>
<path d="M602.671 234.72L597.041 241.16C592.701 240.81 587.811 239.54 582.641 237.42L588.261 231C593.431 233.11 598.331 234.38 602.671 234.72Z" fill="#C7C7C7"/>
<path d="M562.03 214.28C564.59 216.53 567.2 218.61 569.82 220.51L564.21 226.92C561.61 225.02 559.01 222.96 556.46 220.72C554.02 218.58 551.72 216.38 549.58 214.15L555.18 207.75C557.31 209.97 559.59 212.15 562.02 214.28H562.03Z" fill="#C7C7C7"/>
<path d="M536.471 176.85C537.411 181.14 539.351 185.87 542.171 190.75L536.581 197.14C533.761 192.25 531.821 187.52 530.891 183.23L536.461 176.86L536.471 176.85Z" fill="#C7C7C7"/>
<path d="M537.11 164.71L532.41 169.57C532.71 169.1 533.05 168.65 533.42 168.22C533.67 167.94 537.52 163.47 538.31 162.55C538.25 162.66 538.19 162.77 538.13 162.87C537.73 163.45 537.39 164.06 537.1 164.71H537.11Z" fill="#C7C7C7"/>
<path style="mix-blend-mode:overlay" d="M552.241 204.55C566.521 195.92 580.801 187.29 595.071 178.66C594.731 178.35 594.391 178.05 594.051 177.74C572.481 158.84 547.821 151.69 538.981 161.78C531.611 170.19 537.561 187.93 552.241 204.55Z" fill="url(#paint42_linear_186_180024)"/>
</g>
<g filter="url(#filter12_d_186_180024)">
<path d="M549.421 744.22C549.701 743.9 554.461 738.38 554.461 738.38V740.81C565.651 736.56 586.181 744.13 604.491 760.18C621.591 775.17 631.621 793.04 630.631 804.84L632.881 806.53L627.541 812.69C618.701 822.78 594.041 815.64 572.471 796.73C550.901 777.83 540.581 754.32 549.421 744.23V744.22Z" fill="url(#paint43_radial_186_180024)"/>
<path d="M633.1 806.24C641.94 796.15 631.62 772.64 610.05 753.74C588.48 734.84 563.82 727.69 554.98 737.78C546.14 747.87 556.46 771.38 578.03 790.28C599.6 809.18 624.26 816.33 633.1 806.24Z" fill="url(#paint44_linear_186_180024)"/>
<path d="M603.44 761.28C616.1 772.38 622.16 786.17 616.97 792.09C611.78 798.01 597.31 793.82 584.65 782.72C571.99 771.62 565.93 757.83 571.12 751.91C576.31 745.99 590.78 750.18 603.44 761.28Z" fill="white"/>
<path d="M575.02 740.42L572.03 733.6C576.57 734.3 581.6 735.9 586.85 738.34L589.9 745.28C584.58 742.62 579.48 740.96 575.02 740.43V740.42Z" fill="white"/>
<path d="M607.151 757.05C604.691 754.9 602.191 752.93 599.681 751.17L602.641 747.79C605.131 749.62 607.611 751.61 610.051 753.74C612.621 755.99 615.021 758.3 617.261 760.65L614.291 764.04C612.121 761.66 609.731 759.31 607.151 757.05Z" fill="white"/>
<path d="M562.06 743.98C561.29 744.86 560.69 745.87 560.27 746.98L553.11 740.7C553.59 739.63 554.22 738.65 554.98 737.77C556.27 736.3 557.89 735.2 559.79 734.44L567.11 740.86C565.07 741.46 563.35 742.49 562.05 743.97L562.06 743.98Z" fill="white"/>
<path d="M565.33 768.82L558.17 766.74C555.37 761.9 553.44 757.21 552.49 752.94L559.76 755.05C560.45 759.21 562.37 763.94 565.34 768.82H565.33Z" fill="white"/>
<path d="M580.93 786.97C583.51 789.23 586.15 791.29 588.8 793.13L585.83 796.52C583.21 794.61 580.6 792.53 578.03 790.28C575.59 788.14 573.3 785.94 571.16 783.71L574.12 780.33C576.2 782.59 578.48 784.81 580.93 786.96V786.97Z" fill="white"/>
<path d="M615.57 803.78L618.62 810.72C614.28 810.37 609.4 809.1 604.24 806.99L601.25 800.17C606.47 802.44 611.38 803.68 615.58 803.78H615.57Z" fill="white"/>
<path d="M618.671 810.72L1200.041 817.16C608.701 816.81 603.811 815.54 598.641 813.42L604.261 807C609.431 809.11 614.331 810.38 618.671 810.72Z" fill="#C7C7C7"/>
<path d="M578.03 790.28C580.59 792.53 583.2 794.61 585.82 796.51L580.21 802.92C577.61 801.02 575.01 798.96 572.46 796.72C570.02 794.58 567.72 792.38 565.58 790.15L571.18 783.75C573.31 785.97 575.59 788.15 578.02 790.28H578.03Z" fill="#C7C7C7"/>
<path d="M552.471 752.85C553.411 757.14 555.351 761.87 558.171 766.75L552.581 773.14C549.761 768.25 547.821 763.52 546.891 759.23L552.461 752.86L552.471 752.85Z" fill="#C7C7C7"/>
<path d="M553.11 740.71L548.41 745.57C548.71 745.1 549.05 744.65 549.42 744.22C549.67 743.94 553.52 739.47 554.31 738.55C554.25 738.66 554.19 738.77 554.13 738.87C553.73 739.45 553.39 740.06 553.1 740.71H553.11Z" fill="#C7C7C7"/>
<path style="mix-blend-mode:overlay" d="M568.241 780.55C582.521 771.92 596.801 763.29 611.071 754.66C610.731 754.35 610.391 754.05 610.051 753.74C588.481 734.84 563.821 727.69 554.981 737.78C547.611 746.19 553.561 763.93 568.241 780.55Z" fill="url(#paint45_linear_186_180024)"/>
</g>
</g>
<defs>
<filter id="filter0_d_186_180024" x="76.6357" y="51.47" width="476.013" height="225.73" filterUnits="userSpaceOnUse" color-interpolation-filters="sRGB">
<feFlood flood-opacity="0" result="BackgroundImageFix"/>
<feColorMatrix in="SourceAlpha" type="matrix" values="0 0 0 0 0 0 0 0 0 0 0 0 0 0 0 0 0 0 127 0" result="hardAlpha"/>
<feOffset dx="8.5" dy="14.17"/>
<feGaussianBlur stdDeviation="8.5"/>
<feColorMatrix type="matrix" values="0 0 0 0 0.466667 0 0 0 0 0.384314 0 0 0 0 0.443137 0 0 0 0.6 0"/>
<feBlend mode="normal" in2="BackgroundImageFix" result="effect1_dropShadow_186_180024"/>
<feBlend mode="normal" in="SourceGraphic" in2="effect1_dropShadow_186_180024" result="shape"/>
</filter>
<filter id="filter1_d_186_180024" x="163.302" y="203.67" width="302.656" height="80.01" filterUnits="userSpaceOnUse" color-interpolation-filters="sRGB">
<feFlood flood-opacity="0" result="BackgroundImageFix"/>
<feColorMatrix in="SourceAlpha" type="matrix" values="0 0 0 0 0 0 0 0 0 0 0 0 0 0 0 0 0 0 127 0" result="hardAlpha"/>
<feOffset dx="8.5" dy="14.17"/>
<feGaussianBlur stdDeviation="8.5"/>
<feColorMatrix type="matrix" values="0 0 0 0 0.466667 0 0 0 0 0.384314 0 0 0 0 0.443137 0 0 0 0.6 0"/>
<feBlend mode="normal" in2="BackgroundImageFix" result="effect1_dropShadow_186_180024"/>
<feBlend mode="normal" in="SourceGraphic" in2="effect1_dropShadow_186_180024" result="shape"/>
</filter>
<filter id="filter2_d_186_180024" x="72.1197" y="601.82" width="473.7" height="250.7" filterUnits="userSpaceOnUse" color-interpolation-filters="sRGB">
<feFlood flood-opacity="0" result="BackgroundImageFix"/>
<feColorMatrix in="SourceAlpha" type="matrix" values="0 0 0 0 0 0 0 0 0 0 0 0 0 0 0 0 0 0 127 0" result="hardAlpha"/>
<feOffset dx="2.83" dy="11.34"/>
<feGaussianBlur stdDeviation="11.34"/>
<feColorMatrix type="matrix" values="0 0 0 0 0.466667 0 0 0 0 0.384314 0 0 0 0 0.443137 0 0 0 0.6 0"/>
<feBlend mode="normal" in2="BackgroundImageFix" result="effect1_dropShadow_186_180024"/>
<feBlend mode="normal" in="SourceGraphic" in2="effect1_dropShadow_186_180024" result="shape"/>
</filter>
<filter id="filter3_d_186_180024" x="111.129" y="622.75" width="393.57" height="165.59" filterUnits="userSpaceOnUse" color-interpolation-filters="sRGB">
<feFlood flood-opacity="0" result="BackgroundImageFix"/>
<feColorMatrix in="SourceAlpha" type="matrix" values="0 0 0 0 0 0 0 0 0 0 0 0 0 0 0 0 0 0 127 0" result="hardAlpha"/>
<feOffset dx="2.83" dy="11.34"/>
<feGaussianBlur stdDeviation="11.34"/>
<feColorMatrix type="matrix" values="0 0 0 0 0.466667 0 0 0 0 0.384314 0 0 0 0 0.443137 0 0 0 0.6 0"/>
<feBlend mode="normal" in2="BackgroundImageFix" result="effect1_dropShadow_186_180024"/>
<feBlend mode="normal" in="SourceGraphic" in2="effect1_dropShadow_186_180024" result="shape"/>
</filter>
<filter id="filter4_d_186_180024" x="156" y="762.49" width="305.36" height="100.69" filterUnits="userSpaceOnUse" color-interpolation-filters="sRGB">
<feFlood flood-opacity="0" result="BackgroundImageFix"/>
<feColorMatrix in="SourceAlpha" type="matrix" values="0 0 0 0 0 0 0 0 0 0 0 0 0 0 0 0 0 0 127 0" result="hardAlpha"/>
<feOffset dx="2.83" dy="11.34"/>
<feGaussianBlur stdDeviation="11.34"/>
<feColorMatrix type="matrix" values="0 0 0 0 0.466667 0 0 0 0 0.384314 0 0 0 0 0.443137 0 0 0 0.6 0"/>
<feBlend mode="normal" in2="BackgroundImageFix" result="effect1_dropShadow_186_180024"/>
<feBlend mode="normal" in="SourceGraphic" in2="effect1_dropShadow_186_180024" result="shape"/>
</filter>
<filter id="filter5_d_186_180024" x="-48.8174" y="701.293" width="135.054" height="101.846" filterUnits="userSpaceOnUse" color-interpolation-filters="sRGB">
<feFlood flood-opacity="0" result="BackgroundImageFix"/>
<feColorMatrix in="SourceAlpha" type="matrix" values="0 0 0 0 0 0 0 0 0 0 0 0 0 0 0 0 0 0 127 0" result="hardAlpha"/>
<feOffset dx="8.5" dy="14.17"/>
<feGaussianBlur stdDeviation="8.5"/>
<feColorMatrix type="matrix" values="0 0 0 0 0.466667 0 0 0 0 0.384314 0 0 0 0 0.443137 0 0 0 0.6 0"/>
<feBlend mode="normal" in2="BackgroundImageFix" result="effect1_dropShadow_186_180024"/>
<feBlend mode="normal" in="SourceGraphic" in2="effect1_dropShadow_186_180024" result="shape"/>
</filter>
<filter id="filter6_d_186_180024" x="536.174" y="455.264" width="123.853" height="118.258" filterUnits="userSpaceOnUse" color-interpolation-filters="sRGB">
<feFlood flood-opacity="0" result="BackgroundImageFix"/>
<feColorMatrix in="SourceAlpha" type="matrix" values="0 0 0 0 0 0 0 0 0 0 0 0 0 0 0 0 0 0 127 0" result="hardAlpha"/>
<feOffset dx="8.5" dy="14.17"/>
<feGaussianBlur stdDeviation="8.5"/>
<feColorMatrix type="matrix" values="0 0 0 0 0.466667 0 0 0 0 0.384314 0 0 0 0 0.443137 0 0 0 0.6 0"/>
<feBlend mode="normal" in2="BackgroundImageFix" result="effect1_dropShadow_186_180024"/>
<feBlend mode="normal" in="SourceGraphic" in2="effect1_dropShadow_186_180024" result="shape"/>
</filter>
<filter id="filter7_d_186_180024" x="-39.9883" y="170.45" width="125.681" height="116.114" filterUnits="userSpaceOnUse" color-interpolation-filters="sRGB">
<feFlood flood-opacity="0" result="BackgroundImageFix"/>
<feColorMatrix in="SourceAlpha" type="matrix" values="0 0 0 0 0 0 0 0 0 0 0 0 0 0 0 0 0 0 127 0" result="hardAlpha"/>
<feOffset dx="8.5" dy="14.17"/>
<feGaussianBlur stdDeviation="8.5"/>
<feColorMatrix type="matrix" values="0 0 0 0 0.466667 0 0 0 0 0.384314 0 0 0 0 0.443137 0 0 0 0.6 0"/>
<feBlend mode="normal" in2="BackgroundImageFix" result="effect1_dropShadow_186_180024"/>
<feBlend mode="normal" in="SourceGraphic" in2="effect1_dropShadow_186_180024" result="shape"/>
</filter>
<filter id="filter8_d_186_180024" x="5.20898" y="316.376" width="134.289" height="103.232" filterUnits="userSpaceOnUse" color-interpolation-filters="sRGB">
<feFlood flood-opacity="0" result="BackgroundImageFix"/>
<feColorMatrix in="SourceAlpha" type="matrix" values="0 0 0 0 0 0 0 0 0 0 0 0 0 0 0 0 0 0 127 0" result="hardAlpha"/>
<feOffset dx="8.5" dy="14.17"/>
<feGaussianBlur stdDeviation="8.5"/>
<feColorMatrix type="matrix" values="0 0 0 0 0.466667 0 0 0 0 0.384314 0 0 0 0 0.443137 0 0 0 0.6 0"/>
<feBlend mode="normal" in2="BackgroundImageFix" result="effect1_dropShadow_186_180024"/>
<feBlend mode="normal" in="SourceGraphic" in2="effect1_dropShadow_186_180024" result="shape"/>
</filter>
<filter id="filter9_d_186_180024" x="-31.4141" y="503.363" width="123.996" height="118.076" filterUnits="userSpaceOnUse" color-interpolation-filters="sRGB">
<feFlood flood-opacity="0" result="BackgroundImageFix"/>
<feColorMatrix in="SourceAlpha" type="matrix" values="0 0 0 0 0 0 0 0 0 0 0 0 0 0 0 0 0 0 127 0" result="hardAlpha"/>
<feOffset dx="8.5" dy="14.17"/>
<feGaussianBlur stdDeviation="8.5"/>
<feColorMatrix type="matrix" values="0 0 0 0 0.466667 0 0 0 0 0.384314 0 0 0 0 0.443137 0 0 0 0.6 0"/>
<feBlend mode="normal" in2="BackgroundImageFix" result="effect1_dropShadow_186_180024"/>
<feBlend mode="normal" in="SourceGraphic" in2="effect1_dropShadow_186_180024" result="shape"/>
</filter>
<filter id="filter10_d_186_180024" x="-3.69434" y="-47.5472" width="124.003" height="118.076" filterUnits="userSpaceOnUse" color-interpolation-filters="sRGB">
<feFlood flood-opacity="0" result="BackgroundImageFix"/>
<feColorMatrix in="SourceAlpha" type="matrix" values="0 0 0 0 0 0 0 0 0 0 0 0 0 0 0 0 0 0 127 0" result="hardAlpha"/>
<feOffset dx="8.5" dy="14.17"/>
<feGaussianBlur stdDeviation="8.5"/>
<feColorMatrix type="matrix" values="0 0 0 0 0.466667 0 0 0 0 0.384314 0 0 0 0 0.443137 0 0 0 0.6 0"/>
<feBlend mode="normal" in2="BackgroundImageFix" result="effect1_dropShadow_186_180024"/>
<feBlend mode="normal" in="SourceGraphic" in2="effect1_dropShadow_186_180024" result="shape"/>
</filter>
<filter id="filter11_d_186_180024" x="521.757" y="154.373" width="124.007" height="118.066" filterUnits="userSpaceOnUse" color-interpolation-filters="sRGB">
<feFlood flood-opacity="0" result="BackgroundImageFix"/>
<feColorMatrix in="SourceAlpha" type="matrix" values="0 0 0 0 0 0 0 0 0 0 0 0 0 0 0 0 0 0 127 0" result="hardAlpha"/>
<feOffset dx="8.5" dy="14.17"/>
<feGaussianBlur stdDeviation="8.5"/>
<feColorMatrix type="matrix" values="0 0 0 0 0.466667 0 0 0 0 0.384314 0 0 0 0 0.443137 0 0 0 0.6 0"/>
<feBlend mode="normal" in2="BackgroundImageFix" result="effect1_dropShadow_186_180024"/>
<feBlend mode="normal" in="SourceGraphic" in2="effect1_dropShadow_186_180024" result="shape"/>
</filter>
<filter id="filter12_d_186_180024" x="537.757" y="730.373" width="124.007" height="118.066" filterUnits="userSpaceOnUse" color-interpolation-filters="sRGB">
<feFlood flood-opacity="0" result="BackgroundImageFix"/>
<feColorMatrix in="SourceAlpha" type="matrix" values="0 0 0 0 0 0 0 0 0 0 0 0 0 0 0 0 0 0 127 0" result="hardAlpha"/>
<feOffset dx="8.5" dy="14.17"/>
<feGaussianBlur stdDeviation="8.5"/>
<feColorMatrix type="matrix" values="0 0 0 0 0.466667 0 0 0 0 0.384314 0 0 0 0 0.443137 0 0 0 0.6 0"/>
<feBlend mode="normal" in2="BackgroundImageFix" result="effect1_dropShadow_186_180024"/>
<feBlend mode="normal" in="SourceGraphic" in2="effect1_dropShadow_186_180024" result="shape"/>
</filter>
<linearGradient id="paint0_linear_186_180024" x1="306.14" y1="-75" x2="306.14" y2="773.08" gradientUnits="userSpaceOnUse">
<stop stop-color="#FD1C3A"/>
<stop offset="0.03" stop-color="#EC1A36"/>
<stop offset="0.11" stop-color="#C1152C"/>
<stop offset="0.19" stop-color="#9A1024"/>
<stop offset="0.28" stop-color="#7A0D1C"/>
<stop offset="0.38" stop-color="#600A17"/>
<stop offset="0.49" stop-color="#4C0712"/>
<stop offset="0.61" stop-color="#3D060F"/>
<stop offset="0.75" stop-color="#35050D"/>
<stop offset="1" stop-color="#33050D"/>
</linearGradient>
<radialGradient id="paint1_radial_186_180024" cx="0" cy="0" r="1" gradientUnits="userSpaceOnUse" gradientTransform="translate(300.16 140.099) scale(407.2 309.472)">
<stop stop-color="white"/>
<stop offset="0.09" stop-color="white" stop-opacity="0.98"/>
<stop offset="0.22" stop-color="white" stop-opacity="0.91"/>
<stop offset="0.36" stop-color="white" stop-opacity="0.8"/>
<stop offset="0.52" stop-color="white" stop-opacity="0.65"/>
<stop offset="0.69" stop-color="white" stop-opacity="0.45"/>
<stop offset="0.86" stop-color="white" stop-opacity="0.21"/>
<stop offset="1" stop-color="white" stop-opacity="0"/>
</radialGradient>
<linearGradient id="paint2_linear_186_180024" x1="306.141" y1="11.14" x2="306.141" y2="258.33" gradientUnits="userSpaceOnUse">
<stop stop-color="#FD1C3A"/>
<stop offset="0.23" stop-color="#D21730"/>
<stop offset="0.75" stop-color="#670B18"/>
<stop offset="1" stop-color="#33050D"/>
</linearGradient>
<linearGradient id="paint3_linear_186_180024" x1="306.141" y1="-64.52" x2="306.141" y2="133.17" gradientUnits="userSpaceOnUse">
<stop stop-color="#FD1C3A"/>
<stop offset="0.23" stop-color="#D21730"/>
<stop offset="0.75" stop-color="#670B18"/>
<stop offset="1" stop-color="#33050D"/>
</linearGradient>
<linearGradient id="paint4_linear_186_180024" x1="306.14" y1="190.8" x2="306.14" y2="250.12" gradientUnits="userSpaceOnUse">
<stop stop-color="#FD1C3A"/>
<stop offset="0.23" stop-color="#D21730"/>
<stop offset="0.75" stop-color="#670B18"/>
<stop offset="1" stop-color="#33050D"/>
</linearGradient>
<linearGradient id="paint5_linear_186_180024" x1="560.021" y1="10.84" x2="560.021" y2="87.06" gradientUnits="userSpaceOnUse">
<stop offset="0.07" stop-color="#FEEECB"/>
<stop offset="0.23" stop-color="#FDECC8"/>
<stop offset="0.31" stop-color="#FAE7C0"/>
<stop offset="0.37" stop-color="#F5DFB3"/>
<stop offset="0.43" stop-color="#EED39F"/>
<stop offset="0.48" stop-color="#E5C386"/>
<stop offset="0.53" stop-color="#DAB068"/>
<stop offset="0.57" stop-color="#CD9A44"/>
<stop offset="0.59" stop-color="#C89236"/>
<stop offset="0.62" stop-color="#D3A24C"/>
<stop offset="0.69" stop-color="#F2CD84"/>
<stop offset="0.72" stop-color="#FEDE9A"/>
<stop offset="0.75" stop-color="#EFCA7F"/>
<stop offset="0.81" stop-color="#CB973C"/>
<stop offset="0.83" stop-color="#C38B2C"/>
<stop offset="0.87" stop-color="#A37324"/>
<stop offset="0.92" stop-color="#805A1D"/>
<stop offset="0.96" stop-color="#9F7124"/>
<stop offset="1" stop-color="#C38B2C"/>
</linearGradient>
<linearGradient id="paint6_linear_186_180024" x1="560.02" y1="0.389971" x2="560.02" y2="65.87" gradientUnits="userSpaceOnUse">
<stop stop-color="#FD1C3A"/>
<stop offset="0.23" stop-color="#D21730"/>
<stop offset="0.75" stop-color="#670B18"/>
<stop offset="1" stop-color="#33050D"/>
</linearGradient>
<linearGradient id="paint7_linear_186_180024" x1="-115.51" y1="620.6" x2="-114.51" y2="823.22" gradientUnits="userSpaceOnUse">
<stop stop-color="#FFFAEF"/>
<stop offset="0.49" stop-color="#FEDE9A"/>
<stop offset="0.5" stop-color="#F4CC7F"/>
<stop offset="0.51" stop-color="#E8B760"/>
<stop offset="0.52" stop-color="#D69731"/>
<stop offset="0.59" stop-color="#DEA13F"/>
<stop offset="0.74" stop-color="#EBB255"/>
<stop offset="0.88" stop-color="#F3BC62"/>
<stop offset="1" stop-color="#F6C067"/>
</linearGradient>
<linearGradient id="paint8_linear_186_180024" x1="306.14" y1="606.57" x2="306.14" y2="905.72" gradientUnits="userSpaceOnUse">
<stop stop-color="#FD1C3A"/>
<stop offset="0.03" stop-color="#EC1A36"/>
<stop offset="0.11" stop-color="#C1152C"/>
<stop offset="0.19" stop-color="#9A1024"/>
<stop offset="0.28" stop-color="#7A0D1C"/>
<stop offset="0.38" stop-color="#600A17"/>
<stop offset="0.49" stop-color="#4C0712"/>
<stop offset="0.61" stop-color="#3D060F"/>
<stop offset="0.75" stop-color="#35050D"/>
<stop offset="1" stop-color="#33050D"/>
</linearGradient>
<linearGradient id="paint9_linear_186_180024" x1="159.159" y1="688.67" x2="159.159" y2="642.67" gradientUnits="userSpaceOnUse">
<stop stop-color="#F6C067"/>
<stop offset="0.12" stop-color="#F3BC62"/>
<stop offset="0.26" stop-color="#EBB255"/>
<stop offset="0.41" stop-color="#DEA13F"/>
<stop offset="0.48" stop-color="#D79935"/>
<stop offset="0.49" stop-color="#E8B760"/>
<stop offset="0.5" stop-color="#FBD993"/>
<stop offset="0.51" stop-color="#FEDE9A"/>
<stop offset="0.99" stop-color="#FFFAEF"/>
</linearGradient>
<linearGradient id="paint10_linear_186_180024" x1="450.999" y1="688.67" x2="450.999" y2="642.67" gradientUnits="userSpaceOnUse">
<stop stop-color="#F6C067"/>
<stop offset="0.12" stop-color="#F3BC62"/>
<stop offset="0.26" stop-color="#EBB255"/>
<stop offset="0.41" stop-color="#DEA13F"/>
<stop offset="0.48" stop-color="#D79935"/>
<stop offset="0.49" stop-color="#E8B760"/>
<stop offset="0.5" stop-color="#FBD993"/>
<stop offset="0.51" stop-color="#FEDE9A"/>
<stop offset="0.99" stop-color="#FFFAEF"/>
</linearGradient>
<linearGradient id="paint11_linear_186_180024" x1="232.119" y1="688.67" x2="232.119" y2="642.67" gradientUnits="userSpaceOnUse">
<stop stop-color="#F6C067"/>
<stop offset="0.12" stop-color="#F3BC62"/>
<stop offset="0.26" stop-color="#EBB255"/>
<stop offset="0.41" stop-color="#DEA13F"/>
<stop offset="0.48" stop-color="#D79935"/>
<stop offset="0.49" stop-color="#E8B760"/>
<stop offset="0.5" stop-color="#FBD993"/>
<stop offset="0.51" stop-color="#FEDE9A"/>
<stop offset="0.99" stop-color="#FFFAEF"/>
</linearGradient>
<linearGradient id="paint12_linear_186_180024" x1="305.079" y1="688.67" x2="305.079" y2="642.67" gradientUnits="userSpaceOnUse">
<stop stop-color="#F6C067"/>
<stop offset="0.12" stop-color="#F3BC62"/>
<stop offset="0.26" stop-color="#EBB255"/>
<stop offset="0.41" stop-color="#DEA13F"/>
<stop offset="0.48" stop-color="#D79935"/>
<stop offset="0.49" stop-color="#E8B760"/>
<stop offset="0.5" stop-color="#FBD993"/>
<stop offset="0.51" stop-color="#FEDE9A"/>
<stop offset="0.99" stop-color="#FFFAEF"/>
</linearGradient>
<linearGradient id="paint13_linear_186_180024" x1="378.039" y1="688.67" x2="378.039" y2="642.67" gradientUnits="userSpaceOnUse">
<stop stop-color="#F6C067"/>
<stop offset="0.12" stop-color="#F3BC62"/>
<stop offset="0.26" stop-color="#EBB255"/>
<stop offset="0.41" stop-color="#DEA13F"/>
<stop offset="0.48" stop-color="#D79935"/>
<stop offset="0.49" stop-color="#E8B760"/>
<stop offset="0.5" stop-color="#FBD993"/>
<stop offset="0.51" stop-color="#FEDE9A"/>
<stop offset="0.99" stop-color="#FFFAEF"/>
</linearGradient>
<linearGradient id="paint14_linear_186_180024" x1="159.159" y1="755.3" x2="159.159" y2="709.3" gradientUnits="userSpaceOnUse">
<stop stop-color="#F6C067"/>
<stop offset="0.12" stop-color="#F3BC62"/>
<stop offset="0.26" stop-color="#EBB255"/>
<stop offset="0.41" stop-color="#DEA13F"/>
<stop offset="0.48" stop-color="#D79935"/>
<stop offset="0.49" stop-color="#E8B760"/>
<stop offset="0.5" stop-color="#FBD993"/>
<stop offset="0.51" stop-color="#FEDE9A"/>
<stop offset="0.99" stop-color="#FFFAEF"/>
</linearGradient>
<linearGradient id="paint15_linear_186_180024" x1="450.999" y1="755.3" x2="450.999" y2="709.3" gradientUnits="userSpaceOnUse">
<stop stop-color="#F6C067"/>
<stop offset="0.12" stop-color="#F3BC62"/>
<stop offset="0.26" stop-color="#EBB255"/>
<stop offset="0.41" stop-color="#DEA13F"/>
<stop offset="0.48" stop-color="#D79935"/>
<stop offset="0.49" stop-color="#E8B760"/>
<stop offset="0.5" stop-color="#FBD993"/>
<stop offset="0.51" stop-color="#FEDE9A"/>
<stop offset="0.99" stop-color="#FFFAEF"/>
</linearGradient>
<linearGradient id="paint16_linear_186_180024" x1="232.119" y1="755.3" x2="232.119" y2="709.3" gradientUnits="userSpaceOnUse">
<stop stop-color="#F6C067"/>
<stop offset="0.12" stop-color="#F3BC62"/>
<stop offset="0.26" stop-color="#EBB255"/>
<stop offset="0.41" stop-color="#DEA13F"/>
<stop offset="0.48" stop-color="#D79935"/>
<stop offset="0.49" stop-color="#E8B760"/>
<stop offset="0.5" stop-color="#FBD993"/>
<stop offset="0.51" stop-color="#FEDE9A"/>
<stop offset="0.99" stop-color="#FFFAEF"/>
</linearGradient>
<linearGradient id="paint17_linear_186_180024" x1="305.079" y1="755.3" x2="305.079" y2="709.3" gradientUnits="userSpaceOnUse">
<stop stop-color="#F6C067"/>
<stop offset="0.12" stop-color="#F3BC62"/>
<stop offset="0.26" stop-color="#EBB255"/>
<stop offset="0.41" stop-color="#DEA13F"/>
<stop offset="0.48" stop-color="#D79935"/>
<stop offset="0.49" stop-color="#E8B760"/>
<stop offset="0.5" stop-color="#FBD993"/>
<stop offset="0.51" stop-color="#FEDE9A"/>
<stop offset="0.99" stop-color="#FFFAEF"/>
</linearGradient>
<linearGradient id="paint18_linear_186_180024" x1="378.039" y1="755.3" x2="378.039" y2="709.3" gradientUnits="userSpaceOnUse">
<stop stop-color="#F6C067"/>
<stop offset="0.12" stop-color="#F3BC62"/>
<stop offset="0.26" stop-color="#EBB255"/>
<stop offset="0.41" stop-color="#DEA13F"/>
<stop offset="0.48" stop-color="#D79935"/>
<stop offset="0.49" stop-color="#E8B760"/>
<stop offset="0.5" stop-color="#FBD993"/>
<stop offset="0.51" stop-color="#FEDE9A"/>
<stop offset="0.99" stop-color="#FFFAEF"/>
</linearGradient>
<linearGradient id="paint19_linear_186_180024" x1="305.85" y1="830.55" x2="305.85" y2="775.21" gradientUnits="userSpaceOnUse">
<stop stop-color="#39280D"/>
<stop offset="0.13" stop-color="#704F19"/>
<stop offset="0.24" stop-color="#9C6E23"/>
<stop offset="0.34" stop-color="#BB842B"/>
<stop offset="0.42" stop-color="#CF922F"/>
<stop offset="0.48" stop-color="#D69731"/>
<stop offset="0.49" stop-color="#D79935"/>
<stop offset="0.62" stop-color="#E8B760"/>
<stop offset="0.74" stop-color="#F4CC7F"/>
<stop offset="0.84" stop-color="#FBD993"/>
<stop offset="0.91" stop-color="#FEDE9A"/>
<stop offset="0.99" stop-color="#FFFAEF"/>
</linearGradient>
<radialGradient id="paint20_radial_186_180024" cx="0" cy="0" r="1" gradientUnits="userSpaceOnUse" gradientTransform="translate(409.357 774.268) scale(0.54 0.145)">
<stop stop-color="white"/>
<stop offset="0.64" stop-color="#575757" stop-opacity="0.34"/>
<stop offset="1" stop-opacity="0"/>
</radialGradient>
<radialGradient id="paint21_radial_186_180024" cx="0" cy="0" r="1" gradientUnits="userSpaceOnUse" gradientTransform="translate(442.48 611.874) scale(0.54 0.145)">
<stop stop-color="white"/>
<stop offset="0.64" stop-color="#575757" stop-opacity="0.34"/>
<stop offset="1" stop-opacity="0"/>
</radialGradient>
<radialGradient id="paint22_radial_186_180024" cx="0" cy="0" r="1" gradientUnits="userSpaceOnUse" gradientTransform="translate(12.3309 740.801) rotate(-49.94) scale(74.25 56.43)">
<stop stop-color="#FD1C3A"/>
<stop offset="0.07" stop-color="#DF1833"/>
<stop offset="0.18" stop-color="#B11329"/>
<stop offset="0.3" stop-color="#8A0E20"/>
<stop offset="0.43" stop-color="#6A0B19"/>
<stop offset="0.55" stop-color="#520813"/>
<stop offset="0.69" stop-color="#400610"/>
<stop offset="0.83" stop-color="#36050D"/>
<stop offset="1" stop-color="#33050D"/>
</radialGradient>
<linearGradient id="paint23_linear_186_180024" x1="23.1197" y1="762.026" x2="-36.6629" y2="647.63" gradientUnits="userSpaceOnUse">
<stop stop-color="#FD1C3A"/>
<stop offset="0.09" stop-color="#DE1833"/>
<stop offset="0.26" stop-color="#AA1227"/>
<stop offset="0.43" stop-color="#7F0D1E"/>
<stop offset="0.59" stop-color="#5E0916"/>
<stop offset="0.74" stop-color="#460711"/>
<stop offset="0.88" stop-color="#37050E"/>
<stop offset="1" stop-color="#33050D"/>
</linearGradient>
<linearGradient id="paint24_linear_186_180024" x1="-76.5121" y1="751.453" x2="8.65595" y2="735.099" gradientUnits="userSpaceOnUse">
<stop stop-color="white"/>
<stop offset="0.1" stop-color="#FCFCFC" stop-opacity="0.87"/>
<stop offset="0.35" stop-color="#F7F7F7" stop-opacity="0.57"/>
<stop offset="0.58" stop-color="#F2F2F2" stop-opacity="0.32"/>
<stop offset="0.77" stop-color="#EFEFEF" stop-opacity="0.15"/>
<stop offset="0.91" stop-color="#EDEDED" stop-opacity="0.04"/>
<stop offset="1" stop-color="#EDEDED" stop-opacity="0"/>
</linearGradient>
<radialGradient id="paint25_radial_186_180024" cx="0" cy="0" r="1" gradientUnits="userSpaceOnUse" gradientTransform="translate(592.133 501.984) rotate(-68.96) scale(74.25 56.43)">
<stop stop-color="#FD1C3A"/>
<stop offset="0.07" stop-color="#DF1833"/>
<stop offset="0.18" stop-color="#B11329"/>
<stop offset="0.3" stop-color="#8A0E20"/>
<stop offset="0.43" stop-color="#6A0B19"/>
<stop offset="0.55" stop-color="#520813"/>
<stop offset="0.69" stop-color="#400610"/>
<stop offset="0.83" stop-color="#36050D"/>
<stop offset="1" stop-color="#33050D"/>
</radialGradient>
<linearGradient id="paint26_linear_186_180024" x1="609.649" y1="518.684" x2="515.849" y2="430.017" gradientUnits="userSpaceOnUse">
<stop stop-color="#FD1C3A"/>
<stop offset="0.09" stop-color="#DE1833"/>
<stop offset="0.26" stop-color="#AA1227"/>
<stop offset="0.43" stop-color="#7F0D1E"/>
<stop offset="0.59" stop-color="#5E0916"/>
<stop offset="0.74" stop-color="#460711"/>
<stop offset="0.88" stop-color="#37050E"/>
<stop offset="1" stop-color="#33050D"/>
</linearGradient>
<linearGradient id="paint27_linear_186_180024" x1="512.011" y1="541.159" x2="587.2" y2="497.942" gradientUnits="userSpaceOnUse">
<stop stop-color="white"/>
<stop offset="0.1" stop-color="#FCFCFC" stop-opacity="0.87"/>
<stop offset="0.35" stop-color="#F7F7F7" stop-opacity="0.57"/>
<stop offset="0.58" stop-color="#F2F2F2" stop-opacity="0.32"/>
<stop offset="0.77" stop-color="#EFEFEF" stop-opacity="0.15"/>
<stop offset="0.91" stop-color="#EDEDED" stop-opacity="0.04"/>
<stop offset="1" stop-color="#EDEDED" stop-opacity="0"/>
</linearGradient>
<radialGradient id="paint28_radial_186_180024" cx="0" cy="0" r="1" gradientUnits="userSpaceOnUse" gradientTransform="translate(17.0681 216.345) rotate(-66.45) scale(74.25 56.43)">
<stop stop-color="#FD1C3A"/>
<stop offset="0.07" stop-color="#DF1833"/>
<stop offset="0.18" stop-color="#B11329"/>
<stop offset="0.3" stop-color="#8A0E20"/>
<stop offset="0.43" stop-color="#6A0B19"/>
<stop offset="0.55" stop-color="#520813"/>
<stop offset="0.69" stop-color="#400610"/>
<stop offset="0.83" stop-color="#36050D"/>
<stop offset="1" stop-color="#33050D"/>
</radialGradient>
<linearGradient id="paint29_linear_186_180024" x1="33.5646" y1="233.683" x2="-56.2718" y2="140.988" gradientUnits="userSpaceOnUse">
<stop stop-color="#FD1C3A"/>
<stop offset="0.09" stop-color="#DE1833"/>
<stop offset="0.26" stop-color="#AA1227"/>
<stop offset="0.43" stop-color="#7F0D1E"/>
<stop offset="0.59" stop-color="#5E0916"/>
<stop offset="0.74" stop-color="#460711"/>
<stop offset="0.88" stop-color="#37050E"/>
<stop offset="1" stop-color="#33050D"/>
</linearGradient>
<linearGradient id="paint30_linear_186_180024" x1="-64.9726" y1="251.862" x2="12.0457" y2="211.983" gradientUnits="userSpaceOnUse">
<stop stop-color="white"/>
<stop offset="0.1" stop-color="#FCFCFC" stop-opacity="0.87"/>
<stop offset="0.35" stop-color="#F7F7F7" stop-opacity="0.57"/>
<stop offset="0.58" stop-color="#F2F2F2" stop-opacity="0.32"/>
<stop offset="0.77" stop-color="#EFEFEF" stop-opacity="0.15"/>
<stop offset="0.91" stop-color="#EDEDED" stop-opacity="0.04"/>
<stop offset="1" stop-color="#EDEDED" stop-opacity="0"/>
</linearGradient>
<radialGradient id="paint31_radial_186_180024" cx="0" cy="0" r="1" gradientUnits="userSpaceOnUse" gradientTransform="translate(63.3108 357.013) rotate(-3.22) scale(74.25 56.43)">
<stop stop-color="#FD1C3A"/>
<stop offset="0.07" stop-color="#DF1833"/>
<stop offset="0.18" stop-color="#B11329"/>
<stop offset="0.3" stop-color="#8A0E20"/>
<stop offset="0.43" stop-color="#6A0B19"/>
<stop offset="0.55" stop-color="#520813"/>
<stop offset="0.69" stop-color="#400610"/>
<stop offset="0.83" stop-color="#36050D"/>
<stop offset="1" stop-color="#33050D"/>
</radialGradient>
<linearGradient id="paint32_linear_186_180024" x1="55.2637" y1="379.675" x2="97.5607" y2="257.727" gradientUnits="userSpaceOnUse">
<stop stop-color="#FD1C3A"/>
<stop offset="0.09" stop-color="#DE1833"/>
<stop offset="0.26" stop-color="#AA1227"/>
<stop offset="0.43" stop-color="#7F0D1E"/>
<stop offset="0.59" stop-color="#5E0916"/>
<stop offset="0.74" stop-color="#460711"/>
<stop offset="0.88" stop-color="#37050E"/>
<stop offset="1" stop-color="#33050D"/>
</linearGradient>
<linearGradient id="paint33_linear_186_180024" x1="-5.32854" y1="299.914" x2="64.9754" y2="350.705" gradientUnits="userSpaceOnUse">
<stop stop-color="white"/>
<stop offset="0.1" stop-color="#FCFCFC" stop-opacity="0.87"/>
<stop offset="0.35" stop-color="#F7F7F7" stop-opacity="0.57"/>
<stop offset="0.58" stop-color="#F2F2F2" stop-opacity="0.32"/>
<stop offset="0.77" stop-color="#EFEFEF" stop-opacity="0.15"/>
<stop offset="0.91" stop-color="#EDEDED" stop-opacity="0.04"/>
<stop offset="1" stop-color="#EDEDED" stop-opacity="0"/>
</linearGradient>
<radialGradient id="paint34_radial_186_180024" cx="0" cy="0" r="1" gradientUnits="userSpaceOnUse" gradientTransform="translate(20.6579 550.777) rotate(13.85) scale(74.25 56.43)">
<stop stop-color="#12338A"/>
<stop offset="0.18" stop-color="#0D286A"/>
<stop offset="0.36" stop-color="#091F52"/>
<stop offset="0.55" stop-color="#071840"/>
<stop offset="0.76" stop-color="#051536"/>
<stop offset="1" stop-color="#051433"/>
</radialGradient>
<linearGradient id="paint35_linear_186_180024" x1="6.24747" y1="570.453" x2="82.4778" y2="466.293" gradientUnits="userSpaceOnUse">
<stop stop-color="#13348C"/>
<stop offset="0.08" stop-color="#112F7F"/>
<stop offset="0.34" stop-color="#0B235E"/>
<stop offset="0.58" stop-color="#081A46"/>
<stop offset="0.81" stop-color="#051537"/>
<stop offset="1" stop-color="#051433"/>
</linearGradient>
<linearGradient id="paint36_linear_186_180024" x1="-28.3033" y1="476.38" x2="23.9918" y2="545.581" gradientUnits="userSpaceOnUse">
<stop stop-color="white"/>
<stop offset="0.1" stop-color="#FCFCFC" stop-opacity="0.87"/>
<stop offset="0.35" stop-color="#F7F7F7" stop-opacity="0.57"/>
<stop offset="0.58" stop-color="#F2F2F2" stop-opacity="0.32"/>
<stop offset="0.77" stop-color="#EFEFEF" stop-opacity="0.15"/>
<stop offset="0.91" stop-color="#EDEDED" stop-opacity="0.04"/>
<stop offset="1" stop-color="#EDEDED" stop-opacity="0"/>
</linearGradient>
<radialGradient id="paint37_radial_186_180024" cx="0" cy="0" r="1" gradientUnits="userSpaceOnUse" gradientTransform="translate(48.2441 0.519399) rotate(13.85) scale(74.25 56.43)">
<stop stop-color="#12338A"/>
<stop offset="0.18" stop-color="#0D286A"/>
<stop offset="0.36" stop-color="#091F52"/>
<stop offset="0.55" stop-color="#071840"/>
<stop offset="0.76" stop-color="#051536"/>
<stop offset="1" stop-color="#051433"/>
</radialGradient>
<linearGradient id="paint38_linear_186_180024" x1="33.9866" y1="19.5125" x2="110.217" y2="-84.6478" gradientUnits="userSpaceOnUse">
<stop stop-color="#13348C"/>
<stop offset="0.08" stop-color="#112F7F"/>
<stop offset="0.34" stop-color="#0B235E"/>
<stop offset="0.58" stop-color="#081A46"/>
<stop offset="0.81" stop-color="#051537"/>
<stop offset="1" stop-color="#051433"/>
</linearGradient>
<linearGradient id="paint39_linear_186_180024" x1="-0.554172" y1="-74.5551" x2="51.741" y2="-5.35467" gradientUnits="userSpaceOnUse">
<stop stop-color="white"/>
<stop offset="0.1" stop-color="#FCFCFC" stop-opacity="0.87"/>
<stop offset="0.35" stop-color="#F7F7F7" stop-opacity="0.57"/>
<stop offset="0.58" stop-color="#F2F2F2" stop-opacity="0.32"/>
<stop offset="0.77" stop-color="#EFEFEF" stop-opacity="0.15"/>
<stop offset="0.91" stop-color="#EDEDED" stop-opacity="0.04"/>
<stop offset="1" stop-color="#EDEDED" stop-opacity="0"/>
</linearGradient>
<radialGradient id="paint40_radial_186_180024" cx="0" cy="0" r="1" gradientUnits="userSpaceOnUse" gradientTransform="translate(573.727 202.395) rotate(13.85) scale(74.25 56.43)">
<stop stop-color="#12338A"/>
<stop offset="0.18" stop-color="#0D286A"/>
<stop offset="0.36" stop-color="#091F52"/>
<stop offset="0.55" stop-color="#071840"/>
<stop offset="0.76" stop-color="#051536"/>
<stop offset="1" stop-color="#051433"/>
</radialGradient>
<linearGradient id="paint41_linear_186_180024" x1="559.434" y1="221.472" x2="635.667" y2="117.302" gradientUnits="userSpaceOnUse">
<stop stop-color="#13348C"/>
<stop offset="0.08" stop-color="#112F7F"/>
<stop offset="0.34" stop-color="#0B235E"/>
<stop offset="0.58" stop-color="#081A46"/>
<stop offset="0.81" stop-color="#051537"/>
<stop offset="1" stop-color="#051433"/>
</linearGradient>
<linearGradient id="paint42_linear_186_180024" x1="524.91" y1="127.402" x2="577.205" y2="196.603" gradientUnits="userSpaceOnUse">
<stop stop-color="white"/>
<stop offset="0.1" stop-color="#FCFCFC" stop-opacity="0.87"/>
<stop offset="0.35" stop-color="#F7F7F7" stop-opacity="0.57"/>
<stop offset="0.58" stop-color="#F2F2F2" stop-opacity="0.32"/>
<stop offset="0.77" stop-color="#EFEFEF" stop-opacity="0.15"/>
<stop offset="0.91" stop-color="#EDEDED" stop-opacity="0.04"/>
<stop offset="1" stop-color="#EDEDED" stop-opacity="0"/>
</linearGradient>
<radialGradient id="paint43_radial_186_180024" cx="0" cy="0" r="1" gradientUnits="userSpaceOnUse" gradientTransform="translate(589.863 777.728) rotate(13.85) scale(74.25 56.43)">
<stop stop-color="#12338A"/>
<stop offset="0.18" stop-color="#0D286A"/>
<stop offset="0.36" stop-color="#091F52"/>
<stop offset="0.55" stop-color="#071840"/>
<stop offset="0.76" stop-color="#051536"/>
<stop offset="1" stop-color="#051433"/>
</radialGradient>
<linearGradient id="paint44_linear_186_180024" x1="575.398" y1="797.501" x2="651.631" y2="693.331" gradientUnits="userSpaceOnUse">
<stop stop-color="#13348C"/>
<stop offset="0.08" stop-color="#112F7F"/>
<stop offset="0.34" stop-color="#0B235E"/>
<stop offset="0.58" stop-color="#081A46"/>
<stop offset="0.81" stop-color="#051537"/>
<stop offset="1" stop-color="#051433"/>
</linearGradient>
<linearGradient id="paint45_linear_186_180024" x1="540.874" y1="703.431" x2="593.169" y2="772.632" gradientUnits="userSpaceOnUse">
<stop stop-color="white"/>
<stop offset="0.1" stop-color="#FCFCFC" stop-opacity="0.87"/>
<stop offset="0.35" stop-color="#F7F7F7" stop-opacity="0.57"/>
<stop offset="0.58" stop-color="#F2F2F2" stop-opacity="0.32"/>
<stop offset="0.77" stop-color="#EFEFEF" stop-opacity="0.15"/>
<stop offset="0.91" stop-color="#EDEDED" stop-opacity="0.04"/>
<stop offset="1" stop-color="#EDEDED" stop-opacity="0"/>
</linearGradient>
</defs>
</svg>
