<svg width="54" height="54" viewBox="0 0 54 54" fill="none" xmlns="http://www.w3.org/2000/svg">
<path d="M11.38 51.1799C10.2025 51.1799 9.12249 50.5349 8.55999 49.4999L8.54499 49.4699V49.4249C8.41749 49.2224 8.31999 48.9524 8.26749 48.6974C8.20749 48.4799 8.17749 48.2324 8.17749 47.9699V8.33238C8.17749 6.56988 9.61749 5.12988 11.3875 5.12988H40.03C41.7925 5.12988 43.2325 6.56238 43.2325 8.33238V31.7849C43.2325 32.0624 43 32.3024 42.715 32.3024C42.43 32.3024 42.1975 32.0699 42.1975 31.7849V8.33238C42.1975 7.13238 41.2225 6.15738 40.0225 6.15738H11.38C10.18 6.15738 9.19749 7.13238 9.19749 8.33238V48.0224C9.20499 48.2924 9.26499 48.5624 9.36999 48.8174C9.70749 49.6274 10.5025 50.1524 11.38 50.1524H40.0225C40.3075 50.1524 40.54 50.3849 40.54 50.6699C40.54 50.9549 40.315 51.1874 40.0225 51.1874H11.38V51.1799Z" fill="#7268EF" stroke="#7268EF"/>
<path d="M43.0751 8.33244V31.7849C43.0751 31.9799 42.9026 32.1524 42.7076 32.1524C42.5051 32.1524 42.3401 31.9799 42.3401 31.7849V8.33244C42.3401 7.05744 41.2976 6.01494 40.0226 6.01494H11.3801C10.0976 6.01494 9.05507 7.05744 9.05507 8.33244V48.0224C9.06257 48.3224 9.13007 48.6074 9.23507 48.8774C9.58757 49.7174 10.4201 50.3024 11.3801 50.3024H40.0226C40.2251 50.3024 40.3901 50.4749 40.3901 50.6699C40.3901 50.8724 40.2251 51.0374 40.0226 51.0374H11.3801C10.2176 51.0374 9.20507 50.3924 8.68757 49.4399V49.4324C8.56007 49.1999 8.46257 48.9374 8.41007 48.6749C8.35007 48.4574 8.32007 48.2174 8.32007 47.9774V8.33244C8.32007 6.65244 9.69257 5.27994 11.3801 5.27994H40.0226C41.7026 5.27244 43.0751 6.64494 43.0751 8.33244Z" fill="#7268EF" stroke="#7268EF"/>
<path d="M21.5052 42.1198C20.4702 42.1198 19.4577 41.9773 18.4827 41.6848C18.2277 41.6098 17.9877 41.5273 17.7402 41.4373C17.1102 41.2048 16.5327 40.9273 15.9852 40.5973C15.7677 40.4698 15.5502 40.3273 15.3402 40.1923C14.6202 39.6898 13.9677 39.1123 13.3977 38.4673C13.2327 38.2798 13.0752 38.0848 12.9252 37.8973C11.4477 35.9848 10.6602 33.6973 10.6602 31.2823C10.6602 25.3048 15.5202 20.4448 21.4977 20.4448C27.4752 20.4448 32.3352 25.3048 32.3352 31.2823V31.4173C32.3277 31.6723 32.3202 31.9198 32.2977 32.1673C31.8627 37.7398 27.1152 42.1198 21.5052 42.1198ZM16.3377 39.6073C16.9602 39.9973 17.6052 40.3123 18.2802 40.5448C19.3527 40.9123 20.4177 41.0848 21.5052 41.0848C26.7402 41.0848 31.0377 36.9973 31.3002 31.7773C31.3077 31.5973 31.3152 31.4323 31.3152 31.2673C31.3152 25.8598 26.9127 21.4573 21.5052 21.4573C16.0977 21.4573 11.6952 25.8598 11.6952 31.2673C11.6952 34.5898 13.3677 37.6648 16.1652 39.4948H16.2702L16.2777 39.5623C16.2927 39.5848 16.3152 39.5998 16.3377 39.6073Z" fill="#7268EF" stroke="#7268EF"/>
<path d="M21.5051 20.5873C15.6101 20.5873 10.8101 25.3798 10.8101 31.2823C10.8101 33.7348 11.6501 35.9998 13.0451 37.8073C13.1951 37.9948 13.3451 38.1898 13.5101 38.3698C14.0726 39.0073 14.7176 39.5773 15.4226 40.0723C15.6251 40.2148 15.8426 40.3498 16.0601 40.4773C16.6076 40.8073 17.1851 41.0773 17.7926 41.3098C18.0326 41.3998 18.2801 41.4823 18.5276 41.5498C19.4726 41.8273 20.4701 41.9773 21.5051 41.9773C27.1076 41.9773 31.7201 37.6423 32.1626 32.1523C32.1851 31.9123 32.1926 31.6648 32.2001 31.4173V31.2823C32.2001 25.3798 27.4001 20.5873 21.5051 20.5873ZM21.5051 41.2423C20.3801 41.2423 19.3001 41.0623 18.2951 40.7173C18.2726 40.7098 18.2501 40.7023 18.2276 40.6948C17.5376 40.4548 16.8851 40.1398 16.2776 39.7573L16.2701 39.7498C16.2251 39.7273 16.1726 39.6973 16.1276 39.6673C16.1276 39.6598 16.1201 39.6598 16.1201 39.6598H16.1126C13.3601 37.8748 11.5376 34.7923 11.5376 31.2823C11.5376 25.7923 16.0076 21.3223 21.4976 21.3223C26.9876 21.3223 31.4576 25.7923 31.4576 31.2823C31.4576 31.4473 31.4501 31.6123 31.4426 31.7773V31.7848C31.4426 31.7923 31.4426 31.7923 31.4426 31.7998C31.1876 37.0423 26.8301 41.2423 21.5051 41.2423Z" fill="#7268EF" stroke="#7268EF"/>
<path d="M21.5049 38.9924C17.2524 38.9924 13.7949 35.5349 13.7949 31.2749C13.7949 27.0224 17.2524 23.5649 21.5049 23.5649C25.7574 23.5649 29.2149 27.0224 29.2149 31.2749C29.2224 35.5349 25.7574 38.9924 21.5049 38.9924ZM21.5049 24.5924C17.8149 24.5924 14.8224 27.5924 14.8224 31.2749C14.8224 34.9574 17.8224 37.9649 21.5049 37.9649C25.1949 37.9649 28.1874 34.9649 28.1874 31.2749C28.1874 27.5849 25.1949 24.5924 21.5049 24.5924Z" fill="#7268EF" stroke="#7268EF"/>
<path d="M21.505 23.715C17.3275 23.715 13.9375 27.105 13.9375 31.2825C13.9375 35.4525 17.3275 38.85 21.505 38.85C25.675 38.85 29.0725 35.4525 29.0725 31.2825C29.0725 27.105 25.675 23.715 21.505 23.715ZM21.505 38.115C17.74 38.115 14.6725 35.0475 14.6725 31.2825C14.6725 27.51 17.74 24.45 21.505 24.45C25.27 24.45 28.3375 27.51 28.3375 31.2825C28.3375 35.0475 25.27 38.115 21.505 38.115Z" fill="#7268EF" stroke="#7268EF"/>
<path d="M21.505 38.2575C17.6575 38.2575 14.5225 35.1225 14.5225 31.275C14.5225 27.4275 17.6575 24.2925 21.505 24.2925C25.3525 24.2925 28.4875 27.4275 28.4875 31.275C28.4875 35.13 25.3525 38.2575 21.505 38.2575ZM20.215 32.3475C20.095 32.3475 19.9975 32.445 19.9975 32.565C19.9975 33.225 20.4775 33.7875 21.175 33.93L21.295 33.9525V35.0025C21.295 35.13 21.3925 35.22 21.5125 35.22C21.64 35.22 21.73 35.1225 21.73 35.0025V33.9525L21.85 33.93C22.54 33.7875 23.0275 33.225 23.0275 32.565C23.0275 31.8 22.4875 31.275 21.5875 31.17L21.535 31.1625L21.5275 31.155C20.8 31.0425 20.4475 30.69 20.4475 30.0975C20.44 29.82 20.545 29.55 20.74 29.34C20.935 29.1375 21.205 29.0175 21.49 29.01C22.105 29.0175 22.5775 29.4825 22.585 30.0675C22.5925 30.24 22.7575 30.2775 22.825 30.285C22.87 30.285 22.9225 30.2625 22.9675 30.2175C23.005 30.18 23.0275 30.12 23.0275 30.0675C23.0125 29.3475 22.525 28.7475 21.8275 28.605L21.7075 28.5825V27.5325C21.7075 27.405 21.61 27.315 21.49 27.315C21.37 27.315 21.2725 27.4125 21.2725 27.5325V28.59L21.16 28.62C20.4775 28.785 19.99 29.415 20.005 30.12C20.0125 30.9375 20.5375 31.4625 21.4825 31.5975L21.5275 31.605H21.5575C22.2175 31.695 22.585 32.04 22.585 32.565C22.585 33.0975 22.105 33.525 21.5125 33.525C20.92 33.525 20.44 33.09 20.44 32.565C20.4325 32.4525 20.335 32.3475 20.215 32.3475Z" fill="#7268EF" stroke="#7268EF"/>
<path d="M21.5049 24.45C17.7399 24.45 14.6724 27.51 14.6724 31.2825C14.6724 35.0475 17.7399 38.115 21.5049 38.115C25.2699 38.115 28.3374 35.0475 28.3374 31.2825C28.3374 27.51 25.2699 24.45 21.5049 24.45ZM21.5724 31.02C21.5799 31.02 21.5874 31.02 21.5949 31.0275C22.5699 31.1475 23.1624 31.7325 23.1624 32.565C23.1624 33.3075 22.6149 33.9225 21.8724 34.08V35.01C21.8724 35.2125 21.7074 35.3775 21.5049 35.3775C21.3024 35.3775 21.1374 35.2125 21.1374 35.01V34.08C20.3949 33.9225 19.8474 33.3075 19.8474 32.565C19.8474 32.3625 20.0124 32.1975 20.2149 32.1975C20.4099 32.1975 20.5824 32.3625 20.5824 32.565C20.5824 33.015 20.9949 33.3825 21.5049 33.3825C22.0224 33.3825 22.4274 33.015 22.4274 32.565C22.4274 32.0025 21.9474 31.8075 21.5274 31.7475C21.5049 31.7475 21.4899 31.74 21.4674 31.74C21.4599 31.74 21.4524 31.74 21.4449 31.7325C20.4399 31.5825 19.8549 31.005 19.8474 30.1125C19.8324 29.3175 20.3724 28.6425 21.1149 28.47V27.5325C21.1149 27.33 21.2799 27.165 21.4824 27.165C21.6849 27.165 21.8499 27.33 21.8499 27.5325V28.4625C22.5924 28.62 23.1474 29.2725 23.1624 30.06C23.1699 30.255 23.0049 30.4275 22.8024 30.4275C22.5924 30.405 22.4349 30.27 22.4274 30.0675C22.4199 29.5575 21.9999 29.1675 21.4899 29.16H21.4824C20.9649 29.175 20.5674 29.595 20.5824 30.0975C20.5824 30.3 20.5899 30.8925 21.5724 31.02Z" fill="#7268EF" stroke="#7268EF"/>
<path d="M13.7574 42.7649C13.6224 42.7649 13.4949 42.7124 13.3974 42.6224L11.0724 40.2974C10.9674 40.1849 10.9224 40.0574 10.9224 39.9299C10.9224 39.8024 10.9749 39.6824 11.0724 39.5774L13.1799 37.4774C13.2699 37.3799 13.4049 37.3274 13.5399 37.3274C13.6749 37.3274 13.8099 37.3874 13.8999 37.4849C13.9974 37.5749 14.0499 37.7024 14.0499 37.8449C14.0499 37.9874 13.9974 38.1149 13.8924 38.2049L12.1599 39.9374L13.7574 41.5424L15.6474 39.6524C15.7524 39.5549 15.8799 39.5024 16.0149 39.5024C16.0674 39.5024 16.1124 39.5099 16.1649 39.5249L16.2699 39.5549V39.5849C16.2924 39.5999 16.3149 39.6074 16.3374 39.6224C16.5699 39.8699 16.5699 40.1774 16.3749 40.3724L14.1174 42.6299C14.0274 42.7124 13.8999 42.7649 13.7574 42.7649Z" fill="#7268EF" stroke="#7268EF"/>
<path d="M16.2699 40.2598L16.0599 40.4698L14.2749 42.2548L14.0199 42.5098C13.9449 42.5848 13.8474 42.6148 13.7574 42.6148C13.6674 42.6148 13.5774 42.5848 13.5024 42.5098L11.1774 40.1848C11.1099 40.1098 11.0649 40.0198 11.0649 39.9223C11.0649 39.8248 11.1099 39.7423 11.1774 39.6673L11.4324 39.4123L13.0449 37.8073L13.2699 37.5823C13.4124 37.4323 13.6449 37.4323 13.7874 37.5823C13.9374 37.7248 13.9374 37.9573 13.7874 38.0998L11.9499 39.9373L13.7574 41.7523L15.7524 39.7573C15.8574 39.6598 15.9999 39.6298 16.1274 39.6673C16.1274 39.6673 16.1349 39.6673 16.1349 39.6748C16.1799 39.7048 16.2324 39.7348 16.2774 39.7573L16.2849 39.7648C16.4124 39.8923 16.4124 40.1173 16.2699 40.2598Z" fill="#7268EF" stroke="#7268EF"/>
<path d="M5.41747 52.6799C5.28997 52.6799 5.15497 52.6274 5.05747 52.5299C4.95997 52.4324 4.90747 52.3049 4.90747 52.1699C4.90747 52.0349 4.95997 51.8999 5.06497 51.8099L13.825 43.0499L13.3975 42.6224C13.2025 42.4274 13.2025 42.0974 13.3975 41.9024C13.495 41.8049 13.6225 41.7524 13.765 41.7524C13.9 41.7524 14.0275 41.8049 14.1325 41.9024L14.92 42.6824C15.115 42.8924 15.115 43.2149 14.92 43.4099L8.84497 49.4849L8.79997 49.5374L5.79997 52.5299C5.68747 52.6274 5.55997 52.6799 5.41747 52.6799Z" fill="#7268EF" stroke="#7268EF"/>
<path d="M14.8074 43.3049L8.68737 49.4249V49.4324L5.68737 52.4249C5.61237 52.4999 5.51487 52.5374 5.42487 52.5374C5.33487 52.5374 5.24487 52.4999 5.16987 52.4249C5.01987 52.2824 5.01987 52.0499 5.16987 51.9074L5.43237 51.6449L9.05487 48.0224L14.0274 43.0499L13.5024 42.5249C13.3599 42.3824 13.3599 42.1499 13.5024 42.0074C13.6524 41.8574 13.8774 41.8574 14.0199 42.0074L14.2749 42.2624L14.7999 42.7799C14.9424 42.9299 14.9424 43.1624 14.8074 43.3049Z" fill="#7268EF" stroke="#7268EF"/>
<path d="M8.90503 41.1749L10.6375 39.4424L14.2375 43.0424L8.90503 48.3749V41.1749Z" fill="#7268EF" stroke="#7268EF"/>
<path d="M14.0277 43.0423L9.05518 48.0223V41.2423L10.6377 39.6523L11.1702 40.1923L13.5027 42.5173L14.0277 43.0423Z" fill="#7268EF" stroke="#7268EF"/>
<path d="M5.4175 52.6799C5.2825 52.6799 5.155 52.6274 5.0575 52.5299L1.15 48.6224C1.0525 48.5249 1 48.3974 1 48.2624C1 48.1274 1.0525 47.9999 1.15 47.8949L10.27 38.7749C10.36 38.6849 10.4875 38.6249 10.63 38.6249C10.7725 38.6249 10.9075 38.6774 10.9975 38.7749L11.785 39.5624C11.9875 39.7649 11.9875 40.0874 11.785 40.2899C11.6875 40.3874 11.56 40.4399 11.425 40.4399C11.29 40.4399 11.1625 40.3874 11.065 40.2899L10.63 39.8549L2.245 48.2549L5.53 51.5399L5.785 51.8024C5.98 51.9974 5.98 52.3274 5.785 52.5224C5.6875 52.6274 5.56 52.6799 5.4175 52.6799Z" fill="#7268EF" stroke="#7268EF"/>
<path d="M11.6876 40.1923C11.5451 40.3348 11.3126 40.3348 11.1701 40.1923L10.6376 39.6598L9.05508 41.2423L2.03508 48.2548L5.42508 51.6448L5.68008 51.9073C5.82258 52.0498 5.82258 52.2823 5.68008 52.4248C5.60508 52.4998 5.50758 52.5373 5.41758 52.5373C5.32758 52.5373 5.23758 52.4998 5.16258 52.4248L1.25508 48.5173C1.10508 48.3673 1.10508 48.1423 1.25508 47.9998L10.3751 38.8798C10.5101 38.7373 10.7576 38.7373 10.8851 38.8798L11.6801 39.6748C11.8301 39.8173 11.8301 40.0423 11.6876 40.1923Z" fill="#7268EF" stroke="#7268EF"/>
<path d="M18.1601 51.1724C17.8751 51.1724 17.6426 50.9399 17.6426 50.6549V41.0474C17.6426 40.7624 17.8751 40.5299 18.1601 40.5299C18.4451 40.5299 18.6776 40.7624 18.6776 41.0474V50.1524H47.9801V32.2949H31.8176C31.5326 32.2949 31.3001 32.0624 31.3001 31.7774C31.3001 31.4924 31.5326 31.2599 31.8176 31.2599H48.4826C48.7676 31.2599 49.0001 31.4924 49.0001 31.7774V50.6624C49.0001 50.9474 48.7676 51.1799 48.4826 51.1799H18.1601V51.1724Z" fill="#7268EF" stroke="#7268EF"/>
<path d="M48.4825 51.0299H18.16C17.9575 51.0299 17.7925 50.8649 17.7925 50.6624V41.0474C17.7925 40.8449 17.9575 40.6799 18.16 40.6799C18.3625 40.6799 18.5275 40.8449 18.5275 41.0474V50.2949H48.1225V32.1449H31.8175C31.615 32.1449 31.45 31.9799 31.45 31.7774C31.45 31.5749 31.615 31.4099 31.8175 31.4099H48.4825C48.685 31.4099 48.85 31.5749 48.85 31.7774V50.6624C48.85 50.8649 48.6925 51.0299 48.4825 51.0299Z" fill="#7268EF" stroke="#7268EF"/>
<path d="M33.7299 41.7374C33.4449 41.7374 33.2124 41.5049 33.2124 41.2199C33.2124 40.9349 33.4449 40.7024 33.7299 40.7024H45.7974C46.0824 40.7024 46.3149 40.9349 46.3149 41.2199C46.3149 41.5049 46.0824 41.7374 45.7974 41.7374H33.7299Z" fill="#7268EF" stroke="#7268EF"/>
<path d="M45.7973 41.5874H33.7298C33.5273 41.5874 33.3623 41.4224 33.3623 41.2199C33.3623 41.0174 33.5273 40.8524 33.7298 40.8524H45.7973C45.9998 40.8524 46.1648 41.0174 46.1648 41.2199C46.1648 41.4224 45.9998 41.5874 45.7973 41.5874Z" fill="#7268EF" stroke="#7268EF"/>
<path d="M33.7299 38.7374C33.4449 38.7374 33.2124 38.5049 33.2124 38.2199C33.2124 37.9349 33.4449 37.7024 33.7299 37.7024H45.7974C46.0824 37.7024 46.3149 37.9349 46.3149 38.2199C46.3149 38.5049 46.0824 38.7374 45.7974 38.7374H33.7299Z" fill="#7268EF" stroke="#7268EF"/>
<path d="M45.7973 38.5949H33.7298C33.5273 38.5949 33.3623 38.4299 33.3623 38.2274C33.3623 38.0249 33.5273 37.8599 33.7298 37.8599H45.7973C45.9998 37.8599 46.1648 38.0249 46.1648 38.2274C46.1648 38.4299 45.9998 38.5949 45.7973 38.5949Z" fill="#7268EF" stroke="#7268EF"/>
<path d="M33.7299 35.7448C33.4449 35.7448 33.2124 35.5123 33.2124 35.2273C33.2124 34.9423 33.4449 34.7098 33.7299 34.7098H45.7974C46.0824 34.7098 46.3149 34.9423 46.3149 35.2273C46.3149 35.5123 46.0824 35.7448 45.7974 35.7448H33.7299Z" fill="#7268EF" stroke="#7268EF"/>
<path d="M45.7973 35.6023H33.7298C33.5273 35.6023 33.3623 35.4373 33.3623 35.2348C33.3623 35.0323 33.5273 34.8673 33.7298 34.8673H45.7973C45.9998 34.8673 46.1648 35.0323 46.1648 35.2348C46.1648 35.4373 45.9998 35.6023 45.7973 35.6023Z" fill="#7268EF" stroke="#7268EF"/>
<path d="M24.9623 44.8949C24.6773 44.8949 24.4448 44.6624 24.4448 44.3774C24.4448 44.0924 24.6773 43.8599 24.9623 43.8599H45.7973C46.0823 43.8599 46.3148 44.0924 46.3148 44.3774C46.3148 44.6624 46.0823 44.8949 45.7973 44.8949H24.9623Z" fill="#7268EF" stroke="#7268EF"/>
<path d="M45.7972 44.7523H24.9622C24.7597 44.7523 24.5947 44.5873 24.5947 44.3848C24.5947 44.1823 24.7597 44.0173 24.9622 44.0173H45.7972C45.9997 44.0173 46.1647 44.1823 46.1647 44.3848C46.1647 44.5873 45.9997 44.7523 45.7972 44.7523Z" fill="#7268EF" stroke="#7268EF"/>
<path d="M24.9623 48.3674C24.6773 48.3674 24.4448 48.1349 24.4448 47.8499C24.4448 47.5649 24.6773 47.3324 24.9623 47.3324H45.7973C46.0823 47.3324 46.3148 47.5649 46.3148 47.8499C46.3148 48.1349 46.0823 48.3674 45.7973 48.3674H24.9623Z" fill="#7268EF" stroke="#7268EF"/>
<path d="M45.7972 48.2174H24.9622C24.7597 48.2174 24.5947 48.0524 24.5947 47.8499C24.5947 47.6474 24.7597 47.4824 24.9622 47.4824H45.7972C45.9997 47.4824 46.1647 47.6474 46.1647 47.8499C46.1647 48.0524 45.9997 48.2174 45.7972 48.2174Z" fill="#7268EF" stroke="#7268EF"/>
<path d="M15.1524 14.7823C14.4024 14.7823 13.7949 14.1673 13.7949 13.4173V10.2598C13.7949 9.50984 14.4024 8.90234 15.1524 8.90234H35.9799C36.7299 8.90234 37.3449 9.50984 37.3449 10.2598V13.4173C37.3449 14.1673 36.7299 14.7823 35.9799 14.7823H15.1524ZM15.1524 9.92984C14.9724 9.92984 14.8224 10.0798 14.8224 10.2598V13.4173C14.8224 13.6048 14.9649 13.7548 15.1524 13.7548H35.9799C36.1674 13.7548 36.3174 13.6048 36.3174 13.4173V10.2598C36.3174 10.0798 36.1674 9.92984 35.9799 9.92984H15.1524Z" fill="#7268EF" stroke="#7268EF"/>
<path d="M35.9798 9.0448H15.1523C14.4848 9.0448 13.9448 9.5848 13.9448 10.2523V13.4098C13.9448 14.0848 14.4848 14.6248 15.1523 14.6248H35.9798C36.6473 14.6248 37.1948 14.0848 37.1948 13.4098V10.2598C37.1948 9.5923 36.6473 9.0448 35.9798 9.0448ZM36.4673 13.4173C36.4673 13.6873 36.2498 13.9048 35.9798 13.9048H15.1523C14.8898 13.9048 14.6723 13.6948 14.6723 13.4173V10.2598C14.6723 9.9973 14.8823 9.7798 15.1523 9.7798H35.9798C36.2423 9.7798 36.4673 9.9898 36.4673 10.2598V13.4173Z" fill="#7268EF" stroke="#7268EF"/>
<path d="M15.1525 14.0473C14.8 14.0473 14.53 13.7698 14.53 13.4173V10.2598C14.53 9.91483 14.8075 9.63733 15.1525 9.63733H35.98C36.325 9.63733 36.61 9.91483 36.61 10.2598V13.4173C36.61 13.7623 36.325 14.0473 35.98 14.0473H15.1525Z" fill="#7268EF" stroke="#7268EF"/>
<path d="M36.4674 10.2598V13.4173C36.4674 13.6873 36.2499 13.9048 35.9799 13.9048H15.1524C14.8899 13.9048 14.6724 13.6948 14.6724 13.4173V10.2598C14.6724 9.99729 14.8824 9.77979 15.1524 9.77979H35.9799C36.2424 9.77979 36.4674 9.99729 36.4674 10.2598Z" fill="#7268EF" stroke="#7268EF"/>
<path d="M31.675 20.3099C31.39 20.3099 31.1575 20.0774 31.1575 19.7924C31.1575 19.5074 31.39 19.2749 31.675 19.2749H37.0825C37.3675 19.2749 37.6 19.5074 37.6 19.7924C37.6 20.0774 37.3675 20.3099 37.0825 20.3099H31.675Z" fill="#7268EF" stroke="#7268EF"/>
<path d="M37.0824 20.1599H31.6749C31.4724 20.1599 31.3074 19.9949 31.3074 19.7924C31.3074 19.5899 31.4724 19.4249 31.6749 19.4249H37.0824C37.2849 19.4249 37.4499 19.5899 37.4499 19.7924C37.4424 19.9949 37.2849 20.1599 37.0824 20.1599Z" fill="#7268EF" stroke="#7268EF"/>
<path d="M35.3725 26.5724C35.23 26.5724 35.1025 26.5199 35.005 26.4149L31.3 22.5674C31.1575 22.4174 31.12 22.1999 31.195 22.0124C31.2775 21.8249 31.465 21.6974 31.6675 21.6974H33.0625C34.15 21.6974 35.035 20.8124 35.035 19.7249C35.035 18.6374 34.15 17.7524 33.0625 17.7524H31.675C31.39 17.7524 31.1575 17.5199 31.1575 17.2349C31.1575 16.9499 31.39 16.7174 31.675 16.7174H37.0825C37.3675 16.7174 37.6 16.9499 37.6 17.2349C37.6 17.5199 37.3675 17.7524 37.0825 17.7524H35.3275C35.8 18.2999 36.07 18.9974 36.07 19.7249C36.07 21.3749 34.7275 22.7249 33.07 22.7249H32.875L35.74 25.7024C35.8375 25.7999 35.8825 25.9349 35.8825 26.0699C35.8825 26.2049 35.8225 26.3324 35.725 26.4299C35.635 26.5199 35.5075 26.5724 35.3725 26.5724Z" fill="#7268EF" stroke="#7268EF"/>
<path d="M35.3725 26.4224C35.275 26.4224 35.1775 26.3849 35.11 26.3099L31.405 22.4624C31.3 22.3574 31.2775 22.1999 31.33 22.0649C31.39 21.9299 31.5175 21.8399 31.6675 21.8399H33.0625C34.2325 21.8399 35.1775 20.8874 35.1775 19.7249C35.1775 18.5624 34.225 17.6099 33.0625 17.6099H31.675C31.4725 17.6099 31.3075 17.4449 31.3075 17.2424C31.3075 17.0399 31.4725 16.8749 31.675 16.8749H37.0825C37.285 16.8749 37.45 17.0399 37.45 17.2424C37.45 17.4449 37.285 17.6099 37.0825 17.6099H34.975C35.5525 18.1349 35.92 18.8849 35.92 19.7249C35.92 21.2999 34.6375 22.5749 33.07 22.5749H32.5375L35.6425 25.7999C35.785 25.9499 35.7775 26.1749 35.635 26.3174C35.56 26.3849 35.4625 26.4224 35.3725 26.4224Z" fill="#7268EF" stroke="#7268EF"/>
</svg>
