<svg width="455" height="168" viewBox="0 0 455 168" fill="none" xmlns="http://www.w3.org/2000/svg">
<path d="M210.102 65.2422C211.537 65.2422 212.792 65.0911 213.868 64.7891C214.963 64.487 215.879 63.9961 216.615 63.3164C217.352 62.6367 217.918 61.7493 218.315 60.6543C218.73 59.5592 218.975 58.2188 219.051 56.6328L224.828 57.8789L224.404 66.4883C222.176 67.9798 219.806 69.0654 217.295 69.7451C214.784 70.4059 212.065 70.7363 209.139 70.7363C205.703 70.7363 202.748 70.236 200.275 69.2354C197.801 68.2347 195.772 66.8659 194.186 65.1289C192.6 63.3919 191.429 61.3529 190.674 59.0117C189.919 56.6706 189.541 54.1595 189.541 51.4785C189.541 48.6654 189.966 46.0788 190.816 43.7188C191.684 41.3587 192.921 39.3291 194.526 37.6299C196.13 35.9307 198.085 34.609 200.388 33.665C202.691 32.721 205.297 32.249 208.204 32.249C209.073 32.249 209.97 32.3245 210.895 32.4756C211.82 32.6266 212.707 32.8438 213.557 33.127C214.406 33.4102 215.19 33.75 215.907 34.1465C216.644 34.543 217.267 34.9867 217.777 35.4775L217.918 33.042H224.205V44.6533L218.4 44.625C218.249 42.4727 217.474 40.7923 216.077 39.584C214.68 38.3568 212.66 37.7432 210.017 37.7432C208.412 37.7432 206.977 38.0358 205.712 38.6211C204.447 39.2064 203.371 40.0749 202.484 41.2266C201.615 42.3594 200.945 43.7848 200.473 45.5029C200.001 47.2021 199.765 49.1657 199.765 51.3936C199.765 53.5837 200.001 55.5378 200.473 57.2559C200.945 58.974 201.625 60.4277 202.512 61.6172C203.399 62.7878 204.475 63.6846 205.74 64.3076C207.024 64.9307 208.478 65.2422 210.102 65.2422ZM267.798 59.748C267.968 60.6921 268.129 61.5133 268.28 62.2119C268.45 62.8916 268.638 63.458 268.846 63.9111C269.073 64.3643 269.337 64.7041 269.639 64.9307C269.96 65.1383 270.347 65.2422 270.8 65.2422C271.461 65.2422 271.961 65.0534 272.301 64.6758C272.641 64.2982 272.811 63.6562 272.811 62.75L276.096 62.3535C276.096 62.3724 276.096 62.429 276.096 62.5234C276.096 62.599 276.087 62.6934 276.068 62.8066C276.068 62.901 276.068 62.9954 276.068 63.0898C276.068 63.1654 276.068 63.2126 276.068 63.2314C276.03 64.5531 275.822 65.6859 275.445 66.6299C275.086 67.5739 274.567 68.3574 273.887 68.9805C273.207 69.5846 272.386 70.0283 271.423 70.3115C270.479 70.5947 269.403 70.7363 268.195 70.7363C266.741 70.7363 265.476 70.5286 264.4 70.1133C263.324 69.6979 262.398 69.0749 261.624 68.2441C260.85 67.4134 260.208 66.375 259.699 65.1289C259.189 63.8639 258.773 62.3818 258.452 60.6826C258.169 59.1722 257.829 57.9167 257.433 56.916C257.055 55.9154 256.631 55.0846 256.159 54.4238C255.649 54.0085 255.035 53.7347 254.318 53.6025C253.6 53.4515 252.713 53.376 251.656 53.376H249.192L249.163 62.9199C249.163 63.3542 249.201 63.7129 249.277 63.9961C249.371 64.2604 249.522 64.4681 249.73 64.6191C249.937 64.7513 250.221 64.8457 250.579 64.9023C250.938 64.9401 251.401 64.959 251.967 64.959H253.213V70C252.515 70 251.816 70 251.118 70C250.438 70 249.739 70 249.022 70C248.304 69.9811 247.54 69.9717 246.728 69.9717C245.935 69.9528 245.076 69.9434 244.151 69.9434C243.244 69.9434 242.414 69.9528 241.659 69.9717C240.922 69.9717 240.224 69.9717 239.563 69.9717C238.902 69.9717 238.26 69.9811 237.637 70C237.033 70 236.41 70 235.768 70V64.959H236.674C237.486 64.959 238.109 64.9023 238.543 64.7891C238.996 64.6569 239.317 64.4681 239.506 64.2227C239.714 63.9772 239.827 63.6751 239.846 63.3164C239.884 62.9577 239.903 62.5423 239.903 62.0703V40.915C239.903 40.3864 239.874 39.9427 239.818 39.584C239.78 39.2064 239.648 38.9043 239.421 38.6777C239.214 38.4323 238.883 38.2624 238.43 38.168C237.977 38.0547 237.344 37.998 236.533 37.998H235.768V32.957H253.865C255.243 32.957 256.602 33.0042 257.943 33.0986C259.302 33.193 260.586 33.3818 261.794 33.665C263.021 33.9294 264.154 34.2975 265.193 34.7695C266.25 35.2415 267.156 35.8551 267.911 36.6104C268.686 37.3656 269.29 38.2812 269.724 39.3574C270.158 40.4336 270.375 41.6986 270.375 43.1523C270.375 44.1719 270.205 45.1442 269.866 46.0693C269.526 46.9756 269.025 47.7969 268.365 48.5332C267.723 49.2695 266.93 49.902 265.986 50.4307C265.061 50.9593 264.003 51.3558 262.814 51.6201C263.38 51.8844 263.918 52.2148 264.428 52.6113C264.957 53.0078 265.438 53.5176 265.872 54.1406C266.307 54.7637 266.684 55.5283 267.005 56.4346C267.345 57.3408 267.609 58.4453 267.798 59.748ZM249.163 49.2695H253.553C254.818 49.2695 255.913 49.1846 256.838 49.0146C257.782 48.8258 258.556 48.5143 259.16 48.0801C259.765 47.6458 260.218 47.0794 260.52 46.3809C260.822 45.6823 260.973 44.8044 260.973 43.7471C260.973 42.6331 260.794 41.7174 260.435 41C260.076 40.2637 259.548 39.6878 258.849 39.2725C258.169 38.8382 257.31 38.5456 256.272 38.3945C255.252 38.2246 254.063 38.1396 252.703 38.1396H249.163V49.2695ZM280.04 32.957C280.173 32.957 280.446 32.9665 280.862 32.9854C281.277 32.9854 281.749 32.9948 282.278 33.0137C282.806 33.0137 283.335 33.0231 283.864 33.042C284.392 33.042 284.827 33.042 285.166 33.042C286.035 33.042 286.875 33.042 287.687 33.042C288.499 33.0231 289.348 33.0137 290.236 33.0137C291.142 32.9948 292.105 32.9854 293.124 32.9854C294.144 32.9665 295.286 32.957 296.551 32.957V37.998H295.673C294.748 37.998 294.087 38.0736 293.691 38.2246C293.294 38.3568 293.096 38.6117 293.096 38.9893C293.153 39.1025 293.219 39.2536 293.294 39.4424C293.389 39.6123 293.483 39.8011 293.578 40.0088C293.691 40.2165 293.795 40.4242 293.889 40.6318C293.984 40.8395 294.078 41.0094 294.172 41.1416C294.286 41.3682 294.474 41.7269 294.739 42.2178C295.022 42.6898 295.333 43.2279 295.673 43.832C296.032 44.4362 296.4 45.0687 296.778 45.7295C297.174 46.3903 297.542 47.0228 297.882 47.627C298.241 48.2311 298.553 48.7786 298.817 49.2695C299.081 49.7415 299.27 50.0908 299.383 50.3174L304.962 41.0566C305.246 40.5846 305.482 40.1693 305.67 39.8105C305.859 39.4518 305.972 39.1403 306.01 38.876C305.935 38.5739 305.708 38.3662 305.331 38.2529C304.953 38.1396 304.368 38.0641 303.575 38.0264C303.499 38.0264 303.358 38.0264 303.15 38.0264C302.942 38.0075 302.791 37.998 302.697 37.998V32.957C303.811 32.9759 304.868 32.9854 305.869 32.9854C306.284 32.9854 306.709 32.9948 307.143 33.0137C307.596 33.0137 308.021 33.0137 308.417 33.0137C308.814 33.0137 309.173 33.0137 309.494 33.0137C309.815 33.0137 310.079 33.0137 310.287 33.0137C311.193 33.0137 312.127 33.0137 313.09 33.0137C314.072 33.0137 315.205 32.9948 316.489 32.957V37.998C315.866 37.998 315.365 38.0358 314.988 38.1113C314.61 38.168 314.27 38.2907 313.968 38.4795C313.685 38.6494 313.411 38.9137 313.147 39.2725C312.883 39.6123 312.562 40.0654 312.184 40.6318C311.712 41.2926 311.193 42.0479 310.626 42.8975C310.06 43.7471 309.475 44.6344 308.871 45.5596C308.266 46.4658 307.662 47.391 307.058 48.335C306.454 49.2601 305.878 50.1475 305.331 50.9971C304.802 51.8278 304.311 52.5924 303.858 53.291C303.424 53.9707 303.065 54.5182 302.782 54.9336V62.3535C302.782 62.7878 302.801 63.1654 302.838 63.4863C302.876 63.8073 302.989 64.0811 303.178 64.3076C303.367 64.5153 303.641 64.6758 303.999 64.7891C304.377 64.9023 304.906 64.959 305.585 64.959H306.973V70C306.275 70 305.585 70 304.906 70C304.245 70 303.556 70 302.838 70C302.121 69.9811 301.366 69.9717 300.573 69.9717C299.78 69.9528 298.911 69.9434 297.967 69.9434C297.401 69.9434 296.712 69.9528 295.9 69.9717C295.107 69.9717 294.295 69.9717 293.464 69.9717C292.652 69.9717 291.888 69.9811 291.17 70C290.453 70 289.915 70 289.556 70V64.959H290.915C291.652 64.959 292.209 64.874 292.586 64.7041C292.964 64.5153 293.238 64.2887 293.408 64.0244C293.578 63.7601 293.663 63.4863 293.663 63.2031C293.681 62.901 293.691 62.6367 293.691 62.4102V54.877C293.408 54.4616 293.03 53.8952 292.558 53.1777C292.105 52.4414 291.595 51.639 291.029 50.7705C290.481 49.8831 289.896 48.958 289.273 47.9951C288.669 47.0322 288.083 46.1165 287.517 45.248C286.97 44.3607 286.46 43.5583 285.988 42.8408C285.535 42.1045 285.176 41.5192 284.912 41.085C284.458 40.3864 284.09 39.8389 283.807 39.4424C283.543 39.0459 283.25 38.7438 282.929 38.5361C282.627 38.3096 282.259 38.168 281.825 38.1113C281.39 38.0547 280.805 38.0169 280.069 37.998C280.069 37.1673 280.059 36.3366 280.04 35.5059C280.04 34.6562 280.04 33.8066 280.04 32.957ZM344.704 32.957C347.479 32.957 349.839 33.2308 351.784 33.7783C353.728 34.307 355.314 35.0527 356.542 36.0156C357.769 36.9785 358.666 38.1396 359.232 39.499C359.798 40.8395 360.082 42.3216 360.082 43.9453C360.082 45.5501 359.827 47.0133 359.317 48.335C358.807 49.6566 357.948 50.7988 356.74 51.7617C355.55 52.7057 353.964 53.4421 351.982 53.9707C350.018 54.4805 347.564 54.7354 344.619 54.7354H338.983V62.2686C338.983 62.8727 339.021 63.3542 339.096 63.7129C339.191 64.0716 339.342 64.3454 339.549 64.5342C339.757 64.7041 340.05 64.8174 340.427 64.874C340.805 64.9307 341.296 64.959 341.9 64.959H343.316V70C342.655 70 342.013 70 341.39 70C340.767 69.9811 340.125 69.9717 339.464 69.9717C338.804 69.9717 338.096 69.9717 337.34 69.9717C336.604 69.9528 335.802 69.9434 334.933 69.9434C333.97 69.9434 333.064 69.9528 332.214 69.9717C331.384 69.9717 330.572 69.9717 329.779 69.9717C329.005 69.9717 328.25 69.9811 327.513 70C326.777 70 326.041 70 325.304 70V64.959H326.72C327.419 64.959 327.966 64.9212 328.363 64.8457C328.778 64.7702 329.08 64.6191 329.269 64.3926C329.458 64.1471 329.571 63.8167 329.609 63.4014C329.666 62.9671 329.694 62.4007 329.694 61.7021V41.085C329.694 40.6318 329.675 40.2259 329.637 39.8672C329.6 39.4896 329.486 39.1686 329.297 38.9043C329.109 38.6211 328.825 38.404 328.448 38.2529C328.07 38.083 327.542 37.998 326.862 37.998H325.304V32.957H344.704ZM338.983 49.751H343.571C345.931 49.751 347.706 49.2695 348.895 48.3066C350.085 47.3438 350.679 45.8711 350.679 43.8887C350.679 42.9258 350.538 42.0856 350.254 41.3682C349.971 40.6318 349.528 40.0277 348.923 39.5557C348.319 39.0648 347.536 38.6966 346.573 38.4512C345.61 38.2057 344.439 38.083 343.061 38.083H338.983V49.751ZM369.69 32.957C371.522 32.9759 373.268 32.9854 374.929 32.9854C375.628 32.9854 376.345 32.9948 377.082 33.0137C377.837 33.0137 378.564 33.0137 379.262 33.0137C379.98 33.0137 380.65 33.0137 381.273 33.0137C381.896 33.0137 382.434 33.0137 382.887 33.0137H393.592C394.404 33.0137 395.254 33.0137 396.141 33.0137C397.048 32.9948 397.944 32.9854 398.832 32.9854C399.738 32.9854 400.625 32.9854 401.494 32.9854C402.362 32.9665 403.184 32.957 403.958 32.957V45.4746H399.483V41.6514C399.483 40.9906 399.445 40.4619 399.37 40.0654C399.294 39.6501 399.105 39.3291 398.803 39.1025C398.501 38.876 398.048 38.7249 397.444 38.6494C396.859 38.5739 396.056 38.5361 395.037 38.5361H391.497V62.7783C391.497 62.986 391.516 63.222 391.553 63.4863C391.61 63.7318 391.723 63.9678 391.893 64.1943C392.082 64.402 392.356 64.5814 392.715 64.7324C393.092 64.8835 393.592 64.959 394.216 64.959H395.801V70C395.103 70 394.423 70 393.762 70C393.12 70 392.45 70 391.752 70C391.072 69.9811 390.345 69.9717 389.571 69.9717C388.797 69.9528 387.928 69.9434 386.966 69.9434C386.305 69.9434 385.587 69.9528 384.813 69.9717C384.058 69.9717 383.274 69.9717 382.463 69.9717C381.67 69.9717 380.886 69.9811 380.112 70C379.338 70 378.611 70 377.931 70V64.959H379.517C380.216 64.959 380.744 64.8646 381.103 64.6758C381.481 64.487 381.755 64.2415 381.924 63.9395C382.094 63.6374 382.189 63.2975 382.208 62.9199C382.227 62.5234 382.236 62.1364 382.236 61.7588V38.5361H377.705C376.931 38.5361 376.308 38.5739 375.836 38.6494C375.364 38.7061 374.995 38.8193 374.731 38.9893C374.486 39.1592 374.316 39.3857 374.221 39.6689C374.146 39.9521 374.108 40.3109 374.108 40.7451C374.108 40.9528 374.108 41.2643 374.108 41.6797C374.108 42.0762 374.108 42.5104 374.108 42.9824C374.108 43.4355 374.108 43.8981 374.108 44.3701C374.127 44.8232 374.136 45.1914 374.136 45.4746H369.69V32.957ZM432.229 32.249C435.345 32.249 438.101 32.7399 440.499 33.7217C442.915 34.7035 444.945 36.0628 446.588 37.7998C448.249 39.5179 449.505 41.5475 450.354 43.8887C451.223 46.2298 451.657 48.7503 451.657 51.4502C451.657 54.1501 451.223 56.6706 450.354 59.0117C449.505 61.3529 448.259 63.3919 446.616 65.1289C444.973 66.8659 442.953 68.2347 440.555 69.2354C438.158 70.236 435.411 70.7363 432.314 70.7363C429.18 70.7363 426.395 70.2454 423.96 69.2637C421.524 68.2819 419.476 66.932 417.814 65.2139C416.153 63.4769 414.888 61.4378 414.019 59.0967C413.151 56.7367 412.717 54.1878 412.717 51.4502C412.717 48.7503 413.141 46.2393 413.991 43.917C414.841 41.5758 416.087 39.5462 417.729 37.8281C419.391 36.0911 421.43 34.7318 423.846 33.75C426.282 32.7493 429.076 32.249 432.229 32.249ZM432.201 37.7432C430.577 37.7432 429.18 38.0547 428.01 38.6777C426.858 39.3008 425.904 40.207 425.149 41.3965C424.413 42.5671 423.865 44.002 423.507 45.7012C423.167 47.3815 422.997 49.279 422.997 51.3936C422.997 53.6025 423.186 55.5661 423.563 57.2842C423.941 59.0023 424.507 60.4561 425.262 61.6455C426.018 62.8161 426.971 63.7129 428.123 64.3359C429.275 64.9401 430.634 65.2422 432.201 65.2422C433.787 65.2422 435.156 64.9307 436.307 64.3076C437.478 63.6657 438.431 62.75 439.168 61.5605C439.923 60.3711 440.48 58.9268 440.839 57.2275C441.216 55.5094 441.405 53.5742 441.405 51.4219C441.405 47.0039 440.65 43.6243 439.139 41.2832C437.629 38.9232 435.316 37.7432 432.201 37.7432Z" fill="#272D4E"/>
<path d="M244.266 108.328C244.032 107.534 243.85 106.909 243.72 106.453C243.589 105.997 243.433 105.659 243.251 105.438C243.082 105.216 242.841 105.079 242.528 105.027C242.229 104.962 241.779 104.93 241.18 104.93V101.453C242.014 101.466 242.802 101.473 243.544 101.473C243.856 101.473 244.175 101.479 244.501 101.492C244.839 101.492 245.158 101.492 245.458 101.492C245.757 101.492 246.031 101.492 246.278 101.492C246.539 101.492 246.753 101.492 246.923 101.492C247.665 101.492 248.459 101.492 249.305 101.492C250.152 101.479 251.141 101.466 252.274 101.453V104.93C251.285 104.956 250.562 105.021 250.106 105.125C249.872 105.32 249.755 105.62 249.755 106.023C249.755 106.193 249.768 106.382 249.794 106.59C249.82 106.798 249.865 107.02 249.93 107.254C250.048 107.671 250.204 108.276 250.399 109.07C250.608 109.865 250.829 110.75 251.063 111.727C251.311 112.703 251.565 113.732 251.825 114.812C252.098 115.88 252.352 116.902 252.587 117.879C252.834 118.855 253.055 119.741 253.251 120.535C253.459 121.329 253.622 121.935 253.739 122.352L258.856 102.977H264.052L269.286 122.371L273.114 106.922C273.166 106.701 273.212 106.499 273.251 106.316C273.303 106.134 273.342 105.958 273.368 105.789C273.303 105.529 273.134 105.333 272.86 105.203C272.587 105.073 272.151 104.995 271.552 104.969C271.486 104.956 271.356 104.949 271.161 104.949C270.979 104.949 270.855 104.943 270.79 104.93V101.453C271.818 101.466 272.717 101.479 273.485 101.492C274.253 101.492 274.97 101.492 275.634 101.492C275.933 101.492 276.317 101.492 276.786 101.492C277.268 101.492 277.749 101.492 278.231 101.492C278.713 101.479 279.156 101.473 279.559 101.473C279.976 101.46 280.269 101.453 280.438 101.453V104.93C279.97 104.943 279.572 104.988 279.247 105.066C278.934 105.132 278.661 105.268 278.427 105.477C278.192 105.685 277.977 105.991 277.782 106.395C277.6 106.798 277.404 107.339 277.196 108.016C277.118 108.224 277.001 108.582 276.845 109.09C276.701 109.598 276.519 110.216 276.298 110.945C276.089 111.661 275.855 112.462 275.595 113.348C275.347 114.233 275.08 115.164 274.794 116.141C274.52 117.117 274.234 118.113 273.934 119.129C273.648 120.132 273.361 121.121 273.075 122.098C272.802 123.074 272.535 124.005 272.274 124.891C272.014 125.776 271.773 126.577 271.552 127.293H265.536L260.848 108.719L256.122 127.293H249.93L244.266 108.328ZM299.733 101.453C300.866 104.526 301.901 107.326 302.838 109.852C303.242 110.932 303.639 112.007 304.03 113.074C304.42 114.129 304.778 115.105 305.104 116.004C305.442 116.889 305.729 117.651 305.963 118.289C306.198 118.914 306.354 119.331 306.432 119.539C306.758 120.438 307.011 121.147 307.194 121.668C307.376 122.189 307.578 122.586 307.799 122.859C308.034 123.133 308.327 123.315 308.678 123.406C309.03 123.484 309.537 123.53 310.202 123.543V127C309.433 127 308.685 126.993 307.955 126.98C307.239 126.967 306.406 126.961 305.455 126.961C304.336 126.961 303.235 126.967 302.155 126.98C301.087 126.98 299.928 126.987 298.678 127V123.777C298.73 123.777 298.802 123.777 298.893 123.777C298.997 123.777 299.101 123.777 299.205 123.777C299.31 123.777 299.407 123.777 299.498 123.777C299.59 123.764 299.655 123.758 299.694 123.758C300.319 123.732 300.748 123.667 300.983 123.562C301.217 123.458 301.334 123.276 301.334 123.016C301.334 122.859 301.302 122.671 301.237 122.449C301.172 122.215 301.087 121.948 300.983 121.648L299.733 117.957H290.729C290.69 118.1 290.599 118.38 290.455 118.797C290.312 119.201 290.156 119.637 289.987 120.105C289.83 120.574 289.687 121.01 289.557 121.414C289.427 121.818 289.349 122.072 289.323 122.176C289.258 122.358 289.205 122.527 289.166 122.684C289.14 122.827 289.127 122.944 289.127 123.035C289.127 123.322 289.212 123.517 289.381 123.621C289.564 123.712 289.863 123.764 290.28 123.777C290.319 123.777 290.403 123.784 290.534 123.797C290.664 123.797 290.807 123.797 290.963 123.797C291.12 123.797 291.263 123.797 291.393 123.797C291.536 123.797 291.634 123.797 291.686 123.797V127C290.892 127 290.091 126.993 289.284 126.98C288.476 126.967 287.604 126.961 286.666 126.961C286.211 126.961 285.781 126.961 285.377 126.961C284.987 126.961 284.603 126.967 284.225 126.98C283.847 126.98 283.463 126.987 283.073 127C282.682 127 282.265 127 281.823 127V123.523C282.291 123.471 282.669 123.426 282.955 123.387C283.255 123.348 283.502 123.276 283.698 123.172C283.893 123.055 284.062 122.892 284.205 122.684C284.349 122.462 284.498 122.156 284.655 121.766C284.759 121.518 284.922 121.115 285.143 120.555C285.364 119.995 285.618 119.337 285.905 118.582C286.204 117.827 286.53 117.007 286.881 116.121C287.233 115.223 287.591 114.311 287.955 113.387C288.32 112.462 288.678 111.551 289.03 110.652C289.381 109.754 289.707 108.927 290.006 108.172C290.306 107.404 290.566 106.74 290.787 106.18C291.009 105.607 291.172 105.19 291.276 104.93L292.174 101.453H299.733ZM291.627 115.418H298.834L295.338 105.145L295.299 105.125L291.627 115.418ZM311.664 101.453C312.927 101.466 314.132 101.473 315.277 101.473C315.759 101.473 316.254 101.479 316.762 101.492C317.283 101.492 317.784 101.492 318.266 101.492C318.76 101.492 319.223 101.492 319.652 101.492C320.082 101.492 320.453 101.492 320.766 101.492H328.148C328.708 101.492 329.294 101.492 329.906 101.492C330.531 101.479 331.15 101.473 331.762 101.473C332.387 101.473 332.999 101.473 333.598 101.473C334.197 101.46 334.763 101.453 335.297 101.453V110.086H332.211V107.449C332.211 106.993 332.185 106.629 332.133 106.355C332.081 106.069 331.951 105.848 331.742 105.691C331.534 105.535 331.221 105.431 330.805 105.379C330.401 105.327 329.848 105.301 329.145 105.301H326.703V122.02C326.703 122.163 326.716 122.326 326.742 122.508C326.781 122.677 326.859 122.84 326.977 122.996C327.107 123.139 327.296 123.263 327.543 123.367C327.803 123.471 328.148 123.523 328.578 123.523H329.672V127C329.19 127 328.721 127 328.266 127C327.823 127 327.361 127 326.879 127C326.41 126.987 325.909 126.98 325.375 126.98C324.841 126.967 324.242 126.961 323.578 126.961C323.122 126.961 322.628 126.967 322.094 126.98C321.573 126.98 321.033 126.98 320.473 126.98C319.926 126.98 319.385 126.987 318.852 127C318.318 127 317.816 127 317.348 127V123.523H318.441C318.923 123.523 319.288 123.458 319.535 123.328C319.796 123.198 319.984 123.029 320.102 122.82C320.219 122.612 320.284 122.378 320.297 122.117C320.31 121.844 320.316 121.577 320.316 121.316V105.301H317.191C316.658 105.301 316.228 105.327 315.902 105.379C315.577 105.418 315.323 105.496 315.141 105.613C314.971 105.73 314.854 105.887 314.789 106.082C314.737 106.277 314.711 106.525 314.711 106.824C314.711 106.967 314.711 107.182 314.711 107.469C314.711 107.742 314.711 108.042 314.711 108.367C314.711 108.68 314.711 108.999 314.711 109.324C314.724 109.637 314.73 109.891 314.73 110.086H311.664V101.453ZM355.119 123.719C356.108 123.719 356.974 123.615 357.716 123.406C358.472 123.198 359.103 122.859 359.611 122.391C360.119 121.922 360.509 121.31 360.783 120.555C361.069 119.799 361.239 118.875 361.291 117.781L365.275 118.641L364.982 124.578C363.446 125.607 361.811 126.355 360.08 126.824C358.348 127.28 356.473 127.508 354.455 127.508C352.085 127.508 350.047 127.163 348.341 126.473C346.636 125.783 345.236 124.839 344.142 123.641C343.048 122.443 342.241 121.036 341.72 119.422C341.199 117.807 340.939 116.076 340.939 114.227C340.939 112.286 341.232 110.503 341.818 108.875C342.417 107.247 343.27 105.848 344.377 104.676C345.483 103.504 346.831 102.592 348.42 101.941C350.008 101.29 351.805 100.965 353.81 100.965C354.409 100.965 355.028 101.017 355.666 101.121C356.304 101.225 356.916 101.375 357.502 101.57C358.087 101.766 358.628 102 359.123 102.273C359.63 102.547 360.06 102.853 360.412 103.191L360.509 101.512H364.845V109.52L360.841 109.5C360.737 108.016 360.203 106.857 359.24 106.023C358.276 105.177 356.883 104.754 355.06 104.754C353.953 104.754 352.964 104.956 352.091 105.359C351.219 105.763 350.477 106.362 349.865 107.156C349.266 107.938 348.804 108.921 348.478 110.105C348.153 111.277 347.99 112.632 347.99 114.168C347.99 115.678 348.153 117.026 348.478 118.211C348.804 119.396 349.272 120.398 349.884 121.219C350.496 122.026 351.239 122.645 352.111 123.074C352.996 123.504 353.999 123.719 355.119 123.719ZM370.917 101.453C371.113 101.453 371.451 101.46 371.933 101.473C372.428 101.473 372.974 101.473 373.573 101.473C374.185 101.473 374.797 101.479 375.409 101.492C376.034 101.492 376.575 101.492 377.03 101.492C377.33 101.492 377.695 101.492 378.124 101.492C378.554 101.492 379.016 101.492 379.511 101.492C380.019 101.479 380.546 101.473 381.093 101.473C381.64 101.46 382.18 101.453 382.714 101.453V104.93H382.03C381.523 104.93 381.132 104.975 380.859 105.066C380.598 105.158 380.403 105.288 380.273 105.457C380.142 105.613 380.064 105.809 380.038 106.043C380.025 106.277 380.019 106.531 380.019 106.805V112.254H390.331V106.453C390.331 106.154 390.299 105.906 390.234 105.711C390.182 105.516 390.077 105.359 389.921 105.242C389.778 105.125 389.576 105.047 389.316 105.008C389.055 104.956 388.723 104.93 388.32 104.93H387.636V101.453C388.899 101.479 390.064 101.492 391.132 101.492C392.2 101.492 393.235 101.492 394.238 101.492C394.485 101.492 394.797 101.492 395.175 101.492C395.566 101.492 395.995 101.492 396.464 101.492C396.933 101.479 397.428 101.473 397.948 101.473C398.469 101.46 398.977 101.453 399.472 101.453V104.93H398.847C398.339 104.93 397.942 104.969 397.655 105.047C397.369 105.112 397.154 105.223 397.011 105.379C396.881 105.522 396.796 105.704 396.757 105.926C396.731 106.134 396.718 106.375 396.718 106.648V121.375C396.718 121.753 396.724 122.078 396.738 122.352C396.751 122.612 396.816 122.833 396.933 123.016C397.063 123.185 397.271 123.315 397.558 123.406C397.857 123.484 398.287 123.523 398.847 123.523H399.472V127C399.003 127 398.547 127 398.105 127C397.675 126.987 397.232 126.98 396.777 126.98C396.321 126.98 395.833 126.98 395.312 126.98C394.804 126.967 394.238 126.961 393.613 126.961C392.441 126.961 391.373 126.967 390.409 126.98C389.459 126.993 388.534 127 387.636 127V123.523H388.32C388.788 123.523 389.153 123.497 389.413 123.445C389.687 123.393 389.889 123.296 390.019 123.152C390.162 122.996 390.247 122.794 390.273 122.547C390.312 122.286 390.331 121.961 390.331 121.57V115.613H380.019V121.941C380.019 122.332 380.045 122.638 380.097 122.859C380.162 123.068 380.273 123.224 380.429 123.328C380.585 123.419 380.793 123.478 381.054 123.504C381.314 123.517 381.64 123.523 382.03 123.523H382.714V127C382.232 127 381.764 127 381.308 127C380.865 126.987 380.403 126.98 379.921 126.98C379.452 126.98 378.951 126.98 378.417 126.98C377.883 126.967 377.291 126.961 376.64 126.961C376.028 126.961 375.468 126.967 374.96 126.98C374.465 126.98 373.99 126.98 373.534 126.98C373.079 126.98 372.636 126.987 372.206 127C371.79 127 371.36 127 370.917 127V123.523H371.523C372.043 123.523 372.447 123.471 372.734 123.367C373.02 123.25 373.228 123.094 373.359 122.898C373.502 122.703 373.58 122.475 373.593 122.215C373.619 121.941 373.632 121.648 373.632 121.336V106.512C373.632 106.251 373.613 106.023 373.573 105.828C373.547 105.62 373.463 105.451 373.32 105.32C373.176 105.19 372.961 105.092 372.675 105.027C372.402 104.962 372.017 104.93 371.523 104.93H370.917V101.453Z" fill="#272D4E"/>
<path d="M114.591 111.439C114.579 112.169 114.296 112.904 113.746 113.475C104.335 123.182 91.1781 128.613 77.6602 128.377C55.0936 127.983 35.7831 112.374 30.7154 90.4221C30.3436 88.8054 31.3519 87.1928 32.9586 86.8207C34.5754 86.4489 36.188 87.4572 36.56 89.0639C41.0046 108.324 57.9481 122.022 77.7651 122.368C89.8032 122.578 101.056 117.934 109.438 109.279C110.589 108.089 112.49 108.062 113.68 109.213C114.3 109.814 114.606 110.619 114.592 111.419L114.591 111.439Z" fill="#08447F" stroke="#272D4E" stroke-width="5"/>
<path d="M127.569 80.1911L127.563 80.5111C127.534 82.1708 126.171 83.4872 124.511 83.4583C122.852 83.4293 121.535 82.0661 121.564 80.4064L121.57 80.0864C121.984 56.34 103.014 36.686 79.268 36.2715C75.5985 36.2074 71.9711 36.6042 68.5059 37.4438C66.8988 37.8358 65.2758 36.8474 64.8838 35.2403C64.4918 33.6332 65.4802 32.0102 67.0873 31.6182C71.0447 30.6571 75.1832 30.2093 79.3625 30.2822C106.408 30.7543 128.031 53.1451 127.559 80.201L127.569 80.1911Z" fill="#2E70E5" stroke="#7268EF" stroke-width="5"/>
<path d="M102.553 79.7441C102.322 92.992 91.355 103.582 78.107 103.351C64.859 103.12 54.2688 92.1533 54.5001 78.9053C54.7313 65.6573 65.6978 55.0671 78.9458 55.2983C92.1938 55.5296 102.784 66.4961 102.553 79.7441ZM60.4892 79.0098C60.3157 88.9483 68.2633 97.1783 78.2017 97.3518C88.1402 97.5252 96.3702 89.5777 96.5437 79.6392C96.7171 69.7007 88.7696 61.4707 78.8311 61.2973C68.8926 61.1238 60.6626 69.0714 60.4892 79.0098Z" fill="#C43185" stroke="#C43185" stroke-width="5"/>
<path d="M143.214 122.221C132.08 138.727 115.206 150.046 95.6884 154.107C94.0613 154.445 92.4749 153.399 92.1397 151.785C91.8018 150.158 92.8477 148.572 94.461 148.237C112.434 144.498 127.984 134.071 138.239 118.866C148.495 103.661 152.398 85.1609 149.042 67.0481C148.741 65.4212 149.811 63.8516 151.447 63.5554C153.074 63.2536 154.637 64.3326 154.939 65.9595C158.583 85.6298 154.42 105.607 143.214 122.221Z" fill="#08447F" stroke="#272D4E" stroke-width="5"/>
<path d="M102.968 9.56074C102.963 9.8307 102.918 10.1099 102.833 10.3885C102.345 11.9702 100.67 12.8611 99.088 12.3735C92.8505 10.4543 86.3374 9.43047 79.7384 9.31529C41.1443 8.64162 9.19087 39.4987 8.51703 78.1028C8.19294 96.67 15.0866 114.283 27.9144 127.699C29.0636 128.899 29.0205 130.799 27.8204 131.938C26.6202 133.087 24.7206 133.044 23.5814 131.844C9.64332 117.288 2.16593 98.165 2.51777 78.0081C3.24938 36.0945 37.9393 2.59479 79.8429 3.32622C87.0118 3.45135 94.0733 4.57474 100.848 6.6533C102.151 7.0561 102.99 8.27093 102.967 9.57074L102.968 9.56074Z" fill="#7268EF" stroke="#7268EF" stroke-width="5"/>
<path d="M100.519 152.198C100.126 153.079 99.3352 153.772 98.3209 153.987C90.3589 155.748 82.2005 156.273 74.0803 155.552C72.345 155.4 71.0741 153.869 71.2265 152.134C71.3789 150.399 72.9095 149.128 74.6447 149.28C82.1237 149.945 89.6311 149.463 96.9699 147.838C98.6672 147.457 100.345 148.537 100.727 150.234C100.88 150.923 100.797 151.598 100.533 152.192L100.519 152.198Z" fill="#08447F" stroke="#272D4E" stroke-width="5"/>
<path d="M108.137 14.9667C107.509 17.1574 108.776 19.4426 110.967 20.0708C113.157 20.699 115.443 19.4323 116.071 17.2416C116.699 15.0508 115.432 12.7657 113.241 12.1375C111.051 11.5093 108.766 12.776 108.137 14.9667Z" fill="#2E70E5" stroke="#7268EF" stroke-width="5"/>
<path d="M32.6216 72.0612C30.6896 72.0275 29.0948 73.5676 29.0611 75.4996C29.0274 77.4316 30.5675 79.0264 32.4995 79.0601C34.4315 79.0938 36.0263 77.5537 36.06 75.6217C36.0937 73.6897 34.5536 72.0949 32.6216 72.0612Z" fill="#08447F" stroke="#272D4E" stroke-width="5"/>
</svg>
