<svg width="614" height="398" viewBox="0 0 614 398" fill="none" xmlns="http://www.w3.org/2000/svg">
<g clip-path="url(#clip0_1129_3871)">
<path d="M243.561 127C249.234 125.801 254.255 130.847 257.241 135.829C261.127 142.31 265.847 160.305 266.682 163.539C271.038 168.651 275.197 173.92 279.149 179.357C277.597 171.298 278.014 162.861 280.401 155.011C281.013 153.016 282.187 150.708 284.274 150.616C286.96 150.512 288.068 154.007 288.147 156.693C288.381 165.939 286.269 175.224 282.083 183.465C286.269 189.425 290.246 195.528 293.976 201.761C295.893 204.969 297.731 208.229 299.544 211.502C297.914 204.121 297.523 196.479 298.435 188.968C298.709 186.751 299.114 184.482 300.339 182.618C301.565 180.753 303.782 179.384 305.986 179.775C308.072 180.153 309.637 182.044 310.224 184.091C310.811 186.125 310.602 188.303 310.315 190.403C309.115 199.205 306.586 207.838 302.843 215.897C302.843 215.897 313.627 239.33 318.831 252.162C317.605 239.239 319.665 226.016 324.855 214.123C325.52 212.597 326.277 211.046 327.542 209.976C328.82 208.907 330.75 208.438 332.158 209.311C333.866 210.354 334.127 212.702 334.114 214.71C334.01 229.68 329.263 244.585 320.695 256.856C321.504 258.917 322.299 260.977 323.082 263.038C326.629 272.518 329.85 282.103 332.836 291.753C331.884 278.725 333.892 265.476 338.769 253.349C339.943 250.441 342.329 247.037 345.355 247.885C347.845 248.576 348.641 251.666 348.81 254.248C349.802 270.379 342.577 285.741 335.405 300.255C338.091 309.435 340.595 318.655 342.929 327.927C344.664 334.825 346.32 341.749 347.911 348.674C348.876 330.13 354.666 311.848 364.733 296.225C366.663 293.226 369.675 289.953 373.144 290.801C376.313 291.596 377.656 295.443 377.617 298.703C377.565 306.071 373.535 312.735 369.623 318.968C362.659 330.078 355.696 341.176 348.745 352.286C351.901 366.187 354.835 380.127 357.743 394.054L352.618 395.085C350.049 381.823 347.454 368.574 344.664 355.377C327.933 347.8 311.984 338.542 297.079 327.796C293.493 325.201 289.829 322.358 287.925 318.355C286.034 314.352 286.53 308.862 290.194 306.358C294.132 303.685 299.505 305.523 303.717 307.766C321.295 317.103 335.496 332.53 343.66 350.656C342.108 343.406 340.491 336.168 338.782 328.957C336.931 321.133 334.962 313.334 332.862 305.588C325.559 302.759 300.352 292.835 290.103 286.954C287.821 285.637 285.512 284.215 283.961 282.09C282.409 279.964 281.796 276.952 283.126 274.683C284.313 272.661 286.79 271.67 289.125 271.683C291.472 271.683 293.715 272.544 295.866 273.483C310.224 279.755 323.03 287.88 331.454 300.477C328.037 288.258 324.268 276.156 319.978 264.211C319.3 262.307 318.583 260.403 317.866 258.513C306.025 257.821 294.315 254.992 283.465 250.206C280.922 249.084 278.118 247.48 277.597 244.742C277.101 242.108 279.11 239.5 281.6 238.509C284.091 237.518 286.895 237.791 289.516 238.326C300.274 240.491 310.146 246.737 316.731 255.5C311.906 242.89 306.455 230.515 300.326 218.492C291.133 219.391 281.757 218.479 272.915 215.766C269.329 214.671 265.091 211.932 266.069 208.307C266.904 205.23 270.907 204.447 274.089 204.63C282.983 205.138 291.628 208.737 298.318 214.606C296.258 210.707 294.145 206.834 291.928 203.013C288.173 196.532 284.169 190.194 279.931 184.026C275.928 184.821 264.4 187.038 258.806 187.586C255.859 187.873 252.194 187.808 250.799 185.187C249.756 183.23 250.695 180.662 252.429 179.266C254.163 177.871 256.458 177.427 258.662 177.258C264.856 176.815 272.642 178.575 278.405 181.835C274.011 175.576 269.381 169.473 264.465 163.618C255.585 161.675 247.369 156.706 241.579 149.691C238.671 146.17 236.285 141.932 236.246 137.354C236.194 132.79 239.089 127.978 243.561 127.039V127Z" fill="#7367F0"/>
<path d="M153.295 363.266C140.438 347.852 130.931 329.661 125.65 310.296C124.111 304.65 122.937 298.507 125.024 293.031C127.11 287.554 133.63 283.407 138.951 285.858C142.146 287.332 144.011 290.618 146.358 293.239C148.705 295.86 152.539 297.999 155.617 296.304C160.011 293.878 158.081 287.241 155.786 282.781C147.336 266.324 141.637 248.458 139.016 230.137C138.247 224.751 137.79 219.013 140.085 214.071C142.381 209.129 148.366 205.516 153.374 207.642C156.986 209.181 158.981 213.041 160.246 216.757C161.524 220.461 162.463 224.464 165.058 227.398C167.653 230.345 172.647 231.662 175.464 228.924C177.746 226.707 177.564 223.03 177.029 219.887C174.251 203.443 166.518 187.038 170.3 170.803C174.108 154.463 190.695 142.114 207.439 143.157C224.183 144.201 239.114 158.519 240.849 175.211C243.835 203.795 213.216 226.459 212.277 255.187C216.685 251.458 221.197 247.663 226.582 245.616C231.968 243.568 238.501 243.555 243.092 247.05C248.712 251.34 249.781 259.778 247.277 266.389C244.774 273 239.466 278.138 234.028 282.65C228.578 287.162 222.749 291.387 218.549 297.086C217.037 299.133 215.733 301.859 216.841 304.141C218.302 307.114 222.449 307.049 225.604 308.04C232.164 310.113 235.241 318.264 233.755 324.979C232.255 331.695 227.391 337.133 222.266 341.723C205.483 356.772 184.514 366.2 163.923 375.381L153.282 363.266H153.295Z" fill="#7367F0"/>
<path d="M211.899 318.094C194.816 324.784 178.581 333.417 163.48 343.836C167.379 324.367 171.709 304.976 176.455 285.702C181.28 280.251 189.939 278.125 196.342 275.53C204.923 272.062 213.516 268.58 222.097 265.111C223.205 264.668 222.319 263.038 221.223 263.481C211.886 267.25 202.562 271.031 193.225 274.813C187.97 276.939 181.802 278.751 177.264 282.416C181.346 266.024 185.727 249.697 190.422 233.462C196.538 225.377 203.606 218.153 211.547 211.841C212.486 211.098 211.221 209.742 210.295 210.485C203.475 215.91 197.307 222.026 191.804 228.741C192.169 227.516 192.508 226.29 192.873 225.064C197.477 209.52 202.367 194.054 207.518 178.692C207.896 177.558 206.122 177.023 205.744 178.145C201.676 190.285 197.79 202.491 194.06 214.749C193.291 205.895 191.582 197.158 188.896 188.655C188.544 187.521 186.731 187.938 187.096 189.086C190.2 198.944 192.039 209.103 192.547 219.444C192.547 219.522 192.56 219.587 192.573 219.652C191.282 223.969 190.017 228.285 188.766 232.614C188.674 232.732 188.583 232.849 188.492 232.966C188.257 233.279 188.27 233.592 188.414 233.84C183.536 250.767 178.972 267.784 174.747 284.88C174.604 285.05 174.46 285.206 174.33 285.389C165.815 268.488 159.464 250.61 155.434 232.119C155.187 230.958 153.374 231.376 153.635 232.549C157.834 251.81 164.524 270.432 173.547 287.971C173.639 288.153 173.769 288.271 173.9 288.349C169.479 306.475 165.423 324.68 161.759 342.975C161.746 342.897 161.72 342.832 161.694 342.754C156.934 331.917 150.466 321.967 142.524 313.204C141.716 312.317 140.36 313.582 141.168 314.456C149.018 323.115 155.369 332.921 160.064 343.627C160.39 344.384 161.276 344.201 161.629 343.653C161.42 344.67 161.211 345.688 161.016 346.692C157.886 362.484 155.056 378.328 152.487 394.211C152.292 395.385 154.156 395.424 154.339 394.263C156.934 378.249 159.816 362.288 162.972 346.379C163.076 346.353 163.18 346.314 163.298 346.235C178.698 335.49 195.286 326.623 212.76 319.776C213.868 319.346 212.995 317.716 211.886 318.146L211.899 318.094Z" fill="#46474C"/>
<path d="M117.082 380.153C102.594 350.043 72.1972 325.879 39.0094 321.941C25.7995 320.376 11.5724 321.237 0.26643 314.208C-1.18105 327.588 3.38309 341.202 11.1943 352.169C19.0055 363.136 29.8551 371.651 41.5262 378.354C53.1322 385.03 65.9117 390.116 79.2651 391.186C92.6185 392.255 106.624 388.982 116.978 380.492" fill="#7367F0"/>
<path d="M36.0233 361.519C40.6527 357.554 46.1818 354.881 52.1543 353.733C50.2765 353.212 48.3987 352.638 46.5469 352.012C46.4035 352.025 46.26 351.986 46.1427 351.869C43.1825 350.852 40.2745 349.678 37.4317 348.257C28.3165 343.679 20.414 337.133 13.2418 329.948C12.7332 329.439 13.5808 328.735 14.0894 329.231C20.8182 335.986 28.2252 342.167 36.6884 346.64C39.3226 348.035 42.048 349.222 44.8256 350.252C41.1482 345.479 38.7618 339.859 37.9142 333.847C37.8099 333.143 38.9053 332.934 38.9965 333.638C39.9094 340.08 42.5957 346.027 46.8338 350.956C49.9635 352.038 53.1584 352.938 56.3794 353.733C62.9126 355.351 69.498 356.707 75.9139 358.754C78.1308 359.458 80.3346 360.202 82.5254 360.984C78.7567 357.163 75.5227 352.886 72.8624 348.204C72.5103 347.578 73.5145 347.109 73.8665 347.735C76.8137 352.925 80.4911 357.593 84.8074 361.688C84.8726 361.74 84.9118 361.805 84.9378 361.871C87.4937 362.823 90.0366 363.853 92.5273 364.948C92.6838 364.948 92.8142 365.013 92.8925 365.118C96.9089 366.904 100.834 368.873 104.629 371.116C114.409 376.906 123.068 384.509 128.975 394.302C129.34 394.915 128.336 395.384 127.971 394.772C119.808 381.262 106.637 372.394 92.3839 366.096C85.8115 367.465 79.5782 370.021 73.9578 373.698C73.371 374.09 72.6408 373.242 73.2406 372.851C78.5872 369.343 84.4553 366.813 90.6626 365.339C85.8898 363.305 80.9996 361.558 76.1617 360.006C69.0546 357.724 61.7259 356.25 54.5276 354.359C54.4624 354.425 54.3581 354.477 54.2408 354.49C47.7336 355.377 41.722 358.063 36.7406 362.34C36.2059 362.81 35.4887 361.962 36.0233 361.493V361.519Z" fill="#46474C"/>
<path d="M137.581 378.862C106.336 368.86 72.34 345.87 53.927 318.707C50.6408 313.856 47.5242 308.366 47.9676 302.511C48.4109 296.656 54.0444 290.944 59.6778 292.574C64.2941 293.917 66.8631 299.342 71.5185 300.581C78.6646 302.485 84.1025 292.483 81.364 285.611C78.6255 278.738 71.5968 274.787 65.3634 270.81C51.9579 262.242 40.1433 251.197 30.689 238.391C28.1983 235.001 25.7859 231.271 25.499 227.085C25.2251 222.886 27.8593 218.218 32.0452 217.696C35.7226 217.24 39.5696 219.965 42.9601 218.492C46.6505 216.875 46.7809 211.411 44.6944 207.968C42.608 204.525 39.1001 202.139 36.805 198.827C29.9588 188.89 37.9395 173.568 49.7411 171.025C61.5426 168.482 73.8006 176.41 79.2645 187.169C82.0551 192.672 83.4505 198.853 86.7497 204.056C90.0489 209.272 96.2561 213.484 102.163 211.724C105.241 210.811 107.68 208.451 110.561 207.029C117.486 203.626 126.21 206.273 131.804 211.58C137.399 216.875 140.45 224.308 142.732 231.662C156.451 275.765 137.568 378.862 137.568 378.862H137.581Z" fill="#BED0F8"/>
<path d="M107.432 243.308C104.98 258.421 103.624 273.679 103.324 288.975C99.0992 269.858 94.5221 250.819 85.9284 233.097C78.9779 218.752 69.4715 205.66 56.6919 195.984C56.0399 195.488 55.3618 196.584 56.0138 197.079C68.1935 206.312 77.061 218.361 83.7637 231.702C76.2655 228.546 68.7673 225.39 61.256 222.234C60.4997 221.908 60.1215 223.147 60.8779 223.46C68.7934 226.785 76.7089 230.124 84.6114 233.449C91.0272 246.685 95.4088 261.082 98.8254 275.191C100.39 281.633 101.812 288.14 103.246 294.648C103.246 295.182 103.246 295.717 103.246 296.252C103.246 296.604 103.481 296.812 103.742 296.877C107.693 314.86 111.814 332.843 119.103 349.691C110.523 338.307 100.547 328.083 89.3581 319.203C88.706 318.694 88.041 319.789 88.68 320.298C101.277 330.3 112.348 342.062 121.568 355.246C121.62 355.311 121.672 355.364 121.737 355.403C122.442 356.863 123.172 358.311 123.941 359.758C131.322 373.633 141.311 386.113 154.417 394.954C155.108 395.411 155.786 394.328 155.095 393.859C129.679 376.724 117.447 347.083 110.079 318.459C108.045 310.57 106.298 302.576 104.537 294.582C104.576 277.421 105.945 260.299 108.697 243.347C108.827 242.525 107.536 242.486 107.406 243.294L107.432 243.308Z" fill="#46474C"/>
<path d="M505.66 184.039C497.301 184.756 489.19 187.13 481.822 191.159C477.597 193.467 473.111 196.388 469.316 199.87C470.542 198.357 471.768 196.845 473.02 195.332C479.67 187.299 486.595 179.54 493.662 171.911C500.665 171.142 507.133 166.278 511.776 161.257C518.126 154.385 522.403 145.505 525.351 136.702C525.677 135.737 524.32 135.124 523.877 135.985C508.372 140.236 494.667 153.864 492.802 170.242C485.069 178.458 477.662 186.986 470.516 195.658C472.55 190.989 473.828 186.008 473.789 180.909C473.724 172.185 470.581 163.865 468.925 155.389C468.755 154.502 467.569 154.32 467.19 155.168C463.057 164.152 459.171 173.776 457.554 183.596C456.145 192.072 458.74 198.709 462.066 206.208C456.458 213.393 451.033 220.748 445.843 228.272C451.516 212.428 442.127 195.149 433.507 181.913C433.064 181.222 432.099 181.509 431.773 182.135C422.918 199.622 431.173 219.131 442.44 233.266C435.711 243.294 429.386 253.596 423.518 264.146C424.992 255.513 423.909 246.072 421.836 237.87C419.176 227.294 414.168 217.67 407.322 209.22C406.853 208.633 406.018 208.777 405.692 209.429C400.867 219.17 402.08 230.124 405.47 240.113C408.913 250.232 413.634 261.603 420.271 270.106C417.285 275.713 414.429 281.398 411.717 287.136C411.743 287.136 411.769 287.136 411.808 287.136C412.408 287.28 412.864 287.58 413.164 287.958C415.707 282.559 418.38 277.226 421.184 271.957C421.301 271.931 421.419 271.866 421.523 271.788C421.693 271.657 421.862 271.54 422.032 271.41C442.192 273.77 462.887 264.55 476.11 249.502C476.54 249.006 476.201 247.989 475.484 248.002C456.68 248.093 438.267 255.983 423.544 267.576C427.743 259.895 432.177 252.358 436.859 244.977C439.023 241.547 441.253 238.157 443.509 234.779C443.705 234.923 443.874 235.04 444.031 235.131C446.339 238 450.199 238.809 453.746 239.148C458.232 239.565 462.965 239.604 467.399 238.652C475.888 236.813 482.748 231.167 489.242 225.716C489.868 225.194 489.581 224.282 488.811 224.125C473.958 220.956 458.506 223.708 445.648 231.649C451.177 223.564 456.967 215.649 462.978 207.916C463.252 208.072 463.591 208.007 463.813 207.799C464.022 207.942 464.309 207.968 464.556 207.72C464.713 207.564 464.882 207.42 465.039 207.264C481.613 209.442 498.54 199.466 506.559 185.239C506.898 184.652 506.233 184.039 505.673 184.091L505.66 184.039Z" fill="#7367F0"/>
<path d="M220.675 395.072H18.9141C24.5997 387.091 33.9235 381.875 44.4732 381.875C49.5068 381.875 54.2405 383.087 58.4525 385.2C65.3118 369.63 80.8689 358.754 98.969 358.754C106.611 358.754 113.796 360.684 120.068 364.101C125.663 346.079 142.472 332.986 162.332 332.986C186.77 332.986 206.578 352.795 206.578 377.232C206.578 378.158 206.539 379.058 206.487 379.971C212.799 383.205 217.819 388.551 220.675 395.072Z" fill="#7367F0"/>
<path d="M396.434 200.926H403.815C447.67 200.926 483.283 236.54 483.283 280.394V395.072H316.966V280.394C316.966 236.54 352.579 200.926 396.434 200.926Z" fill="#BED0F8"/>
<path d="M258.323 339.506L286.933 337.577C286.933 337.577 285.668 345.114 286.933 350.473C286.933 350.473 289.45 359.615 282.2 360.241C282.2 360.241 274.271 359.615 271.454 361.506C271.454 361.506 187.944 378.523 140.033 377.897C140.033 377.897 195.038 347.448 258.323 339.506Z" fill="#FCBC8E"/>
<path d="M409.448 212.806C406.37 211.189 403.775 209.116 401.545 206.012C398.051 201.135 395.09 196.206 393.33 190.416C390.252 180.322 390.5 170.021 390.552 159.588C390.552 159.393 386.862 152.794 383.98 154.255C381.346 155.598 375.582 157.006 372.113 158.91C367.523 161.427 363.728 168.051 360.69 169.955C358.603 171.272 360.533 176.163 360.546 176.476C360.912 182.826 362.933 188.916 362.242 195.345C361.942 198.11 361.107 200.77 360.038 203.326C359.177 205.347 358.59 207.381 357.104 209.063C355.761 210.576 354.065 211.554 352.201 212.219C351.64 212.415 351.288 212.076 351.196 212.884C351.118 213.693 351.522 214.788 351.731 215.558C353.452 222.273 357.821 228.168 363.885 231.558C377.486 239.135 396.003 234.805 405.327 222.547C406.749 220.682 407.961 218.648 408.939 216.509C408.952 216.47 408.965 216.431 408.978 216.392C409.1 215.236 409.257 214.036 409.448 212.793V212.806Z" fill="#FCCBA9"/>
<g style="mix-blend-mode:multiply" opacity="0.5">
<path d="M391.739 183.648C390.839 178.445 390.578 173.189 390.539 167.895C389.444 169.029 388.348 170.125 387.357 171.194C383.693 175.093 379.794 178.784 375.542 182.044C371.461 185.173 367.014 187.821 362.267 189.672C362.424 191.55 362.463 193.441 362.267 195.371C361.967 198.136 361.133 200.796 360.063 203.352C367.483 204.864 388.139 197.145 391.765 183.674L391.739 183.648Z" fill="#FCCBA9"/>
</g>
<path d="M433.951 393.663C431.76 379.201 429.191 364.779 428.474 350.147C427.809 336.572 425.879 321.537 428.891 308.144C428.943 307.884 429.034 307.636 429.1 307.375C429.856 311.378 430.651 315.369 431.343 319.333C432.099 323.741 433.09 328.109 433.872 332.517C434.238 334.629 434.537 336.742 434.746 338.867C434.89 340.354 435.137 341.841 435.033 343.34C434.968 344.201 434.329 345.205 434.668 346.066C435.098 347.135 436.415 347.226 437.38 347.383C438.815 347.618 440.262 347.8 441.71 347.944C444.67 348.23 447.643 348.309 450.616 348.23C456.589 348.087 462.522 347.292 468.377 346.144C470.946 345.635 473.489 345.062 476.045 344.488C476.671 344.344 477.336 344.188 477.819 343.758C478.81 342.884 478.132 341.345 477.297 340.628C476.997 340.367 476.658 340.172 476.332 339.95C476.136 339.819 475.941 339.663 475.771 339.493C475.354 339.05 475.119 338.476 474.924 337.903C473.359 333.534 472.668 329.087 472.211 324.497C471.729 319.75 471.116 315.004 470.607 310.257C469.303 298.899 467.869 287.554 465.952 276.274C464.022 264.889 461.661 253.583 458.375 242.512C457.319 238.939 456.25 235.314 454.463 232.015C453.237 229.759 451.725 227.803 449.56 226.407C447.304 224.96 444.826 223.89 442.31 223.017C433.468 219.952 424.196 218.322 415.355 215.258C415.042 215.153 414.729 215.036 414.416 214.932C412.056 214.071 409.917 213.132 407.974 211.945C407.974 211.945 407.974 211.945 407.987 211.945C401.624 226.003 384.841 233.723 371.513 230.906C366.336 229.811 361.655 227.033 358.46 222.769C357.025 220.852 355.917 218.713 354.939 216.536C354.887 216.431 353.296 212.337 353.1 211.88C353.896 211.567 353.361 211.815 352.24 212.219C352.083 212.193 351.94 212.245 351.796 212.376C349.136 213.262 346.189 213.588 343.529 214.032C337.895 214.984 332.118 215.545 326.733 217.566C314.435 222.182 308.267 235.835 302.464 246.711C295.175 260.377 288.889 274.591 282.356 288.636C276.058 302.198 270.841 317.286 261.857 329.322C261.426 329.909 261.961 330.704 262.587 330.809C264.491 336.859 270.92 342.18 275.862 345.648C281.209 349.404 289.724 354.268 296.453 353.72C296.922 353.681 297.327 353.408 297.587 353.055C297.6 353.042 297.613 353.029 297.626 353.003C297.809 352.742 297.913 352.429 297.913 352.13C301.017 339.559 308.672 328.396 315.479 317.533C318.843 312.174 322.221 306.814 325.455 301.376C327.789 297.451 330.488 293.357 332.509 289.092C333.318 289.836 334.087 290.644 334.752 291.583C336.774 294.387 337.934 297.647 338.638 301.011C340.008 307.558 339.695 314.391 339.395 321.028C339.03 328.996 338.312 336.951 337.204 344.84C336.122 352.599 334.674 360.319 332.875 367.948C331.205 375.028 328.728 381.679 326.628 388.604C361.472 394.993 397.268 396.597 433.99 393.663H433.951Z" fill="#7367F0"/>
<g style="mix-blend-mode:multiply" opacity="0.25">
<path d="M439.101 234.453C435.085 246.463 433.051 260.312 432.242 272.779C431.773 280.068 430.051 287.084 427.091 293.748C426.309 295.508 425.539 297.243 424.822 298.977C424.574 299.212 424.418 299.538 424.418 299.955C422.918 303.671 421.692 307.427 421.158 311.548C419.436 324.706 420.441 338.828 421.784 351.973C423.231 366.148 428.526 380.336 432.099 394.172C432.412 395.398 434.133 394.85 433.963 393.663C431.773 379.201 429.204 364.779 428.486 350.147C427.821 336.572 425.891 321.537 428.904 308.144C428.969 307.87 429.047 307.597 429.125 307.323C429.973 312.617 431.108 317.912 432.007 323.154C433.324 330.756 435.294 338.411 435.033 346.144C435.007 346.953 436.102 347.422 436.663 346.822C440.836 342.232 437.302 332.908 436.389 327.627C434.837 318.616 434.342 294.387 435.528 291.309C437.719 285.624 438.697 279.69 439.336 273.652C440.001 267.458 440.027 261.251 440.249 255.031C440.484 248.224 441.436 241.651 442.296 234.91C442.531 233.019 439.662 232.849 439.114 234.479L439.101 234.453Z" fill="#7367F0"/>
</g>
<g style="mix-blend-mode:multiply" opacity="0.25">
<path d="M348.458 304.024C347.806 298.755 346.346 293.513 343.099 289.223C338.835 283.589 330.815 281.62 329.341 274.031C326.538 259.608 333.032 244.468 327.424 230.241C327.085 229.393 325.833 229.472 325.794 230.463C325.507 238.313 324.973 245.511 323.147 253.192C321.686 259.347 319.809 265.841 320.187 272.218C320.5 277.343 321.569 281.307 325.625 284.489C326.616 285.271 312.428 314.104 309.063 319.685C303.378 329.139 295.749 340.915 295.893 352.429C295.893 353.486 297.51 353.747 297.77 352.677C300.731 340.25 308.138 329.283 314.84 318.564C318.153 313.282 321.465 308.001 324.686 302.654C327.307 298.286 330.411 293.748 332.38 288.975C333.24 289.757 334.036 290.592 334.753 291.583C336.774 294.387 337.935 297.647 338.639 301.011C340.008 307.558 339.695 314.391 339.395 321.028C339.03 328.996 338.313 336.951 337.205 344.84C336.122 352.599 334.675 360.319 332.875 367.948C331.206 375.028 328.728 381.679 326.629 388.604C326.303 389.699 327.672 390.351 328.441 389.66C333.449 385.213 340.217 376.88 341.717 370.699C343.555 363.083 345.055 355.377 346.189 347.618C348.263 333.508 350.271 318.264 348.498 304.024H348.458Z" fill="#7367F0"/>
</g>
<path d="M398.649 152.729L381.697 131.851L365.461 106.318L356.19 100.841L330.865 116.242L308.618 140.028C308.618 140.028 310.926 151.764 310.926 151.999C310.952 162.483 316.768 172.968 323.419 180.792C330.37 188.955 340.15 193.193 350.895 192.32C360.023 191.576 368.317 187.534 375.515 182.031C379.767 178.771 383.666 175.08 387.33 171.181C390.512 167.804 394.659 164.087 396.706 159.888C397.254 158.767 398.636 152.716 398.636 152.716L398.649 152.729Z" fill="#FCCBA9"/>
<path d="M406.07 170.894C413.19 179.318 429.791 176.058 438.319 172.198C450.538 166.669 460.449 155.872 465.352 143.431C470.503 130.326 469.16 114.742 459.588 103.945C455.441 99.2636 449.964 95.8079 444.018 93.8779C438.554 92.1044 430.612 90.8004 425.37 93.6693C424.314 94.243 405.444 170.138 406.083 170.894H406.07Z" fill="#BED0F8"/>
<path d="M350.178 143.014C350.23 143.079 350.296 143.144 350.348 143.209C352.591 145.544 355.551 147.043 358.824 147.069C360.258 147.069 361.706 146.9 363.088 146.561C364.457 146.222 365.944 145.726 366.974 144.709C367.209 144.474 367.483 144.031 367.444 143.692C367.339 142.923 366.114 143.509 365.709 143.64C361.823 144.996 357.676 145.1 353.869 143.431C353.008 143.053 352.173 142.61 351.378 142.101C351.221 141.997 351.052 141.892 350.869 141.866C350.374 141.788 349.826 142.31 350.035 142.805C350.061 142.883 350.113 142.949 350.165 143.014H350.178Z" fill="#46474C"/>
<path d="M349.813 146.391C350.387 146.574 351.117 146.091 351.613 145.857C351.926 145.713 352.213 145.505 352.513 145.335C352.956 145.1 353.334 144.931 353.491 144.409C353.699 143.757 353.321 143.249 352.682 143.105C352.082 142.975 351.626 143.379 351.183 143.718C350.83 143.979 350.531 144.253 350.257 144.605C350.035 144.892 349.031 146.157 349.8 146.391H349.813Z" fill="#46474C"/>
<path d="M354.781 150.069C355.342 149.86 355.629 149.039 355.877 148.543C356.033 148.243 356.137 147.904 356.281 147.591C356.489 147.135 356.685 146.77 356.502 146.261C356.268 145.622 355.655 145.439 355.068 145.713C354.52 145.974 354.403 146.574 354.246 147.109C354.129 147.526 354.051 147.93 354.051 148.373C354.051 148.739 354.025 150.343 354.781 150.069Z" fill="#46474C"/>
<path d="M361.407 150.538C361.798 150.095 361.668 149.234 361.642 148.673C361.642 148.334 361.563 147.982 361.537 147.643C361.498 147.148 361.498 146.73 361.094 146.365C360.585 145.909 359.959 146.052 359.568 146.574C359.203 147.069 359.399 147.643 359.516 148.191C359.62 148.621 359.738 149.012 359.946 149.391C360.116 149.717 360.859 151.138 361.394 150.538H361.407Z" fill="#46474C"/>
<path d="M366.884 148.726C367.131 148.178 366.753 147.395 366.584 146.874C366.479 146.548 366.31 146.235 366.192 145.909C366.01 145.439 365.893 145.048 365.397 144.813C364.784 144.527 364.223 144.84 364.002 145.439C363.793 146.013 364.145 146.522 364.419 147.004C364.628 147.382 364.862 147.721 365.175 148.034C365.436 148.295 366.545 149.456 366.897 148.713L366.884 148.726Z" fill="#46474C"/>
<path d="M315.857 140.158C315.909 140.223 315.974 140.288 316.026 140.354C318.269 142.688 321.23 144.188 324.503 144.214C325.937 144.214 327.385 144.044 328.767 143.705C330.136 143.366 331.623 142.87 332.653 141.853C332.888 141.619 333.162 141.175 333.122 140.836C333.018 140.067 331.792 140.654 331.388 140.784C327.502 142.14 323.355 142.245 319.547 140.575C318.687 140.197 317.852 139.741 317.057 139.245C316.9 139.141 316.731 139.037 316.548 139.01C316.053 138.932 315.505 139.454 315.714 139.949C315.74 140.028 315.792 140.093 315.844 140.158H315.857Z" fill="#46474C"/>
<path d="M315.491 143.535C316.065 143.718 316.795 143.236 317.291 143.001C317.604 142.857 317.89 142.649 318.19 142.479C318.634 142.244 319.012 142.075 319.168 141.553C319.377 140.901 318.999 140.393 318.36 140.249C317.76 140.119 317.304 140.523 316.86 140.862C316.508 141.123 316.208 141.397 315.934 141.749C315.713 142.036 314.709 143.301 315.478 143.535H315.491Z" fill="#46474C"/>
<path d="M320.459 147.213C321.02 147.004 321.307 146.183 321.554 145.687C321.711 145.387 321.815 145.048 321.959 144.735C322.167 144.279 322.363 143.914 322.18 143.405C321.945 142.766 321.333 142.584 320.746 142.857C320.198 143.118 320.081 143.718 319.924 144.253C319.807 144.67 319.729 145.074 319.729 145.518C319.729 145.883 319.703 147.487 320.459 147.213Z" fill="#46474C"/>
<path d="M327.085 147.669C327.476 147.226 327.345 146.365 327.319 145.805C327.319 145.465 327.241 145.113 327.215 144.774C327.176 144.279 327.176 143.862 326.772 143.496C326.263 143.04 325.637 143.183 325.246 143.705C324.881 144.201 325.076 144.774 325.194 145.322C325.298 145.752 325.415 146.144 325.624 146.522C325.794 146.848 326.537 148.269 327.072 147.669H327.085Z" fill="#46474C"/>
<path d="M332.549 145.857C332.796 145.309 332.418 144.527 332.249 144.005C332.144 143.679 331.975 143.366 331.858 143.04C331.675 142.571 331.558 142.179 331.062 141.945C330.449 141.658 329.888 141.971 329.667 142.571C329.458 143.144 329.81 143.653 330.084 144.135C330.306 144.514 330.527 144.853 330.84 145.166C331.101 145.426 332.21 146.587 332.562 145.844L332.549 145.857Z" fill="#46474C"/>
<path d="M332.092 158.076C332.131 158.18 332.197 158.271 332.262 158.362C332.614 158.897 333.135 159.314 333.696 159.614C335.013 160.292 336.735 160.566 338.195 160.305C338.873 160.188 339.956 159.888 340.19 159.145C340.268 158.897 340.229 158.61 340.073 158.428C339.916 158.245 339.656 158.167 339.408 158.128C338.521 157.997 337.647 158.323 336.761 158.362C335.652 158.415 334.518 158.219 333.566 157.645C333.305 157.489 333.044 157.293 332.731 157.254C332.262 157.189 331.857 157.619 332.066 158.076H332.092Z" fill="#37307A"/>
<path d="M376.273 157.984C375.503 157.215 374.486 156.641 373.273 156.367C370 155.637 366.349 157.228 364.888 160.266C363.676 162.77 364.015 165.913 366.388 167.595C369.987 170.151 376.025 167.96 377.486 163.944C378.294 161.701 377.759 159.471 376.286 157.984H376.273Z" fill="#37307A"/>
<path d="M359.425 163.213C359.152 163.213 358.878 163.266 358.656 163.305C357.834 163.474 356.987 164.035 356.217 164.387C355.135 164.896 354.066 165.456 352.957 165.926C350.036 167.165 347.154 167.725 343.986 167.999C338.117 168.495 333.123 167.452 327.646 165.43C325.977 164.817 326.968 168.325 327.163 168.847C327.75 170.529 328.741 172.055 329.941 173.372C332.406 176.084 335.77 178.027 339.304 178.953C340.504 179.266 341.743 179.462 342.981 179.488C350.78 179.67 358.095 173.841 360.351 166.513C360.573 165.808 360.716 165.104 360.703 164.361C360.703 164.113 360.677 163.865 360.56 163.657C360.325 163.292 359.882 163.2 359.438 163.2L359.425 163.213Z" fill="#EAFEFC"/>
<g style="mix-blend-mode:multiply" opacity="0.25">
<path d="M465.352 143.431C460.461 155.872 450.551 166.669 438.319 172.198C429.79 176.058 413.203 179.318 406.07 170.894C405.861 170.646 407.817 162.027 410.556 150.656C411.469 150.786 412.082 150.838 412.29 150.773C422.892 147.082 429.243 134.016 431.251 123.74C433.285 113.347 432.072 102.419 428.317 92.5478C429.464 92.2609 430.677 92.0914 431.929 92.0392C433.168 91.974 447.069 124.157 432.242 154.059C445.413 155.65 456.132 151.36 465.365 143.444L465.352 143.431Z" fill="#BED0F8"/>
</g>
<path d="M427.235 89.8747C422.449 78.8686 413.725 69.3882 401.871 66.2325C392.117 63.6374 378.972 62.9854 370.3 69.0231C362.685 60.4165 349.618 57.7432 338.534 58.9168C325.924 60.2469 314.331 66.8584 306.103 76.404C285.616 100.124 291.132 134.433 311.358 156.511C312.858 158.141 312.701 152.69 312.792 152.077C313.118 149.782 313.809 147.552 314.827 145.479C317.617 139.806 322.625 135.581 327.711 131.838C338.091 124.223 349.814 117.559 356.556 106.605C357.86 123.649 369.831 139.441 385.949 145.139C386.614 145.374 410.804 151.295 412.29 150.773C422.892 147.082 429.243 134.016 431.251 123.74C433.468 112.408 431.825 100.424 427.235 89.8747Z" fill="#BED0F8"/>
<g style="mix-blend-mode:multiply" opacity="0.25">
<path d="M428.252 93.1738C427.456 99.2637 426.648 105.445 424.326 111.13C422.005 116.816 417.937 122.058 412.29 124.47C406.852 126.792 400.632 126.27 394.829 125.07C379.611 121.928 371.356 113.647 364.093 99.4202C362.789 96.8642 361.719 94.1779 360.924 91.4134C360.481 89.8616 358.499 84.3846 359.385 82.9502C347.232 102.706 308.619 133.638 306.624 131.643C304.316 129.335 302.438 126.7 300.638 123.988C297.6 119.372 295.096 114.403 293.218 109.213C292.553 126.114 299.373 143.444 311.331 156.498C312.831 158.128 312.675 152.677 312.766 152.064C313.092 149.769 313.783 147.539 314.8 145.465C317.591 139.793 322.598 135.568 327.684 131.825C338.064 124.21 349.788 117.546 356.529 106.592C357.833 123.636 369.805 139.428 385.922 145.126C386.588 145.361 410.777 151.281 412.264 150.76C422.866 147.069 429.217 134.003 431.225 123.727C433.207 113.621 432.359 102.641 428.239 93.1608L428.252 93.1738Z" fill="#BED0F8"/>
</g>
<path d="M354.494 203.404C359.698 202.843 365.005 199.87 369.595 197.51C374.655 194.902 379.428 191.798 383.666 187.99C387.761 184.313 391.399 180.14 394.568 175.654C397.332 171.729 401.388 166.434 401.375 161.453C401.375 160.501 400.201 160.045 399.523 160.684C396.315 163.735 394.815 168.703 392.351 172.407C389.156 177.193 385.348 181.548 381.071 185.408C376.846 189.216 372.099 192.267 367.052 194.862C362.723 197.092 357.52 198.696 353.908 201.996C353.412 202.452 353.777 203.495 354.494 203.417V203.404Z" fill="#46474C"/>
<path d="M363.532 199.74C363.962 203.065 360.271 206.286 355.29 206.938C350.296 207.59 345.901 205.438 345.471 202.113C345.04 198.788 348.731 195.567 353.712 194.915C358.707 194.263 363.101 196.414 363.532 199.74Z" fill="#46474C"/>
<path d="M404.975 135.216C406.122 123.088 404.714 113.438 402.132 105.836C395.677 86.7972 376.638 74.5653 356.647 76.7821C336.291 79.0381 325.741 94.7779 325.741 94.7779V94.8431C325.741 94.8431 326.667 94.152 328.349 93.1739C354.717 77.8645 388.153 94.6736 392.078 124.914C392.391 127.313 392.638 129.882 392.821 132.66V137.967L404.975 135.216Z" fill="#46474C"/>
<path d="M398.651 173.607C409.252 173.607 417.846 164.259 417.846 152.729C417.846 141.199 409.252 131.851 398.651 131.851C388.049 131.851 379.455 141.199 379.455 152.729C379.455 164.259 388.049 173.607 398.651 173.607Z" fill="#7367F0"/>
<path d="M411.809 152.729C411.809 160.631 405.928 167.034 398.664 167.034C391.401 167.034 385.52 160.631 385.52 152.729C385.52 144.827 391.401 138.424 398.664 138.424C405.928 138.424 411.809 144.827 411.809 152.729Z" fill="#46474C"/>
<path d="M471.338 357.098C471.273 356.798 471.207 356.485 471.155 356.172C471.142 356.081 471.129 355.99 471.103 355.898C471.064 355.663 471.025 355.416 470.999 355.168C470.999 355.077 470.973 354.998 470.96 354.907C470.92 354.581 470.894 354.255 470.868 353.929C470.868 353.903 470.868 353.877 470.868 353.851C470.842 353.538 470.829 353.238 470.816 352.925C470.816 352.834 470.816 352.742 470.816 352.638C470.816 352.377 470.803 352.13 470.803 351.869C470.803 351.791 470.803 351.712 470.803 351.634C470.803 351.308 470.803 350.982 470.803 350.669C470.803 350.617 470.803 350.578 470.803 350.526C470.803 350.252 470.816 349.991 470.829 349.717C470.829 349.626 470.829 349.534 470.829 349.443C470.829 349.222 470.855 349 470.868 348.778C470.868 348.7 470.868 348.622 470.881 348.543C470.894 348.27 470.92 347.996 470.934 347.748C470.934 347.67 470.947 347.592 470.96 347.513C470.973 347.331 470.986 347.161 470.999 346.992C470.999 346.887 471.012 346.783 471.025 346.692C471.038 346.561 471.051 346.431 471.064 346.3C471.064 346.209 471.09 346.105 471.09 346.014C471.103 345.844 471.129 345.688 471.142 345.531C470.216 345.727 469.29 345.935 468.365 346.118C462.509 347.279 456.576 348.061 450.604 348.204C447.63 348.283 444.657 348.204 441.697 347.918C440.249 347.774 438.802 347.592 437.368 347.357C436.898 347.279 436.337 347.213 435.842 347.044C433.482 347.383 431.134 347.748 428.813 348.126C428.67 348.152 428.513 348.165 428.37 348.191C371.357 357.607 324.438 378.184 324.438 378.184C310.889 366.2 277.153 379.449 277.153 379.449V384.509H324.438C355.761 384.9 402.302 377.767 430.782 372.786C430.782 372.786 430.795 372.786 430.808 372.786C431.134 372.733 431.447 372.668 431.773 372.616C432.021 372.577 432.256 372.525 432.503 372.486C432.843 372.42 433.169 372.368 433.495 372.303C433.638 372.277 433.781 372.251 433.925 372.225C434.577 372.107 435.229 371.99 435.855 371.886C436.024 371.86 436.194 371.821 436.363 371.794C436.702 371.729 437.029 371.677 437.368 371.612C437.498 371.586 437.615 371.573 437.746 371.547C438.385 371.429 439.024 371.312 439.637 371.208C439.754 371.182 439.858 371.169 439.976 371.142C440.315 371.077 440.641 371.025 440.967 370.96C441.058 370.947 441.149 370.921 441.241 370.908C442.297 370.712 443.301 370.53 444.253 370.347C444.305 370.347 444.37 370.321 444.422 370.308C445.348 370.138 446.235 369.969 447.057 369.812C447.161 369.786 447.265 369.773 447.37 369.747C447.617 369.695 447.865 369.656 448.113 369.604H448.139C448.647 369.512 449.143 369.408 449.599 369.317C449.678 369.304 449.769 369.291 449.847 369.265C450.056 369.226 450.251 369.186 450.46 369.147C450.538 369.134 450.604 369.121 450.682 369.108C451.321 368.978 451.921 368.873 452.455 368.769C452.507 368.769 452.573 368.743 452.625 368.73C452.938 368.665 453.225 368.613 453.485 368.56C453.525 368.56 453.564 368.547 453.603 368.534C453.733 368.508 453.838 368.482 453.955 368.469C454.02 368.456 454.085 368.443 454.151 368.43C454.477 368.365 454.75 368.313 454.985 368.261C455.076 368.247 455.181 368.221 455.259 368.208C455.285 368.208 455.324 368.195 455.35 368.195C455.376 368.195 455.402 368.195 455.442 368.182C455.624 368.143 455.741 368.117 455.794 368.104C455.82 368.104 455.833 368.104 455.833 368.104C458.649 366.213 466.578 366.839 466.578 366.839C473.828 366.213 471.312 357.072 471.312 357.072L471.338 357.098Z" fill="#FCCBA9"/>
<path d="M476.801 31.2448C476.801 13.9793 460.84 0 441.162 0C421.484 0 405.522 13.9923 405.522 31.2448C405.522 48.4972 421.484 62.4895 441.162 62.4895C442.922 62.4895 444.644 62.3722 446.326 62.1635C445.139 69.8704 441.162 73.4435 441.162 73.4435C476.801 62.5026 476.801 35.4959 476.801 31.2448Z" fill="#7367F0"/>
<path d="M421.067 37.152C424.761 37.152 427.756 34.1569 427.756 30.4622C427.756 26.7676 424.761 23.7725 421.067 23.7725C417.372 23.7725 414.377 26.7676 414.377 30.4622C414.377 34.1569 417.372 37.152 421.067 37.152Z" fill="white"/>
<path d="M440.132 37.152C443.827 37.152 446.822 34.1569 446.822 30.4622C446.822 26.7676 443.827 23.7725 440.132 23.7725C436.437 23.7725 433.442 26.7676 433.442 30.4622C433.442 34.1569 436.437 37.152 440.132 37.152Z" fill="white"/>
<path d="M465.9 30.4622C465.9 34.1527 462.901 37.152 459.21 37.152C455.52 37.152 452.521 34.1527 452.521 30.4622C452.521 26.7718 455.52 23.7725 459.21 23.7725C462.901 23.7725 465.9 26.7718 465.9 30.4622Z" fill="white"/>
<path d="M158.967 157.085C158.967 139.819 143.006 125.84 123.328 125.84C103.65 125.84 87.6885 139.832 87.6885 157.085C87.6885 174.337 103.65 188.329 123.328 188.329C125.088 188.329 126.81 188.212 128.492 188.003C127.305 195.71 123.328 199.283 123.328 199.283C158.967 188.342 158.967 161.336 158.967 157.085Z" fill="#7367F0"/>
<path d="M123.98 150.89C123.98 149.625 122.767 148.986 121.254 148.986C119.507 148.986 117.877 150.043 117.029 151.751L109.792 148.139C111.865 144.24 115.973 141.553 122.467 141.553C128.961 141.553 133.604 144.24 133.604 149.312C133.604 155.533 127.097 156.628 127.097 159.758H118.725C118.725 154.842 123.967 153.381 123.967 150.903L123.98 150.89ZM117.564 166.174C117.564 163.448 119.755 161.375 122.924 161.375C126.092 161.375 128.283 163.448 128.283 166.174C128.283 168.899 126.092 171.051 122.924 171.051C119.755 171.051 117.564 168.86 117.564 166.174Z" fill="white"/>
<path d="M254.984 76.7819C254.984 59.5164 239.022 45.5371 219.344 45.5371C199.667 45.5371 183.705 59.5295 183.705 76.7819C183.705 94.0343 199.667 108.026 219.344 108.026C221.105 108.026 222.826 107.909 224.508 107.7C223.322 115.407 219.344 118.98 219.344 118.98C254.984 108.04 254.984 81.0331 254.984 76.7819Z" fill="#BED0F8"/>
<path d="M197.124 83.7061H241.566" stroke="white" stroke-width="5.32" stroke-miterlimit="10" stroke-linecap="round"/>
<path d="M197.124 71.4092H241.566" stroke="white" stroke-width="5.32" stroke-miterlimit="10" stroke-linecap="round"/>
<path d="M546.461 344.253C529.665 338.881 511.395 326.518 501.511 311.926C499.737 309.318 498.068 306.371 498.303 303.228C498.538 300.085 501.576 297.008 504.601 297.895C507.079 298.612 508.461 301.533 510.965 302.198C514.799 303.228 517.72 297.842 516.259 294.152C514.786 290.462 511.017 288.336 507.666 286.197C500.455 281.594 494.104 275.661 489.031 268.775C487.688 266.95 486.397 264.955 486.24 262.699C486.097 260.443 487.505 257.926 489.761 257.652C491.731 257.404 493.804 258.878 495.63 258.082C497.612 257.222 497.677 254.275 496.555 252.423C495.434 250.571 493.543 249.293 492.317 247.507C488.64 242.173 492.93 233.932 499.268 232.575C505.605 231.206 512.204 235.47 515.138 241.247C516.638 244.207 517.381 247.52 519.154 250.323C520.928 253.127 524.266 255.383 527.435 254.444C529.091 253.949 530.395 252.684 531.947 251.927C535.664 250.102 540.358 251.523 543.357 254.366C546.37 257.209 548 261.199 549.226 265.163C556.593 288.871 546.448 344.266 546.448 344.266L546.461 344.253Z" fill="#7367F0"/>
<path d="M530.252 271.41C528.935 279.534 528.205 287.736 528.049 295.952C525.779 285.676 523.315 275.452 518.699 265.92C514.956 258.213 509.857 251.171 502.985 245.968C502.633 245.694 502.268 246.294 502.62 246.555C509.166 251.51 513.926 257.991 517.538 265.163C513.508 263.468 509.479 261.773 505.45 260.077C505.045 259.908 504.837 260.573 505.254 260.743C509.505 262.529 513.756 264.316 518.007 266.115C521.45 273.222 523.81 280.968 525.649 288.545C526.484 292.013 527.253 295.508 528.022 299.003C528.022 299.29 528.022 299.577 528.022 299.864C528.022 300.046 528.153 300.164 528.296 300.203C530.422 309.866 532.626 319.529 536.551 328.592C531.935 322.476 526.575 316.973 520.563 312.2C520.211 311.926 519.859 312.513 520.198 312.787C526.966 318.159 532.926 324.484 537.868 331.565C537.894 331.604 537.92 331.63 537.959 331.656C538.337 332.439 538.729 333.221 539.146 333.99C543.11 341.45 548.483 348.152 555.525 352.899C555.89 353.147 556.255 352.56 555.89 352.312C542.236 343.106 535.651 327.17 531.7 311.796C530.604 307.558 529.666 303.267 528.727 298.964C528.74 289.744 529.483 280.538 530.957 271.436C531.022 270.992 530.331 270.979 530.265 271.41H530.252Z" fill="#46474C"/>
<path d="M548.222 330.704C541.311 322.424 536.212 312.643 533.369 302.237C532.534 299.199 531.908 295.899 533.03 292.965C534.151 290.018 537.646 287.788 540.515 289.105C542.236 289.901 543.241 291.661 544.492 293.07C545.757 294.478 547.818 295.626 549.474 294.713C551.834 293.409 550.804 289.849 549.565 287.449C545.027 278.608 541.963 268.997 540.554 259.165C540.137 256.27 539.889 253.192 541.128 250.532C542.367 247.885 545.575 245.942 548.274 247.076C550.217 247.898 551.286 249.984 551.965 251.966C552.656 253.962 553.151 256.1 554.547 257.691C555.942 259.269 558.628 259.973 560.141 258.513C561.367 257.313 561.262 255.344 560.989 253.662C559.502 244.833 555.342 236.005 557.376 227.281C559.424 218.505 568.343 211.867 577.341 212.428C586.339 212.989 594.359 220.682 595.298 229.654C596.902 245.016 580.445 257.196 579.949 272.635C582.31 270.627 584.748 268.593 587.643 267.484C590.538 266.376 594.046 266.376 596.511 268.254C599.536 270.562 600.11 275.087 598.767 278.647C597.423 282.207 594.568 284.959 591.646 287.384C588.725 289.81 585.583 292.079 583.327 295.143C582.518 296.252 581.814 297.699 582.414 298.938C583.196 300.542 585.426 300.503 587.121 301.037C590.642 302.159 592.298 306.527 591.503 310.14C590.695 313.752 588.086 316.673 585.322 319.137C576.298 327.222 565.031 332.282 553.973 337.224L548.261 330.717L548.222 330.704Z" fill="#BED0F8"/>
<path d="M579.714 306.423C570.534 310.022 561.81 314.665 553.699 320.259C555.798 309.8 558.12 299.381 560.676 289.014C563.271 286.093 567.926 284.945 571.369 283.55C575.985 281.685 580.601 279.821 585.205 277.956C585.804 277.721 585.322 276.834 584.735 277.082C579.715 279.116 574.707 281.138 569.686 283.172C566.857 284.32 563.544 285.285 561.106 287.254C563.297 278.438 565.657 269.675 568.174 260.951C571.46 256.609 575.255 252.723 579.519 249.332C580.027 248.928 579.336 248.198 578.841 248.602C575.176 251.51 571.864 254.796 568.904 258.408C569.1 257.756 569.282 257.091 569.478 256.439C571.955 248.08 574.577 239.774 577.341 231.519C577.55 230.906 576.598 230.619 576.389 231.232C574.198 237.765 572.112 244.325 570.104 250.91C569.686 246.15 568.774 241.456 567.326 236.892C567.131 236.279 566.166 236.514 566.361 237.126C568.03 242.434 569.021 247.885 569.282 253.44C569.282 253.479 569.282 253.518 569.295 253.557C568.604 255.878 567.926 258.2 567.248 260.521C567.196 260.586 567.144 260.651 567.104 260.716C566.974 260.886 566.987 261.056 567.065 261.186C564.444 270.275 561.993 279.429 559.724 288.61C559.645 288.701 559.567 288.792 559.502 288.884C554.925 279.808 551.508 270.197 549.356 260.26C549.226 259.634 548.248 259.856 548.391 260.495C550.647 270.849 554.247 280.851 559.098 290.279C559.15 290.37 559.215 290.435 559.293 290.488C556.92 300.229 554.742 310.009 552.76 319.842C552.76 319.802 552.747 319.763 552.721 319.724C550.165 313.895 546.683 308.562 542.419 303.841C541.989 303.372 541.258 304.037 541.689 304.519C545.914 309.175 549.317 314.443 551.847 320.194C552.03 320.598 552.499 320.507 552.695 320.207C552.59 320.754 552.473 321.302 552.369 321.837C550.687 330.326 549.174 338.828 547.792 347.37C547.687 347.996 548.691 348.022 548.783 347.396C550.178 338.789 551.73 330.209 553.425 321.667C553.477 321.667 553.542 321.628 553.595 321.589C561.862 315.812 570.782 311.052 580.171 307.375C580.771 307.14 580.288 306.267 579.701 306.501L579.714 306.423Z" fill="#46474C"/>
<path d="M542.784 326.988H503.546L521.502 395.072H542.784H564.066L582.036 326.988H542.784Z" fill="#7367F0"/>
<path d="M588.243 326.988H497.339V347.787H588.243V326.988Z" fill="#7367F0"/>
<g style="mix-blend-mode:multiply" opacity="0.5">
<path d="M588.243 326.988H497.339V347.787H588.243V326.988Z" fill="#E9A1C6"/>
</g>
<path d="M318.047 395.072H131.439L84.1543 260.782H270.762L318.047 395.072Z" fill="#7367F0"/>
<g style="mix-blend-mode:multiply" opacity="0.5">
<path d="M318.047 395.072H131.439L84.1543 260.782H270.762L318.047 395.072Z" fill="#473F9C"/>
</g>
<path d="M442.179 380.779H245.165V394.941H442.179V380.779Z" fill="#7367F0"/>
<g style="mix-blend-mode:multiply" opacity="0.5">
<path d="M442.179 380.779H245.165V394.941H442.179V380.779Z" fill="#473F9C"/>
</g>
<path d="M308.684 395.072H122.076L74.792 260.782H261.4L308.684 395.072Z" fill="#404040"/>
<g style="mix-blend-mode:multiply" opacity="0.5">
<path d="M308.684 395.072H122.076L74.792 260.782L308.684 395.072Z" fill="#7367F0"/>
</g>
<path opacity="0.5" d="M191.738 345.479C201.432 345.479 209.29 337.621 209.29 327.927C209.29 318.233 201.432 310.374 191.738 310.374C182.044 310.374 174.186 318.233 174.186 327.927C174.186 337.621 182.044 345.479 191.738 345.479Z" fill="white"/>
<path d="M613.335 397.719H18.7972C17.3367 397.719 16.1631 396.532 16.1631 395.085C16.1631 393.637 17.3498 392.45 18.7972 392.45H613.335V397.732V397.719Z" fill="#3C3C3D"/>
</g>
<defs>
<clipPath id="clip0_1129_3871">
<rect width="614" height="398" fill="white"/>
</clipPath>
</defs>
</svg>
