<svg width="61" height="64" viewBox="0 0 61 64" fill="none" xmlns="http://www.w3.org/2000/svg">
<g clip-path="url(#clip0_1110_4038)">
<path d="M61 31.9973C61 49.6647 47.3378 63.9946 30.511 63.9946H30.2763C44.8443 62.7913 56.3459 49.1093 56.3459 32.4111C56.3459 15.7128 43.7313 0.718673 28.1866 0.718673C24.3291 0.718673 20.6353 1.60068 17.2906 3.15236C21.29 1.13245 25.775 0 30.511 0C47.3323 0 61 14.3299 61 31.9973Z" fill="#9A9A99"/>
<path d="M56.3513 32.4167C56.3513 49.1095 44.8497 62.7915 30.2818 64.0002C14.0606 63.8587 0.862075 50.4815 0.0491055 33.6472C0 33.2552 0 32.836 0 32.4167V31.9975C0 31.0447 0.0491055 30.0974 0.14186 29.1664C0.398301 25.965 1.09669 22.927 2.20975 20.0795C2.39526 19.6167 2.58077 19.1267 2.7881 18.6857C2.90268 18.3863 3.04454 18.0814 3.18095 17.8037C3.32281 17.4335 3.50832 17.085 3.69383 16.7366C3.92844 16.252 4.17943 15.7838 4.43587 15.3428C4.69231 14.9236 4.94875 14.5098 5.20519 14.0906C8.13515 9.54442 12.1509 5.83672 16.8705 3.37581C17.0123 3.30503 17.1487 3.23425 17.2906 3.1417C20.6352 1.59002 24.3291 0.708008 28.1866 0.708008C43.7312 0.708008 56.3513 14.8964 56.3513 32.4058V32.4167Z" fill="#C3C3C3"/>
<path d="M28.1866 6.26638C40.8886 6.26638 51.2226 17.9938 51.2226 32.4054C51.2226 45.9894 41.8871 57.4119 29.9544 58.4409C16.7178 58.2885 5.83269 47.3015 5.16158 33.4017V33.3473L5.15067 33.2928C5.12339 33.0424 5.12339 32.7375 5.12339 32.4108V32.046C5.12339 31.262 5.16158 30.4835 5.23797 29.7321V29.7158V29.6995C5.4453 27.0807 6.02366 24.5599 6.94029 22.2133L7.03305 21.9846C7.164 21.658 7.28403 21.3531 7.40952 21.0863L7.4368 21.0318L7.45863 20.972C7.52956 20.7868 7.62231 20.5745 7.74235 20.3458L7.78054 20.2696L7.81328 20.1879C7.89512 19.9647 8.03153 19.7143 8.17339 19.4529L8.18976 19.4203L8.20612 19.3876C8.3589 19.0609 8.54441 18.7179 8.78448 18.3042L9.43376 17.237C11.8508 13.4858 15.1627 10.4477 19.0148 8.43873C19.1239 8.38429 19.2658 8.31351 19.424 8.22095C22.2285 6.93605 25.1748 6.28271 28.1866 6.28271M28.1866 4.62759C24.8038 4.62759 21.5628 5.40071 18.6329 6.76183C18.5128 6.8435 18.3873 6.90339 18.2673 6.96328C14.1315 9.11929 10.6068 12.3697 8.03698 16.355C7.81328 16.7198 7.58958 17.0846 7.36587 17.4548C7.14217 17.8414 6.91847 18.2497 6.71113 18.6744C6.54745 18.9793 6.38376 19.2842 6.26373 19.6108C6.14369 19.8558 6.0182 20.1172 5.91999 20.3839C5.73448 20.7705 5.57625 21.1952 5.41256 21.6035C4.43591 24.1025 3.82482 26.7703 3.60111 29.5742C3.51927 30.3855 3.48108 31.2185 3.48108 32.0569V32.4217C3.48108 32.7865 3.48108 33.1513 3.51927 33.4997C4.23403 48.2597 15.8066 59.9926 30.0308 60.1178C42.8092 59.0616 52.8922 47.062 52.8922 32.4272C52.8922 17.7924 41.8161 4.6167 28.1866 4.6167V4.62759Z" fill="#9A9A99"/>
<g style="mix-blend-mode:multiply" opacity="0.3">
<path d="M59.6304 41.5146C59.4777 42.0319 59.3085 42.5437 59.1339 43.05H54.7253C54.889 42.5437 55.0418 42.0373 55.1782 41.5146H59.6304Z" fill="#B2B2B2"/>
<path d="M61 32.0029C61 32.5147 60.989 33.0265 60.9672 33.5383H56.3295C56.3458 33.1681 56.3513 32.7924 56.3513 32.4167C56.3513 32.2806 56.3513 32.139 56.3458 32.0029H61Z" fill="#B2B2B2"/>
<path d="M60.8526 35.1714C60.8035 35.6832 60.749 36.195 60.6726 36.7067H56.0948C56.1603 36.2004 56.2094 35.6886 56.2422 35.1714H60.8526Z" fill="#B2B2B2"/>
<path d="M60.3997 38.3403C60.307 38.8576 60.1978 39.3639 60.0669 39.8757H55.5656C55.6747 39.3693 55.7729 38.863 55.8602 38.3403H60.3997Z" fill="#B2B2B2"/>
<path d="M59.6304 41.5146C59.4777 42.0319 59.3085 42.5437 59.1339 43.05H54.7253C54.889 42.5437 55.0418 42.0373 55.1782 41.5146H59.6304Z" fill="#B2B2B2"/>
<path d="M58.5664 44.5469C58.3591 45.0641 58.1354 45.5704 57.8953 46.0822H53.6013C53.8196 45.5813 54.0214 45.0695 54.207 44.5469H58.561H58.5664Z" fill="#B2B2B2"/>
<path d="M57.0715 47.7158C56.7878 48.2385 56.4986 48.7448 56.1876 49.2512H52.0464C52.3247 48.7503 52.592 48.2439 52.8484 47.7158H57.0715Z" fill="#B2B2B2"/>
<path d="M55.1182 50.8843C54.7581 51.4069 54.3762 51.9187 53.9779 52.4196H50.0167C50.3823 51.9242 50.7315 51.4124 51.0643 50.8843H55.1128H55.1182Z" fill="#B2B2B2"/>
<path d="M52.5974 54.0586C52.1173 54.5922 51.6153 55.1039 51.1024 55.5939H47.3759C47.8505 55.1039 48.3089 54.5922 48.7454 54.0586H52.5974Z" fill="#B2B2B2"/>
<path d="M49.2637 57.2271C48.6035 57.7661 47.927 58.2778 47.2231 58.7624H43.8185C44.4569 58.2833 45.0789 57.7715 45.679 57.2271H49.2583H49.2637Z" fill="#B2B2B2"/>
<path d="M45.1279 60.0854C44.1404 60.6571 43.1146 61.1743 42.067 61.6208H39.0989C40.0592 61.1689 40.9976 60.6571 41.8979 60.0854H45.1225H45.1279Z" fill="#B2B2B2"/>
<path d="M39.8518 62.4648C36.9109 63.4612 33.7736 64.0002 30.5109 64.0002H30.2762C32.6388 63.8042 34.9194 63.2761 37.0855 62.4648H39.8464H39.8518Z" fill="#B2B2B2"/>
<path d="M60.9617 30.364H56.2912C56.2639 29.8467 56.2257 29.3404 56.1766 28.8286H60.8526C60.9017 29.335 60.9344 29.8467 60.9617 30.364Z" fill="#B2B2B2"/>
<path d="M60.6562 27.1955H55.9694C55.893 26.6837 55.8111 26.1719 55.702 25.6602H60.3998C60.4925 26.1665 60.5798 26.6783 60.6562 27.1955Z" fill="#B2B2B2"/>
<path d="M60.0451 24.0212H55.3528C55.2328 23.504 55.0909 22.9976 54.9436 22.4858H59.6305C59.7778 22.9922 59.9196 23.4985 60.0451 24.0212Z" fill="#B2B2B2"/>
<path d="M59.0958 20.8527H54.4198C54.2398 20.3355 54.0488 19.8292 53.8469 19.3174H58.5119C58.7193 19.8183 58.9157 20.3301 59.0958 20.8527Z" fill="#B2B2B2"/>
<path d="M57.7808 17.6838H53.1321C52.8866 17.1666 52.6356 16.6548 52.3628 16.1484H57.0005C57.2788 16.6493 57.5352 17.1611 57.7808 17.6838Z" fill="#B2B2B2"/>
<path d="M56.0457 14.51H51.4298C51.1133 13.9873 50.786 13.4755 50.4368 12.9746H55.0254C55.3855 13.4701 55.7238 13.9818 56.0457 14.51Z" fill="#B2B2B2"/>
<path d="M53.7924 11.341H49.2256C48.8054 10.8129 48.3744 10.3066 47.927 9.80566H52.4665C52.9249 10.3011 53.3614 10.8075 53.7869 11.341H53.7924Z" fill="#B2B2B2"/>
<path d="M50.8514 8.17255H46.3337C45.7717 7.63899 45.1825 7.12721 44.5823 6.63721H49.1C49.7002 7.12177 50.2894 7.6281 50.8514 8.17255Z" fill="#B2B2B2"/>
<path d="M46.8794 4.99824H42.3344C41.4723 4.43745 40.5829 3.92567 39.6718 3.46289H44.3368C45.2098 3.93112 46.0609 4.4429 46.8848 4.99824H46.8794Z" fill="#B2B2B2"/>
</g>
<path d="M37.444 39.756L38.318 44.278C37.254 44.81 34.86 45.38 31.744 45.38C22.89 45.38 18.33 39.87 18.33 32.574C18.33 23.834 24.562 18.97 32.314 18.97C35.316 18.97 37.596 19.578 38.622 20.11L37.444 24.708C36.266 24.214 34.632 23.758 32.58 23.758C27.982 23.758 24.41 26.532 24.41 32.232C24.41 37.362 27.45 40.592 32.618 40.592C34.366 40.592 36.304 40.212 37.444 39.756Z" fill="#FFFCFC"/>
</g>
<defs>
<clipPath id="clip0_1110_4038">
<rect width="61" height="64" fill="white"/>
</clipPath>
</defs>
</svg>
