<svg width="667" height="327" viewBox="0 0 667 327" fill="none" xmlns="http://www.w3.org/2000/svg">
<path opacity="0.0845424" d="M619.526 151.035C628.14 139.537 644.451 137.194 655.957 145.802C667.349 154.325 669.76 170.385 661.449 181.863L661.194 182.209L592.941 273.315C584.247 284.919 568.102 287.862 555.884 280.139L555.515 279.902L512.548 251.798L469.226 314.852C461.172 326.575 445.212 329.64 433.396 321.812L433.04 321.571C421.309 313.522 418.241 297.573 426.075 285.765L426.316 285.409L483.086 202.783C491.543 190.474 508.208 187.082 520.794 195.029L521.174 195.273L564.94 223.899L619.526 151.035Z" fill="#7367F0"/>
<path opacity="0.0845424" d="M396.115 3.19215C398.299 0.019145 402.65 -0.787841 405.833 1.3897C408.973 3.53858 409.803 7.79093 407.725 10.9519L407.64 11.0777L390.631 35.7863C388.137 39.2683 383.312 40.1071 379.788 37.6983L379.663 37.6109L369.894 30.6568L359.306 47.4286C357.277 50.6433 353.047 51.6383 349.796 49.6925L349.668 49.6142C346.444 47.5909 345.446 43.3736 347.398 40.1328L347.476 40.0054L361.517 17.7636C363.83 14.0996 368.685 12.9988 372.36 15.3049L372.552 15.4294L372.741 15.5595L382.715 22.6597L396.115 3.19215Z" fill="#7367F0"/>
<path opacity="0.070266" fill-rule="evenodd" clip-rule="evenodd" d="M581.735 118.941C583.116 118.941 584.235 117.821 584.235 116.441V100.132H600.557C601.937 100.132 603.057 99.0123 603.057 97.6316V90.0892C603.057 88.7084 601.937 87.5892 600.557 87.5892H584.235V71.1584C584.235 69.7777 583.116 68.6584 581.735 68.6584H574.062C572.682 68.6584 571.562 69.7777 571.562 71.1584V87.5892H555.241C553.86 87.5892 552.741 88.7084 552.741 90.0892V97.6316C552.741 99.0123 553.86 100.132 555.241 100.132H571.562V116.441C571.562 117.821 572.682 118.941 574.062 118.941H581.735Z" fill="#00CFE8"/>
<path opacity="0.0739397" fill-rule="evenodd" clip-rule="evenodd" d="M85.1481 18.537C131.622 18.537 169.297 56.1867 169.297 102.63C169.297 149.073 131.622 186.723 85.1481 186.723C38.6737 186.723 0.998779 149.073 0.998779 102.63C0.998779 56.1867 38.6737 18.537 85.1481 18.537ZM85.1481 60.15C61.6713 60.15 42.6397 79.1689 42.6397 102.63C42.6397 126.091 61.6713 145.11 85.1481 145.11C108.625 145.11 127.656 126.091 127.656 102.63C127.656 79.1689 108.625 60.15 85.1481 60.15Z" fill="#00CFE8"/>
</svg>
