<svg width="22" height="20" viewBox="0 0 123 111" fill="none" xmlns="http://www.w3.org/2000/svg">
<g clip-path="url(#clip0_508_3611)">
<path fill-rule="evenodd" clip-rule="evenodd" d="M91.1235 15.645C104.051 15.645 114.529 26.124 114.529 39.051C114.529 51.978 104.05 62.457 91.1235 62.457C78.1965 62.457 67.7175 51.978 67.7175 39.051C67.7175 26.125 78.1965 15.645 91.1235 15.645ZM2.7555 0H120.077C121.625 0 122.879 1.254 122.879 2.802C122.879 3.65 122.511 4.424 121.883 4.941L111.216 18.497C109.811 17.122 108.266 15.89 106.602 14.825L113.23 5.605H9.4295L47.4045 51.776C47.9945 52.292 48.3625 53.03 48.3625 53.878V103.026L69.4185 93.403V57.896C71.0695 59.796 72.9665 61.478 75.0605 62.892V95.025C75.0605 96.13 74.4335 97.089 73.4745 97.531L46.9985 110.289C45.6715 111.062 43.9755 110.621 43.2005 109.256C42.9425 108.815 42.8325 108.336 42.8325 107.856V55.02L0.8025 4.756C-0.2675 3.65 -0.2675 1.917 0.8025 0.811C1.3545 0.258 2.0555 0 2.7555 0ZM96.9295 28.282C98.2575 26.933 100.418 26.927 101.754 28.269C103.089 29.611 103.095 31.793 101.767 33.141L95.9385 39.055L101.774 44.974C103.091 46.312 103.073 48.48 101.734 49.817C100.394 51.153 98.2415 51.15 96.9245 49.811L91.1275 43.933L85.3205 49.822C83.9915 51.171 81.8315 51.177 80.4945 49.835C79.1595 48.493 79.1535 46.312 80.4815 44.963L86.3115 39.05L80.4755 33.131C79.1585 31.793 79.1755 29.624 80.5155 28.288C81.8545 26.952 84.0075 26.955 85.3255 28.294L91.1215 34.172L96.9295 28.282Z" fill="#7367F0"/>
</g>
<defs>
<clipPath id="clip0_508_3611">
<rect width="122.88" height="110.668" fill="white"/>
</clipPath>
</defs>
</svg>