<svg width="43" height="42" viewBox="0 0 43 42" fill="none" xmlns="http://www.w3.org/2000/svg">
<rect x="0.5" width="42" height="42" rx="21" fill="#D0E8FF"/>
<path d="M15 13H33V25H15V13ZM24 16C24.7956 16 25.5587 16.3161 26.1213 16.8787C26.6839 17.4413 27 18.2044 27 19C27 19.7956 26.6839 20.5587 26.1213 21.1213C25.5587 21.6839 24.7956 22 24 22C23.2044 22 22.4413 21.6839 21.8787 21.1213C21.3161 20.5587 21 19.7956 21 19C21 18.2044 21.3161 17.4413 21.8787 16.8787C22.4413 16.3161 23.2044 16 24 16ZM19 15C19 15.5304 18.7893 16.0391 18.4142 16.4142C18.0391 16.7893 17.5304 17 17 17V21C17.5304 21 18.0391 21.2107 18.4142 21.5858C18.7893 21.9609 19 22.4696 19 23H29C29 22.4696 29.2107 21.9609 29.5858 21.5858C29.9609 21.2107 30.4696 21 31 21V17C30.4696 17 29.9609 16.7893 29.5858 16.4142C29.2107 16.0391 29 15.5304 29 15H19ZM11 17H13V27H29V29H11V17Z" fill="#0C75DB"/>
</svg>
