<svg width="87" height="103" viewBox="0 0 87 103" fill="none" xmlns="http://www.w3.org/2000/svg">
<g style="mix-blend-mode:multiply" opacity="0.28">
<path d="M56.2495 75.2999C55.3406 75.1826 54.4376 75.0829 53.5463 75.0008C47.8586 72.5968 40.5086 71.1455 32.4755 71.1455C15.7525 71.1455 1.9731 77.4313 0.0527724 85.5348C0.0205227 85.8338 0 86.1329 0 86.4349C0 95.4531 14.6238 102.762 32.6602 102.762C40.7139 102.762 48.0815 101.302 53.7721 98.8833C69.4337 100.798 82.7031 97.2297 83.5415 90.8179C84.3888 84.324 72.1691 77.3756 56.2495 75.297V75.2999Z" fill="#C68327"/>
</g>
<path d="M31.67 91.5192C16.2927 91.5192 3.82378 85.2891 3.82378 77.599C3.82378 77.341 3.84137 77.086 3.86776 76.8338C3.73876 77.3762 3.66547 77.9274 3.66547 78.4874C3.66547 86.1775 16.1315 92.4075 31.5117 92.4075C32.7753 92.4075 34.0184 92.3636 35.2351 92.2815L35.194 91.4078C34.0389 91.4811 32.8632 91.5192 31.67 91.5192Z" fill="#FFF9B1"/>
<path d="M44.5258 89.9446C41.6702 90.6893 38.5244 91.1965 35.1938 91.4076L35.2349 92.2813C38.7618 92.0438 42.0777 91.478 45.0593 90.6453L44.5287 89.9446H44.5258Z" fill="#D98C16"/>
<path d="M59.3071 79.2529C58.2048 83.9144 52.4966 87.8636 44.525 89.9451L45.0557 90.6458C53.1621 88.3825 58.7736 84.1578 59.3042 79.2529H59.3071Z" fill="#FABC2B"/>
<path d="M31.6696 91.5193C45.9269 91.5193 57.6717 86.16 59.3076 79.2527C59.334 78.9976 59.3516 78.7426 59.3516 78.4875C59.3516 70.7974 46.8885 64.5644 31.5113 64.5644C17.2539 64.5644 5.50328 69.9237 3.86734 76.834C3.84095 77.089 3.82336 77.3441 3.82336 77.5992C3.82336 85.2893 16.2894 91.5193 31.6696 91.5193Z" fill="#FFD22B"/>
<path d="M39.2659 70.7886V69.352H23.0531V71.3339C29.3623 71.3339 30.9865 72.2721 31.4087 73.4624H23.0531V74.8873H31.5494C31.4615 76.5672 29.5412 78.0946 23.1704 78.0946V79.7218L25.5656 81.6685L32.4261 87.2418H36.1436L27.9404 80.2378L27.1283 79.5429C27.1283 79.5429 28.0489 79.5048 29.2685 79.2762C31.5758 78.8422 34.9562 77.7282 35.2142 74.8902H39.2659V73.4653H35.0881C35.009 73.1634 34.8976 72.8702 34.7656 72.5946C34.3698 71.7854 33.76 71.1287 33.0974 70.7915H39.2659V70.7886Z" fill="#F9B21F"/>
<path d="M4.94312 69.3458C4.94312 61.6557 17.4091 55.4227 32.7893 55.4227C48.1695 55.4227 60.6297 61.6557 60.6297 69.3458C60.6297 77.0359 48.1666 83.266 32.7893 83.266C17.412 83.266 4.94312 77.0359 4.94312 69.3458Z" fill="#FFD22B"/>
<path d="M40.5436 61.6503V60.2137H24.3307V62.1956C30.64 62.1956 32.2642 63.1338 32.6864 64.3241H24.3307V65.7489H32.8271C32.7391 67.4289 30.8188 68.9563 24.448 68.9563V70.5835L26.8433 72.5302L33.7037 78.1035H37.4212L29.2181 71.0995L28.4059 70.4046C28.4059 70.4046 29.3265 70.3665 30.5462 70.1378C32.8535 69.7039 36.2338 68.5899 36.4918 65.7519H40.5436V64.327H36.3658C36.2866 64.0251 36.1752 63.7319 36.0433 63.4563C35.6475 62.6471 35.0377 61.9904 34.3751 61.6532H40.5436V61.6503Z" fill="#F9B21F"/>
<path d="M1.78865 62.2124C1.78865 57.7297 6.02803 53.7454 12.6099 51.1976C5.63224 53.7278 1.08795 57.8352 1.08795 62.4733C1.08795 70.1634 13.554 76.3935 28.9342 76.3935C35.3489 76.3935 41.2506 75.3058 45.9591 73.4852C41.3738 75.1475 35.7359 76.1296 29.6378 76.1296C14.2605 76.1296 1.79158 69.8996 1.79158 62.2095L1.78865 62.2124Z" fill="#FFF9B1"/>
<path d="M57.4751 62.2127C57.4751 54.5226 45.012 48.2896 29.6347 48.2896C23.22 48.2896 17.3183 49.3773 12.6098 51.198C17.1981 49.5357 22.833 48.5506 28.934 48.5506C44.3113 48.5506 56.7744 54.7836 56.7744 62.4737C56.7744 66.9564 52.535 70.9407 45.959 73.4855C52.9367 70.9554 57.478 66.8508 57.478 62.2098L57.4751 62.2127Z" fill="#FFD22B"/>
<path d="M56.7717 62.4766C56.7717 54.7865 44.3086 48.5535 28.9313 48.5535C22.8332 48.5535 17.1953 49.5356 12.6071 51.2009C6.02814 53.7486 1.78583 57.7329 1.78583 62.2156C1.78583 69.9057 14.2518 76.1358 29.632 76.1358C35.7302 76.1358 41.368 75.1537 45.9533 73.4913C52.5323 70.9465 56.7687 66.9622 56.7687 62.4795L56.7717 62.4766Z" fill="#FFD22B"/>
<path d="M36.6856 54.781V53.3444H20.4728V55.3263C26.782 55.3263 28.4062 56.2645 28.8284 57.4548H20.4728V58.8797H28.9691C28.8812 60.5596 26.9608 62.087 20.5901 62.087V63.7142L22.9853 65.6609L29.8457 71.2342H33.5633L25.3601 64.2302L24.548 63.5353C24.548 63.5353 25.4686 63.4972 26.6882 63.2686C28.9955 62.8346 32.3759 61.7206 32.6339 58.8826H36.6856V57.4577H32.5078C32.4286 57.1558 32.3172 56.8626 32.1853 56.587C31.7895 55.7778 31.1797 55.1211 30.5171 54.7839H36.6856V54.781Z" fill="#F9B21F"/>
<path d="M5.97803 55.0447C5.97803 47.3546 18.444 41.1216 33.8242 41.1216C49.2044 41.1216 61.6646 47.3546 61.6646 55.0447C61.6646 62.7348 49.2015 68.9649 33.8242 68.9649C18.447 68.9649 5.97803 62.7348 5.97803 55.0447Z" fill="#FFD22B"/>
<path d="M41.579 47.3485V45.9119H25.3662V47.8938C31.6754 47.8938 33.2997 48.832 33.7218 50.0223H25.3662V51.4472H33.8626C33.7746 53.1271 31.8543 54.6545 25.4835 54.6545V56.2817L27.8788 58.2284L34.7392 63.8018H38.4567L30.2535 56.7977L29.4414 56.1029C29.4414 56.1029 30.362 56.0647 31.5816 55.8361C33.8889 55.4022 37.2693 54.2881 37.5273 51.4501H41.579V50.0252H37.4012C37.3221 49.7233 37.2107 49.4301 37.0787 49.1545C36.6829 48.3453 36.0731 47.6886 35.4105 47.3514H41.579V47.3485Z" fill="#F9B21F"/>
<path d="M45.8619 58.0529C41.9626 59.0908 37.5121 59.6801 32.7861 59.6801C17.4088 59.6801 4.93986 53.45 4.93986 45.7599C4.93986 43.3441 6.17415 41.0691 8.34074 39.0901C5.76956 41.198 4.289 43.6754 4.289 46.3258C4.289 54.0159 16.755 60.2459 32.1352 60.2459C37.1515 60.2459 41.857 59.5804 45.9205 58.4194L45.8707 58.0559H45.8619V58.0529Z" fill="#FFF9B1"/>
<path d="M56.5775 52.9957C55.2494 54.0863 53.6252 55.0772 51.7694 55.9421L51.7078 56.2236C53.6252 55.2737 55.2729 54.1889 56.5775 52.9957Z" fill="#FFF9B1"/>
<path d="M52.0776 54.4907L50.515 53.6523L42.4907 56.7922L45.8622 58.0529C48.0142 57.4782 49.999 56.7688 51.7669 55.942L52.0776 54.4907Z" fill="#FABC2B"/>
<path d="M45.921 58.4193L46.0705 59.5041L51.2686 58.2698L51.7083 56.2234C49.9844 57.0765 48.0406 57.8154 45.9239 58.4193H45.921Z" fill="#FABC2B"/>
<path d="M51.7663 55.9418C49.9984 56.7656 48.0136 57.4781 45.8616 58.0527H45.8704L45.9203 58.4192C48.04 57.8152 49.9837 57.0735 51.7047 56.2233L51.7663 55.9418Z" fill="#F1AC2B"/>
<path d="M32.1355 32.3994C22.056 32.3994 13.2312 35.0761 8.34101 39.0868C6.17441 41.0687 4.94012 43.3409 4.94012 45.7567C4.94012 53.4468 17.4061 59.6769 32.7863 59.6769C37.5124 59.6769 41.9629 59.0876 45.8621 58.0497L43.9623 56.6776L50.7524 54.6459L50.5178 56.4871C52.9043 55.499 54.9595 54.3205 56.5779 52.9894C58.7445 51.0075 59.9787 48.7354 59.9787 46.3196C59.9787 38.6295 47.5157 32.3965 32.1384 32.3965L32.1355 32.3994Z" fill="#FFD22B"/>
<path d="M43.9625 56.6807L45.8623 58.0527C47.5217 57.61 49.0785 57.0852 50.5151 56.493L50.7496 54.6519L43.9596 56.6836L43.9625 56.6807Z" fill="#FABC2B"/>
<path d="M39.8901 38.6266V37.19H23.6772V39.1719C29.9865 39.1719 31.6107 40.1101 32.0329 41.3004H23.6772V42.7253H32.1736C32.0856 44.4052 30.1653 45.9327 23.7945 45.9327V47.5598L26.1898 49.5065L33.0502 55.0799H36.7677L28.5646 48.0758L27.7524 47.381C27.7524 47.381 28.673 47.3428 29.8927 47.1142C32.2 46.6803 35.5803 45.5662 35.8383 42.7282H39.8901V41.3033H35.7123C35.6331 41.0014 35.5217 40.7082 35.3898 40.4326C34.994 39.6234 34.3842 38.9667 33.7216 38.6295H39.8901V38.6266Z" fill="#F9B21F"/>
<path d="M7.24451 37.4626C7.24451 29.7725 19.7105 23.5395 35.0907 23.5395C50.4709 23.5395 62.931 29.7725 62.931 37.4626C62.931 45.1527 50.468 51.3828 35.0907 51.3828C19.7134 51.3828 7.24451 45.1527 7.24451 37.4626Z" fill="#FFD22B"/>
<path d="M44.1438 67.9739L41.1562 65.4966L48.5327 60.9288L52.8688 61.6911L54.191 67.3465L44.7946 69.3314L44.1438 67.9739Z" fill="#FABC2B"/>
<path d="M31.5117 92.4048C16.1345 92.4048 3.66553 86.1747 3.66553 78.4846V84.8408C3.66553 92.5309 16.1315 98.7609 31.5117 98.7609C33.564 98.7609 35.5635 98.6466 37.4897 98.4355V92.0794C35.5635 92.2904 33.564 92.4019 31.5117 92.4019V92.4048Z" fill="#F9B21F"/>
<path d="M46.2145 90.3053C43.57 91.1292 40.6294 91.736 37.4924 92.082V98.4381C41.2773 98.0218 44.775 97.2244 47.8123 96.1249C47.1995 94.1225 46.6689 92.1846 46.2145 90.3053Z" fill="#F7A91F"/>
<path d="M46.2144 90.3059C46.6688 92.1822 47.1995 94.1231 47.8122 96.1255C54.8016 93.5954 59.3547 89.4879 59.3547 84.841V79.8833C59.2873 79.9918 59.2081 80.1003 59.1348 80.2088C58.0823 84.4716 53.1804 88.1363 46.2173 90.3059H46.2144Z" fill="#E5941F"/>
<path d="M4.94336 69.3462V69.5455C4.94336 69.5455 4.94922 69.5514 4.95509 69.5543C4.95509 69.484 4.94336 69.4165 4.94336 69.3462Z" fill="#F9B21F"/>
<path d="M44.6105 81.9497L41.3855 78.8977L53.5847 73.468L56.0298 80.1877L46.0881 83.8143L44.6105 81.9497Z" fill="#FABC2B"/>
<path d="M59.1317 80.2085C59.2724 79.6426 59.3515 79.068 59.3515 78.4846V79.883C60.1812 78.5637 60.6298 77.1594 60.6298 75.7023V69.3462C60.6298 74.9224 54.0743 79.7277 44.6105 81.95C44.8802 83.8967 45.2379 85.9255 45.6923 88.0364C51.9576 86.3946 56.8126 83.5976 59.1317 80.2055V80.2085Z" fill="#E5941F"/>
<path d="M32.7892 83.2661C29.6111 83.2661 26.5621 82.9963 23.7182 82.5067C15.732 81.7503 8.95661 79.2905 4.95471 75.9102C5.17753 83.5035 17.5526 89.6222 32.7892 89.6222C34.8796 89.6222 36.9084 89.502 38.8668 89.2821V82.9318C36.9113 83.1517 34.8766 83.2661 32.7892 83.2661Z" fill="#F9B21F"/>
<path d="M44.6101 81.9498C42.7924 82.3749 40.8692 82.7062 38.8668 82.932V89.2822C41.2738 89.0125 43.5664 88.5933 45.6949 88.0362C45.2405 85.9253 44.8828 83.8965 44.6131 81.9498H44.6101Z" fill="#F7A91F"/>
<path d="M59.1322 80.2085C59.2055 80.1 59.2847 79.9916 59.3521 79.8831V78.4846C59.3521 79.068 59.2729 79.6427 59.1322 80.2085Z" fill="#F9B21F"/>
<path d="M56.7716 62.4772C56.7716 62.6326 56.757 62.7879 56.7482 62.9404C56.757 62.9345 56.7628 62.9287 56.7716 62.9228V62.4742V62.4772Z" fill="#F9B21F"/>
<path d="M44.4141 80.4051C51.6263 77.9893 56.4462 73.9288 56.7511 69.2995C53.6199 71.5687 49.1753 73.3453 43.9684 74.3656C44.0212 76.2801 44.1678 78.2942 44.4141 80.4051Z" fill="#E5941F"/>
<path d="M28.9309 76.3969C18.7224 76.3969 9.80097 73.6498 4.95471 69.5541C5.13062 75.5643 12.9204 80.648 23.7182 82.5068C25.4069 82.668 27.1484 82.753 28.9309 82.753C30.9451 82.753 32.9065 82.6445 34.7975 82.4423V76.0803C32.9065 76.2825 30.9451 76.3969 28.9309 76.3969Z" fill="#F9B21F"/>
<path d="M43.9685 74.3648C43.4965 74.4557 43.0215 74.5437 42.5378 74.6228C40.1542 75.2913 37.5508 75.7868 34.7979 76.0829V82.4449C38.2896 82.0696 41.541 81.3689 44.4141 80.4073C44.1649 78.2934 44.0213 76.2793 43.9685 74.3678V74.3648Z" fill="#F7A91F"/>
<path d="M4.94308 69.5455C2.49503 67.4727 1.08484 65.0598 1.08484 62.4769V68.833C1.08484 71.4189 2.49796 73.8376 4.95188 75.9104C4.95188 75.84 4.94015 75.7726 4.94015 75.7022V69.5455H4.94308Z" fill="#F9B21F"/>
<path d="M4.95509 69.5543C4.95509 69.5543 4.94922 69.5485 4.94336 69.5455V75.7023C4.94336 75.7727 4.95216 75.8401 4.95509 75.9105C8.95699 79.2908 15.7324 81.7506 23.7186 82.507C12.9208 80.6482 5.13099 75.5645 4.95509 69.5543Z" fill="#F9B21F"/>
<path d="M43.9627 74.1923C51.4212 71.7941 56.4405 67.6661 56.7483 62.9401C53.6523 65.1829 49.2751 66.9478 44.1416 67.971C43.9745 69.9119 43.907 71.9847 43.9598 74.1894L43.9627 74.1923Z" fill="#E5941F"/>
<path d="M33.8245 68.9654C20.8366 68.9654 9.92447 64.5208 6.84608 58.5076C6.53238 58.1676 6.23627 57.8216 5.97827 57.4669V61.4043C5.97827 69.0944 18.4443 75.3244 33.8245 75.3244C35.349 75.3244 36.8442 75.2629 38.3043 75.1427V68.7836C36.8442 68.9038 35.3519 68.9683 33.8245 68.9683V68.9654Z" fill="#F9B21F"/>
<path d="M44.1443 67.9741C42.2884 68.3435 40.3329 68.6162 38.3041 68.7803V75.1394C39.7554 75.0221 41.1685 74.8462 42.5376 74.6205C43.0214 74.4856 43.4963 74.342 43.9625 74.1895C43.9068 71.9848 43.9772 69.912 44.1443 67.9712V67.9741Z" fill="#F7A91F"/>
<path d="M56.7482 69.2995C59.8471 67.0567 61.6648 64.336 61.6648 61.4012V55.0451C61.6648 57.971 59.8559 60.6859 56.7716 62.9258V68.8333C56.7716 68.9887 56.757 69.1441 56.7482 69.2966V69.2995Z" fill="#F9B21F"/>
<path d="M43.9622 74.1922C43.9622 74.2479 43.9651 74.3065 43.968 74.3652C49.1749 73.3449 53.6195 71.5682 56.7507 69.299C56.7595 69.1436 56.7741 68.9912 56.7741 68.8358V62.9282C56.7741 62.9282 56.7595 62.9399 56.7507 62.9458C56.4399 67.6719 51.4236 71.7998 43.9651 74.1981L43.9622 74.1922Z" fill="#F9B21F"/>
<path d="M43.9627 74.1924C43.4965 74.3419 43.0216 74.4856 42.5378 74.6233C43.0216 74.5442 43.4965 74.4562 43.9686 74.3654C43.9686 74.3067 43.9656 74.251 43.9627 74.1924Z" fill="#F9B21F"/>
<path d="M59.9789 52.6791V50.0581C59.2548 50.7793 58.4163 51.4624 57.4635 52.1045C55.0447 54.749 51.0223 56.9478 46.0148 58.3903C45.3639 60.3986 44.8274 62.656 44.4668 65.1627C53.658 62.8876 59.9789 58.1557 59.9789 52.6821V52.6791Z" fill="#E5941F"/>
<path d="M32.1356 60.2426C16.7583 60.2426 4.28937 54.0096 4.28937 46.3224V52.6786C4.28937 54.3585 4.88452 55.971 5.97808 57.4633V55.0445C5.97808 56.2407 6.28006 57.3988 6.84589 58.507C11.2582 63.2858 20.9185 66.6017 32.1356 66.6017C35.1465 66.6017 38.0373 66.3554 40.7521 65.9156V59.5595C38.0373 60.0022 35.1436 60.2485 32.1356 60.2485V60.2426Z" fill="#F9B21F"/>
<path d="M46.0151 58.3898C44.3615 58.8648 42.5966 59.2547 40.7525 59.5567V65.9128C42.0308 65.7047 43.2738 65.4555 44.4642 65.1623C44.8277 62.6556 45.3613 60.3981 46.0121 58.3898H46.0151Z" fill="#F7A91F"/>
<path d="M5.97827 55.0447V57.4635C6.2392 57.8182 6.53238 58.1642 6.84608 58.5043C6.28025 57.396 5.97827 56.238 5.97827 55.0418V55.0447Z" fill="#F9B21F"/>
<path d="M35.0908 51.3832C19.7136 51.3832 7.24463 45.1531 7.24463 37.463V43.8191C7.24463 51.5092 19.7106 57.7393 35.0908 57.7393C35.9557 57.7393 36.8059 57.7158 37.6503 57.6748V51.3216C36.8059 51.3597 35.9528 51.3832 35.0908 51.3832Z" fill="#F9B21F"/>
<path d="M46.7389 50.1048V56.373C48.0582 53.0366 49.7 50.5065 51.333 48.7621C49.8994 49.2781 48.3602 49.7296 46.7389 50.1019V50.1048Z" fill="#F9B21F"/>
<path d="M37.65 51.3216V57.6748C40.8545 57.5282 43.9035 57.1119 46.7005 56.4698C46.7122 56.4375 46.7269 56.4053 46.7415 56.373V50.1049C43.9329 50.7528 40.8721 51.175 37.65 51.3216Z" fill="#F4A41F"/>
<path d="M59.9788 46.3229V50.058C61.864 48.1816 62.9341 46.0619 62.9341 43.8191V37.463C62.9341 42.1187 58.3576 46.2379 51.3359 48.7651C49.6882 50.5241 48.0288 53.0836 46.7037 56.4698C50.987 55.4847 54.687 53.9778 57.4663 52.1044C59.0759 50.3424 59.9818 48.3869 59.9818 46.3229H59.9788Z" fill="#E5941F"/>
<path d="M57.4638 52.104C58.4166 51.4619 59.2551 50.7758 59.9793 50.0576V46.3224C59.9793 48.3864 59.0734 50.3419 57.4638 52.104Z" fill="#F9B21F"/>
<path d="M42.8456 29.767V28.3304H26.6328V30.3123C32.942 30.3123 34.5662 31.2505 34.9884 32.4408H26.6328V33.8656H35.1291C35.0411 35.5456 33.1208 37.073 26.75 37.073V38.7002L29.1453 40.6469L36.0057 46.2202H39.7232L31.5201 39.2162L30.7079 38.5213C30.7079 38.5213 31.6285 38.4832 32.8482 38.2545C35.1555 37.8206 38.5358 36.7066 38.7938 33.8686H42.8456V32.4437H38.6678C38.5886 32.1418 38.4772 31.8486 38.3453 31.573C37.9495 30.7638 37.3397 30.1071 36.6771 29.7699H42.8456V29.767Z" fill="#F9B21F"/>
<path d="M5.27496 29.0222C5.27496 21.3321 17.741 15.0991 33.1212 15.0991C48.5014 15.0991 60.9615 21.3321 60.9615 29.0222C60.9615 36.7123 48.4984 42.9424 33.1212 42.9424C17.7439 42.9424 5.27496 36.7123 5.27496 29.0222Z" fill="#FFD22B"/>
<path d="M40.4408 42.4522V48.8083C44.3284 48.2806 47.8758 47.3453 50.8897 46.0934V39.7373C47.8758 40.9863 44.3284 41.9244 40.4408 42.4522Z" fill="#F4A41F"/>
<path d="M33.121 42.9421C17.7438 42.9421 5.27484 36.712 5.27484 29.0219V35.378C5.27484 43.0681 17.7408 49.2982 33.121 49.2982C35.6541 49.2982 38.108 49.1252 40.4417 48.8086V42.4525C38.108 42.7691 35.657 42.9421 33.121 42.9421Z" fill="#F9B21F"/>
<path d="M50.8901 39.7409V46.097C57.044 43.5434 60.9609 39.691 60.9609 35.3813V29.0251C60.9609 33.3349 57.041 37.1873 50.8901 39.7409Z" fill="#F9B21F"/>
<path d="M40.8754 21.3267V19.8901H24.6625V21.872C30.9718 21.872 32.5989 22.8101 33.0182 24.0005H24.6625V25.4253H33.1589C33.0709 27.1052 31.1506 28.6327 24.7798 28.6327V30.2598L27.1751 32.2066L34.0355 37.7799H37.753L29.5498 30.7758L28.7377 30.081C28.7377 30.081 29.6583 30.0429 30.8779 29.8142C33.1853 29.3803 36.5656 28.2662 36.8236 25.4282H40.8754V24.0034H36.6976C36.6184 23.7014 36.507 23.4082 36.3751 23.1326C35.9793 22.3235 35.3695 21.6667 34.7069 21.3296H40.8754V21.3267Z" fill="#F9B21F"/>
<path d="M6.02246 21.147C6.02246 13.4569 18.4885 7.22391 33.8687 7.22391C49.2489 7.22391 61.709 13.4569 61.709 21.147C61.709 28.8371 49.2459 35.0672 33.8687 35.0672C18.4914 35.0672 6.02246 28.8371 6.02246 21.147Z" fill="#FFD22B"/>
<path d="M33.8688 35.0662C18.4915 35.0662 6.02258 28.8332 6.02258 21.1461V27.5022C6.02258 35.1923 18.4886 41.4224 33.8688 41.4224C37.2403 41.4224 40.4712 41.1233 43.4616 40.5751V34.2189C40.4712 34.7672 37.2403 35.0662 33.8688 35.0662Z" fill="#F9B21F"/>
<path d="M53.5053 31.0125V37.3686C58.5715 34.8473 61.7085 31.3585 61.7085 27.5002V21.1441C61.7085 25.0023 58.5715 28.4912 53.5053 31.0125Z" fill="#F9B21F"/>
<path d="M43.4608 34.2172V40.5734C47.2692 39.8756 50.6877 38.7703 53.5051 37.3689V31.0128C50.6848 32.4171 47.2692 33.5195 43.4608 34.2172Z" fill="#F4A41F"/>
<path d="M41.6224 13.4508V12.0142H25.4096V13.9961C31.7188 13.9961 33.346 14.9343 33.7652 16.1246H25.4096V17.5494H33.906C33.818 19.2293 31.8977 20.7568 25.5269 20.7568V22.384L27.9222 24.3307L34.7826 29.904H38.5001L30.2969 22.9L29.4848 22.2051C29.4848 22.2051 30.4054 22.167 31.625 21.9383C33.9323 21.5044 37.3127 20.3903 37.5707 17.5524H41.6224V16.1275H37.4446C37.3655 15.8255 37.2541 15.5323 37.1221 15.2568C36.7263 14.4476 36.1165 13.7909 35.4539 13.4537H41.6224V13.4508Z" fill="#F9B21F"/>
<path d="M32.2767 27.1573C16.8994 27.1573 4.43047 20.9272 4.43047 13.2371C4.43047 11.4751 5.09305 9.79226 6.28629 8.2384C4.72951 9.97403 3.85583 11.8973 3.85583 13.9232C3.85583 21.6133 16.3218 27.8433 31.702 27.8433C43.5553 27.8433 53.67 24.1405 57.6866 18.9219C53.3358 23.774 43.5993 27.1573 32.2737 27.1573H32.2767Z" fill="#FFF9B1"/>
<path d="M6.28631 8.23871C5.09307 9.78963 4.43048 11.4754 4.43048 13.2374C4.43048 15.2955 5.33054 17.2452 6.9313 19.0013L27.8379 0.138153C18.1923 0.809534 10.1328 3.94949 6.28631 8.24164V8.23871Z" fill="#FFE14E"/>
<path d="M31.7015 0.00293186C30.391 0.00293186 29.101 0.0498403 27.8374 0.137794L6.93073 19.001C11.3167 23.8121 21.0121 27.1572 32.2761 27.1572C43.5401 27.1572 53.3381 23.7769 57.6889 18.9218C58.8822 17.3709 59.5448 15.6851 59.5448 13.9231C59.5448 6.233 47.0817 0 31.7044 0L31.7015 0.00293186Z" fill="#FFD22B"/>
<path d="M39.4558 6.23016V4.79358H23.243V6.77547C29.5522 6.77547 31.1764 7.71365 31.5986 8.90396H23.243V10.3288H31.7393C31.6514 12.0087 29.731 13.5362 23.3603 13.5362V15.1633L25.7555 17.1101L32.6159 22.6834H36.3335L28.1303 15.6793L27.3182 14.9845C27.3182 14.9845 28.2388 14.9464 29.4584 14.7177C31.7657 14.2838 35.1461 13.1697 35.4041 10.3317H39.4558V8.90689H35.278C35.1988 8.60491 35.0874 8.31174 34.9555 8.03615C34.5597 7.22697 33.9499 6.57025 33.2873 6.23309H39.4558V6.23016Z" fill="#C68327"/>
<path d="M31.7019 27.8457C16.3246 27.8457 3.85565 21.6156 3.85565 13.9255V20.2816C3.85565 27.9717 16.3217 34.2018 31.7019 34.2018C35.1203 34.2018 38.3922 33.894 41.4149 33.3281V26.972C38.3893 27.5349 35.1174 27.8457 31.7019 27.8457Z" fill="#F9B21F"/>
<path d="M41.4178 26.973V33.3291C46.8124 32.3264 51.4123 30.5087 54.6285 28.1779V21.8218C51.4123 24.1526 46.8124 25.9703 41.4178 26.973Z" fill="#F4A41F"/>
<path d="M54.6281 21.8218V28.1779C57.727 25.9351 59.5447 23.2144 59.5447 20.2797V13.9235C59.5447 16.8583 57.727 19.576 54.6281 21.8218Z" fill="#F9B21F"/>
<path d="M62.1602 81.8411L61.4243 82.0434C65.6344 90.4107 71.4599 96.0016 76.6843 96.4825C71.6299 95.4681 66.1445 89.9123 62.1602 81.8411Z" fill="#FFF9B1"/>
<path d="M64.1395 43.0944C65.06 42.8129 66.0158 42.725 66.9921 42.8129C65.6992 42.5549 64.4356 42.5872 63.2335 42.9536C56.2295 45.0968 53.8078 57.6742 57.4872 71.5709L58.2993 71.3481C54.7577 57.595 57.1999 45.217 64.1424 43.0914L64.1395 43.0944Z" fill="#FFF9B1"/>
<path d="M58.9819 73.7964C58.7298 72.9784 58.504 72.1634 58.2959 71.3513L57.4838 71.5741C57.6655 72.266 57.859 72.9608 58.0731 73.6586C58.9966 76.6696 60.1341 79.487 61.4212 82.0436L62.157 81.8413C60.9404 79.3756 59.8585 76.6754 58.979 73.7964H58.9819Z" fill="#D98C16"/>
<path d="M66.992 42.8127C66.0158 42.7218 65.06 42.8127 64.1394 43.0941C56.7865 45.3457 54.4791 59.09 58.9824 73.7959C61.2633 81.2456 64.8548 87.505 68.801 91.5802L72.325 45.4249C70.5483 44.0675 68.7453 43.1645 66.992 42.8127Z" fill="#FFE14E"/>
<path d="M84.7002 65.5048C81.9326 56.472 77.2388 49.1835 72.3251 45.425L68.8011 91.5802C71.3693 94.2335 74.0842 95.9603 76.6876 96.4822C77.6639 96.5731 78.6197 96.4822 79.5403 96.2007C86.8932 93.9491 89.2035 80.2078 84.7002 65.5019V65.5048Z" fill="#FFD22B"/>
<path d="M58.0762 73.6556C53.573 58.9497 55.8803 45.2054 63.2333 42.9538L57.1556 44.8155C49.8027 47.0671 47.4954 60.8114 51.9986 75.5173C52.5674 77.3731 53.2182 79.1557 53.9336 80.8502L60.0493 79.0765C59.3193 77.3555 58.6538 75.5437 58.0762 73.6556Z" fill="#F9B21F"/>
<path d="M68.429 91.9882L62.2752 93.7737C65.9869 97.4238 69.977 99.133 73.46 98.0658L79.5376 96.2041C76.0781 97.2625 72.1202 95.5885 68.429 91.9882Z" fill="#F9B21F"/>
<path d="M60.0496 79.0767L53.9338 80.8504C56.203 86.2185 59.1407 90.6866 62.2777 93.7708L68.4316 91.9854C65.2858 88.9158 62.3334 84.4477 60.0525 79.0767H60.0496Z" fill="#F0A21F"/>
<path d="M74.2713 57.5629L74.9368 59.5213L72.5738 59.838L71.1343 60.0315C71.7001 60.4419 72.3832 61.2863 73.0018 62.3593C73.21 62.7229 73.4123 63.1128 73.6028 63.5203L76.177 63.1744L76.8366 65.1181L74.3387 65.4553C75.4968 69.3546 73.9283 71.1576 72.7086 71.9375C72.0607 72.3509 71.5389 72.474 71.5095 72.4799L72.3334 73.3594L80.6392 82.2398L78.3494 82.5477L71.5359 75.5084L69.1553 73.0516L68.4018 70.8351C72.3304 70.3074 72.8054 68.0646 72.0783 65.7602L66.8392 66.4638L66.1795 64.52L71.3307 63.8281C70.5186 62.2362 69.082 61.0928 65.1915 61.6146L64.2709 58.9086L72.1076 57.8531L74.2684 57.5629H74.2713Z" fill="#C68327"/>
</svg>
