<svg width="44" height="43" viewBox="0 0 44 43" fill="none" xmlns="http://www.w3.org/2000/svg">
<rect x="0.53186" width="42.6958" height="42.7" rx="21.3479" fill="#D0E8FF"/>
<path d="M32.3083 16.7415C31.8421 17.202 31.2007 17.4878 30.4967 17.4878H12.7556C12.0516 17.4878 11.4105 17.202 10.9443 16.7415V28.6771C10.9443 29.1749 11.1483 29.6283 11.476 29.9568C11.8041 30.2844 12.257 30.4881 12.755 30.4881H30.4976C30.9869 30.4881 31.4324 30.2917 31.7671 29.965C32.1037 29.6275 32.3083 29.1743 32.3083 28.6771V26.5501H27.311C26.5014 26.5501 25.7655 26.2188 25.2328 25.6861C24.6997 25.1531 24.369 24.4172 24.369 23.6079C24.369 22.798 24.6997 22.0621 25.2328 21.5291C25.7655 20.9964 26.5014 20.6651 27.311 20.6651H32.3083V16.7415ZM27.311 22.3248C28.0192 22.3248 28.5937 22.8993 28.5937 23.6076C28.5937 24.3159 28.0192 24.8898 27.311 24.8898C26.6027 24.8898 26.0285 24.3159 26.0285 23.6076C26.0285 22.8993 26.6027 22.3248 27.311 22.3248ZM12.6027 27.5366C12.3194 27.5366 12.0894 27.3066 12.0894 27.0233C12.0894 26.74 12.3194 26.51 12.6027 26.51C13.2429 26.51 13.8234 26.7699 14.2429 27.1895C14.6625 27.6091 14.9224 28.1898 14.9224 28.8298C14.9224 29.1131 14.6924 29.3431 14.4091 29.3431C14.1261 29.3431 13.8962 29.1131 13.8962 28.8298C13.8962 28.4723 13.7511 28.1486 13.5178 27.915C13.2841 27.6813 12.9602 27.5366 12.6027 27.5366ZM12.6027 25.4742C12.3194 25.4742 12.0894 25.2442 12.0894 24.9612C12.0894 24.6779 12.3194 24.4479 12.6027 24.4479C13.8123 24.4479 14.9083 24.9386 15.7012 25.7315C16.4938 26.5244 16.9848 27.6207 16.9848 28.8298C16.9848 29.1131 16.7549 29.3431 16.4716 29.3431C16.1883 29.3431 15.9583 29.1131 15.9583 28.8298C15.9583 27.9031 15.5827 27.0637 14.9758 26.4567C14.3691 25.85 13.5299 25.4742 12.6027 25.4742ZM12.6027 23.4112C12.3194 23.4112 12.0894 23.1812 12.0894 22.8979C12.0894 22.6146 12.3194 22.3847 12.6027 22.3847C14.3821 22.3847 15.9938 23.1067 17.1598 24.2727L17.1869 24.3017C18.337 25.466 19.0478 27.0659 19.0478 28.8298C19.0478 29.1131 18.8178 29.3431 18.5345 29.3431C18.2515 29.3431 18.0215 29.1131 18.0215 28.8298C18.0215 27.3447 17.4242 25.999 16.4586 25.0204L16.4346 24.9981C15.4546 24.0179 14.0993 23.4112 12.6027 23.4112ZM32.7177 21.4346H27.311C26.7139 21.4346 26.1707 21.6795 25.7768 22.0734C25.3829 22.4671 25.1385 23.0102 25.1385 23.6076C25.1385 24.205 25.3829 24.7481 25.7768 25.1421C26.1707 25.5357 26.7139 25.7806 27.311 25.7806H32.7104C32.9705 25.7806 33.2014 25.6765 33.3687 25.5092C33.5363 25.3424 33.6401 25.1113 33.6401 24.8573V22.3578C33.6401 22.1124 33.5428 21.8877 33.3771 21.7139C33.2014 21.539 32.9705 21.4346 32.7177 21.4346ZM13.0304 15.5479C12.6763 15.5479 12.3891 15.2606 12.3891 14.9065C12.3891 14.5524 12.6763 14.2651 13.0304 14.2651H30.2227C30.5769 14.2651 30.8641 14.5524 30.8641 14.9065C30.8641 15.2606 30.5769 15.5479 30.2227 15.5479H13.0304ZM30.4967 13.0952H12.7556C12.2579 13.0952 11.8047 13.2992 11.4765 13.6274C11.1506 13.9533 10.9472 14.4022 10.9443 14.9181C10.9508 15.4186 11.1537 15.8631 11.4765 16.1859C11.8047 16.514 12.2579 16.7183 12.7556 16.7183H30.4967C30.9945 16.7183 31.4479 16.514 31.7761 16.1859C32.1043 15.8577 32.3083 15.4042 32.3083 14.9065C32.3083 14.4087 32.1043 13.9556 31.7761 13.6274C31.4479 13.2992 30.9945 13.0952 30.4967 13.0952Z" fill="#0081FF"/>
</svg>
