<svg width="58" height="58" viewBox="0 0 58 58" fill="none" xmlns="http://www.w3.org/2000/svg">
<g opacity="0.5">
<path d="M29 1.55998C44.1287 1.55998 56.44 13.8682 56.44 29C56.44 44.1318 44.1318 56.44 29 56.44C13.8682 56.44 1.55998 44.1287 1.55998 29C1.55998 13.8713 13.8682 1.55998 29 1.55998ZM29 0C12.9821 0 0 12.9821 0 29C0 45.0179 12.9821 58 29 58C45.0179 58 58 45.0179 58 29C58 12.9821 45.0147 0 29 0Z" fill="white"/>
</g>
<path d="M28.9999 55.3635C43.5602 55.3635 55.3636 43.5601 55.3636 28.9999C55.3636 14.4396 43.5602 2.63623 28.9999 2.63623C14.4397 2.63623 2.63629 14.4396 2.63629 28.9999C2.63629 43.5601 14.4397 55.3635 28.9999 55.3635Z" fill="#D5D5D5"/>
<g style="mix-blend-mode:overlay" opacity="0.07">
<path d="M5.01994 31.3834C5.01994 16.8225 16.8227 5.01975 31.3836 5.01975C38.0572 5.01975 44.1504 7.50012 48.7961 11.5904C43.9632 6.10237 36.8872 2.63922 29.003 2.63922C14.4391 2.6361 2.63629 14.4389 2.63629 28.9997C2.63629 36.887 6.09944 43.9631 11.5874 48.7927C7.5003 44.1471 5.01682 38.0539 5.01682 31.3803L5.01994 31.3834Z" fill="black"/>
</g>
<mask id="mask0_211_1930" style="mask-type:luminance" maskUnits="userSpaceOnUse" x="2" y="1" width="54" height="54">
<path d="M28.8596 54.5994C43.4198 54.5994 55.2233 42.796 55.2233 28.2358C55.2233 13.6755 43.4198 1.87213 28.8596 1.87213C14.2994 1.87213 2.49597 13.6755 2.49597 28.2358C2.49597 42.796 14.2994 54.5994 28.8596 54.5994Z" fill="white"/>
</mask>
<g mask="url(#mask0_211_1930)">
<path d="M21.9925 22.8536C22.3857 24.4635 21.7398 26.0172 20.5449 26.323C19.3499 26.6287 18.0645 25.5711 17.6683 23.9612C17.2752 22.3513 17.921 20.7975 19.1159 20.4918C20.3109 20.186 21.5963 21.2437 21.9925 22.8536Z" fill="white"/>
<path d="M37.0057 22.8536C36.6126 24.4635 37.2585 26.0172 38.4534 26.323C39.6483 26.6287 40.9338 25.5711 41.33 23.9612C41.7231 22.3513 41.0773 20.7975 39.8823 20.4918C38.6874 20.186 37.402 21.2437 37.0057 22.8536Z" fill="#F4F1EF"/>
<g style="mix-blend-mode:overlay" opacity="0.5">
<path d="M37.9636 41.3271C37.8356 41.2928 37.7108 41.2522 37.586 41.2117C35.2804 40.4317 33.658 38.3257 33.5176 35.8703L33.4271 34.2729C33.449 34.2542 33.4708 34.2355 33.4927 34.2167C33.5426 34.1731 33.5925 34.1325 33.6424 34.0888C33.7547 33.9921 33.8639 33.8923 33.9731 33.7862C34.0262 33.7363 34.0792 33.6863 34.1291 33.6333C34.2102 33.5522 34.2945 33.4711 34.3756 33.3868C34.4318 33.3275 34.491 33.2683 34.5472 33.2059C34.6158 33.131 34.6876 33.0561 34.7562 32.9781C34.8218 32.9032 34.8904 32.8315 34.9559 32.7535C35.0495 32.6443 35.1431 32.5351 35.2367 32.4228C35.2991 32.3448 35.3615 32.2668 35.4239 32.1888C35.477 32.1201 35.53 32.0546 35.583 31.9828C35.6485 31.8986 35.7141 31.8144 35.7765 31.727C35.8233 31.6646 35.8669 31.6022 35.9137 31.5398C36.0323 31.3745 36.1477 31.2091 36.2632 31.0375C36.3006 30.9813 36.3412 30.9221 36.3786 30.8628C36.4473 30.7598 36.5159 30.6537 36.5814 30.5477C36.6126 30.4946 36.6469 30.4447 36.6781 30.3917C36.8248 30.1546 36.9683 29.9143 37.1087 29.671C37.1149 29.6616 37.1212 29.6522 37.1243 29.6429C37.1929 29.5212 37.2616 29.3964 37.3302 29.2716C37.3552 29.2279 37.3801 29.1811 37.402 29.1343C37.6172 28.7318 37.82 28.32 38.0104 27.8988C38.026 27.8645 38.0416 27.8302 38.0572 27.7959C38.1196 27.6586 38.1788 27.5213 38.2381 27.3809C38.2506 27.3528 38.2631 27.3216 38.2756 27.2935C38.4066 26.9847 38.5314 26.6727 38.6468 26.3576C39.7794 26.5011 40.9431 25.4746 41.3175 23.9583C41.7106 22.3484 41.0648 20.7978 39.873 20.4889C39.873 20.4764 39.873 20.464 39.873 20.4546C40.731 15.1725 39.5859 11.4629 38.2631 10.062C36.9371 8.65804 33.4271 8.32109 33.4271 8.32109C32.2572 7.82813 32.9591 7.02007 32.9591 7.02007C31.8672 6.55207 30.3852 7.48806 30.3852 7.48806C30.1387 7.2603 29.8236 7.05126 29.4866 6.86719V55.5853H45.3859L46.687 48.6216C47.1861 45.954 45.5451 43.352 42.9243 42.6531L37.9542 41.3271H37.9636Z" fill="#51504F"/>
</g>
<path d="M37.9636 41.3271C35.4583 40.6595 33.6675 38.4568 33.5208 35.8672L33.0341 27.2998H25.0689L24.5603 36.226C24.4106 38.8405 22.5854 41.0557 20.0457 41.7015L16.2019 42.6781C13.5094 43.3613 11.8122 46.0195 12.3207 48.7495L13.5968 55.5853H45.3954L46.6839 48.6902C47.1894 45.9852 45.5264 43.3457 42.8651 42.6344L37.9605 41.324L37.9636 41.3271Z" fill="#F4F1EF"/>
<path d="M39.898 19.9679C39.898 27.2624 34.2728 35.9826 29.4992 35.9826C24.7257 35.9826 19.1004 27.2624 19.1004 19.9679C19.1004 12.6734 23.7554 8.32111 29.4992 8.32111C35.2431 8.32111 39.898 12.6734 39.898 19.9679Z" fill="white"/>
<path d="M20.3514 26.4012C22.2796 31.5741 26.1015 35.9857 29.4992 35.9857C32.8968 35.9857 36.7187 31.5741 38.6469 26.4012C38.6469 26.4012 33.2306 32.2948 29.4992 32.2948C25.7677 32.2948 20.3514 26.4012 20.3514 26.4012Z" fill="#51504F"/>
<path d="M37.9636 41.3269C37.8357 41.2926 37.7109 41.2521 37.5861 41.2115C36.2102 44.6746 33.1059 47.0895 29.4961 47.0895C25.8863 47.0895 22.7663 44.659 21.3967 41.1803C20.9755 41.4049 20.5231 41.5828 20.0457 41.7044L16.2019 42.681C13.5094 43.3643 11.8122 46.0225 12.3207 48.7524L13.5968 55.5883H45.3954L46.6839 48.6932C47.1894 45.9882 45.5264 43.3487 42.8651 42.6373L37.9605 41.3269H37.9636Z" fill="#1F527D"/>
<path d="M19.116 20.4888C19.116 20.4888 18.9787 14.8979 17.5529 12.3239H19.1004C19.1004 12.3239 19.0879 10.5299 19.8304 8.81394C19.8304 8.81394 20.183 9.67193 21.431 9.74993C21.431 9.74993 20.729 6.55197 18.467 6.55197C18.467 6.55197 22.6009 4.524 27.8269 7.48796C27.8269 7.48796 27.6709 6.44589 26.8909 5.87494C26.8909 5.87494 29.3089 6.47397 30.4008 7.48796C30.4008 7.48796 31.8828 6.55197 32.9748 7.01996C32.9748 7.01996 32.2728 7.82491 33.4428 8.32099C33.4428 8.32099 36.9527 8.65794 38.2787 10.0619C39.6047 11.4659 40.7529 15.188 39.8855 20.4888C39.8855 20.4888 39.2428 20.4358 38.6469 21.4248C38.2007 17.4718 35.5488 13.8059 35.5488 13.8059C35.5488 13.8059 34.5348 12.0899 32.3508 13.1819C31.5615 13.575 29.9266 13.9619 28.8783 13.8839C27.8269 13.8059 24.2982 13.3628 23.1875 14.1959C21.6899 15.319 20.938 17.9929 20.3546 21.4248C20.158 20.4358 19.116 20.4888 19.116 20.4888Z" fill="#51504F"/>
<path d="M25.7678 32.9221C25.7678 30.8785 25.3154 28.2577 27.0126 26.7414C29.5242 24.492 33.1309 26.5199 33.2276 29.6461C33.2619 30.735 33.2276 31.8332 33.2276 32.9221" stroke="#51504F" stroke-width="3.10714" stroke-miterlimit="10"/>
</g>
</svg>
