<svg width="67" height="78" viewBox="0 0 67 78" fill="none" xmlns="http://www.w3.org/2000/svg">
<g style="mix-blend-mode:multiply" opacity="0.28">
<path d="M42.6953 57.1553C42.0055 57.0662 41.3201 56.9906 40.6436 56.9283C36.3264 55.1035 30.7475 54.002 24.6501 54.002C11.9567 54.002 1.49765 58.7731 0.0400561 64.9239C0.0155774 65.1509 0 65.3779 0 65.6071C0 72.4522 11.1 78 24.7903 78C30.9033 78 36.4955 76.8918 40.8149 75.0559C52.7027 76.509 62.7745 73.8008 63.411 68.934C64.0541 64.0048 54.7789 58.7308 42.6953 57.153V57.1553Z" fill="#C68327"/>
</g>
<path d="M24.0386 69.4663C12.3668 69.4663 2.90239 64.7375 2.90239 58.9004C2.90239 58.7046 2.91575 58.511 2.93577 58.3196C2.83786 58.7313 2.78223 59.1496 2.78223 59.5747C2.78223 65.4117 12.2444 70.1406 23.9185 70.1406C24.8776 70.1406 25.8211 70.1072 26.7447 70.0449L26.7135 69.3817C25.8367 69.4374 24.9444 69.4663 24.0386 69.4663Z" fill="#FFF9B1"/>
<path d="M33.7966 68.2711C31.6291 68.8364 29.2414 69.2214 26.7134 69.3816L26.7445 70.0447C29.4216 69.8645 31.9385 69.435 34.2016 68.803L33.7988 68.2711H33.7966Z" fill="#D98C16"/>
<path d="M45.0162 60.1557C44.1795 63.694 39.8468 66.6915 33.7961 68.2715L34.1989 68.8034C40.3519 67.0854 44.6112 63.8787 45.014 60.1557H45.0162Z" fill="#FABC2B"/>
<path d="M24.0384 69.4664C34.8602 69.4664 43.7749 65.3985 45.0166 60.1556C45.0366 59.962 45.05 59.7684 45.05 59.5748C45.05 53.7377 35.5901 49.0067 23.9182 49.0067C13.0964 49.0067 4.17722 53.0746 2.93549 58.3197C2.91546 58.5133 2.90211 58.7069 2.90211 58.9005C2.90211 64.7376 12.3642 69.4664 24.0384 69.4664Z" fill="#FFD22B"/>
<path d="M29.8043 53.731V52.6406H17.4982V54.145C22.2871 54.145 23.5199 54.8571 23.8404 55.7605H17.4982V56.8421H23.9472C23.8804 58.1172 22.4228 59.2766 17.5872 59.2766V60.5116L19.4053 61.9893L24.6126 66.2196H27.4343L21.2078 60.9033L20.5914 60.3759C20.5914 60.3759 21.2901 60.347 22.2159 60.1734C23.9672 59.844 26.533 58.9984 26.7289 56.8443H29.8043V55.7628H26.6332C26.5731 55.5336 26.4885 55.311 26.3884 55.1018C26.088 54.4877 25.6251 53.9892 25.1222 53.7333H29.8043V53.731Z" fill="#F9B21F"/>
<path d="M3.752 52.6359C3.752 46.7988 13.2141 42.0678 24.8882 42.0678C36.5624 42.0678 46.02 46.7988 46.02 52.6359C46.02 58.473 36.5601 63.2018 24.8882 63.2018C13.2164 63.2018 3.752 58.473 3.752 52.6359Z" fill="#FFD22B"/>
<path d="M30.774 46.7947V45.7043H18.4679V47.2086C23.2568 47.2086 24.4896 47.9207 24.8101 48.8242H18.4679V49.9057H24.9169C24.8502 51.1809 23.3926 52.3403 18.5569 52.3403V53.5753L20.375 55.053L25.5823 59.2833H28.404L22.1775 53.967L21.5611 53.4396C21.5611 53.4396 22.2599 53.4107 23.1856 53.2371C24.9369 52.9077 27.5028 52.0621 27.6986 49.908H30.774V48.8265H27.6029C27.5428 48.5973 27.4582 48.3747 27.3581 48.1655C27.0577 47.5513 26.5948 47.0529 26.0919 46.797H30.774V46.7947Z" fill="#F9B21F"/>
<path d="M1.35765 47.2214C1.35765 43.8189 4.57548 40.7946 9.57136 38.8608C4.27506 40.7813 0.82579 43.899 0.82579 47.4195C0.82579 53.2565 10.2879 57.9854 21.962 57.9854C26.8311 57.9854 31.3107 57.1598 34.8846 55.7778C31.4041 57.0396 27.1248 57.7851 22.4961 57.7851C10.8242 57.7851 1.35987 53.0562 1.35987 47.2192L1.35765 47.2214Z" fill="#FFF9B1"/>
<path d="M43.6256 47.2217C43.6256 41.3846 34.1657 36.6535 22.4938 36.6535C17.6248 36.6535 13.1452 37.4791 9.5713 38.8611C13.054 37.5993 17.3311 36.8516 21.962 36.8516C33.6339 36.8516 43.0938 41.5827 43.0938 47.4197C43.0938 50.8223 39.8759 53.8465 34.8845 55.7781C40.1808 53.8576 43.6279 50.7421 43.6279 47.2194L43.6256 47.2217Z" fill="#FFD22B"/>
<path d="M43.0917 47.4219C43.0917 41.5849 33.6318 36.8538 21.9599 36.8538C17.3312 36.8538 13.0519 37.5993 9.56925 38.8633C4.5756 40.7971 1.35554 43.8213 1.35554 47.2239C1.35554 53.0609 10.8177 57.7898 22.4918 57.7898C27.1205 57.7898 31.3998 57.0443 34.8802 55.7825C39.8739 53.8509 43.0895 50.8267 43.0895 47.4241L43.0917 47.4219Z" fill="#FFD22B"/>
<path d="M27.8457 41.5807V40.4903H15.5396V41.9946C20.3285 41.9946 21.5613 42.7067 21.8818 43.6102H15.5396V44.6917H21.9886C21.9218 45.9669 20.4642 47.1263 15.6286 47.1263V48.3613L17.4467 49.8389L22.654 54.0693H25.4757L19.2492 48.753L18.6328 48.2256C18.6328 48.2256 19.3315 48.1966 20.2573 48.0231C22.0086 47.6937 24.5744 46.8481 24.7702 44.694H27.8457V43.6124H24.6746C24.6145 43.3832 24.5299 43.1607 24.4298 42.9515C24.1294 42.3373 23.6665 41.8389 23.1636 41.5829H27.8457V41.5807Z" fill="#F9B21F"/>
<path d="M4.53752 41.7809C4.53752 35.9438 13.9997 31.2127 25.6738 31.2127C37.3479 31.2127 46.8056 35.9438 46.8056 41.7809C46.8056 47.6179 37.3457 52.3468 25.6738 52.3468C14.0019 52.3468 4.53752 47.6179 4.53752 41.7809Z" fill="#FFD22B"/>
<path d="M31.56 35.9392V34.8488H19.2539V36.3531C24.0428 36.3531 25.2756 37.0652 25.5961 37.9687H19.2539V39.0502H25.7029C25.6361 40.3253 24.1785 41.4847 19.3429 41.4847V42.7198L21.161 44.1974L26.3683 48.4278H29.19L22.9635 43.1114L22.3471 42.584C22.3471 42.584 23.0458 42.5551 23.9716 42.3815C25.7229 42.0522 28.2887 41.2065 28.4845 39.0524H31.56V37.9709H28.3889C28.3288 37.7417 28.2442 37.5192 28.1441 37.31C27.8437 36.6958 27.3808 36.1973 26.8779 35.9414H31.56V35.9392Z" fill="#F9B21F"/>
<path d="M34.8108 44.0642C31.8511 44.852 28.473 45.2993 24.8858 45.2993C13.2139 45.2993 3.74955 40.5704 3.74955 34.7334C3.74955 32.8997 4.68642 31.1728 6.33094 29.6707C4.37932 31.2708 3.25552 33.1512 3.25552 35.1629C3.25552 40.9999 12.7177 45.7288 24.3918 45.7288C28.1993 45.7288 31.771 45.2236 34.8553 44.3424L34.8175 44.0664H34.8108V44.0642Z" fill="#FFF9B1"/>
<path d="M42.9444 40.2256C41.9363 41.0534 40.7035 41.8056 39.2948 42.462L39.2481 42.6757C40.7035 41.9547 41.9541 41.1313 42.9444 40.2256Z" fill="#FFF9B1"/>
<path d="M39.5288 41.3604L38.3427 40.7239L32.2519 43.1073L34.8111 44.0642C36.4445 43.628 37.951 43.0895 39.2929 42.4619L39.5288 41.3604Z" fill="#FABC2B"/>
<path d="M34.8556 44.3423L34.9691 45.1657L38.9147 44.2288L39.2485 42.6755C37.94 43.3231 36.4646 43.8839 34.8579 44.3423H34.8556Z" fill="#FABC2B"/>
<path d="M39.2925 42.4618C37.9506 43.0871 36.444 43.6279 34.8106 44.064H34.8173L34.8551 44.3422C36.4641 43.8838 37.9395 43.3208 39.2457 42.6754L39.2925 42.4618Z" fill="#F1AC2B"/>
<path d="M24.392 24.5923C16.7413 24.5923 10.043 26.624 6.33117 29.6683C4.68665 31.1726 3.74978 32.8972 3.74978 34.7309C3.74978 40.568 13.2119 45.2968 24.886 45.2968C28.4733 45.2968 31.8513 44.8495 34.811 44.0618L33.369 43.0203L38.5229 41.4781L38.3449 42.8757C40.1563 42.1257 41.7163 41.2311 42.9446 40.2208C44.5892 38.7165 45.526 36.9919 45.526 35.1582C45.526 29.3211 36.0661 24.5901 24.3942 24.5901L24.392 24.5923Z" fill="#FFD22B"/>
<path d="M33.3691 43.0226L34.8112 44.0641C36.0707 43.7281 37.2524 43.3297 38.3428 42.8802L38.5208 41.4827L33.3669 43.0249L33.3691 43.0226Z" fill="#FABC2B"/>
<path d="M30.278 29.319V28.2285H17.9719V29.7329C22.7608 29.7329 23.9936 30.445 24.3141 31.3485H17.9719V32.43H24.4209C24.3541 33.7051 22.8965 34.8645 18.0609 34.8645V36.0996L19.879 37.5772L25.0863 41.8076H27.908L21.6815 36.4912L21.0651 35.9638C21.0651 35.9638 21.7639 35.9349 22.6896 35.7613C24.4409 35.432 27.0067 34.5863 27.2026 32.4322H30.278V31.3507H27.1069C27.0468 31.1215 26.9622 30.899 26.8621 30.6898C26.5617 30.0756 26.0988 29.5771 25.5959 29.3212H30.278V29.319Z" fill="#F9B21F"/>
<path d="M5.49886 28.4354C5.49886 22.5984 14.961 17.8673 26.6351 17.8673C38.3092 17.8673 47.7669 22.5984 47.7669 28.4354C47.7669 34.2725 38.307 39.0013 26.6351 39.0013C14.9632 39.0013 5.49886 34.2725 5.49886 28.4354Z" fill="#FFD22B"/>
<path d="M33.5067 51.5946L31.2391 49.7142L36.838 46.2471L40.1293 46.8257L41.1329 51.1184L34.0007 52.6249L33.5067 51.5946Z" fill="#FABC2B"/>
<path d="M23.9186 70.1385C12.2467 70.1385 2.7823 65.4097 2.7823 59.5726V64.3971C2.7823 70.2342 12.2444 74.963 23.9186 74.963C25.4763 74.963 26.994 74.8762 28.456 74.716V69.8915C26.994 70.0517 25.4763 70.1363 23.9186 70.1363V70.1385Z" fill="#F9B21F"/>
<path d="M35.0784 68.5449C33.0712 69.1702 30.8392 69.6309 28.4581 69.8935V74.718C31.331 74.402 33.9858 73.7967 36.2912 72.9622C35.8261 71.4423 35.4234 69.9714 35.0784 68.5449Z" fill="#F7A91F"/>
<path d="M35.0784 68.5454C35.4233 69.9696 35.8261 71.4427 36.2912 72.9626C41.5964 71.0422 45.0524 67.9245 45.0524 64.3973V60.6343C45.0012 60.7166 44.9411 60.799 44.8855 60.8813C44.0866 64.1169 40.3658 66.8986 35.0806 68.5454H35.0784Z" fill="#E5941F"/>
<path d="M3.75219 52.6362V52.7875C3.75219 52.7875 3.75664 52.7919 3.76109 52.7942C3.76109 52.7408 3.75219 52.6896 3.75219 52.6362Z" fill="#F9B21F"/>
<path d="M33.8609 62.2027L31.413 59.8861L40.6727 55.7648L42.5286 60.8653L34.9825 63.618L33.8609 62.2027Z" fill="#FABC2B"/>
<path d="M44.883 60.881C44.9899 60.4516 45.0499 60.0154 45.0499 59.5725V60.634C45.6797 59.6326 46.0202 58.5667 46.0202 57.4607V52.6362C46.0202 56.8688 41.0443 60.5161 33.8609 62.2029C34.0657 63.6805 34.3372 65.2204 34.6821 66.8227C39.4376 65.5765 43.1228 63.4535 44.883 60.8788V60.881Z" fill="#E5941F"/>
<path d="M24.8882 63.2019C22.4759 63.2019 20.1616 62.9971 18.003 62.6255C11.9412 62.0514 6.79842 60.1843 3.76083 57.6185C3.92996 63.3821 13.3231 68.0264 24.8882 68.0264C26.4748 68.0264 28.0148 67.9352 29.5013 67.7683V62.9482C28.017 63.1151 26.4726 63.2019 24.8882 63.2019Z" fill="#F9B21F"/>
<path d="M33.8607 62.2028C32.481 62.5255 31.0212 62.777 29.5013 62.9483V67.7684C31.3283 67.5637 33.0685 67.2454 34.6841 66.8226C34.3391 65.2204 34.0676 63.6804 33.8629 62.2028H33.8607Z" fill="#F7A91F"/>
<path d="M44.8834 60.8811C44.9391 60.7988 44.9991 60.7164 45.0503 60.6341V59.5726C45.0503 60.0154 44.9902 60.4516 44.8834 60.8811Z" fill="#F9B21F"/>
<path d="M43.0917 47.4224C43.0917 47.5403 43.0806 47.6583 43.0739 47.774C43.0806 47.7695 43.085 47.7651 43.0917 47.7606V47.4202V47.4224Z" fill="#F9B21F"/>
<path d="M33.7119 61.0303C39.1862 59.1966 42.8446 56.1145 43.0761 52.6007C40.6994 54.3231 37.3258 55.6717 33.3736 56.4461C33.4137 57.8993 33.5249 59.4281 33.7119 61.0303Z" fill="#E5941F"/>
<path d="M21.9596 57.9879C14.211 57.9879 7.43932 55.9028 3.76083 52.794C3.89435 57.3559 9.80707 61.2147 18.003 62.6255C19.2848 62.7479 20.6066 62.8125 21.9596 62.8125C23.4884 62.8125 24.9772 62.7301 26.4125 62.5766V57.7476C24.9772 57.9011 23.4884 57.9879 21.9596 57.9879Z" fill="#F9B21F"/>
<path d="M33.3737 56.4455C33.0154 56.5145 32.6549 56.5813 32.2877 56.6414C30.4785 57.1487 28.5024 57.5248 26.4128 57.7496V62.5786C29.0632 62.2937 31.5311 61.7619 33.7119 61.0319C33.5228 59.4275 33.4138 57.8987 33.3737 56.4477V56.4455Z" fill="#F7A91F"/>
<path d="M3.752 52.7875C1.89384 51.2142 0.823456 49.3827 0.823456 47.4222V52.2467C0.823456 54.2095 1.89607 56.0454 3.75867 57.6187C3.75867 57.5653 3.74977 57.5141 3.74977 57.4607V52.7875H3.752Z" fill="#F9B21F"/>
<path d="M3.76109 52.7942C3.76109 52.7942 3.75664 52.7897 3.75219 52.7875V57.4607C3.75219 57.5141 3.75887 57.5653 3.76109 57.6187C6.79868 60.1845 11.9414 62.0516 18.0032 62.6257C9.80733 61.2149 3.89461 57.3561 3.76109 52.7942Z" fill="#F9B21F"/>
<path d="M33.3693 56.3146C39.0305 54.4942 42.8403 51.361 43.074 47.7737C40.724 49.4761 37.4016 50.8157 33.505 51.5924C33.3782 53.0656 33.327 54.6389 33.3671 56.3123L33.3693 56.3146Z" fill="#E5941F"/>
<path d="M25.674 52.3471C15.8157 52.3471 7.53302 48.9735 5.19642 44.4093C4.95831 44.1512 4.73355 43.8886 4.53772 43.6194V46.608C4.53772 52.445 13.9999 57.1739 25.674 57.1739C26.8311 57.1739 27.9661 57.1272 29.0743 57.0359V52.2092C27.9661 52.3004 26.8334 52.3494 25.674 52.3494V52.3471Z" fill="#F9B21F"/>
<path d="M33.5071 51.5947C32.0984 51.8751 30.6141 52.0821 29.0742 52.2067V57.0334C30.1757 56.9444 31.2484 56.8109 32.2876 56.6396C32.6548 56.5372 33.0153 56.4282 33.3691 56.3124C33.3268 54.639 33.3802 53.0657 33.5071 51.5925V51.5947Z" fill="#F7A91F"/>
<path d="M43.0739 52.6007C45.4261 50.8984 46.8058 48.8332 46.8058 46.6057V41.7812C46.8058 44.002 45.4327 46.0627 43.0917 47.7629V52.2469C43.0917 52.3649 43.0806 52.4828 43.0739 52.5985V52.6007Z" fill="#F9B21F"/>
<path d="M33.3689 56.3145C33.3689 56.3568 33.3711 56.4013 33.3733 56.4458C37.3255 55.6714 40.6991 54.3228 43.0758 52.6004C43.0825 52.4825 43.0936 52.3667 43.0936 52.2488V47.7647C43.0936 47.7647 43.0825 47.7736 43.0758 47.7781C42.8399 51.3653 39.0324 54.4986 33.3711 56.3189L33.3689 56.3145Z" fill="#F9B21F"/>
<path d="M33.3693 56.3146C33.0154 56.4281 32.6549 56.5372 32.2877 56.6418C32.6549 56.5817 33.0154 56.5149 33.3737 56.4459C33.3737 56.4014 33.3715 56.3591 33.3693 56.3146Z" fill="#F9B21F"/>
<path d="M45.5262 39.9853V37.9958C44.9765 38.5433 44.34 39.0618 43.6168 39.5491C41.7809 41.5564 38.7277 43.2254 34.9269 44.3203C34.4328 45.8446 34.0256 47.5581 33.7519 49.4608C40.7283 47.7339 45.5262 44.1422 45.5262 39.9875V39.9853Z" fill="#E5941F"/>
<path d="M24.392 45.7263C12.7201 45.7263 3.25578 40.9952 3.25578 35.1604V39.9849C3.25578 41.26 3.70752 42.484 4.53757 43.6167V41.7807C4.53757 42.6887 4.76678 43.5677 5.19627 44.4089C8.5454 48.0362 15.8779 50.553 24.392 50.553C26.6774 50.553 28.8716 50.3661 30.9323 50.0323V45.2078C28.8716 45.5438 26.6752 45.7307 24.392 45.7307V45.7263Z" fill="#F9B21F"/>
<path d="M34.9271 44.3199C33.672 44.6805 32.3323 44.9764 30.9326 45.2056V50.0302C31.9028 49.8722 32.8464 49.683 33.7499 49.4605C34.0258 47.5578 34.4308 45.8443 34.9248 44.3199H34.9271Z" fill="#F7A91F"/>
<path d="M4.53772 41.7809V43.6168C4.73577 43.8861 4.95831 44.1487 5.19642 44.4068C4.76693 43.5656 4.53772 42.6866 4.53772 41.7787V41.7809Z" fill="#F9B21F"/>
<path d="M26.6352 39.0016C14.9633 39.0016 5.49896 34.2728 5.49896 28.4357V33.2603C5.49896 39.0973 14.9611 43.8262 26.6352 43.8262C27.2917 43.8262 27.937 43.8084 28.5779 43.7772V38.9549C27.937 38.9838 27.2895 39.0016 26.6352 39.0016Z" fill="#F9B21F"/>
<path d="M35.4765 38.0314V42.7891C36.4779 40.2567 37.7241 38.3362 38.9636 37.0121C37.8754 37.4038 36.7071 37.7465 35.4765 38.0291V38.0314Z" fill="#F9B21F"/>
<path d="M28.5777 38.9549V43.7772C31.01 43.6659 33.3244 43.3499 35.4473 42.8625C35.4562 42.8381 35.4674 42.8136 35.4785 42.7891V38.0313C33.3466 38.5231 31.0234 38.8436 28.5777 38.9549Z" fill="#F4A41F"/>
<path d="M45.5261 35.1607V37.9958C46.957 36.5716 47.7692 34.9626 47.7692 33.2603V28.4357C47.7692 31.9696 44.2955 35.0962 38.9658 37.0144C37.7151 38.3496 36.4556 40.2923 35.4498 42.8626C38.701 42.1149 41.5093 40.9711 43.619 39.5491C44.8407 38.2116 45.5283 36.7273 45.5283 35.1607H45.5261Z" fill="#E5941F"/>
<path d="M43.6171 39.5487C44.3403 39.0614 44.9767 38.5407 45.5264 37.9955V35.1604C45.5264 36.727 44.8388 38.2113 43.6171 39.5487Z" fill="#F9B21F"/>
<path d="M32.5213 22.5942V21.5038H20.2152V23.0081C25.0041 23.0081 26.237 23.7202 26.5574 24.6237H20.2152V25.7052H26.6642C26.5975 26.9803 25.1399 28.1397 20.3042 28.1397V29.3748L22.1223 30.8524L27.3296 35.0828H30.1513L23.9249 29.7665L23.3084 29.2391C23.3084 29.2391 24.0072 29.2101 24.9329 29.0365C26.6843 28.7072 29.2501 27.8616 29.4459 25.7074H32.5213V24.6259H29.3502C29.2901 24.3967 29.2056 24.1742 29.1054 23.965C28.805 23.3508 28.3421 22.8523 27.8392 22.5964H32.5213V22.5942Z" fill="#F9B21F"/>
<path d="M4.00387 22.0289C4.00387 16.1918 13.466 11.4608 25.1401 11.4608C36.8142 11.4608 46.2719 16.1918 46.2719 22.0289C46.2719 27.8659 36.812 32.5948 25.1401 32.5948C13.4682 32.5948 4.00387 27.8659 4.00387 22.0289Z" fill="#FFD22B"/>
<path d="M30.696 32.2227V37.0472C33.6468 36.6466 36.3394 35.9368 38.6271 34.9865V30.162C36.3394 31.11 33.6468 31.8221 30.696 32.2227Z" fill="#F4A41F"/>
<path d="M25.14 32.5946C13.4681 32.5946 4.00378 27.8657 4.00378 22.0287V26.8532C4.00378 32.6902 13.4659 37.4191 25.14 37.4191C27.0627 37.4191 28.9253 37.2878 30.6967 37.0475V32.2229C28.9253 32.4633 27.0649 32.5946 25.14 32.5946Z" fill="#F9B21F"/>
<path d="M38.6274 30.1647V34.9892C43.2984 33.051 46.2714 30.1269 46.2714 26.8556V22.0311C46.2714 25.3023 43.2962 28.2264 38.6274 30.1647Z" fill="#F9B21F"/>
<path d="M31.0258 16.1877V15.0973H18.7197V16.6016C23.5087 16.6016 24.7437 17.3137 25.0619 18.2172H18.7197V19.2987H25.1688C25.102 20.5738 23.6444 21.7332 18.8087 21.7332V22.9683L20.6268 24.4459L25.8341 28.6763H28.6559L22.4294 23.3599L21.813 22.8325C21.813 22.8325 22.5117 22.8036 23.4375 22.63C25.1888 22.3007 27.7546 21.455 27.9504 19.3009H31.0258V18.2194H27.8547C27.7947 17.9902 27.7101 17.7677 27.61 17.5585C27.3095 16.9443 26.8467 16.4458 26.3437 16.1899H31.0258V16.1877Z" fill="#F9B21F"/>
<path d="M4.5713 16.0513C4.5713 10.2143 14.0334 5.48322 25.7075 5.48322C37.3817 5.48322 46.8393 10.2143 46.8393 16.0513C46.8393 21.8884 37.3794 26.6172 25.7075 26.6172C14.0357 26.6172 4.5713 21.8884 4.5713 16.0513Z" fill="#FFD22B"/>
<path d="M25.7076 26.6166C14.0357 26.6166 4.57137 21.8856 4.57137 16.0507V20.8753C4.57137 26.7123 14.0335 31.4411 25.7076 31.4411C28.2667 31.4411 30.7191 31.2142 32.9889 30.798V25.9735C30.7191 26.3896 28.2667 26.6166 25.7076 26.6166Z" fill="#F9B21F"/>
<path d="M40.6124 23.5396V28.3641C44.4578 26.4503 46.8389 23.8022 46.8389 20.8736V16.0491C46.8389 18.9776 44.4578 21.6258 40.6124 23.5396Z" fill="#F9B21F"/>
<path d="M32.9883 25.9721V30.7966C35.879 30.267 38.4738 29.428 40.6123 28.3643V23.5398C38.4715 24.6057 35.879 25.4425 32.9883 25.9721Z" fill="#F4A41F"/>
<path d="M31.5929 10.2096V9.1192H19.2868V10.6235C24.0757 10.6235 25.3108 11.3356 25.629 12.2391H19.2868V13.3206H25.7358C25.6691 14.5958 24.2115 15.7552 19.3758 15.7552V16.9902L21.1939 18.4678L26.4012 22.6982H29.2229L22.9964 17.3819L22.38 16.8545C22.38 16.8545 23.0788 16.8255 24.0045 16.652C25.7559 16.3226 28.3217 15.477 28.5175 13.3229H31.5929V12.2413H28.4218C28.3617 12.0121 28.2772 11.7896 28.177 11.5804C27.8766 10.9662 27.4137 10.4678 26.9108 10.2118H31.5929V10.2096Z" fill="#F9B21F"/>
<path d="M24.4992 20.6133C12.8273 20.6133 3.36292 15.8845 3.36292 10.0474C3.36292 8.71001 3.86584 7.43266 4.77155 6.25323C3.5899 7.57063 2.92675 9.03046 2.92675 10.5682C2.92675 16.4052 12.3889 21.1341 24.063 21.1341C33.06 21.1341 40.7374 18.3235 43.7862 14.3624C40.4838 18.0453 33.0934 20.6133 24.4969 20.6133H24.4992Z" fill="#FFF9B1"/>
<path d="M4.77156 6.25346C3.86585 7.43067 3.36292 8.71024 3.36292 10.0477C3.36292 11.6099 4.0461 13.0897 5.26113 14.4227L21.13 0.104858C13.8087 0.614461 7.6912 2.9978 4.77156 6.25569V6.25346Z" fill="#FFE14E"/>
<path d="M24.0626 0.00222539C23.0679 0.00222539 22.0887 0.0378306 21.1296 0.104591L5.26072 14.4224C8.58982 18.0742 15.949 20.6133 24.4988 20.6133C33.0485 20.6133 40.4856 18.0475 43.788 14.3623C44.6937 13.1851 45.1966 11.9056 45.1966 10.5681C45.1966 4.73107 35.7367 0 24.0648 0L24.0626 0.00222539Z" fill="#FFD22B"/>
<path d="M29.9484 4.7289V3.63849H17.6423V5.14282C22.4312 5.14282 23.664 5.85492 23.9845 6.75841H17.6423V7.83992H24.0913C24.0245 9.11504 22.5669 10.2744 17.7313 10.2744V11.5095L19.5494 12.9871L24.7567 17.2175H27.5784L21.3519 11.9012L20.7355 11.3738C20.7355 11.3738 21.4342 11.3448 22.36 11.1713C24.1113 10.8419 26.6771 9.99628 26.873 7.84215H29.9484V6.76064H26.7773C26.7172 6.53143 26.6326 6.30889 26.5325 6.09971C26.2321 5.48552 25.7692 4.98704 25.2663 4.73113H29.9484V4.7289Z" fill="#C68327"/>
<path d="M24.0628 21.136C12.3909 21.136 2.92659 16.4071 2.92659 10.5701V15.3946C2.92659 21.2317 12.3887 25.9605 24.0628 25.9605C26.6576 25.9605 29.1411 25.7268 31.4354 25.2973V20.4728C29.1388 20.9001 26.6554 21.136 24.0628 21.136Z" fill="#F9B21F"/>
<path d="M31.4376 20.4734V25.298C35.5323 24.5369 39.0238 23.1572 41.465 21.388V16.5635C39.0238 18.3327 35.5323 19.7124 31.4376 20.4734Z" fill="#F4A41F"/>
<path d="M41.4647 16.5635V21.388C43.8168 19.6857 45.1966 17.6205 45.1966 15.393V10.5685C45.1966 12.796 43.8168 14.8589 41.4647 16.5635Z" fill="#F9B21F"/>
<path d="M47.1818 62.1202L46.6232 62.2738C49.8188 68.6249 54.2405 72.8686 58.2061 73.2336C54.3696 72.4636 50.206 68.2466 47.1818 62.1202Z" fill="#FFF9B1"/>
<path d="M48.6841 32.7101C49.3828 32.4965 50.1083 32.4297 50.8493 32.4965C49.868 32.3007 48.9088 32.3252 47.9965 32.6033C42.6801 34.23 40.842 43.7767 43.6348 54.3248L44.2512 54.1557C41.563 43.7167 43.4167 34.3213 48.6863 32.7079L48.6841 32.7101Z" fill="#FFF9B1"/>
<path d="M44.7693 56.0141C44.5779 55.3932 44.4066 54.7746 44.2486 54.1581L43.6322 54.3273C43.7701 54.8524 43.917 55.3799 44.0795 55.9095C44.7804 58.1949 45.6439 60.3335 46.6208 62.2739L47.1794 62.1204C46.2558 60.2489 45.4347 58.1994 44.7671 56.0141H44.7693Z" fill="#D98C16"/>
<path d="M50.8493 32.4963C50.1083 32.4273 49.3828 32.4963 48.6841 32.71C43.1029 34.419 41.3516 44.8514 44.7697 56.0137C46.501 61.6683 49.2271 66.4194 52.2224 69.5126L54.8972 34.4791C53.5487 33.4488 52.1801 32.7634 50.8493 32.4963Z" fill="#FFE14E"/>
<path d="M64.2904 49.7205C62.1897 42.8642 58.6269 37.332 54.8973 34.4792L52.2224 69.5126C54.1718 71.5266 56.2325 72.8373 58.2086 73.2334C58.9496 73.3024 59.6751 73.2334 60.3738 73.0198C65.955 71.3107 67.7085 60.8806 64.2904 49.7183V49.7205Z" fill="#FFD22B"/>
<path d="M44.0819 55.9072C40.6638 44.7449 42.4151 34.3125 47.9963 32.6035L43.3831 34.0165C37.802 35.7256 36.0506 46.158 39.4688 57.3203C39.9005 58.7289 40.3945 60.0819 40.9375 61.3682L45.5795 60.0218C45.0254 58.7156 44.5203 57.3403 44.0819 55.9072Z" fill="#F9B21F"/>
<path d="M51.94 69.8223L47.2691 71.1775C50.0863 73.9481 53.115 75.2454 55.7587 74.4354L60.3718 73.0223C57.7459 73.8257 54.7417 72.555 51.94 69.8223Z" fill="#F9B21F"/>
<path d="M45.5797 60.022L40.9377 61.3683C42.6601 65.4429 44.8899 68.8343 47.271 71.1754L51.9419 69.8201C49.5542 67.4902 47.3132 64.0988 45.5819 60.022H45.5797Z" fill="#F0A21F"/>
<path d="M56.3745 43.6923L56.8797 45.1788L55.0861 45.4191L53.9934 45.566C54.4229 45.8775 54.9414 46.5184 55.411 47.3329C55.569 47.6089 55.7225 47.9048 55.8672 48.2141L57.821 47.9516L58.3217 49.427L56.4257 49.6829C57.3047 52.6426 56.1142 54.0112 55.1884 54.6031C54.6966 54.9169 54.3005 55.0103 54.2783 55.0148L54.9036 55.6824L61.208 62.4229L59.47 62.6566L54.2983 57.3135L52.4913 55.4487L51.9194 53.7664C54.9014 53.3658 55.2619 51.6634 54.71 49.9143L50.7333 50.4484L50.2326 48.973L54.1425 48.4478C53.5261 47.2394 52.4357 46.3716 49.4827 46.7677L48.7839 44.7137L54.7322 43.9126L56.3723 43.6923H56.3745Z" fill="#C68327"/>
</svg>
