<svg width="85" height="62" viewBox="0 0 85 62" fill="none" xmlns="http://www.w3.org/2000/svg">
<path fill-rule="evenodd" clip-rule="evenodd" d="M5.48779 31.7321C5.48779 29.72 7.13407 28.0737 9.14619 28.0737C11.1583 28.0737 12.8046 29.72 12.8046 31.7321C12.8046 33.7442 11.1583 35.3905 9.14619 35.3905C7.13407 35.3905 5.48779 33.7442 5.48779 31.7321ZM25.609 31.7321C25.609 33.7442 23.9627 35.3905 21.9506 35.3905C19.9385 35.3905 18.2922 33.7442 18.2922 31.7321C18.2922 29.72 19.9385 28.0737 21.9506 28.0737C23.9627 28.0737 25.609 29.72 25.609 31.7321ZM34.755 28.0737C32.7429 28.0737 31.0966 29.72 31.0966 31.7321C31.0966 33.7442 32.7429 35.3905 34.755 35.3905C36.7671 35.3905 38.4134 33.7442 38.4134 31.7321C38.4134 29.72 36.7671 28.0737 34.755 28.0737Z" fill="black"/>
<mask id="mask0_671_5864" style="mask-type:luminance" maskUnits="userSpaceOnUse" x="5" y="28" width="34" height="8">
<path fill-rule="evenodd" clip-rule="evenodd" d="M5.48779 31.7321C5.48779 29.72 7.13407 28.0737 9.14619 28.0737C11.1583 28.0737 12.8046 29.72 12.8046 31.7321C12.8046 33.7442 11.1583 35.3905 9.14619 35.3905C7.13407 35.3905 5.48779 33.7442 5.48779 31.7321ZM25.609 31.7321C25.609 33.7442 23.9627 35.3905 21.9506 35.3905C19.9385 35.3905 18.2922 33.7442 18.2922 31.7321C18.2922 29.72 19.9385 28.0737 21.9506 28.0737C23.9627 28.0737 25.609 29.72 25.609 31.7321ZM34.755 28.0737C32.7429 28.0737 31.0966 29.72 31.0966 31.7321C31.0966 33.7442 32.7429 35.3905 34.755 35.3905C36.7671 35.3905 38.4134 33.7442 38.4134 31.7321C38.4134 29.72 36.7671 28.0737 34.755 28.0737Z" fill="white"/>
</mask>
<g mask="url(#mask0_671_5864)">
<rect y="9.78174" width="43.9008" height="43.9008" fill="#6E6B7B"/>
</g>
<g clip-path="url(#clip0_671_5864)">
<path fill-rule="evenodd" clip-rule="evenodd" d="M79.5037 32.0934C79.6261 31.9575 79.7485 31.8215 79.735 31.5632L79.8574 31.4273C79.9798 31.2913 79.9662 31.033 79.9527 30.7747C79.9459 30.6455 79.9086 30.5503 79.8712 30.4551C79.8338 30.36 79.7965 30.2648 79.7897 30.1356L79.6537 30.0132C79.5178 29.8908 79.3819 29.7684 79.3683 29.5101L79.2459 29.646C79.11 29.5236 78.9741 29.4012 78.7157 29.4148L42.9607 14.4508C42.2946 14.0972 41.5196 14.1378 40.9076 14.8175C40.418 15.3612 40.2003 16.1497 40.4992 16.9112L47.5386 32.6029L42.178 48.9445C41.9603 49.7331 42.1233 50.3721 42.6671 50.8617C43.2108 51.3513 44.1218 51.4331 44.7473 51.0117L78.7423 32.3924C79.1365 32.5012 79.2589 32.3653 79.5037 32.0934ZM69.9189 29.6167L50.8022 30.6186L45.8148 19.4821L69.9189 29.6167ZM50.9917 34.2353L47.1958 45.8321L70.1084 33.2334L50.9917 34.2353Z" fill="black"/>
<mask id="mask1_671_5864" style="mask-type:luminance" maskUnits="userSpaceOnUse" x="40" y="14" width="40" height="38">
<path fill-rule="evenodd" clip-rule="evenodd" d="M79.5037 32.0934C79.6261 31.9575 79.7485 31.8215 79.735 31.5632L79.8574 31.4273C79.9798 31.2913 79.9662 31.033 79.9527 30.7747C79.9459 30.6455 79.9086 30.5503 79.8712 30.4551C79.8338 30.36 79.7965 30.2648 79.7897 30.1356L79.6537 30.0132C79.5178 29.8908 79.3819 29.7684 79.3683 29.5101L79.2459 29.646C79.11 29.5236 78.9741 29.4012 78.7157 29.4148L42.9607 14.4508C42.2946 14.0972 41.5196 14.1378 40.9076 14.8175C40.418 15.3612 40.2003 16.1497 40.4992 16.9112L47.5386 32.6029L42.178 48.9445C41.9603 49.7331 42.1233 50.3721 42.6671 50.8617C43.2108 51.3513 44.1218 51.4331 44.7473 51.0117L78.7423 32.3924C79.1365 32.5012 79.2589 32.3653 79.5037 32.0934ZM69.9189 29.6167L50.8022 30.6186L45.8148 19.4821L69.9189 29.6167ZM50.9917 34.2353L47.1958 45.8321L70.1084 33.2334L50.9917 34.2353Z" fill="white"/>
</mask>
<g mask="url(#mask1_671_5864)">
<rect x="51.7881" width="43.9008" height="43.9008" transform="rotate(42 51.7881 0)" fill="#6E6B7B"/>
</g>
</g>
<defs>
<clipPath id="clip0_671_5864">
<rect width="43.9008" height="43.9008" fill="white" transform="translate(51.7881) rotate(42)"/>
</clipPath>
</defs>
</svg>
