<svg width="44" height="42" viewBox="0 0 44 42" fill="none" xmlns="http://www.w3.org/2000/svg">
<rect width="44" height="42" rx="21" fill="#D0E8FF"/>
<path d="M30 20.11V14C30 12.9 29.11 12 28 12H23.82C23.4 10.84 22.3 10 21 10C19.7 10 18.6 10.84 18.18 12H14C12.9 12 12 12.9 12 14V28C12 29.11 12.9 30 14 30H20.11C21.37 31.24 23.09 32 25 32C28.87 32 32 28.87 32 25C32 23.09 31.24 21.37 30 20.11ZM21 12C21.55 12 22 12.45 22 13C22 13.55 21.55 14 21 14C20.45 14 20 13.55 20 13C20 12.45 20.45 12 21 12ZM14 28V14H16V16H26V14H28V18.68C27.09 18.25 26.08 18 25 18H16V20H20.1C19.5 20.57 19.04 21.25 18.68 22H16V24H18.08C18.03 24.33 18 24.66 18 25C18 26.08 18.25 27.09 18.68 28H14ZM25 30C22.24 30 20 27.76 20 25C20 22.24 22.24 20 25 20C27.76 20 30 22.24 30 25C30 27.76 27.76 30 25 30ZM25.5 25.25L28.36 26.94L27.61 28.16L24 26V21H25.5V25.25Z" fill="#0C75DB"/>
</svg>
