<svg width="52" height="23" viewBox="0 0 52 23" fill="none" xmlns="http://www.w3.org/2000/svg">
<g clip-path="url(#clip0_211_2029)">
<path d="M5.12362 13.5388L4.35857 16.3949L1.5623 16.454C0.726631 14.904 0.252625 13.1307 0.252625 11.2461C0.252625 9.42381 0.695809 7.70533 1.48138 6.19218H1.48199L3.97145 6.64858L5.06198 9.1231C4.83373 9.78853 4.70933 10.5028 4.70933 11.2461C4.70941 12.0528 4.85554 12.8257 5.12362 13.5388Z" fill="#FBBB00"/>
<path d="M22.0395 9.19329C22.1657 9.85807 22.2315 10.5446 22.2315 11.2463C22.2315 12.033 22.1488 12.8005 21.9912 13.5408C21.4562 16.0599 20.0584 18.2596 18.122 19.8162L18.1214 19.8156L14.9857 19.6557L14.542 16.8853C15.8269 16.1318 16.831 14.9525 17.36 13.5408H11.4836V9.19329H17.4457H22.0395Z" fill="#518EF8"/>
<path d="M18.1213 19.8156L18.1219 19.8162C16.2386 21.3299 13.8462 22.2356 11.242 22.2356C7.05693 22.2356 3.41834 19.8965 1.56219 16.4541L5.12351 13.5389C6.05157 16.0157 8.44087 17.7789 11.242 17.7789C12.446 17.7789 13.5739 17.4534 14.5418 16.8852L18.1213 19.8156Z" fill="#28B446"/>
<path d="M18.2566 2.7868L14.6965 5.70142C13.6948 5.07528 12.5107 4.71357 11.2421 4.71357C8.37755 4.71357 5.94355 6.55761 5.06199 9.12327L1.48195 6.19234H1.48135C3.31033 2.66605 6.99481 0.256821 11.2421 0.256821C13.9085 0.256821 16.3534 1.20664 18.2566 2.7868Z" fill="#F14336"/>
</g>
<path d="M33.7676 10.4448C33.7676 10.9811 33.6445 11.4734 33.3983 11.9218C33.1521 12.3614 32.7741 12.7174 32.2642 12.99C31.7543 13.2625 31.1213 13.3988 30.3652 13.3988H28.9674V16.722H26.7123V7.46446H30.3652C31.1037 7.46446 31.7279 7.59194 32.2378 7.8469C32.7477 8.10185 33.1302 8.45352 33.3851 8.90189C33.6401 9.35026 33.7676 9.86456 33.7676 10.4448ZM30.1938 11.6053C30.6246 11.6053 30.9455 11.5042 31.1565 11.302C31.3675 11.0998 31.473 10.8141 31.473 10.4448C31.473 10.0756 31.3675 9.78984 31.1565 9.58763C30.9455 9.38542 30.6246 9.28432 30.1938 9.28432H28.9674V11.6053H30.1938ZM34.2734 13.0295C34.2734 12.2735 34.414 11.6097 34.6954 11.0382C34.9855 10.4668 35.3767 10.0272 35.8691 9.7195C36.3614 9.4118 36.9109 9.25795 37.5175 9.25795C38.0362 9.25795 38.4889 9.36344 38.8758 9.57444C39.2714 9.78544 39.5747 10.0624 39.7857 10.4052V9.36344H42.0407V16.722H39.7857V15.6802C39.5659 16.0231 39.2582 16.3 38.8626 16.511C38.4758 16.722 38.023 16.8275 37.5043 16.8275C36.9065 16.8275 36.3614 16.6736 35.8691 16.3659C35.3767 16.0494 34.9855 15.6055 34.6954 15.034C34.414 14.4538 34.2734 13.7856 34.2734 13.0295ZM39.7857 13.0427C39.7857 12.4801 39.6275 12.0361 39.311 11.7108C39.0033 11.3855 38.6252 11.2229 38.1768 11.2229C37.7285 11.2229 37.346 11.3855 37.0295 11.7108C36.7218 12.0273 36.568 12.4669 36.568 13.0295C36.568 13.5922 36.7218 14.0406 37.0295 14.3746C37.346 14.6999 37.7285 14.8626 38.1768 14.8626C38.6252 14.8626 39.0033 14.6999 39.311 14.3746C39.6275 14.0494 39.7857 13.6054 39.7857 13.0427ZM50.9692 9.36344L46.3536 20.2166H43.9271L45.6151 16.4714L42.6216 9.36344H45.1404L46.8415 13.9658L48.5295 9.36344H50.9692Z" fill="#518EF8"/>
<defs>
<clipPath id="clip0_211_2029">
<rect width="21.9789" height="21.9789" fill="white" transform="translate(0.252655 0.256828)"/>
</clipPath>
</defs>
</svg>
