<svg width="175" height="168" viewBox="0 0 175 168" fill="none" xmlns="http://www.w3.org/2000/svg">
<path d="M114.591 111.439C114.579 112.169 114.296 112.904 113.746 113.475C104.335 123.182 91.1781 128.613 77.6602 128.377C55.0936 127.983 35.7831 112.374 30.7154 90.4221C30.3436 88.8054 31.3519 87.1928 32.9586 86.8207C34.5754 86.4489 36.188 87.4572 36.56 89.0639C41.0046 108.324 57.9481 122.022 77.7651 122.368C89.8032 122.578 101.056 117.934 109.438 109.279C110.589 108.089 112.49 108.062 113.68 109.213C114.3 109.814 114.606 110.619 114.592 111.419L114.591 111.439Z" fill="#08447F" stroke="#272D4E" stroke-width="5"/>
<path d="M127.569 80.1911L127.563 80.5111C127.534 82.1708 126.171 83.4872 124.511 83.4583C122.852 83.4293 121.535 82.0661 121.564 80.4064L121.57 80.0864C121.984 56.34 103.014 36.686 79.268 36.2715C75.5985 36.2074 71.9711 36.6042 68.5059 37.4438C66.8988 37.8358 65.2758 36.8474 64.8838 35.2403C64.4918 33.6332 65.4802 32.0102 67.0873 31.6182C71.0447 30.6571 75.1832 30.2093 79.3625 30.2822C106.408 30.7543 128.031 53.1451 127.559 80.201L127.569 80.1911Z" fill="#2E70E5" stroke="#7268EF" stroke-width="5"/>
<path d="M102.553 79.7441C102.322 92.992 91.355 103.582 78.107 103.351C64.859 103.12 54.2688 92.1533 54.5001 78.9053C54.7313 65.6573 65.6978 55.0671 78.9458 55.2983C92.1938 55.5296 102.784 66.4961 102.553 79.7441ZM60.4892 79.0098C60.3157 88.9483 68.2633 97.1783 78.2017 97.3518C88.1402 97.5252 96.3702 89.5777 96.5437 79.6392C96.7171 69.7007 88.7696 61.4707 78.8311 61.2973C68.8926 61.1238 60.6626 69.0714 60.4892 79.0098Z" fill="#C43185" stroke="#C43185" stroke-width="5"/>
<path d="M143.214 122.221C132.08 138.727 115.206 150.046 95.6884 154.107C94.0613 154.445 92.4749 153.399 92.1397 151.785C91.8018 150.158 92.8477 148.572 94.461 148.237C112.434 144.498 127.984 134.071 138.239 118.866C148.495 103.661 152.398 85.1609 149.042 67.0481C148.741 65.4212 149.811 63.8516 151.447 63.5554C153.074 63.2536 154.637 64.3326 154.939 65.9595C158.583 85.6298 154.42 105.607 143.214 122.221Z" fill="#08447F" stroke="#272D4E" stroke-width="5"/>
<path d="M102.968 9.56074C102.963 9.8307 102.918 10.1099 102.833 10.3885C102.345 11.9702 100.67 12.8611 99.088 12.3735C92.8505 10.4543 86.3374 9.43047 79.7384 9.31529C41.1443 8.64162 9.19087 39.4987 8.51703 78.1028C8.19294 96.67 15.0866 114.283 27.9144 127.699C29.0636 128.899 29.0205 130.799 27.8204 131.938C26.6202 133.087 24.7206 133.044 23.5814 131.844C9.64332 117.288 2.16593 98.165 2.51777 78.0081C3.24938 36.0945 37.9393 2.59479 79.8429 3.32622C87.0118 3.45135 94.0733 4.57474 100.848 6.6533C102.151 7.0561 102.99 8.27093 102.967 9.57074L102.968 9.56074Z" fill="#7268EF" stroke="#7268EF" stroke-width="5"/>
<path d="M100.519 152.198C100.126 153.079 99.3352 153.772 98.3209 153.987C90.3589 155.748 82.2005 156.273 74.0803 155.552C72.345 155.4 71.0741 153.869 71.2265 152.134C71.3789 150.399 72.9095 149.128 74.6447 149.28C82.1237 149.945 89.6311 149.463 96.9699 147.838C98.6672 147.457 100.345 148.537 100.727 150.234C100.88 150.923 100.797 151.598 100.533 152.192L100.519 152.198Z" fill="#08447F" stroke="#272D4E" stroke-width="5"/>
<path d="M108.137 14.9667C107.509 17.1574 108.776 19.4426 110.967 20.0708C113.157 20.699 115.443 19.4323 116.071 17.2416C116.699 15.0508 115.432 12.7657 113.241 12.1375C111.051 11.5093 108.766 12.776 108.137 14.9667Z" fill="#2E70E5" stroke="#7268EF" stroke-width="5"/>
<path d="M32.6216 72.0612C30.6896 72.0275 29.0948 73.5676 29.0611 75.4996C29.0274 77.4316 30.5675 79.0264 32.4995 79.0601C34.4315 79.0938 36.0263 77.5537 36.06 75.6217C36.0937 73.6897 34.5536 72.0949 32.6216 72.0612Z" fill="#08447F" stroke="#272D4E" stroke-width="5"/>
</svg>
