<svg width="268" height="69" viewBox="0 0 268 69" fill="none" xmlns="http://www.w3.org/2000/svg">
<path d="M122.09 18.1506H117.099C116.956 17.3321 116.694 16.607 116.311 15.9753C115.929 15.3348 115.453 14.7921 114.883 14.3472C114.314 13.9024 113.665 13.5688 112.935 13.3464C112.214 13.115 111.436 12.9994 110.6 12.9994C109.114 12.9994 107.797 13.373 106.649 14.1204C105.502 14.8588 104.603 15.9442 103.954 17.3766C103.304 18.8001 102.98 20.5394 102.98 22.5946C102.98 24.6853 103.304 26.4469 103.954 27.8792C104.612 29.3027 105.511 30.3792 106.649 31.1088C107.797 31.8294 109.109 32.1897 110.586 32.1897C111.405 32.1897 112.17 32.083 112.882 31.8694C113.602 31.647 114.247 31.3223 114.817 30.8953C115.395 30.4682 115.88 29.9433 116.271 29.3205C116.672 28.6977 116.947 27.986 117.099 27.1853L122.09 27.212C121.903 28.5109 121.498 29.7298 120.875 30.8686C120.262 32.0073 119.456 33.0127 118.46 33.8846C117.463 34.7476 116.298 35.4237 114.963 35.913C113.629 36.3935 112.148 36.6337 110.52 36.6337C108.117 36.6337 105.973 36.0776 104.087 34.9655C102.201 33.8534 100.715 32.2476 99.6299 30.1479C98.5445 28.0483 98.0018 25.5305 98.0018 22.5946C98.0018 19.6497 98.5489 17.1319 99.6432 15.0412C100.738 12.9415 102.228 11.3357 104.114 10.2236C106 9.11148 108.135 8.55543 110.52 8.55543C112.041 8.55543 113.455 8.76896 114.763 9.196C116.071 9.62305 117.237 10.2503 118.26 11.0777C119.283 11.8962 120.124 12.9015 120.782 14.0937C121.449 15.277 121.885 16.6293 122.09 18.1506ZM130.006 36.26V8.9291H140.255C142.355 8.9291 144.116 9.29387 145.54 10.0234C146.972 10.7529 148.053 11.7761 148.783 13.0928C149.521 14.4006 149.89 15.9264 149.89 17.6702C149.89 19.4229 149.517 20.9442 148.769 22.2342C148.031 23.5154 146.941 24.5074 145.5 25.2102C144.058 25.9042 142.288 26.2511 140.188 26.2511H132.889V22.1408H139.521C140.749 22.1408 141.754 21.9718 142.537 21.6337C143.32 21.2867 143.898 20.7841 144.272 20.1257C144.655 19.4584 144.846 18.6399 144.846 17.6702C144.846 16.7004 144.655 15.873 144.272 15.188C143.889 14.494 143.307 13.9691 142.524 13.6133C141.741 13.2485 140.731 13.0661 139.494 13.0661H134.957V36.26H130.006ZM144.125 23.8757L150.891 36.26H145.366L138.72 23.8757H144.125ZM154.897 8.9291H160.489L167.175 21.0198H167.442L174.128 8.9291H179.719L169.777 26.0643V36.26H164.839V26.0643L154.897 8.9291ZM186.608 36.26V8.9291H196.857C198.957 8.9291 200.718 9.32056 202.142 10.1035C203.574 10.8864 204.655 11.9629 205.385 13.333C206.123 14.6942 206.492 16.2423 206.492 17.9771C206.492 19.7298 206.123 21.2867 205.385 22.6479C204.646 24.0091 203.556 25.0812 202.115 25.8641C200.674 26.6381 198.899 27.0252 196.79 27.0252H189.998V22.9549H196.123C197.351 22.9549 198.356 22.7414 199.139 22.3143C199.922 21.8873 200.5 21.3001 200.874 20.5527C201.257 19.8054 201.448 18.9469 201.448 17.9771C201.448 17.0074 201.257 16.1533 200.874 15.4149C200.5 14.6764 199.918 14.1026 199.126 13.6933C198.343 13.2752 197.333 13.0661 196.096 13.0661H191.559V36.26H186.608ZM212.974 13.0794V8.9291H234.78V13.0794H226.332V36.26H221.421V13.0794H212.974ZM265.576 22.5946C265.576 25.5394 265.025 28.0616 263.922 30.1613C262.827 32.252 261.333 33.8534 259.438 34.9655C257.552 36.0776 255.412 36.6337 253.019 36.6337C250.625 36.6337 248.481 36.0776 246.586 34.9655C244.7 33.8445 243.205 32.2387 242.102 30.1479C241.008 28.0483 240.461 25.5305 240.461 22.5946C240.461 19.6497 241.008 17.1319 242.102 15.0412C243.205 12.9415 244.7 11.3357 246.586 10.2236C248.481 9.11148 250.625 8.55543 253.019 8.55543C255.412 8.55543 257.552 9.11148 259.438 10.2236C261.333 11.3357 262.827 12.9415 263.922 15.0412C265.025 17.1319 265.576 19.6497 265.576 22.5946ZM260.599 22.5946C260.599 20.5216 260.274 18.7734 259.624 17.3499C258.984 15.9175 258.094 14.8366 256.955 14.107C255.817 13.3686 254.504 12.9994 253.019 12.9994C251.533 12.9994 250.221 13.3686 249.082 14.107C247.943 14.8366 247.049 15.9175 246.399 17.3499C245.759 18.7734 245.439 20.5216 245.439 22.5946C245.439 24.6675 245.759 26.4202 246.399 27.8526C247.049 29.276 247.943 30.357 249.082 31.0954C250.221 31.825 251.533 32.1897 253.019 32.1897C254.504 32.1897 255.817 31.825 256.955 31.0954C258.094 30.357 258.984 29.276 259.624 27.8526C260.274 26.4202 260.599 24.6675 260.599 22.5946Z" fill="#7268EF"/>
<path d="M135.578 63.6699V47.6699H141.578C142.807 47.6699 143.839 47.8835 144.672 48.3105C145.51 48.7376 146.143 49.3366 146.57 50.1074C147.003 50.873 147.219 51.7663 147.219 52.7871C147.219 53.8132 147 54.7038 146.563 55.459C146.13 56.209 145.492 56.7897 144.648 57.2012C143.805 57.6074 142.768 57.8105 141.539 57.8105H137.266V55.4043H141.148C141.867 55.4043 142.456 55.3053 142.914 55.1074C143.372 54.9043 143.711 54.61 143.93 54.2246C144.154 53.834 144.266 53.3548 144.266 52.7871C144.266 52.2194 144.154 51.735 143.93 51.334C143.706 50.9277 143.365 50.6204 142.906 50.4121C142.448 50.1986 141.857 50.0918 141.133 50.0918H138.477V63.6699H135.578ZM143.844 56.4199L147.805 63.6699H144.57L140.68 56.4199H143.844ZM151.647 63.6699V47.6699H162.053V50.0996H154.545V54.4434H161.514V56.873H154.545V61.2402H162.115V63.6699H151.647ZM166.77 63.6699V47.6699H172.77C173.999 47.6699 175.03 47.8991 175.864 48.3574C176.702 48.8158 177.335 49.446 177.762 50.248C178.194 51.0449 178.411 51.9512 178.411 52.9668C178.411 53.9928 178.194 54.9043 177.762 55.7012C177.33 56.498 176.692 57.1257 175.848 57.584C175.004 58.0371 173.965 58.2637 172.731 58.2637H168.754V55.8809H172.34C173.059 55.8809 173.648 55.7559 174.106 55.5059C174.564 55.2559 174.903 54.9121 175.122 54.4746C175.346 54.0371 175.458 53.5345 175.458 52.9668C175.458 52.3991 175.346 51.8991 175.122 51.4668C174.903 51.0345 174.562 50.6986 174.098 50.459C173.64 50.2142 173.049 50.0918 172.325 50.0918H169.668V63.6699H166.77ZM196.985 55.6699C196.985 57.3939 196.662 58.8704 196.016 60.0996C195.376 61.3236 194.501 62.2611 193.391 62.9121C192.287 63.5632 191.035 63.8887 189.634 63.8887C188.232 63.8887 186.977 63.5632 185.868 62.9121C184.764 62.2559 183.889 61.3158 183.243 60.0918C182.602 58.8626 182.282 57.3887 182.282 55.6699C182.282 53.946 182.602 52.472 183.243 51.248C183.889 50.0189 184.764 49.0788 185.868 48.4277C186.977 47.7767 188.232 47.4512 189.634 47.4512C191.035 47.4512 192.287 47.7767 193.391 48.4277C194.501 49.0788 195.376 50.0189 196.016 51.248C196.662 52.472 196.985 53.946 196.985 55.6699ZM194.071 55.6699C194.071 54.4564 193.881 53.4329 193.501 52.5996C193.126 51.7611 192.605 51.1283 191.938 50.7012C191.272 50.2689 190.503 50.0527 189.634 50.0527C188.764 50.0527 187.995 50.2689 187.329 50.7012C186.662 51.1283 186.139 51.7611 185.759 52.5996C185.384 53.4329 185.196 54.4564 185.196 55.6699C185.196 56.8835 185.384 57.9095 185.759 58.748C186.139 59.5814 186.662 60.2142 187.329 60.6465C187.995 61.0736 188.764 61.2871 189.634 61.2871C190.503 61.2871 191.272 61.0736 191.938 60.6465C192.605 60.2142 193.126 59.5814 193.501 58.748C193.881 57.9095 194.071 56.8835 194.071 55.6699ZM201.485 63.6699V47.6699H207.485C208.714 47.6699 209.746 47.8835 210.579 48.3105C211.418 48.7376 212.05 49.3366 212.478 50.1074C212.91 50.873 213.126 51.7663 213.126 52.7871C213.126 53.8132 212.907 54.7038 212.47 55.459C212.037 56.209 211.399 56.7897 210.556 57.2012C209.712 57.6074 208.675 57.8105 207.446 57.8105H203.173V55.4043H207.056C207.774 55.4043 208.363 55.3053 208.821 55.1074C209.28 54.9043 209.618 54.61 209.837 54.2246C210.061 53.834 210.173 53.3548 210.173 52.7871C210.173 52.2194 210.061 51.735 209.837 51.334C209.613 50.9277 209.272 50.6204 208.813 50.4121C208.355 50.1986 207.764 50.0918 207.04 50.0918H204.384V63.6699H201.485ZM209.751 56.4199L213.712 63.6699H210.478L206.587 56.4199H209.751ZM216.851 50.0996V47.6699H229.616V50.0996H224.671V63.6699H221.796V50.0996H216.851Z" fill="black"/>
<path d="M70.4499 19.65V5H41.4199V20.04H48.0999V26.72H41.4199V41.75H48.0999V48.43H41.4199V52.61H48.0999V59.29H41.4199V64.85H85.0999V19.65H70.4399H70.4499ZM57.5299 59.29H50.8499V52.61H57.5299V59.29ZM57.5299 37.58H50.8499V30.9H57.5299V37.58Z" fill="#7268EF"/>
<path d="M31.0698 52.61V59.29H37.7498V52.61H31.0698Z" fill="#7268EF"/>
<path d="M31.0698 30.8901V37.5701H37.7498V30.8901H31.0698Z" fill="#7268EF"/>
<path d="M31.0698 20.04V26.72H37.7498V20.04H31.0698Z" fill="#7268EF"/>
<path d="M10.3599 20.04V26.72H17.0399V20.04H10.3599Z" fill="#7268EF"/>
<path d="M20.71 52.61V59.29H27.39V52.61H20.71Z" fill="#7268EF"/>
<path d="M20.7202 30.9001V37.5801H27.4002V30.9001H20.7202Z" fill="#7268EF"/>
<path d="M20.71 9.18011V15.8601H27.39V9.18011H20.71Z" fill="#7268EF"/>
<path d="M10.3501 41.7499V48.4299H17.0301V41.7499H10.3501Z" fill="#7268EF"/>
<path d="M10.3599 30.8901V37.5701H17.0399V30.8901H10.3599Z" fill="#7268EF"/>
<path d="M0 30.9001L0 37.5801H6.68V30.9001H0Z" fill="#7268EF"/>
<path d="M85.1101 17.28H72.8301V5L85.1101 17.28Z" fill="#7268EF"/>
</svg>
