<svg width="32" height="38" viewBox="0 0 32 38" fill="none" xmlns="http://www.w3.org/2000/svg">
<path fill-rule="evenodd" clip-rule="evenodd" d="M9 9.5V7.25C9 6.55964 9.76583 6 10.7105 6C11.6552 6 12.4211 6.55964 12.4211 7.25L12.4208 8.49971H14.473L14.4737 2.75C14.4737 1.23122 16.1585 0 18.2368 0C20.3152 0 22 1.23122 22 2.75V17H14.4737L14.473 10.9996L11.0526 11C9.91899 11 9 10.3284 9 9.5Z" fill="#28C76F"/>
<path fill-rule="evenodd" clip-rule="evenodd" d="M1.43604 8H30.1579L28.1034 36.1269C28.0472 36.8964 27.4228 37.4912 26.6713 37.4912H4.92259C4.17113 37.4912 3.54673 36.8964 3.49052 36.1269L1.43604 8Z" fill="#7367F0"/>
<path fill-rule="evenodd" clip-rule="evenodd" d="M1.43609 8H30.158C30.9511 8 31.5941 8.66018 31.5941 9.47456V15.3728C31.5941 16.1872 30.9511 16.8474 30.158 16.8474H1.43609C0.642961 16.8474 0 16.1872 0 15.3728V9.47456C0 8.66018 0.642961 8 1.43609 8Z" fill="#968BFF"/>
</svg>
