<svg width="37" height="38" viewBox="0 0 37 38" fill="none" xmlns="http://www.w3.org/2000/svg">
<g clip-path="url(#clip0_211_2010)">
<path d="M13.7474 24.5087L15.6081 14.0425H18.5153L16.7128 24.5087H13.7474Z" fill="#3C58BF"/>
<path d="M13.7474 24.5087L16.1314 14.0425H18.5153L16.7128 24.5087H13.7474Z" fill="#293688"/>
<path d="M27.2371 14.1586C26.6556 13.9261 25.7253 13.6935 24.5624 13.6935C21.6551 13.6935 19.5619 15.1471 19.5619 17.2404C19.5619 18.8103 21.0155 19.6243 22.1784 20.1476C23.3414 20.6709 23.6902 21.0198 23.6902 21.485C23.6902 22.1827 22.7599 22.5316 21.9459 22.5316C20.783 22.5316 20.1434 22.3571 19.1549 21.9501L18.7479 21.7757L18.3409 24.1597C19.0386 24.4504 20.3178 24.7411 21.6551 24.7411C24.7368 24.7411 26.7719 23.2875 26.7719 21.0779C26.7719 19.8569 26.016 18.9266 24.2717 18.1707C23.2251 17.6474 22.5855 17.3566 22.5855 16.8333C22.5855 16.3682 23.1088 15.903 24.2717 15.903C25.2601 15.903 25.9579 16.0774 26.4812 16.31L26.7719 16.4263L27.2371 14.1586Z" fill="#3C58BF"/>
<path d="M27.2371 14.1586C26.6556 13.9261 25.7253 13.6935 24.5624 13.6935C21.6551 13.6935 20.0852 15.1471 20.0852 17.2404C20.0852 18.8103 21.0155 19.6243 22.1784 20.1476C23.3414 20.6709 23.6902 21.0198 23.6902 21.485C23.6902 22.1827 22.7599 22.5316 21.9459 22.5316C20.783 22.5316 20.1434 22.3571 19.1549 21.9501L18.7479 21.7757L18.3409 24.1597C19.0386 24.4504 20.3178 24.7411 21.6551 24.7411C24.7368 24.7411 26.7719 23.2875 26.7719 21.0779C26.7719 19.8569 26.016 18.9266 24.2717 18.1707C23.2251 17.6474 22.5855 17.3566 22.5855 16.8333C22.5855 16.3682 23.1088 15.903 24.2717 15.903C25.2601 15.903 25.9579 16.0774 26.4812 16.31L26.7719 16.4263L27.2371 14.1586Z" fill="#293688"/>
<path d="M32.2376 14.0425C31.5398 14.0425 31.0165 14.1006 30.7258 14.7984L26.3649 24.5087H29.5047L30.0862 22.7643H33.8075L34.1564 24.5087H36.9473L34.5052 14.0425H32.2376ZM30.9002 21.0199C31.0747 20.4966 32.0631 17.9382 32.0631 17.9382C32.0631 17.9382 32.2957 17.2986 32.4701 16.8916L32.6446 17.8801C32.6446 17.8801 33.226 20.4966 33.3423 21.0781H30.9002V21.0199Z" fill="#3C58BF"/>
<path d="M32.9353 14.0425C32.2376 14.0425 31.7143 14.1006 31.4235 14.7984L26.3649 24.5087H29.5047L30.0862 22.7643H33.8075L34.1564 24.5087H36.9473L34.5052 14.0425H32.9353ZM30.9002 21.0199C31.1328 20.4385 32.0631 17.9382 32.0631 17.9382C32.0631 17.9382 32.2957 17.2986 32.4701 16.8916L32.6446 17.8801C32.6446 17.8801 33.226 20.4966 33.3423 21.0781H30.9002V21.0199Z" fill="#293688"/>
<path d="M8.39795 21.3686L8.10722 19.8568C7.58392 18.1124 5.8977 16.1937 4.03705 15.2633L6.65359 24.5666H9.79344L14.5032 14.1004H11.3634L8.39795 21.3686Z" fill="#3C58BF"/>
<path d="M8.39795 21.3686L8.10722 19.8568C7.58392 18.1124 5.8977 16.1937 4.03705 15.2633L6.65359 24.5666H9.79344L14.5032 14.1004H11.9448L8.39795 21.3686Z" fill="#293688"/>
<path d="M0.315765 14.0425L0.839074 14.1588C4.56038 15.031 7.11877 17.2405 8.10724 19.857L7.06063 14.9147C6.88619 14.2169 6.36288 14.0425 5.72328 14.0425H0.315765Z" fill="#FFBC00"/>
<path d="M0.315765 14.0425C4.03707 14.9147 7.11877 17.1823 8.10724 19.7989L7.11877 15.6706C6.94434 14.9728 6.36288 14.5658 5.72328 14.5658L0.315765 14.0425Z" fill="#F7981D"/>
<path d="M0.315765 14.0425C4.03707 14.9147 7.11877 17.1823 8.10724 19.7989L7.4095 17.5312C7.23506 16.8335 7.00248 16.1357 6.18845 15.845L0.315765 14.0425Z" fill="#ED7C00"/>
<path d="M11.3053 21.0197L9.32836 19.0427L8.39803 21.2523L8.16545 19.7986C7.64214 18.0543 5.95593 16.1355 4.09528 15.2051L6.71182 24.5084H9.85167L11.3053 21.0197Z" fill="#051244"/>
<path d="M16.7128 24.5084L14.2126 21.95L13.7474 24.5084H16.7128Z" fill="#051244"/>
<path d="M23.3995 20.9035C23.6321 21.1361 23.7484 21.3105 23.6903 21.5431C23.6903 22.2408 22.7599 22.5897 21.9459 22.5897C20.783 22.5897 20.1434 22.4153 19.1549 22.0082L18.7479 21.8338L18.3409 24.2178C19.0386 24.5085 20.3178 24.7992 21.6552 24.7992C23.5158 24.7992 25.0276 24.2759 25.8998 23.3456L23.3995 20.9035Z" fill="#051244"/>
<path d="M26.7719 24.5086H29.5047L30.0862 22.7642H33.8075L34.1563 24.5086H36.9473L35.9588 20.264L32.4701 16.8915L32.6446 17.8219C32.6446 17.8219 33.226 20.4384 33.3423 21.0199H30.9002C31.1328 20.4384 32.0631 17.9382 32.0631 17.9382C32.0631 17.9382 32.2957 17.2986 32.4701 16.8915" fill="#051244"/>
</g>
<defs>
<clipPath id="clip0_211_2010">
<rect width="36.6316" height="36.6316" fill="white" transform="translate(0.315796 0.930492)"/>
</clipPath>
</defs>
</svg>
