<svg width="999" height="1528" viewBox="0 0 999 1528" fill="none" xmlns="http://www.w3.org/2000/svg">
<g clip-path="url(#clip0_631_2136)">
<mask id="mask0_631_2136" style="mask-type:luminance" maskUnits="userSpaceOnUse" x="0" y="0" width="999" height="1528">
<path d="M999 1528V0H0V1528H999Z" fill="white"/>
</mask>
<g mask="url(#mask0_631_2136)">
<path d="M999 1988.42V0H0V1988.42H999Z" fill="url(#paint0_linear_631_2136)"/>
</g>
<path style="mix-blend-mode:overlay" opacity="0.3" fill-rule="evenodd" clip-rule="evenodd" d="M512.536 614.597C512.536 614.359 512.536 614.108 512.536 613.87L1076 605.106C1073.25 552.817 1075.59 578.935 1068.91 526.765L512.357 611.966C512.316 611.742 512.261 611.491 512.22 611.239C512.151 611.001 512.096 610.764 512.027 610.526L1055.57 467.338C1039.17 416.926 1048.29 441.775 1028.22 392.764L511.367 608.715C511.257 608.477 511.147 608.252 511.05 608.041C510.927 607.829 510.803 607.605 510.679 607.393L999.876 338.479C971.094 293.896 986.297 315.652 954.309 273.183L509.592 605.807C509.413 605.622 509.262 605.424 509.083 605.239C508.918 605.054 508.753 604.868 508.574 604.697L913.049 227.582C873.756 191.3 894.035 208.76 852.142 175.201L507.074 603.415C506.868 603.269 506.675 603.137 506.469 602.978C506.249 602.846 506.029 602.714 505.822 602.569L800.287 140.742C752.533 114.796 776.843 126.916 727.383 104.354L504.061 601.696C503.814 601.604 503.58 601.511 503.346 601.432C503.098 601.339 502.864 601.247 502.617 601.194L667.852 83.298C614.897 69.6573 641.56 75.5392 587.807 65.5995L500.691 600.771C500.443 600.731 500.209 600.692 499.92 600.665C499.686 600.652 499.411 600.639 499.177 600.612L525.18 59.4929C470.519 58.8981 497.829 58.2636 443.498 61.3434L497.155 600.639C496.907 600.665 496.646 600.678 496.384 600.718C496.137 600.758 495.903 600.797 495.641 600.85L380.802 70.4107C327.517 82.9411 353.933 75.7639 301.624 91.9291L493.729 601.392C493.495 601.472 493.247 601.564 493.014 601.67C492.766 601.749 492.532 601.868 492.298 601.961L243.373 115.734C195.233 140.57 218.814 127.339 172.628 155.374L490.578 602.912C490.372 603.071 490.166 603.203 489.959 603.348C489.767 603.507 489.56 603.666 489.368 603.811L122.645 192.133C82.5127 227.53 101.912 209.17 64.4758 247.211L487.964 605.186C487.799 605.358 487.634 605.543 487.455 605.754C487.318 605.939 487.153 606.137 486.988 606.349L25.4165 294.768C-4.43859 338.783 9.66347 316.273 -16.931 362.337L485.969 607.975C485.859 608.173 485.736 608.411 485.639 608.622C485.543 608.847 485.433 609.085 485.337 609.31L-42.4936 417.97C-60.0214 467.92 -52.193 442.7 -65.9787 493.734L484.772 611.147C484.731 611.398 484.676 611.636 484.635 611.874C484.594 612.112 484.566 612.35 484.525 612.601L-76.2147 553.438C-80.2321 605.807 -67.5196 579.213 -67.6984 631.74L484.456 614.544C484.456 614.782 484.484 615.033 484.497 615.271C484.525 615.522 484.552 615.773 484.58 616.011L-73.9446 692.356C-64.3002 744.276 -70.0648 718.541 -56.5956 769.627L485.006 617.888C485.075 618.113 485.171 618.351 485.254 618.588C485.337 618.8 485.447 619.025 485.529 619.263L-35.5595 827.005C-12.6935 874.906 -24.9795 851.379 1.27103 897.482L486.41 620.968C486.561 621.179 486.712 621.404 486.822 621.602C486.988 621.8 487.125 622.012 487.276 622.197L36.3817 947.788C70.6532 988.459 52.7814 968.739 89.9696 1007L488.57 623.638C488.749 623.796 488.941 623.968 489.134 624.127C489.326 624.285 489.519 624.444 489.712 624.616L136.871 1047.33C180.649 1078.68 158.237 1063.79 204.231 1092.1L491.363 625.7C491.583 625.832 491.817 625.937 492.05 626.07C492.271 626.175 492.505 626.281 492.738 626.387L260.405 1120.13C311.269 1140.13 285.514 1131.01 337.629 1147.44L494.61 627.048C494.871 627.127 495.091 627.18 495.339 627.233C495.614 627.286 495.862 627.339 496.109 627.378L399.417 1161.11C453.308 1168.19 426.218 1165.55 480.7 1169L498.09 627.577C498.338 627.577 498.599 627.577 498.833 627.577C499.108 627.577 499.356 627.55 499.604 627.537L543.616 1167.55C598.043 1161.58 570.953 1165.5 624.844 1155.8L501.571 627.246C501.833 627.18 502.066 627.127 502.314 627.061C502.548 626.995 502.796 626.916 503.043 626.85L685.875 1139.21C737 1120.39 711.795 1130.67 761.476 1108.34L504.873 626.096C505.093 625.99 505.327 625.871 505.547 625.752C505.767 625.62 505.974 625.501 506.194 625.382L815.958 1077.81C860.41 1047.48 838.783 1063.38 880.869 1030.12L507.79 624.193C507.982 624.047 508.175 623.876 508.34 623.704C508.533 623.505 508.712 623.347 508.904 623.162L925.665 987.679C960.955 947.683 944.06 968.263 976.322 925.94L510.101 621.655C510.253 621.443 510.39 621.232 510.528 621.047C510.638 620.835 510.775 620.611 510.899 620.399L1008.93 873.902C1032.87 826.503 1021.78 850.612 1042.17 801.561L511.697 618.641C511.78 618.403 511.862 618.179 511.945 617.928C511.986 617.703 512.082 617.465 512.137 617.227L1060.23 743.311C1071.06 691.775 1066.63 717.629 1073.56 665.723L512.468 615.35C512.468 615.099 512.509 614.861 512.509 614.583L512.536 614.597Z" fill="url(#paint1_radial_631_2136)"/>
</g>
<defs>
<linearGradient id="paint0_linear_631_2136" x1="499.5" y1="-3.44981" x2="499.5" y2="1959.89" gradientUnits="userSpaceOnUse">
<stop offset="0.1" stop-color="#0F5CA9"/>
<stop offset="1" stop-color="#0F5CA9"/>
</linearGradient>
<radialGradient id="paint1_radial_631_2136" cx="0" cy="0" r="1" gradientUnits="userSpaceOnUse" gradientTransform="translate(494.885 594.004) scale(560.217 538.212)">
<stop stop-color="white"/>
<stop offset="0.09" stop-color="white" stop-opacity="0.98"/>
<stop offset="0.22" stop-color="white" stop-opacity="0.91"/>
<stop offset="0.36" stop-color="white" stop-opacity="0.8"/>
<stop offset="0.52" stop-color="white" stop-opacity="0.65"/>
<stop offset="0.69" stop-color="white" stop-opacity="0.45"/>
<stop offset="0.86" stop-color="white" stop-opacity="0.21"/>
<stop offset="1" stop-color="white" stop-opacity="0"/>
</radialGradient>
<clipPath id="clip0_631_2136">
<rect width="999" height="1528" fill="white"/>
</clipPath>
</defs>
</svg>
