<svg width="376" height="578" viewBox="0 0 376 178" fill="none" xmlns="http://www.w3.org/2000/svg">
<path d="M46.516 172.295C27.5173 172.295 11.6766 158.05 9.66471 139.162L0.207834 50.5272C-0.90424 40.0855 2.48292 29.6269 9.49493 21.817C16.5154 14.007 26.5581 9.5332 37.0591 9.5332H338.168C348.669 9.5332 358.712 14.007 365.732 21.817C372.753 29.6269 376.14 40.0855 375.019 50.5272L365.562 139.162C363.551 158.05 347.701 172.295 328.711 172.295H46.516Z" fill="url(#paint0_linear_221_3264)"/>
<path d="M323.056 162.669C323.056 160.563 324.763 158.849 326.877 158.849C328.982 158.849 330.697 160.563 330.697 162.669C330.697 164.774 328.982 166.489 326.877 166.489C324.763 166.489 323.056 164.774 323.056 162.669ZM46.5913 166.489H46.5149C44.4096 166.489 42.6948 164.774 42.6948 162.669C42.6948 160.563 44.4096 158.849 46.5149 158.849H46.7356C48.8409 158.849 50.5557 160.563 50.5557 162.669C50.5557 164.774 48.8409 166.489 46.7356 166.489H46.5913ZM341.393 159.884C340.179 158.161 340.595 155.776 342.318 154.562C344.042 153.348 346.427 153.764 347.641 155.487C348.855 157.21 348.439 159.596 346.716 160.81C346.045 161.277 345.281 161.506 344.517 161.506C343.32 161.506 342.14 160.937 341.393 159.884ZM26.8456 159.545C25.2072 158.22 24.9526 155.81 26.2769 154.171C27.6012 152.533 30.0121 152.278 31.6505 153.602C33.2889 154.935 33.5436 157.338 32.2192 158.976C31.4637 159.91 30.3601 160.394 29.2481 160.394C28.3991 160.394 27.5502 160.113 26.8456 159.545ZM354.076 146.429C352.038 145.852 350.858 143.738 351.436 141.709C352.013 139.68 354.118 138.5 356.156 139.077C358.176 139.646 359.364 141.76 358.787 143.789C358.312 145.47 356.784 146.573 355.111 146.573C354.772 146.573 354.424 146.522 354.076 146.429ZM15.9456 141.752C15.5042 139.689 16.8285 137.66 18.8913 137.218C20.9542 136.785 22.9831 138.101 23.4245 140.164C23.8575 142.235 22.5417 144.264 20.4788 144.697C20.2071 144.757 19.944 144.782 19.6808 144.782C17.9151 144.782 16.3276 143.551 15.9456 141.752ZM357.081 128.042C354.976 127.821 353.456 125.936 353.685 123.84C353.906 121.743 355.79 120.223 357.887 120.444C359.984 120.673 361.504 122.549 361.283 124.646C361.071 126.607 359.415 128.067 357.488 128.067C357.352 128.067 357.217 128.067 357.081 128.042ZM13.7554 122.812C13.5347 120.716 15.0543 118.839 17.1511 118.61C19.2479 118.389 21.1325 119.909 21.3532 122.006C21.5824 124.103 20.0628 125.987 17.966 126.208C17.8217 126.225 17.6859 126.233 17.5501 126.233C15.623 126.233 13.9676 124.773 13.7554 122.812ZM359.059 109.476C356.962 109.247 355.442 107.362 355.663 105.265C355.892 103.169 357.768 101.649 359.865 101.878C361.962 102.099 363.49 103.983 363.261 106.08C363.049 108.041 361.393 109.493 359.466 109.493C359.33 109.493 359.195 109.493 359.059 109.476ZM11.7775 104.247C11.5567 102.15 13.0763 100.265 15.1731 100.036C17.2699 99.8153 19.1545 101.335 19.3752 103.432C19.5959 105.528 18.0764 107.413 15.9796 107.642C15.8437 107.651 15.7079 107.659 15.5721 107.659C13.6451 107.659 11.9897 106.208 11.7775 104.247ZM361.037 90.9017C358.94 90.681 357.42 88.7964 357.641 86.6996C357.87 84.6028 359.755 83.0832 361.852 83.304C363.949 83.5247 365.468 85.4093 365.239 87.5061C365.035 89.4671 363.38 90.9272 361.444 90.9272C361.308 90.9272 361.173 90.9272 361.037 90.9017ZM9.79949 85.6724C9.57877 83.5756 11.0898 81.691 13.1951 81.4703C15.2919 81.2496 17.168 82.7691 17.3972 84.866C17.618 86.9628 16.0984 88.8389 14.0016 89.0681C13.8658 89.0851 13.7299 89.0935 13.5941 89.0935C11.6671 89.0935 10.0032 87.6334 9.79949 85.6724ZM363.023 72.3275C360.926 72.1068 359.398 70.2222 359.628 68.1254C359.848 66.0286 361.733 64.5091 363.83 64.7298C365.926 64.959 367.446 66.8436 367.225 68.9404C367.013 70.9014 365.358 72.353 363.431 72.353C363.295 72.353 363.159 72.353 363.023 72.3275ZM7.82152 67.1067C7.59232 65.0014 9.11187 63.1253 11.2087 62.8961C13.3055 62.6754 15.1901 64.195 15.4108 66.2918C15.64 68.3886 14.1204 70.2732 12.0236 70.4939C11.8793 70.5109 11.7435 70.5194 11.6077 70.5194C9.68064 70.5194 8.02526 69.0677 7.82152 67.1067ZM365.001 53.7618C362.904 53.5326 361.385 51.6565 361.606 49.5597C361.835 47.4544 363.711 45.9434 365.808 46.1641C367.913 46.3848 369.424 48.2694 369.203 50.3662C368.991 52.3272 367.336 53.7788 365.409 53.7788C365.273 53.7788 365.137 53.7788 365.001 53.7618ZM5.85205 48.3373C5.74169 46.232 7.34613 44.4238 9.45992 44.3134C11.5652 44.1946 13.3649 45.8075 13.4838 47.9128C13.6026 50.0181 11.9897 51.8178 9.88438 51.9367C9.80798 51.9367 9.74006 51.9367 9.67215 51.9367C7.65174 51.9367 5.97089 50.3662 5.85205 48.3288V48.3373ZM358.201 34.0925C357.089 32.3013 357.633 29.9499 359.424 28.8293C361.215 27.7172 363.575 28.2605 364.687 30.0517C365.808 31.8429 365.256 34.2029 363.473 35.315C362.836 35.7055 362.14 35.8922 361.453 35.8922C360.179 35.8922 358.931 35.2556 358.201 34.0925ZM12.5839 33.6426C10.8691 32.4117 10.4871 30.0178 11.718 28.3115C12.9489 26.5967 15.3429 26.2146 17.0492 27.4456C18.764 28.685 19.146 31.0704 17.9151 32.7767C17.168 33.8124 15.9965 34.3642 14.8081 34.3642C14.0356 34.3642 13.2546 34.1265 12.5839 33.6426ZM345.875 24.2791C343.88 23.5915 342.819 21.4183 343.507 19.4234C344.194 17.4284 346.368 16.3673 348.362 17.0549C350.357 17.7425 351.419 19.9157 350.731 21.9107C350.188 23.4981 348.702 24.4829 347.115 24.4829C346.707 24.4829 346.283 24.415 345.875 24.2791ZM26.192 21.1297C25.6402 19.0923 26.8371 16.987 28.8745 16.4352C30.9119 15.8834 33.0087 17.0888 33.5605 19.1177C34.1208 21.1551 32.9154 23.2604 30.878 23.8122C30.5469 23.9056 30.2073 23.9481 29.8763 23.9481C28.1954 23.9481 26.6589 22.8275 26.192 21.1297ZM324.788 19.1687C324.788 17.0549 326.503 15.3401 328.608 15.3401C330.722 15.3401 332.428 17.0549 332.428 19.1687C332.428 21.274 330.722 22.9888 328.608 22.9888C326.503 22.9888 324.788 21.274 324.788 19.1687ZM306.112 19.1687C306.112 17.0549 307.827 15.3401 309.932 15.3401C312.046 15.3401 313.752 17.0549 313.752 19.1687C313.752 21.274 312.046 22.9888 309.932 22.9888C307.827 22.9888 306.112 21.274 306.112 19.1687ZM287.436 19.1687C287.436 17.0549 289.151 15.3401 291.256 15.3401C293.37 15.3401 295.076 17.0549 295.076 19.1687C295.076 21.274 293.37 22.9888 291.256 22.9888C289.151 22.9888 287.436 21.274 287.436 19.1687ZM81.9994 19.1687C81.9994 17.0549 83.7142 15.3401 85.8195 15.3401C87.9333 15.3401 89.6396 17.0549 89.6396 19.1687C89.6396 21.274 87.9333 22.9888 85.8195 22.9888C83.7142 22.9888 81.9994 21.274 81.9994 19.1687ZM63.3234 19.1687C63.3234 17.0549 65.0382 15.3401 67.1435 15.3401C69.2573 15.3401 70.9636 17.0549 70.9636 19.1687C70.9636 21.274 69.2573 22.9888 67.1435 22.9888C65.0382 22.9888 63.3234 21.274 63.3234 19.1687ZM44.6473 19.1687C44.6473 17.0549 46.3621 15.3401 48.4674 15.3401C50.5812 15.3401 52.2875 17.0549 52.2875 19.1687C52.2875 21.274 50.5812 22.9888 48.4674 22.9888C46.3621 22.9888 44.6473 21.274 44.6473 19.1687Z" fill="white"/>
<path d="M328.72 153.042H46.5158C37.407 153.042 29.7753 146.174 28.8075 137.116L19.3507 48.4816C18.2301 37.9551 26.473 28.7783 37.059 28.7783H338.168C348.754 28.7783 356.997 37.9551 355.876 48.4816L346.419 137.116C345.452 146.174 337.811 153.042 328.711 153.042H328.72Z" fill="url(#paint1_linear_221_3264)"/>
<path d="M254.009 178H121.491C117.62 178 114.175 173.222 113.778 167.272L112.654 150.221C112.246 144.026 115.154 138.95 119.159 138.95H256.33C260.335 138.95 263.243 144.026 262.835 150.221L261.711 167.272C261.319 173.222 257.868 178 253.998 178H254.009Z" fill="url(#paint2_linear_221_3264)"/>
<defs>
<linearGradient id="paint0_linear_221_3264" x1="187.614" y1="-27.0973" x2="187.614" y2="182.737" gradientUnits="userSpaceOnUse">
<stop stop-color="#4999E6"/>
<stop offset="0.23" stop-color="#1B85EB"/>
<stop offset="0.75" stop-color="#1371CD"/>
<stop offset="1" stop-color="#03498F"/>
</linearGradient>
<linearGradient id="paint1_linear_221_3264" x1="187.613" y1="-91.3342" x2="187.613" y2="76.4872" gradientUnits="userSpaceOnUse">
<stop stop-color="#4F9BE5"/>
<stop offset="0.23" stop-color="#177CDF"/>
<stop offset="0.75" stop-color="#0F5CA9"/>
</linearGradient>
<linearGradient id="paint2_linear_221_3264" x1="187.75" y1="125.625" x2="187.75" y2="175.972" gradientUnits="userSpaceOnUse">
<stop stop-color="#84C1FE"/>
<stop offset="0.23" stop-color="#158CFF"/>
<stop offset="0.75" stop-color="#065DB3"/>
<stop offset="1" stop-color="#104A85"/>
</linearGradient>
</defs>
</svg>
