<svg width="52" height="52" viewBox="0 0 52 52" fill="none" xmlns="http://www.w3.org/2000/svg">
<path d="M52 26C52 40.3626 40.3559 52 26 52C11.6441 52 0 40.3559 0 26C0 11.6441 11.6374 0 25.9933 0C40.3492 0 51.9933 11.6441 51.9933 26H52Z" fill="#FFFAEF"/>
<path d="M50.1585 26.0001C50.1585 39.3449 39.3381 50.1654 25.9932 50.1654C12.6484 50.1654 1.82788 39.3449 1.82788 26.0001C1.82788 12.6552 12.6484 1.83472 25.9932 1.83472C39.3381 1.83472 50.1585 12.6552 50.1585 26.0001Z" fill="#2DB621"/>
<path d="M41.4943 26.0001C41.4943 34.5574 34.5574 41.4943 26.0001 41.4943C17.4428 41.4943 10.5059 34.5574 10.5059 26.0001C10.5059 17.4428 17.4428 10.5059 26.0001 10.5059C34.5574 10.5059 41.4943 17.4428 41.4943 26.0001Z" fill="#169E14"/>
<path d="M38.749 26C38.749 33.044 33.0374 38.7556 25.9934 38.7556C18.9494 38.7556 13.2378 33.044 13.2378 26C13.2378 18.9559 18.9494 13.2444 25.9934 13.2444C33.0374 13.2444 38.749 18.9559 38.749 26Z" fill="#FFFAEF"/>
<path opacity="0.2" d="M39.3315 9.48142C44.0387 13.3449 45.5319 19.2975 42.6727 22.7794C39.8136 26.2612 33.6802 25.9532 28.973 22.0897C24.2658 18.2262 22.7727 12.2736 25.6318 8.79175C28.4909 5.30991 34.6243 5.61792 39.3315 9.48142Z" fill="#FFFAEF"/>
<path opacity="0.2" d="M48.7592 21.353C50.0046 22.3774 50.2724 24.1117 49.3551 25.2299C48.4378 26.3481 46.6834 26.4217 45.438 25.3973C44.1926 24.3728 43.9248 22.6386 44.8421 21.5204C45.7594 20.4021 47.5137 20.3285 48.7592 21.353Z" fill="#FFFAEF"/>
<path opacity="0.2" d="M14.5835 14.5904C14.5835 10.5729 15.5678 6.78302 17.3087 3.44849C8.2559 6.93703 1.82788 15.7153 1.82788 26.0001C1.82788 39.345 12.6484 50.1655 25.9932 50.1655C35.3205 50.1655 43.4091 44.8757 47.4333 37.142C44.7349 38.1799 41.8088 38.7557 38.7488 38.7557C25.404 38.7557 14.5835 27.9352 14.5835 14.5904Z" fill="#169E14"/>
<path d="M30.25 30.8C30.25 33.6 28.725 35.2 25.95 35.2C23.175 35.2 21.65 33.6 21.65 30.8V29.425C21.65 27.75 22.15 26.45 23.35 25.775C22.2 25.15 21.65 23.975 21.65 22.25V21.7C21.65 18.9 23.175 17.3 25.95 17.3C28.725 17.3 30.25 18.9 30.25 21.7V22.25C30.25 23.975 29.675 25.15 28.55 25.775C29.75 26.45 30.25 27.75 30.25 29.425V30.8ZM24.4 30.725C24.4 32.275 25.075 32.7 25.95 32.7C26.825 32.7 27.475 32.275 27.5 30.725V29.1C27.5 27.725 26.925 27.125 25.95 27.125C24.975 27.125 24.4 27.725 24.4 29.1V30.725ZM24.4 21.8V22.775C24.4 24.175 25.05 24.625 25.95 24.625C26.825 24.625 27.5 24.175 27.5 22.775V21.8C27.5 20.225 26.825 19.8 25.95 19.8C25.075 19.8 24.4 20.225 24.4 21.8Z" fill="black"/>
</svg>
