<svg width="52" height="52" viewBox="0 0 52 52" fill="none" xmlns="http://www.w3.org/2000/svg">
<path d="M52 26C52 40.3626 40.3559 52 26 52C11.6441 52 0 40.3559 0 26C0 11.6441 11.6374 0 25.9933 0C40.3492 0 51.9933 11.6441 51.9933 26H52Z" fill="#FFFAEF"/>
<path d="M50.1585 26.0001C50.1585 39.3449 39.3381 50.1654 25.9932 50.1654C12.6484 50.1654 1.82788 39.3449 1.82788 26.0001C1.82788 12.6552 12.6484 1.83472 25.9932 1.83472C39.3381 1.83472 50.1585 12.6552 50.1585 26.0001Z" fill="#C309C7"/>
<path d="M41.4943 26.0001C41.4943 34.5574 34.5574 41.4943 26.0001 41.4943C17.4428 41.4943 10.5059 34.5574 10.5059 26.0001C10.5059 17.4428 17.4428 10.5059 26.0001 10.5059C34.5574 10.5059 41.4943 17.4428 41.4943 26.0001Z" fill="#A71CE8"/>
<path d="M38.749 26C38.749 33.044 33.0374 38.7556 25.9934 38.7556C18.9494 38.7556 13.2378 33.044 13.2378 26C13.2378 18.9559 18.9494 13.2444 25.9934 13.2444C33.0374 13.2444 38.749 18.9559 38.749 26Z" fill="#FFFAEF"/>
<path opacity="0.2" d="M39.3315 9.48142C44.0387 13.3449 45.5319 19.2975 42.6727 22.7794C39.8136 26.2612 33.6802 25.9532 28.973 22.0897C24.2658 18.2262 22.7727 12.2736 25.6318 8.79175C28.4909 5.30991 34.6243 5.61792 39.3315 9.48142Z" fill="#FFFAEF"/>
<path opacity="0.2" d="M48.7592 21.353C50.0046 22.3774 50.2724 24.1117 49.3551 25.2299C48.4378 26.3481 46.6834 26.4217 45.438 25.3973C44.1926 24.3728 43.9248 22.6386 44.8421 21.5204C45.7594 20.4021 47.5137 20.3285 48.7592 21.353Z" fill="#FFFAEF"/>
<path d="M21.35 31.825V29.325L26.35 17.5H29.35V29.325H30.65V31.825H29.35V35H26.65V31.825H21.35ZM23.875 29.325H26.65V22.75L23.875 29.325Z" fill="black"/>
<path opacity="0.2" d="M14.5835 14.5901C14.5835 10.5726 15.5678 6.78278 17.3087 3.44824C8.2559 6.93678 1.82788 15.715 1.82788 25.9999C1.82788 39.3447 12.6484 50.1652 25.9932 50.1652C35.3205 50.1652 43.4091 44.8755 47.4333 37.1418C44.7349 38.1796 41.8088 38.7555 38.7488 38.7555C25.404 38.7555 14.5835 27.935 14.5835 14.5901Z" fill="#A71CE8"/>
</svg>
