<svg width="52" height="52" viewBox="0 0 52 52" fill="none" xmlns="http://www.w3.org/2000/svg">
<path d="M52 26C52 40.3604 40.3604 52 26 52C11.6396 52 0 40.3604 0 26C0 11.6396 11.6396 0 26 0C40.3604 0 52 11.6396 52 26Z" fill="#FFFAEF"/>
<path d="M50.1597 25.9999C50.1597 39.3442 39.3386 50.1653 25.9943 50.1653C12.65 50.1653 1.82886 39.3442 1.82886 25.9999C1.82886 12.6556 12.65 1.83447 25.9943 1.83447C39.3386 1.83447 50.1597 12.6556 50.1597 25.9999Z" fill="#E2B133"/>
<path d="M41.4893 25.9999C41.4893 34.5574 34.5518 41.4949 25.9943 41.4949C17.4367 41.4949 10.4993 34.5574 10.4993 25.9999C10.4993 17.4423 17.4367 10.5049 25.9943 10.5049C34.5518 10.5049 41.4893 17.4423 41.4893 25.9999Z" fill="#DD8934"/>
<path d="M38.7516 26C38.7516 33.0447 33.0391 38.7572 25.9943 38.7572C18.9496 38.7572 13.2371 33.0447 13.2371 26C13.2371 18.9552 18.9496 13.2427 25.9943 13.2427C33.0391 13.2427 38.7516 18.9552 38.7516 26Z" fill="#FFFAEF"/>
<path opacity="0.2" d="M39.3331 9.47774C44.0409 13.3388 45.5368 19.2941 42.6748 22.7769C39.8129 26.2598 33.6826 25.9493 28.9805 22.0882C24.2784 18.2272 22.7769 12.2719 25.6388 8.78907C28.5007 5.30622 34.631 5.61105 39.3331 9.47774Z" fill="#FFFAEF"/>
<path opacity="0.2" d="M48.7598 21.3542C50.0073 22.3759 50.2726 24.1145 49.3581 25.2266C48.4437 26.3442 46.6881 26.4176 45.4406 25.3959C44.1931 24.3742 43.9278 22.6356 44.8423 21.5236C45.7568 20.4059 47.5123 20.3325 48.7598 21.3542Z" fill="#FFFAEF"/>
<path opacity="0.2" d="M14.5861 14.5918C14.5861 10.5727 15.574 6.78506 17.3069 3.44897C8.25265 6.93747 1.82886 15.7151 1.82886 26C1.82886 39.3443 12.65 50.1654 25.9943 50.1654C35.3195 50.1654 43.4085 44.8762 47.4389 37.1428C44.7407 38.1815 41.8167 38.7573 38.7516 38.7573C25.4072 38.7573 14.5861 27.9362 14.5861 14.5918Z" fill="#DD8934"/>
<path d="M21.875 29.35H24.475V30.975C24.475 32.225 25.025 32.675 25.9 32.675C26.775 32.675 27.325 32.225 27.325 30.975V27.125C27.325 25.875 26.775 25.4 25.9 25.4C25.025 25.4 24.475 25.875 24.475 27.125V27.65H21.875L22.375 17.5H29.625V20H24.85L24.625 24.175C25.125 23.35 25.925 22.9 27.025 22.9C29.05 22.9 30.075 24.325 30.075 26.9V30.8C30.075 33.6 28.675 35.2 25.975 35.2C23.275 35.2 21.875 33.6 21.875 30.8V29.35Z" fill="black"/>
</svg>
