<svg width="52" height="52" viewBox="0 0 52 52" fill="none" xmlns="http://www.w3.org/2000/svg">
<path d="M52 26C52 40.3604 40.3604 52 26 52C11.6396 52 0 40.3604 0 26C0 11.6396 11.6396 0 26 0C40.3604 0 52 11.6396 52 26Z" fill="#FFFAEF"/>
<path d="M50.1653 25.9999C50.1653 39.3499 39.3442 50.1653 25.9999 50.1653C12.6556 50.1653 1.83447 39.3442 1.83447 25.9999C1.83447 12.6556 12.6556 1.83447 25.9999 1.83447C39.3442 1.83447 50.1653 12.6556 50.1653 25.9999Z" fill="#8FC8CB"/>
<path d="M41.4949 25.9999C41.4949 34.5574 34.5574 41.4949 25.9999 41.4949C17.4424 41.4949 10.5049 34.5574 10.5049 25.9999C10.5049 17.4424 17.4424 10.5049 25.9999 10.5049C34.5574 10.5049 41.4949 17.4424 41.4949 25.9999Z" fill="#01838F"/>
<path d="M38.7572 26C38.7572 33.0447 33.0447 38.7572 25.9999 38.7572C18.9552 38.7572 13.2427 33.0447 13.2427 26C13.2427 18.9552 18.9552 13.2427 25.9999 13.2427C33.0447 13.2427 38.7572 18.9552 38.7572 26Z" fill="#FFFAEF"/>
<path opacity="0.2" d="M39.3387 9.48336C44.0464 13.3444 45.5423 19.2997 42.6804 22.7825C39.8185 26.2654 33.6882 25.9549 28.9861 22.0939C24.2839 18.2328 22.7881 12.2775 25.6443 8.79469C28.5063 5.31184 34.6365 5.61666 39.3387 9.48336Z" fill="#FFFAEF"/>
<path opacity="0.2" d="M48.7657 21.3542C50.0132 22.3759 50.2785 24.1145 49.364 25.2266C48.4495 26.3442 46.694 26.4176 45.4465 25.3959C44.199 24.3685 43.9337 22.6356 44.8482 21.5236C45.7626 20.4059 47.5182 20.3325 48.7657 21.3542Z" fill="#FFFAEF"/>
<path opacity="0.2" d="M14.5917 14.5918C14.5917 10.5727 15.5796 6.78503 17.3125 3.45459C8.25827 6.94308 1.83447 15.7208 1.83447 26.0056C1.83447 39.3556 12.6556 50.1711 25.9999 50.1711C35.3251 50.1711 43.4142 44.8819 47.4445 37.1485C44.7463 38.1871 41.8223 38.7629 38.7572 38.7629C25.4129 38.7629 14.5917 27.9418 14.5917 14.5974V14.5918Z" fill="#008DA5"/>
<path d="M27.3 22.775V21.8C27.3 20.225 26.75 19.8 25.875 19.8C25 19.8 24.45 20.275 24.45 21.525V22.65H21.85V21.7C21.85 18.9 23.25 17.3 25.95 17.3C28.65 17.3 30.05 18.9 30.05 21.7V22.15C30.05 24.025 29.45 25.2 28.125 25.75C29.5 26.35 30.05 27.65 30.05 29.425V30.8C30.05 33.6 28.65 35.2 25.95 35.2C23.25 35.2 21.85 33.6 21.85 30.8V29.35H24.45V30.975C24.45 32.225 25 32.7 25.875 32.7C26.75 32.7 27.3 32.275 27.3 30.725V29.35C27.3 27.725 26.75 27.125 25.5 27.125H24.575V24.625H25.65C26.675 24.625 27.3 24.175 27.3 22.775Z" fill="black"/>
</svg>
