<svg width="52" height="52" viewBox="0 0 52 52" fill="none" xmlns="http://www.w3.org/2000/svg">
<path d="M52 26C52 40.3604 40.3604 52 26 52C11.6396 52 0 40.3604 0 26C0 11.6396 11.6396 0 26 0C40.3604 0 52 11.6396 52 26Z" fill="#FFFAEF"/>
<path d="M50.3309 25.9999C50.3309 39.3442 39.5098 50.1654 26.1654 50.1654C12.8211 50.1654 2 39.3442 2 25.9999C2 12.6556 12.8211 1.83447 26.1654 1.83447C39.5098 1.83447 50.3309 12.6556 50.3309 25.9999Z" fill="#CB3C2C"/>
<path d="M41.4949 25.9999C41.4949 34.5574 34.5574 41.4949 25.9999 41.4949C17.4424 41.4949 10.5049 34.5574 10.5049 25.9999C10.5049 17.4424 17.4424 10.5049 25.9999 10.5049C34.5574 10.5049 41.4949 17.4424 41.4949 25.9999Z" fill="#732727"/>
<path d="M38.7572 26C38.7572 33.0447 33.0447 38.7572 25.9999 38.7572C18.9552 38.7572 13.2427 33.0447 13.2427 26C13.2427 18.9552 18.9552 13.2427 25.9999 13.2427C33.0447 13.2427 38.7572 18.9552 38.7572 26Z" fill="#FFFAEF"/>
<path opacity="0.2" d="M39.3388 9.48336C44.0409 13.3444 45.5368 19.2997 42.6805 22.7825C39.8186 26.2654 33.6884 25.9606 28.9862 22.0939C24.2785 18.2328 22.7826 12.2775 25.6445 8.79469C28.5064 5.31184 34.6367 5.61666 39.3388 9.48336Z" fill="#FFFAEF"/>
<path opacity="0.2" d="M48.76 21.3601C50.0075 22.3818 50.2728 24.1204 49.3584 25.2324C48.4439 26.3501 46.6884 26.4235 45.4409 25.4018C44.1934 24.38 43.9281 22.6414 44.8425 21.5294C45.757 20.4117 47.5125 20.3384 48.76 21.3601Z" fill="#FFFAEF"/>
<path d="M22.7 21.65V19.7C24.825 19.7 25.3 18.675 25.725 17.5H27.575V35H24.825V21.65H22.7Z" fill="black"/>
<path opacity="0.2" d="M14.592 14.5918C14.592 10.5727 15.5798 6.78506 17.3128 3.44897C8.25851 6.93747 1.83472 15.7152 1.83472 26C1.83472 39.3443 12.6558 50.1654 26.0002 50.1654C35.3254 50.1654 43.4144 44.8762 47.4391 37.1372C44.7409 38.1758 41.8169 38.7516 38.7518 38.7516C25.4074 38.7516 14.5863 27.9305 14.5863 14.5862L14.592 14.5918Z" fill="#7A2A2A"/>
</svg>
