<svg width="52" height="52" viewBox="0 0 52 52" fill="none" xmlns="http://www.w3.org/2000/svg">
<path d="M52 26C52 40.3604 40.3604 52 26 52C11.6396 52 0 40.3604 0 26C0 11.6396 11.6396 0 26 0C40.3604 0 52 11.6396 52 26Z" fill="#FFFAEF"/>
<path d="M50.1597 25.9999C50.1597 39.3442 39.3443 50.1653 25.9943 50.1653C12.6443 50.1653 1.82886 39.3442 1.82886 25.9999C1.82886 12.6556 12.65 1.83447 25.9943 1.83447C39.3386 1.83447 50.1597 12.6556 50.1597 25.9999Z" fill="#91AF4E"/>
<path d="M41.4893 25.9999C41.4893 34.5574 34.5518 41.4949 25.9943 41.4949C17.4367 41.4949 10.4993 34.5574 10.4993 25.9999C10.4993 17.4424 17.4367 10.5049 25.9943 10.5049C34.5518 10.5049 41.4893 17.4424 41.4893 25.9999Z" fill="#487149"/>
<path d="M38.7516 26C38.7516 33.0447 33.039 38.7572 25.9943 38.7572C18.9496 38.7572 13.2371 33.0447 13.2371 26C13.2371 18.9552 18.9496 13.2427 25.9943 13.2427C33.039 13.2427 38.7516 18.9552 38.7516 26Z" fill="#FFFAEF"/>
<path opacity="0.2" d="M39.3331 9.48336C44.0352 13.3444 45.5311 19.2997 42.6748 22.7825C39.8129 26.2654 33.6826 25.9606 28.9805 22.0939C24.2784 18.2328 22.7769 12.2775 25.6388 8.79469C28.5007 5.31184 34.631 5.61666 39.3331 9.48336Z" fill="#FFFAEF"/>
<path opacity="0.2" d="M48.7598 21.3601C50.0073 22.3818 50.2726 24.1204 49.3581 25.2324C48.4437 26.3501 46.6881 26.4235 45.4406 25.4018C44.1931 24.38 43.9278 22.6414 44.8423 21.5294C45.7568 20.4117 47.5123 20.3384 48.7598 21.3601Z" fill="#FFFAEF"/>
<path opacity="0.2" d="M14.5861 14.5918C14.5861 10.5727 15.574 6.78506 17.3069 3.44897C8.25266 6.93747 1.82886 15.7152 1.82886 26C1.82886 39.3443 12.65 50.1654 25.9943 50.1654C35.3195 50.1654 43.4086 44.8762 47.4389 37.1372C44.7407 38.1758 41.8167 38.7516 38.7516 38.7516C25.4072 38.7516 14.5861 27.9305 14.5861 14.5862V14.5918Z" fill="#487149"/>
<path d="M21.825 30.8V21.85C21.825 18.9 23.175 17.3 26.025 17.3C28.725 17.3 30.125 18.9 30.125 21.7V22.15H27.525V21.525C27.525 20.275 26.975 19.8 26.1 19.8C25.125 19.8 24.575 20.275 24.575 21.95V25.15C25.05 24.15 25.9 23.6 27.125 23.6C29.15 23.6 30.175 25.025 30.175 27.6V30.8C30.175 33.6 28.7 35.2 26 35.2C23.3 35.2 21.825 33.6 21.825 30.8ZM26 26.1C25.125 26.1 24.575 26.575 24.575 27.825V30.975C24.575 32.225 25.125 32.675 26 32.675C26.875 32.675 27.425 32.225 27.425 30.975V27.825C27.425 26.575 26.875 26.1 26 26.1Z" fill="black"/>
</svg>
