<svg width="52" height="52" viewBox="0 0 52 52" fill="none" xmlns="http://www.w3.org/2000/svg">
<path d="M52 26C52 40.3626 40.3559 52 26 52C11.6441 52 0 40.3559 0 26C0 11.6441 11.6374 0 25.9933 0C40.3492 0 51.9933 11.6441 51.9933 26H52Z" fill="#FFFAEF"/>
<path d="M50.1585 26.0001C50.1585 39.3449 39.3381 50.1654 25.9932 50.1654C12.6484 50.1654 1.82788 39.3449 1.82788 26.0001C1.82788 12.6552 12.6484 1.83472 25.9932 1.83472C39.3381 1.83472 50.1585 12.6552 50.1585 26.0001Z" fill="#5A0808"/>
<path d="M41.4943 26.0001C41.4943 34.5574 34.5574 41.4943 26.0001 41.4943C17.4428 41.4943 10.5059 34.5574 10.5059 26.0001C10.5059 17.4428 17.4428 10.5059 26.0001 10.5059C34.5574 10.5059 41.4943 17.4428 41.4943 26.0001Z" fill="#580606"/>
<path d="M38.749 26C38.749 33.044 33.0374 38.7556 25.9934 38.7556C18.9494 38.7556 13.2378 33.044 13.2378 26C13.2378 18.9559 18.9494 13.2444 25.9934 13.2444C33.0374 13.2444 38.749 18.9559 38.749 26Z" fill="#FFFAEF"/>
<path opacity="0.2" d="M39.3315 9.48142C44.0387 13.3449 45.5319 19.2975 42.6727 22.7794C39.8136 26.2612 33.6802 25.9532 28.973 22.0897C24.2658 18.2262 22.7727 12.2736 25.6318 8.79175C28.4909 5.30991 34.6243 5.61792 39.3315 9.48142Z" fill="#FFFAEF"/>
<path opacity="0.2" d="M48.7592 21.353C50.0046 22.3774 50.2724 24.1117 49.3551 25.2299C48.4378 26.3481 46.6834 26.4217 45.438 25.3973C44.1926 24.3728 43.9248 22.6386 44.8421 21.5204C45.7594 20.4021 47.5137 20.3285 48.7592 21.353Z" fill="#FFFAEF"/>
<path opacity="0.2" d="M14.5835 14.5904C14.5835 10.5729 15.5678 6.78302 17.3087 3.44849C8.2559 6.93703 1.82788 15.7153 1.82788 26.0001C1.82788 39.345 12.6484 50.1655 25.9932 50.1655C35.3205 50.1655 43.4091 44.8757 47.4333 37.142C44.7349 38.1799 41.8088 38.7557 38.7488 38.7557C25.404 38.7557 14.5835 27.9352 14.5835 14.5904Z" fill="#580606"/>
<path d="M30.075 21.7V30.65C30.075 33.6 28.725 35.2 25.875 35.2C23.175 35.2 21.775 33.6 21.775 30.8V30.35H24.375V30.975C24.375 32.225 24.925 32.7 25.8 32.7C26.775 32.7 27.325 32.225 27.325 30.55V27.35C26.85 28.35 26 28.9 24.775 28.9C22.75 28.9 21.725 27.475 21.725 24.9V21.7C21.725 18.9 23.2 17.3 25.9 17.3C28.6 17.3 30.075 18.9 30.075 21.7ZM25.9 26.4C26.775 26.4 27.325 25.925 27.325 24.675V21.525C27.325 20.275 26.775 19.825 25.9 19.825C25.025 19.825 24.475 20.275 24.475 21.525V24.675C24.475 25.925 25.025 26.4 25.9 26.4Z" fill="black"/>
</svg>
