<svg width="123" height="114" viewBox="0 0 123 114" fill="none" xmlns="http://www.w3.org/2000/svg">
<g clip-path="url(#clip0_386_1829)">
<path d="M37.8262 22.262C28.8731 23.1119 21.2718 31.1517 20.9316 40.1392L19.5175 77.1942C19.1774 86.1816 26.2451 93.9124 35.2205 94.3924L80.8654 96.8025C89.8424 97.2726 99.5896 90.7066 102.506 82.1981L120.68 29.401C123.606 20.8941 118.675 14.6356 109.723 15.4756L37.8262 22.262Z" fill="url(#paint0_linear_386_1829)"/>
<path d="M71.3221 32.6908C71.1266 36.6225 70.9745 40.5325 70.8659 44.4207C70.779 48.2872 70.7356 52.1646 70.7356 56.0528C70.7356 57.3127 70.7247 58.9527 70.703 60.9729C70.6813 62.993 70.6704 64.3941 70.6704 65.1761C70.6704 68.3258 70.7573 70.6609 70.9311 72.1814C71.1049 73.702 71.3981 74.7989 71.8108 75.4723C72.2018 76.0805 72.7992 76.5258 73.6029 76.8082C74.4283 77.0689 75.6122 77.1992 77.1545 77.1992L77.8713 77.1992L77.8713 80.1317C75.3081 80.0013 73.0273 79.9036 71.0288 79.8384C69.0304 79.7733 67.3144 79.7407 65.8807 79.7407C64.5122 79.7407 61.8079 79.8276 57.7676 80.0013C56.3556 80.0665 55.2804 80.11 54.5418 80.1317L54.5093 77.1992C57.2897 77.1992 59.1035 77.0363 59.9506 76.7105C60.7978 76.3846 61.4386 75.7873 61.873 74.9184C62.2423 74.1798 62.4921 72.4204 62.6224 69.6399C62.7745 66.8595 62.8505 60.419 62.8505 50.3182C62.8505 48.1677 62.8071 45.2244 62.7202 41.4882C62.6985 40.1415 62.6767 39.1422 62.655 38.4906L61.5146 38.4906C60.9281 38.4906 59.9398 38.5449 58.5496 38.6535C57.1593 38.7621 55.6171 38.9033 53.9228 39.0771L53.4666 35.8839C56.3774 35.4712 59.3207 35.0042 62.2966 34.4829C65.2942 33.9398 68.3027 33.3425 71.3221 32.6908Z" fill="white"/>
<g style="mix-blend-mode:multiply">
<path d="M96.1212 91.19L97.5456 86.7987C98.5354 83.746 96.7278 81.4145 93.5253 81.6261L39.284 85.1645C36.0815 85.3761 32.8647 88.1065 32.1271 91.2296L31.5358 93.7481C32.7173 94.0871 33.9374 94.3107 35.2121 94.381L80.857 96.7911C86.209 97.0718 91.8284 94.8333 96.1212 91.19Z" fill="#EB9391"/>
</g>
<path d="M36.7675 80.5338C33.565 80.7454 30.3482 83.4758 29.6106 86.5989L27.5956 95.2299C26.8679 98.3545 28.8915 100.983 32.1095 101.058L82.6195 102.284C85.826 102.367 89.2703 99.9258 90.2601 96.873L95.0406 82.1597C96.0303 79.107 94.2228 76.7755 91.0203 76.9871L36.779 80.5255L36.7675 80.5338Z" fill="url(#paint1_linear_386_1829)"/>
<path d="M37.2759 86.076L39.1961 86.0318L41.9123 92.2492L42.0138 92.2469L44.4408 85.9109L46.3611 85.8667L46.5607 94.5289L45.0549 94.5636L44.9178 88.6125L44.8374 88.6144L42.58 94.5952L41.4549 94.6212L38.9241 88.7379L38.8438 88.7398L38.9812 94.7035L37.4755 94.7382L37.2759 86.076ZM48.2018 94.4911L48.0521 87.9944L49.5832 87.9591L49.7329 94.4558L48.2018 94.4911ZM48.8006 87.0546C48.5581 87.0602 48.3476 86.9846 48.1691 86.8279C47.9905 86.6684 47.8985 86.4745 47.8933 86.2461C47.8879 86.0149 47.9708 85.8169 48.142 85.6521C48.313 85.4845 48.5198 85.398 48.7623 85.3924C49.0076 85.3867 49.2182 85.4637 49.3939 85.6233C49.5725 85.78 49.6644 85.9739 49.6697 86.2051C49.675 86.4335 49.5921 86.6315 49.421 86.7991C49.2527 86.9638 49.0459 87.049 48.8006 87.0546ZM52.7508 90.5776L52.8385 94.3842L51.3073 94.4195L51.1576 87.9228L52.6211 87.8891L52.6465 88.993L52.7227 88.9913C52.8637 88.6241 53.0953 88.3296 53.4175 88.1078C53.7425 87.8859 54.1474 87.7693 54.6324 87.7581C55.0808 87.7478 55.4735 87.8347 55.8107 88.0188C56.1506 88.2028 56.4165 88.4745 56.6081 88.8341C56.8026 89.1935 56.9044 89.6327 56.9135 90.1516L57.0089 94.2881L55.4777 94.3234L55.3879 90.4237C55.3779 89.9895 55.2573 89.6523 55.026 89.4122C54.7976 89.172 54.486 89.0565 54.0913 89.0656C53.8234 89.0717 53.5865 89.1364 53.3806 89.2597C53.1774 89.38 53.0191 89.5515 52.9057 89.7742C52.7952 89.9968 52.7435 90.2646 52.7508 90.5776ZM62.6432 91.4245L62.5565 87.6602L64.0876 87.6249L64.2373 94.1216L62.7527 94.1558L62.7261 93.0011L62.6584 93.0027C62.5202 93.3698 62.2859 93.6728 61.9557 93.9118C61.6283 94.1507 61.2207 94.2757 60.7329 94.287C60.3071 94.2968 59.9285 94.211 59.597 94.0296C59.2683 93.8453 59.0082 93.5734 58.8165 93.2139C58.6248 92.8516 58.5229 92.411 58.511 91.8922L58.4157 87.7556L59.9468 87.7203L60.0366 91.62C60.0461 92.0317 60.1665 92.3562 60.3976 92.5935C60.6288 92.8308 60.9277 92.9452 61.2942 92.9368C61.5198 92.9316 61.7371 92.8716 61.946 92.7567C62.155 92.6419 62.3246 92.4743 62.4549 92.2541C62.588 92.031 62.6508 91.7544 62.6432 91.4245ZM68.9062 87.5139L68.9334 88.6982L65.1987 88.7842L65.1714 87.5999L68.9062 87.5139ZM66.0576 86.0222L67.5887 85.9869L67.7293 92.086C67.734 92.2918 67.7687 92.449 67.8332 92.5576C67.9005 92.6632 67.9868 92.7346 68.0921 92.7717C68.1973 92.8087 68.3134 92.8258 68.4403 92.8229C68.5361 92.8207 68.6234 92.8116 68.702 92.7957C68.7835 92.7797 68.8452 92.7656 68.8872 92.7533L69.1728 93.9444C69.0917 93.9745 68.9754 94.0082 68.8239 94.0455C68.6752 94.0828 68.4924 94.1068 68.2754 94.1174C67.8922 94.1375 67.5455 94.0877 67.2352 93.9679C66.9248 93.8452 66.6763 93.6507 66.4896 93.3841C66.3057 93.1175 66.2105 92.7812 66.204 92.3751L66.0576 86.0222ZM73.1456 94.0433C72.4943 94.0583 71.9286 93.9359 71.4487 93.6761C70.9715 93.4135 70.6002 93.0355 70.335 92.5423C70.0696 92.0462 69.9291 91.4584 69.9135 90.7788C69.8981 90.1105 70.0114 89.5211 70.2536 89.0105C70.4985 88.4971 70.8475 88.094 71.3006 87.8015C71.7537 87.5061 72.2904 87.3513 72.9107 87.337C73.3111 87.3277 73.6905 87.3839 74.0487 87.5054C74.4098 87.624 74.7301 87.8141 75.0098 88.0757C75.2923 88.3372 75.5173 88.6734 75.6848 89.0843C75.8521 89.4923 75.9424 89.9811 75.9555 90.5507L75.9663 91.0202L70.6413 91.1429L70.6175 90.1109L74.4749 90.022C74.4653 89.7288 74.3959 89.4695 74.2665 89.2439C74.1371 89.0156 73.9595 88.8377 73.7337 88.7103C73.5107 88.5828 73.2526 88.5225 72.9593 88.5292C72.6464 88.5364 72.3732 88.6189 72.1398 88.7766C71.9064 88.9315 71.7263 89.1332 71.5994 89.3815C71.4753 89.627 71.4152 89.895 71.419 90.1855L71.4398 91.0864C71.4485 91.4643 71.525 91.7869 71.6694 92.0545C71.8138 92.3192 72.0117 92.5205 72.2631 92.6586C72.5145 92.7939 72.8066 92.8577 73.1393 92.85C73.3621 92.8449 73.563 92.8092 73.742 92.743C73.921 92.674 74.0753 92.576 74.205 92.4488C74.3346 92.3217 74.4312 92.1657 74.4946 91.9809L75.9279 92.1087C75.8464 92.4886 75.682 92.8225 75.4347 93.1103C75.1902 93.3952 74.8738 93.6198 74.4854 93.7839C74.097 93.9452 73.6504 94.0316 73.1456 94.0433ZM82.3515 88.9222L80.9592 89.1066C80.9165 88.9665 80.8444 88.8356 80.7428 88.7138C80.6441 88.592 80.5121 88.4948 80.3468 88.4225C80.1815 88.3501 79.9804 88.3167 79.7435 88.3221C79.4249 88.3295 79.1586 88.4047 78.9447 88.5479C78.7336 88.691 78.6319 88.8725 78.6398 89.0924C78.6414 89.2813 78.714 89.4334 78.8577 89.5486C79.0042 89.6637 79.2433 89.7555 79.575 89.8241L80.6886 90.0354C81.3064 90.1538 81.768 90.3533 82.0735 90.634C82.3819 90.9147 82.5428 91.2876 82.5564 91.7528C82.563 92.1617 82.4514 92.5254 82.2218 92.8439C81.9949 93.1594 81.6748 93.4094 81.2615 93.5939C80.8482 93.7783 80.3709 93.8768 79.8295 93.8893C79.0343 93.9076 78.3904 93.756 77.8977 93.4344C77.405 93.11 77.1052 92.65 76.9984 92.0544L78.4882 91.8762C78.5626 92.1679 78.7115 92.3859 78.9349 92.5303C79.1583 92.6747 79.4462 92.7428 79.7987 92.7347C80.1624 92.7263 80.4525 92.6448 80.669 92.4903C80.8883 92.3358 80.9955 92.1485 80.9904 91.9286C80.9861 91.7425 80.9107 91.5904 80.7641 91.4725C80.6203 91.3545 80.3982 91.2665 80.0978 91.2085L78.9843 91.0015C78.3581 90.8861 77.8921 90.6782 77.5861 90.3777C77.2801 90.0744 77.123 89.6859 77.1149 89.2121C77.1028 88.8118 77.2034 88.4625 77.4166 88.1641C77.6325 87.8629 77.936 87.6274 78.3271 87.4576C78.7209 87.2849 79.1772 87.1926 79.6961 87.1806C80.4574 87.1631 81.0603 87.3114 81.5049 87.6256C81.9522 87.9397 82.2344 88.3719 82.3515 88.9222Z" fill="white"/>
<path style="mix-blend-mode:overlay" opacity="0.4" d="M109.713 15.474L40.0258 22.0535L102.261 82.787C102.334 82.5859 102.436 82.3894 102.498 82.1867L120.671 29.3896C123.598 20.8827 118.666 14.6241 109.715 15.4641L109.713 15.474Z" fill="url(#paint2_linear_386_1829)"/>
<path style="mix-blend-mode:overlay" opacity="0.4" d="M39.0893 80.3852L36.7675 80.5338C33.565 80.7454 30.3482 83.4758 29.6106 86.5989L27.5956 95.2299C26.8678 98.3545 28.8915 100.983 32.1095 101.058L62.3971 101.795L39.0893 80.3852Z" fill="url(#paint3_linear_386_1829)"/>
<g style="mix-blend-mode:multiply">
<path d="M46.7951 50.6546C48.4095 40.4616 41.4602 30.8968 31.2672 29.2824C29.1635 28.9491 27.0907 28.9955 25.1108 29.3501C22.6415 32.4115 21.0822 36.184 20.9316 40.1392L20.0066 64.4538C21.6771 65.2854 23.4953 65.8872 25.4312 66.1938C35.6241 67.8082 45.1905 60.8491 46.8034 50.666L46.7951 50.6546Z" fill="#EB9391"/>
</g>
<path d="M45.736 46.1535C44.1216 56.3465 34.5469 63.2942 24.3638 61.6813C14.1807 60.0685 7.21169 50.5005 8.82609 40.3076C10.4405 30.1146 20.0054 23.1653 30.1983 24.7797C40.3913 26.3941 47.339 35.9689 45.7261 46.1519L45.736 46.1535Z" fill="url(#paint4_linear_386_1829)"/>
<g clip-path="url(#clip1_386_1829)">
<path d="M25.6328 39.581C25.6328 38.9831 26.1184 38.4981 26.7176 38.4981C27.3169 38.4981 27.8025 38.9831 27.8025 39.581L27.8025 44.119L30.8106 45.4385C31.3586 45.6791 31.6071 46.3172 31.3659 46.8636C31.1248 47.4099 30.4853 47.658 29.9378 47.4177L26.3366 45.8379C25.9252 45.684 25.6328 45.2883 25.6328 44.8242L25.6328 39.581ZM17.2213 39.8978C17.1901 39.8057 17.1708 39.7079 17.1655 39.606L17.0014 36.5983C16.9707 36.0028 17.4301 35.4953 18.0268 35.465C18.6236 35.4343 19.1322 35.8927 19.1626 36.4882L19.1929 37.0448C19.6399 36.4708 20.1459 35.9452 20.7027 35.4765C21.4397 34.856 22.2769 34.3268 23.2051 33.9139C25.8575 32.7331 28.736 32.736 31.2449 33.6949C33.7284 34.6444 35.8535 36.5299 37.0446 39.1312C37.0761 39.1877 37.1028 39.2475 37.1241 39.3097C38.2668 41.9315 38.2533 44.7665 37.3034 47.2417C36.3518 49.7199 34.4622 51.8403 31.8553 53.0284C31.6938 53.1187 31.5117 53.1659 31.3266 53.1655C30.7273 53.1655 30.2417 52.6809 30.2417 52.083C30.2417 51.6123 30.5428 51.212 30.9632 51.0631C31.2786 50.9186 31.5809 50.7573 31.8692 50.5801C31.902 50.5531 31.9369 50.5277 31.9738 50.504C32.4385 50.2044 32.8802 49.8615 33.2797 49.4792C33.306 49.4542 33.3335 49.4305 33.3618 49.4088C34.2091 48.5698 34.858 47.5646 35.2776 46.4719C36.043 44.4788 36.0475 42.1967 35.1094 40.0988L35.109 40.0975C34.171 37.9996 32.468 36.4788 30.4734 35.7163C28.476 34.953 26.1889 34.9485 24.0865 35.8841C23.3696 36.2027 22.7013 36.6206 22.1013 37.1254C21.6969 37.4659 21.3302 37.84 21.0042 38.2423L21.1457 38.2247C21.74 38.1523 22.281 38.5746 22.3536 39.1677C22.4262 39.7607 22.0029 40.3005 21.4086 40.373L18.412 40.7413C17.8517 40.8092 17.339 40.438 17.2213 39.8978ZM28.6273 53.9341C29.4837 53.8383 29.8922 52.8319 29.3435 52.1677C29.1093 51.8841 28.7532 51.7445 28.3882 51.7822C27.75 51.8538 27.1114 51.8526 26.4736 51.7768C26.0905 51.7314 25.7169 51.8882 25.4814 52.1931C24.9745 52.8655 25.3768 53.8207 26.2123 53.9263C27.0154 54.0221 27.8234 54.0241 28.6273 53.9341ZM21.7064 52.2696C22.0312 52.4849 22.4352 52.5094 22.7859 52.3408C23.5361 51.97 23.605 50.9325 22.9093 50.468C22.3839 50.1222 21.8782 49.692 21.4488 49.2336C21.0558 48.8162 20.4119 48.7732 19.9677 49.1358C19.853 49.2297 19.7588 49.346 19.6909 49.4776C19.6231 49.6092 19.583 49.7534 19.5732 49.901C19.5634 50.0487 19.5841 50.1969 19.6339 50.3363C19.6838 50.4757 19.7618 50.6034 19.8631 50.7115C20.4103 51.2927 21.0386 51.8305 21.7064 52.2696ZM17.4481 46.5865C17.5679 46.9728 17.8878 47.2544 18.2852 47.3305C19.0867 47.4791 19.7622 46.7232 19.521 45.9464C19.3299 45.3325 19.2138 44.7079 19.1667 44.0666C19.1109 43.3164 18.3377 42.8544 17.6466 43.1527C17.2254 43.343 16.9715 43.758 17.0023 44.2197C17.0605 45.0243 17.2082 45.8158 17.4481 46.5865Z" fill="#FCF9F9"/>
</g>
</g>
<defs>
<linearGradient id="paint0_linear_386_1829" x1="48.1612" y1="0.926047" x2="95.786" y2="109.543" gradientUnits="userSpaceOnUse">
<stop stop-color="#0081FF"/>
<stop offset="1" stop-color="#0C75DB"/>
</linearGradient>
<linearGradient id="paint1_linear_386_1829" x1="56.0153" y1="81.8713" x2="101.644" y2="139.934" gradientUnits="userSpaceOnUse">
<stop stop-color="#FFBA00"/>
<stop offset="1" stop-color="#FF6F00"/>
</linearGradient>
<linearGradient id="paint2_linear_386_1829" x1="59.9381" y1="72.125" x2="104.987" y2="-7.04248" gradientUnits="userSpaceOnUse">
<stop stop-color="white"/>
<stop offset="1" stop-color="#4F80C1" stop-opacity="0"/>
</linearGradient>
<linearGradient id="paint3_linear_386_1829" x1="55.9646" y1="84.5564" x2="18.5527" y2="117.358" gradientUnits="userSpaceOnUse">
<stop stop-color="white"/>
<stop offset="1" stop-color="#4F80C1" stop-opacity="0"/>
</linearGradient>
<linearGradient id="paint4_linear_386_1829" x1="22.5154" y1="37.1704" x2="57.7639" y2="82.0166" gradientUnits="userSpaceOnUse">
<stop stop-color="#FFBA00"/>
<stop offset="1" stop-color="#FF6F00"/>
</linearGradient>
<clipPath id="clip0_386_1829">
<rect width="109.01" height="97.23" fill="white" transform="translate(15.2102) rotate(9)"/>
</clipPath>
<clipPath id="clip1_386_1829">
<rect width="21" height="21" fill="white" transform="translate(17 33)"/>
</clipPath>
</defs>
</svg>
