<svg width="23" height="24" viewBox="0 0 23 24" fill="none" xmlns="http://www.w3.org/2000/svg">
<path fill-rule="evenodd" clip-rule="evenodd" d="M10.7565 1.58469C11.0977 1.318 11.5754 1.318 11.9165 1.58469L20.4189 8.23132C20.649 8.41121 20.7836 8.68781 20.7836 8.98083V19.4255C20.7836 20.181 20.485 20.9056 19.9535 21.4398C19.422 21.974 18.7012 22.2741 17.9495 22.2741H4.72354C3.97188 22.2741 3.25101 21.974 2.7195 21.4398C2.188 20.9056 1.8894 20.181 1.8894 19.4255V8.98083C1.8894 8.68781 2.024 8.41121 2.25412 8.23132L10.7565 1.58469ZM3.77883 9.44522V19.4255C3.77883 19.6774 3.87836 19.9189 4.05553 20.0969C4.23269 20.275 4.47299 20.3751 4.72354 20.3751H17.9495C18.2001 20.3751 18.4403 20.275 18.6175 20.0969C18.7947 19.9189 18.8942 19.6774 18.8942 19.4255V9.44522L11.3365 3.5371L3.77883 9.44522Z" fill="black"/>
<path fill-rule="evenodd" clip-rule="evenodd" d="M7.55774 11.8294C7.55774 11.305 7.9807 10.8799 8.50245 10.8799H14.1707C14.6925 10.8799 15.1154 11.305 15.1154 11.8294V21.3246C15.1154 21.849 14.6925 22.2741 14.1707 22.2741C13.649 22.2741 13.226 21.849 13.226 21.3246V12.7789H9.44716V21.3246C9.44716 21.849 9.0242 22.2741 8.50245 22.2741C7.9807 22.2741 7.55774 21.849 7.55774 21.3246V11.8294Z" fill="black"/>
</svg>
