<svg width="123" height="114" viewBox="0 0 123 114" fill="none" xmlns="http://www.w3.org/2000/svg">
<g clip-path="url(#clip0_386_1815)">
<path d="M37.8259 22.262C28.8727 23.1119 21.2714 31.1517 20.9313 40.1392L19.5172 77.1942C19.177 86.1816 26.2447 93.9124 35.2201 94.3924L80.865 96.8025C89.842 97.2726 99.5892 90.7066 102.506 82.1981L120.679 29.401C123.606 20.8941 118.674 14.6356 109.723 15.4756L37.8259 22.262Z" fill="url(#paint0_linear_386_1815)"/>
<path d="M69.9333 54.5866C70.3461 54.5649 70.7371 54.554 71.1063 54.554C71.4756 54.5323 71.8557 54.5214 72.2467 54.5214C75.4399 54.5214 78.0356 55.5098 80.0341 57.4865C82.0542 59.4415 83.0643 61.9829 83.0643 65.1109C83.0643 69.5856 81.1962 73.387 77.46 76.515C73.7238 79.6429 69.1405 81.2069 63.71 81.2069C60.191 81.2069 57.2151 80.4575 54.7822 78.9587C52.3711 77.4599 51.1655 75.7113 51.1655 73.7128C51.1655 72.6485 51.5674 71.7361 52.3711 70.9759C53.1965 70.1939 54.1523 69.8029 55.2384 69.8029C56.3462 69.8029 57.4432 70.6392 58.5293 72.3118C58.7248 72.6159 58.866 72.8331 58.9529 72.9634C59.7783 74.2233 60.6255 75.1139 61.4943 75.6352C62.3849 76.1348 63.4602 76.3846 64.7201 76.3846C67.4136 76.3846 69.6618 75.4723 71.4647 73.6477C73.2894 71.823 74.2017 69.5531 74.2017 66.8378C74.2017 64.2095 73.4632 62.135 71.9861 60.6145C70.5307 59.0722 68.554 58.3011 66.056 58.3011C65.3391 58.3011 64.5354 58.3988 63.6448 58.5943C62.7759 58.7898 61.5704 59.1374 60.0281 59.637L58.9203 56.7045C63.1995 54.9667 66.3601 53.153 68.4019 51.2631C70.4438 49.3733 71.4647 47.3206 71.4647 45.1049C71.4647 43.1065 70.8457 41.4882 69.6075 40.2501C68.3694 38.9902 66.7619 38.3603 64.7852 38.3603C63.0909 38.3603 61.5052 38.8164 60.0281 39.7288C58.5727 40.6411 57.1065 42.0965 55.6294 44.0949L52.5666 42.1073C54.3261 39.0228 56.444 36.6985 58.9203 35.1345C61.3966 33.5488 64.177 32.756 67.2615 32.756C70.8674 32.756 73.8759 33.7986 76.287 35.884C78.7199 37.9693 79.9363 40.5542 79.9363 43.6387C79.9363 46.0499 79.1109 48.1569 77.46 49.9598C75.8309 51.741 73.322 53.2833 69.9333 54.5866Z" fill="white"/>
<g style="mix-blend-mode:multiply">
<path d="M96.1209 91.1899L97.5454 86.7987C98.5351 83.746 96.7276 81.4145 93.5251 81.6261L39.2837 85.1645C36.0812 85.3761 32.8645 88.1065 32.1268 91.2295L31.5356 93.7481C32.7171 94.0871 33.9371 94.3107 35.2118 94.3809L80.8568 96.7911C86.2088 97.0718 91.8281 94.8333 96.1209 91.1899Z" fill="#EB9391"/>
</g>
<path d="M36.7671 80.5338C33.5646 80.7454 30.3479 83.4758 29.6102 86.5989L27.5952 95.2299C26.8675 98.3545 28.8911 100.983 32.1091 101.058L82.6191 102.284C85.8257 102.367 89.27 99.9258 90.2597 96.873L95.0402 82.1597C96.03 79.107 94.2224 76.7755 91.0199 76.9871L36.7786 80.5255L36.7671 80.5338Z" fill="url(#paint1_linear_386_1815)"/>
<path d="M37.2757 86.076L39.196 86.0317L41.9122 92.2492L42.0137 92.2469L44.4407 85.9109L46.3609 85.8666L46.5605 94.5289L45.0548 94.5636L44.9177 88.6125L44.8373 88.6144L42.5799 94.5952L41.4548 94.6211L38.924 88.7379L38.8437 88.7398L38.9811 94.7035L37.4753 94.7382L37.2757 86.076ZM48.2016 94.4911L48.0519 87.9944L49.5831 87.9591L49.7328 94.4558L48.2016 94.4911ZM48.8005 87.0546C48.558 87.0602 48.3475 86.9846 48.1689 86.8279C47.9903 86.6684 47.8984 86.4745 47.8932 86.2461C47.8878 86.0148 47.9707 85.8169 48.1418 85.6521C48.3129 85.4845 48.5197 85.3979 48.7622 85.3924C49.0075 85.3867 49.218 85.4637 49.3938 85.6232C49.5723 85.7799 49.6643 85.9739 49.6696 86.2051C49.6749 86.4335 49.592 86.6315 49.4209 86.7991C49.2526 86.9638 49.0458 87.0489 48.8005 87.0546ZM52.7506 90.5776L52.8383 94.3842L51.3072 94.4195L51.1575 87.9228L52.621 87.8891L52.6464 88.993L52.7225 88.9913C52.8636 88.6241 53.0952 88.3296 53.4174 88.1077C53.7423 87.8858 54.1473 87.7693 54.6323 87.7581C55.0807 87.7478 55.4734 87.8347 55.8105 88.0187C56.1505 88.2027 56.4163 88.4745 56.608 88.834C56.8025 89.1935 56.9043 89.6327 56.9134 90.1516L57.0087 94.2881L55.4776 94.3234L55.3878 90.4237C55.3778 89.9895 55.2571 89.6523 55.0259 89.4122C54.7975 89.172 54.4859 89.0564 54.0911 89.0655C53.8233 89.0717 53.5864 89.1364 53.3804 89.2597C53.1773 89.38 53.019 89.5515 52.9056 89.7742C52.7951 89.9968 52.7434 90.2646 52.7506 90.5776ZM62.6431 91.4245L62.5563 87.6602L64.0875 87.6249L64.2372 94.1216L62.7526 94.1558L62.7259 93.0011L62.6583 93.0027C62.52 93.3698 62.2858 93.6728 61.9556 93.9118C61.6282 94.1507 61.2206 94.2757 60.7328 94.287C60.307 94.2968 59.9284 94.211 59.5969 94.0296C59.2682 93.8453 59.008 93.5734 58.8164 93.2139C58.6247 92.8516 58.5228 92.411 58.5109 91.8921L58.4155 87.7556L59.9467 87.7203L60.0365 91.62C60.046 92.0317 60.1663 92.3562 60.3975 92.5935C60.6287 92.8308 60.9275 92.9452 61.2941 92.9368C61.5197 92.9316 61.7369 92.8715 61.9459 92.7567C62.1548 92.6419 62.3245 92.4743 62.4548 92.2541C62.5879 92.031 62.6507 91.7544 62.6431 91.4245ZM68.906 87.5139L68.9333 88.6981L65.1986 88.7842L65.1713 87.5999L68.906 87.5139ZM66.0575 86.0222L67.5886 85.9869L67.7291 92.086C67.7339 92.2918 67.7685 92.449 67.8331 92.5576C67.9004 92.6632 67.9867 92.7346 68.0919 92.7717C68.1972 92.8087 68.3133 92.8258 68.4401 92.8229C68.536 92.8207 68.6233 92.8116 68.7019 92.7957C68.7833 92.7797 68.8451 92.7656 68.8871 92.7533L69.1727 93.9444C69.0916 93.9745 68.9753 94.0082 68.8238 94.0455C68.6751 94.0828 68.4923 94.1068 68.2753 94.1174C67.8921 94.1375 67.5453 94.0877 67.2351 93.9679C66.9247 93.8452 66.6762 93.6507 66.4895 93.3841C66.3056 93.1175 66.2104 92.7812 66.2039 92.375L66.0575 86.0222ZM73.1455 94.0433C72.4942 94.0583 71.9285 93.9359 71.4486 93.6761C70.9714 93.4134 70.6001 93.0355 70.3348 92.5422C70.0695 92.0462 69.929 91.4584 69.9133 90.7788C69.8979 90.1105 70.0113 89.5211 70.2535 89.0105C70.4984 88.497 70.8474 88.094 71.3005 87.8015C71.7535 87.5061 72.2902 87.3512 72.9106 87.3369C73.311 87.3277 73.6903 87.3839 74.0486 87.5054C74.4096 87.624 74.73 87.8141 75.0097 88.0757C75.2922 88.3372 75.5172 88.6734 75.6846 89.0843C75.852 89.4923 75.9423 89.9811 75.9554 90.5507L75.9662 91.0202L70.6411 91.1429L70.6174 90.1109L74.4748 90.022C74.4652 89.7288 74.3957 89.4694 74.2664 89.2439C74.137 89.0155 73.9594 88.8377 73.7336 88.7103C73.5106 88.5828 73.2525 88.5225 72.9592 88.5292C72.6462 88.5364 72.3731 88.6189 72.1397 88.7766C71.9063 88.9315 71.7261 89.1332 71.5993 89.3815C71.4752 89.627 71.415 89.895 71.4189 90.1855L71.4397 91.0864C71.4484 91.4643 71.5249 91.7869 71.6693 92.0544C71.8137 92.3191 72.0116 92.5205 72.263 92.6586C72.5144 92.7939 72.8065 92.8577 73.1392 92.85C73.3619 92.8449 73.5628 92.8092 73.7419 92.743C73.9208 92.674 74.0752 92.576 74.2048 92.4488C74.3345 92.3217 74.4311 92.1657 74.4945 91.9809L75.9278 92.1087C75.8463 92.4886 75.6819 92.8225 75.4346 93.1103C75.1901 93.3952 74.8736 93.6198 74.4853 93.7839C74.0968 93.9452 73.6503 94.0316 73.1455 94.0433ZM82.3514 88.9222L80.9591 89.1066C80.9164 88.9665 80.8442 88.8356 80.7427 88.7138C80.644 88.5919 80.5119 88.4948 80.3466 88.4225C80.1813 88.3501 79.9803 88.3166 79.7434 88.3221C79.4248 88.3294 79.1585 88.4047 78.9446 88.5479C78.7334 88.691 78.6318 88.8725 78.6397 89.0923C78.6412 89.2813 78.7139 89.4334 78.8576 89.5486C79.0041 89.6637 79.2432 89.7555 79.5749 89.8241L80.6885 90.0354C81.3063 90.1538 81.7679 90.3533 82.0734 90.634C82.3818 90.9147 82.5427 91.2876 82.5562 91.7528C82.5628 92.1617 82.4513 92.5254 82.2217 92.8439C81.9948 93.1594 81.6747 93.4094 81.2614 93.5939C80.8481 93.7783 80.3708 93.8768 79.8294 93.8892C79.0342 93.9076 78.3903 93.756 77.8976 93.4344C77.4049 93.11 77.1051 92.65 76.9983 92.0544L78.488 91.8762C78.5625 92.1679 78.7114 92.3859 78.9348 92.5303C79.1581 92.6747 79.4461 92.7428 79.7985 92.7347C80.1623 92.7263 80.4524 92.6448 80.6689 92.4903C80.8882 92.3357 80.9953 92.1485 80.9903 91.9285C80.986 91.7424 80.9105 91.5904 80.7639 91.4725C80.6202 91.3545 80.3981 91.2665 80.0977 91.2085L78.9842 91.0014C78.358 90.8861 77.8919 90.6782 77.586 90.3777C77.2799 90.0744 77.1229 89.6859 77.1148 89.2121C77.1027 88.8118 77.2033 88.4624 77.4165 88.1641C77.6324 87.8629 77.9359 87.6274 78.327 87.4576C78.7208 87.2849 79.1771 87.1926 79.6959 87.1806C80.4573 87.1631 81.0602 87.3114 81.5047 87.6256C81.9521 87.9397 82.2343 88.3719 82.3514 88.9222Z" fill="white"/>
<path style="mix-blend-mode:overlay" opacity="0.4" d="M109.713 15.474L40.0256 22.0535L102.261 82.787C102.333 82.5859 102.435 82.3894 102.498 82.1867L120.671 29.3895C123.598 20.8827 118.666 14.6241 109.714 15.4641L109.713 15.474Z" fill="url(#paint2_linear_386_1815)"/>
<path style="mix-blend-mode:overlay" opacity="0.4" d="M39.089 80.3852L36.7671 80.5338C33.5646 80.7454 30.3479 83.4758 29.6102 86.5989L27.5952 95.2299C26.8675 98.3545 28.8911 100.983 32.1091 101.058L62.3967 101.795L39.089 80.3852Z" fill="url(#paint3_linear_386_1815)"/>
<g style="mix-blend-mode:multiply">
<path d="M46.7948 50.6546C48.4092 40.4616 41.4599 30.8968 31.267 29.2824C29.1632 28.9491 27.0905 28.9955 25.1106 29.3501C22.6413 32.4115 21.0819 36.184 20.9314 40.1392L20.0063 64.4538C21.6768 65.2854 23.495 65.8872 25.4309 66.1938C35.6239 67.8082 45.1903 60.8491 46.8031 50.666L46.7948 50.6546Z" fill="#EB9391"/>
</g>
<path d="M45.7359 46.1535C44.1215 56.3464 34.5467 63.2942 24.3637 61.6813C14.1806 60.0685 7.21157 50.5005 8.82597 40.3075C10.4404 30.1146 20.0052 23.1653 30.1982 24.7797C40.3911 26.3941 47.3388 35.9689 45.726 46.1519L45.7359 46.1535Z" fill="url(#paint4_linear_386_1815)"/>
<g clip-path="url(#clip1_386_1815)">
<path d="M25.6327 39.581C25.6327 38.9831 26.1183 38.4981 26.7175 38.4981C27.3168 38.4981 27.8024 38.9831 27.8024 39.581L27.8024 44.119L30.8105 45.4385C31.3584 45.6791 31.607 46.3172 31.3658 46.8636C31.1246 47.4099 30.4852 47.658 29.9377 47.4177L26.3365 45.8379C25.9251 45.684 25.6327 45.2883 25.6327 44.8242L25.6327 39.581ZM17.2212 39.8978C17.19 39.8057 17.1707 39.7079 17.1654 39.606L17.0013 36.5983C16.9706 36.0028 17.4299 35.4953 18.0267 35.465C18.6235 35.4343 19.1321 35.8927 19.1624 36.4882L19.1928 37.0448C19.6398 36.4708 20.1458 35.9452 20.7026 35.4765C21.4396 34.856 22.2768 34.3268 23.2049 33.9139C25.8574 32.7331 28.7359 32.736 31.2448 33.6949C33.7283 34.6444 35.8533 36.5299 37.0444 39.1312C37.076 39.1877 37.1027 39.2475 37.124 39.3097C38.2667 41.9315 38.2532 44.7665 37.3032 47.2417C36.3517 49.7199 34.4621 51.8403 31.8551 53.0284C31.6937 53.1187 31.5116 53.1659 31.3264 53.1655C30.7272 53.1655 30.2416 52.6809 30.2416 52.083C30.2416 51.6123 30.5426 51.212 30.963 51.0631C31.2785 50.9186 31.5807 50.7573 31.8691 50.5801C31.9019 50.5531 31.9368 50.5277 31.9737 50.504C32.4384 50.2044 32.8801 49.8615 33.2796 49.4792C33.3059 49.4542 33.3333 49.4305 33.3616 49.4088C34.209 48.5698 34.8579 47.5646 35.2775 46.4719C36.0428 44.4788 36.0473 42.1967 35.1093 40.0988L35.1089 40.0975C34.1709 37.9996 32.4679 36.4788 30.4733 35.7163C28.4759 34.953 26.1888 34.9485 24.0864 35.8841C23.3695 36.2027 22.7012 36.6206 22.1012 37.1254C21.6968 37.4659 21.3301 37.84 21.004 38.2423L21.1455 38.2247C21.7399 38.1523 22.2809 38.5746 22.3535 39.1677C22.4261 39.7607 22.0028 40.3005 21.4085 40.373L18.4119 40.7413C17.8516 40.8092 17.3389 40.438 17.2212 39.8978ZM28.6272 53.9341C29.4836 53.8383 29.8921 52.8319 29.3433 52.1677C29.1091 51.8841 28.7531 51.7445 28.3881 51.7822C27.7499 51.8538 27.1113 51.8526 26.4735 51.7768C26.0904 51.7314 25.7167 51.8882 25.4813 52.1931C24.9744 52.8655 25.3767 53.8207 26.2122 53.9263C27.0153 54.0221 27.8233 54.0241 28.6272 53.9341ZM21.7062 52.2696C22.0311 52.4849 22.4351 52.5094 22.7858 52.3408C23.5359 51.97 23.6048 50.9325 22.9092 50.468C22.3838 50.1222 21.8781 49.692 21.4487 49.2336C21.0557 48.8162 20.4118 48.7732 19.9676 49.1358C19.8529 49.2297 19.7587 49.346 19.6908 49.4776C19.6229 49.6092 19.5829 49.7534 19.5731 49.901C19.5633 50.0487 19.5839 50.1969 19.6338 50.3363C19.6837 50.4757 19.7617 50.6034 19.863 50.7115C20.4101 51.2927 21.0385 51.8305 21.7062 52.2696ZM17.448 46.5865C17.5678 46.9728 17.8877 47.2544 18.2851 47.3305C19.0866 47.4791 19.7621 46.7232 19.5209 45.9464C19.3298 45.3325 19.2137 44.7079 19.1665 44.0666C19.1108 43.3164 18.3376 42.8544 17.6465 43.1527C17.2253 43.343 16.9714 43.758 17.0021 44.2197C17.0604 45.0243 17.208 45.8158 17.448 46.5865Z" fill="#FCF9F9"/>
</g>
</g>
<defs>
<linearGradient id="paint0_linear_386_1815" x1="48.1608" y1="0.92604" x2="95.7856" y2="109.543" gradientUnits="userSpaceOnUse">
<stop stop-color="#0081FF"/>
<stop offset="1" stop-color="#0C75DB"/>
</linearGradient>
<linearGradient id="paint1_linear_386_1815" x1="56.0149" y1="81.8712" x2="101.644" y2="139.934" gradientUnits="userSpaceOnUse">
<stop stop-color="#FFBA00"/>
<stop offset="1" stop-color="#FF6F00"/>
</linearGradient>
<linearGradient id="paint2_linear_386_1815" x1="59.9378" y1="72.125" x2="104.987" y2="-7.04249" gradientUnits="userSpaceOnUse">
<stop stop-color="white"/>
<stop offset="1" stop-color="#4F80C1" stop-opacity="0"/>
</linearGradient>
<linearGradient id="paint3_linear_386_1815" x1="55.9642" y1="84.5564" x2="18.5524" y2="117.358" gradientUnits="userSpaceOnUse">
<stop stop-color="white"/>
<stop offset="1" stop-color="#4F80C1" stop-opacity="0"/>
</linearGradient>
<linearGradient id="paint4_linear_386_1815" x1="22.5153" y1="37.1704" x2="57.7637" y2="82.0166" gradientUnits="userSpaceOnUse">
<stop stop-color="#FFBA00"/>
<stop offset="1" stop-color="#FF6F00"/>
</linearGradient>
<clipPath id="clip0_386_1815">
<rect width="109.01" height="97.23" fill="white" transform="translate(15.2101) rotate(9)"/>
</clipPath>
<clipPath id="clip1_386_1815">
<rect width="21" height="21" fill="white" transform="translate(17 33)"/>
</clipPath>
</defs>
</svg>
