<svg width="44" height="44" viewBox="0 0 44 44" fill="none" xmlns="http://www.w3.org/2000/svg">
<rect width="44" height="44" rx="22" fill="#D0E8FF"/>
<mask id="mask0_211_1923" style="mask-type:alpha" maskUnits="userSpaceOnUse" x="10" y="10" width="24" height="24">
<rect x="10" y="10" width="24" height="24" fill="#D9D9D9"/>
</mask>
<g mask="url(#mask0_211_1923)">
<path d="M15 31C14.45 31 13.9792 30.8042 13.5875 30.4125C13.1958 30.0208 13 29.55 13 29V15C13 14.45 13.1958 13.9792 13.5875 13.5875C13.9792 13.1958 14.45 13 15 13H22V15H15V29H22V31H15ZM26 27L24.625 25.55L27.175 23H19V21H27.175L24.625 18.45L26 17L31 22L26 27Z" fill="#0C75DB"/>
</g>
</svg>
