<svg width="999" height="1135" viewBox="0 0 999 1135" fill="none" xmlns="http://www.w3.org/2000/svg">
<mask id="mask0_202_1557" style="mask-type:luminance" maskUnits="userSpaceOnUse" x="0" y="0" width="999" height="1135">
<path d="M999 1135L999 0L0 0L0 1135H999Z" fill="white"/>
</mask>
<g mask="url(#mask0_202_1557)">
<mask id="mask1_202_1557" style="mask-type:luminance" maskUnits="userSpaceOnUse" x="0" y="0" width="999" height="1135">
<path d="M999 1135L999 0L0 0L0 1135H999Z" fill="white"/>
</mask>
<g mask="url(#mask1_202_1557)">
<path d="M999 1135L999 -227L0 -227L0 1135H999Z" fill="url(#paint0_linear_202_1557)"/>
<path style="mix-blend-mode:overlay" opacity="0.3" fill-rule="evenodd" clip-rule="evenodd" d="M512.536 474.597C512.536 474.359 512.536 474.108 512.536 473.87L1076 465.106C1073.25 412.817 1075.59 438.935 1068.91 386.765L512.357 471.966C512.316 471.742 512.261 471.491 512.22 471.239C512.151 471.001 512.096 470.764 512.027 470.526L1055.57 327.338C1039.17 276.926 1048.29 301.775 1028.22 252.764L511.367 468.715C511.257 468.477 511.147 468.252 511.05 468.041C510.927 467.829 510.803 467.605 510.679 467.393L999.876 198.479C971.094 153.896 986.297 175.652 954.309 133.183L509.592 465.807C509.413 465.622 509.262 465.424 509.083 465.239C508.918 465.054 508.753 464.868 508.574 464.697L913.049 87.5824C873.756 51.2998 894.035 68.7604 852.142 35.2007L507.074 463.415C506.868 463.269 506.675 463.137 506.469 462.978C506.249 462.846 506.029 462.714 505.822 462.569L800.287 0.742101C752.533 -25.2042 776.843 -13.0836 727.383 -35.6462L504.061 461.696C503.814 461.604 503.58 461.511 503.346 461.432C503.098 461.339 502.864 461.247 502.617 461.194L667.852 -56.702C614.897 -70.3427 641.56 -64.4608 587.807 -74.4005L500.691 460.771C500.443 460.731 500.209 460.692 499.92 460.665C499.686 460.652 499.411 460.639 499.177 460.612L525.18 -80.5071C470.519 -81.1019 497.829 -81.7364 443.498 -78.6566L497.155 460.639C496.907 460.665 496.646 460.678 496.384 460.718C496.137 460.758 495.903 460.797 495.641 460.85L380.802 -69.5893C327.517 -57.0589 353.933 -64.2361 301.624 -48.0709L493.729 461.392C493.495 461.472 493.247 461.564 493.014 461.67C492.766 461.749 492.532 461.868 492.298 461.961L243.373 -24.2658C195.233 0.570269 218.814 -12.6606 172.628 15.3741L490.578 462.912C490.372 463.071 490.166 463.203 489.959 463.348C489.767 463.507 489.56 463.666 489.368 463.811L122.645 52.1325C82.5127 87.5295 101.912 69.1701 64.4758 107.211L487.964 465.186C487.799 465.358 487.634 465.543 487.455 465.754C487.318 465.939 487.153 466.137 486.988 466.349L25.4165 154.768C-4.4386 198.783 9.66346 176.273 -16.931 222.337L485.969 467.975C485.859 468.173 485.736 468.411 485.639 468.622C485.543 468.847 485.433 469.085 485.337 469.31L-42.4936 277.97C-60.0214 327.92 -52.193 302.7 -65.9787 353.734L484.772 471.147C484.731 471.398 484.676 471.636 484.635 471.874C484.594 472.112 484.566 472.35 484.525 472.601L-76.2147 413.438C-80.2321 465.807 -67.5196 439.213 -67.6984 491.74L484.456 474.544C484.456 474.782 484.484 475.033 484.497 475.271C484.525 475.522 484.552 475.773 484.58 476.011L-73.9446 552.356C-64.3002 604.276 -70.0648 578.541 -56.5956 629.627L485.006 477.888C485.075 478.113 485.171 478.351 485.254 478.588C485.337 478.8 485.447 479.025 485.529 479.263L-35.5595 687.005C-12.6935 734.906 -24.9795 711.379 1.27101 757.482L486.41 480.968C486.561 481.179 486.712 481.404 486.822 481.602C486.988 481.8 487.125 482.012 487.276 482.197L36.3817 807.788C70.6532 848.459 52.7814 828.739 89.9696 867.004L488.57 483.638C488.749 483.796 488.941 483.968 489.134 484.127C489.326 484.285 489.519 484.444 489.712 484.616L136.871 907.331C180.649 938.683 158.237 923.787 204.231 952.099L491.363 485.7C491.583 485.832 491.817 485.937 492.05 486.07C492.271 486.175 492.505 486.281 492.738 486.387L260.405 980.134C311.269 1000.13 285.514 991.012 337.629 1007.44L494.61 487.048C494.871 487.127 495.091 487.18 495.339 487.233C495.614 487.286 495.862 487.339 496.109 487.378L399.417 1021.11C453.308 1028.19 426.218 1025.55 480.7 1029L498.09 487.577C498.338 487.577 498.599 487.577 498.833 487.577C499.108 487.577 499.356 487.55 499.604 487.537L543.616 1027.55C598.043 1021.58 570.953 1025.5 624.844 1015.8L501.571 487.246C501.833 487.18 502.066 487.127 502.314 487.061C502.548 486.995 502.796 486.916 503.043 486.85L685.875 999.207C737 980.385 711.795 990.669 761.476 968.344L504.873 486.096C505.093 485.99 505.327 485.871 505.547 485.752C505.767 485.62 505.974 485.501 506.194 485.382L815.958 937.811C860.41 907.476 838.783 923.377 880.869 890.122L507.79 484.193C507.982 484.047 508.175 483.876 508.34 483.704C508.533 483.505 508.712 483.347 508.904 483.162L925.665 847.679C960.955 807.683 944.06 828.263 976.322 785.94L510.101 481.655C510.253 481.443 510.39 481.232 510.528 481.047C510.638 480.835 510.775 480.611 510.899 480.399L1008.93 733.902C1032.87 686.503 1021.78 710.612 1042.17 661.561L511.697 478.641C511.78 478.403 511.862 478.179 511.945 477.928C511.986 477.703 512.082 477.465 512.137 477.227L1060.23 603.311C1071.06 551.775 1066.63 577.629 1073.56 525.723L512.468 475.35C512.468 475.099 512.509 474.861 512.509 474.583L512.536 474.597Z" fill="url(#paint1_radial_202_1557)"/>
</g>
</g>
<defs>
<linearGradient id="paint0_linear_202_1557" x1="499.5" y1="-229.363" x2="499.5" y2="1115.46" gradientUnits="userSpaceOnUse">
<stop offset="0.1" stop-color="#0F5CA9"/>
<stop offset="1" stop-color="#0F5CA9"/>
</linearGradient>
<radialGradient id="paint1_radial_202_1557" cx="0" cy="0" r="1" gradientUnits="userSpaceOnUse" gradientTransform="translate(494.885 454.004) scale(560.217 538.212)">
<stop stop-color="white"/>
<stop offset="0.09" stop-color="white" stop-opacity="0.98"/>
<stop offset="0.22" stop-color="white" stop-opacity="0.91"/>
<stop offset="0.36" stop-color="white" stop-opacity="0.8"/>
<stop offset="0.52" stop-color="white" stop-opacity="0.65"/>
<stop offset="0.69" stop-color="white" stop-opacity="0.45"/>
<stop offset="0.86" stop-color="white" stop-opacity="0.21"/>
<stop offset="1" stop-color="white" stop-opacity="0"/>
</radialGradient>
</defs>
</svg>
