<svg width="23" height="24" viewBox="0 0 23 24" fill="none" xmlns="http://www.w3.org/2000/svg">
<path fill-rule="evenodd" clip-rule="evenodd" d="M4.36295 15.3809C5.2533 14.4906 6.46087 13.9904 7.72001 13.9904H15.3162C16.5753 13.9904 17.7829 14.4906 18.6732 15.3809C19.5636 16.2713 20.0638 17.4788 20.0638 18.738V20.637C20.0638 21.1614 19.6386 21.5865 19.1142 21.5865C18.5898 21.5865 18.1647 21.1614 18.1647 20.637V18.738C18.1647 17.9825 17.8646 17.258 17.3304 16.7237C16.7962 16.1895 16.0716 15.8894 15.3162 15.8894H7.72001C6.96452 15.8894 6.23998 16.1895 5.70577 16.7237C5.17157 17.258 4.87145 17.9825 4.87145 18.738V20.637C4.87145 21.1614 4.44634 21.5865 3.92193 21.5865C3.39753 21.5865 2.97241 21.1614 2.97241 20.637V18.738C2.97241 17.4788 3.4726 16.2713 4.36295 15.3809Z" fill="#484C52"/>
<path fill-rule="evenodd" clip-rule="evenodd" d="M11.5181 4.4952C9.94489 4.4952 8.66955 5.77054 8.66955 7.34376C8.66955 8.91697 9.94489 10.1923 11.5181 10.1923C13.0913 10.1923 14.3667 8.91697 14.3667 7.34376C14.3667 5.77054 13.0913 4.4952 11.5181 4.4952ZM6.77051 7.34376C6.77051 4.72173 8.89608 2.59616 11.5181 2.59616C14.1401 2.59616 16.2657 4.72173 16.2657 7.34376C16.2657 9.96578 14.1401 12.0914 11.5181 12.0914C8.89608 12.0914 6.77051 9.96578 6.77051 7.34376Z" fill="#484C52"/>
</svg>
