<svg width="23" height="19" viewBox="0 0 23 19" fill="none" xmlns="http://www.w3.org/2000/svg">
<path d="M21.6122 4.26097C21.1437 4.72382 20.499 5.01111 19.7914 5.01111H1.96002C1.25241 5.01111 0.60805 4.72382 0.139526 4.26097V16.2574C0.139526 16.7577 0.344576 17.2134 0.673847 17.5435C1.00369 17.8728 1.45888 18.0776 1.95945 18.0776H19.7923C20.284 18.0776 20.7319 17.8802 21.0682 17.5518C21.4066 17.2126 21.6122 16.7571 21.6122 16.2574V14.1195H16.5895C15.7758 14.1195 15.0361 13.7866 14.5007 13.2511C13.9649 12.7154 13.6325 11.9757 13.6325 11.1623C13.6325 10.3484 13.9649 9.60871 14.5007 9.07297C15.0361 8.53752 15.7758 8.20456 16.5895 8.20456H21.6122V4.26097ZM16.5895 9.87275C17.3013 9.87275 17.8787 10.4502 17.8787 11.162C17.8787 11.8739 17.3013 12.4508 16.5895 12.4508C15.8776 12.4508 15.3004 11.8739 15.3004 11.162C15.3004 10.4502 15.8776 9.87275 16.5895 9.87275ZM1.8063 15.111C1.52156 15.111 1.29041 14.8799 1.29041 14.5951C1.29041 14.3104 1.52156 14.0793 1.8063 14.0793C2.44981 14.0793 3.0332 14.3405 3.45492 14.7622C3.87665 15.1839 4.13786 15.7676 4.13786 16.4108C4.13786 16.6956 3.90671 16.9267 3.62197 16.9267C3.33751 16.9267 3.10637 16.6956 3.10637 16.4108C3.10637 16.0515 2.96059 15.7262 2.72605 15.4913C2.49122 15.2565 2.16563 15.111 1.8063 15.111ZM1.8063 13.0381C1.52156 13.0381 1.29041 12.807 1.29041 12.5225C1.29041 12.2378 1.52156 12.0066 1.8063 12.0066C3.02214 12.0066 4.12368 12.4998 4.92062 13.2968C5.71728 14.0937 6.21076 15.1955 6.21076 16.4108C6.21076 16.6956 5.97962 16.9267 5.69487 16.9267C5.41013 16.9267 5.17899 16.6956 5.17899 16.4108C5.17899 15.4794 4.8015 14.6357 4.19146 14.0256C3.5817 13.4159 2.73824 13.0381 1.8063 13.0381ZM1.8063 10.9646C1.52156 10.9646 1.29041 10.7335 1.29041 10.4488C1.29041 10.164 1.52156 9.93288 1.8063 9.93288C3.59474 9.93288 5.21472 10.6586 6.3866 11.8305L6.41382 11.8597C7.56982 13.0299 8.28423 14.638 8.28423 16.4108C8.28423 16.6956 8.05309 16.9267 7.76834 16.9267C7.48388 16.9267 7.25274 16.6956 7.25274 16.4108C7.25274 14.9182 6.65234 13.5656 5.68183 12.5821L5.65772 12.5597C4.67274 11.5744 3.31057 10.9646 1.8063 10.9646ZM22.0237 8.97796H16.5895C15.9893 8.97796 15.4434 9.22414 15.0475 9.62006C14.6516 10.0157 14.4059 10.5616 14.4059 11.162C14.4059 11.7624 14.6516 12.3084 15.0475 12.7043C15.4434 13.0999 15.9893 13.3461 16.5895 13.3461H22.0163C22.2778 13.3461 22.5098 13.2415 22.678 13.0733C22.8465 12.9057 22.9508 12.6734 22.9508 12.4181V9.90593C22.9508 9.65919 22.853 9.43344 22.6865 9.25874C22.5098 9.0829 22.2778 8.97796 22.0237 8.97796ZM2.23625 3.0613C1.88032 3.0613 1.59161 2.77258 1.59161 2.41665C1.59161 2.06072 1.88032 1.77201 2.23625 1.77201H19.516C19.872 1.77201 20.1607 2.06072 20.1607 2.41665C20.1607 2.77258 19.872 3.0613 19.516 3.0613H2.23625ZM19.7914 0.596161H1.96002C1.45973 0.596161 1.00425 0.801211 0.674414 1.13105C0.346845 1.45862 0.142362 1.90984 0.139526 2.42828C0.146049 2.9314 0.349965 3.37809 0.674414 3.70254C1.00425 4.03238 1.45973 4.23771 1.96002 4.23771H19.7914C20.2917 4.23771 20.7475 4.03238 21.0773 3.70254C21.4071 3.3727 21.6122 2.91694 21.6122 2.41665C21.6122 1.91636 21.4071 1.46089 21.0773 1.13105C20.7475 0.801211 20.2917 0.596161 19.7914 0.596161Z" fill="black"/>
</svg>
