<svg width="44" height="42" viewBox="0 0 44 42" fill="none" xmlns="http://www.w3.org/2000/svg">
<rect width="44" height="42" rx="21" fill="#D0E8FF"/>
<path d="M21.99 10C16.53 10 12.08 14.45 12.08 19.91C12.08 21.66 12.54 23.36 13.4 24.86L12 30L17.25 28.62C18.7 29.41 20.33 29.83 21.99 29.83C27.45 29.83 31.9 25.38 31.9 19.92C31.9 17.27 30.87 14.78 29 12.91C27.13 11.03 24.64 10 21.99 10ZM22 11.67C24.2 11.67 26.26 12.53 27.82 14.09C29.37 15.65 30.23 17.72 30.23 19.92C30.23 24.46 26.53 28.15 21.99 28.15C20.51 28.15 19.06 27.76 17.8 27L17.5 26.83L14.38 27.65L15.21 24.61L15.01 24.29C14.19 23 13.75 21.47 13.75 19.91C13.76 15.37 17.45 11.67 22 11.67ZM18.48 15.33C18.32 15.33 18.05 15.39 17.82 15.64C17.6 15.89 16.95 16.5 16.95 17.71C16.95 18.93 17.84 20.1 17.95 20.27C18.09 20.44 19.71 22.94 22.2 24C22.79 24.27 23.25 24.42 23.61 24.53C24.2 24.72 24.74 24.69 25.17 24.63C25.65 24.56 26.63 24.03 26.84 23.45C27.05 22.87 27.05 22.38 26.99 22.27C26.92 22.17 26.76 22.11 26.51 22C26.26 21.86 25.04 21.26 24.82 21.18C24.59 21.1 24.45 21.06 24.26 21.3C24.1 21.55 23.62 22.11 23.48 22.27C23.33 22.44 23.19 22.46 22.95 22.34C22.69 22.21 21.89 21.95 20.95 21.11C20.21 20.45 19.72 19.64 19.57 19.39C19.45 19.15 19.56 19 19.68 18.89C19.79 18.78 19.95 18.6 20.05 18.45C20.18 18.31 20.22 18.2 20.3 18.04C20.38 17.87 20.34 17.73 20.28 17.61C20.22 17.5 19.72 16.26 19.51 15.77C19.31 15.29 19.11 15.35 18.95 15.34C18.81 15.34 18.65 15.33 18.48 15.33Z" fill="#0C75DB"/>
</svg>
