<svg width="23" height="23" viewBox="0 0 23 23" fill="none" xmlns="http://www.w3.org/2000/svg">
<g clip-path="url(#clip0_116_5726)">
<path d="M3.28571 8.85091C3.28571 4.29198 6.96161 0.616089 11.5 0.616089C16.0384 0.616089 19.7143 4.29198 19.7143 8.83037C19.7143 8.83037 19.7143 8.83037 19.7143 8.85091C21.542 8.95359 23 10.4732 23 12.3214V12.7322C23 14.6625 21.4393 16.2232 19.5089 16.2232H19.3241L17.8661 18.5438C16.8393 20.1866 15.0937 21.1518 13.1634 21.1518H12.8759C12.6911 21.85 12.0545 22.3839 11.2946 22.3839C10.3911 22.3839 9.65179 21.6447 9.65179 20.7411C9.65179 19.8375 10.3911 19.0982 11.2946 19.0982C12.0545 19.0982 12.6911 19.6322 12.8759 20.3304H13.1634C14.8062 20.3304 16.3054 19.4884 17.1679 18.092L18.3589 16.2232H18.0714C17.6196 16.2232 17.25 15.8536 17.25 15.4018V9.6518C17.25 9.20002 17.6196 8.83037 18.0714 8.83037H18.8929C18.8929 4.74377 15.5866 1.43752 11.5 1.43752C7.41339 1.43752 4.10714 4.74377 4.10714 8.83037H4.92857C5.38036 8.83037 5.75 9.20002 5.75 9.6518V15.4018C5.75 15.8536 5.38036 16.2232 4.92857 16.2232H3.49107C1.56071 16.2232 -7.15256e-07 14.6625 -7.15256e-07 12.7322V12.3214C-7.15256e-07 10.4732 1.45804 8.95359 3.28571 8.85091ZM11.2946 19.9197C10.8429 19.9197 10.4732 20.2893 10.4732 20.7411C10.4732 21.1929 10.8429 21.5625 11.2946 21.5625C11.7464 21.5625 12.1161 21.1929 12.1161 20.7411C12.1161 20.2893 11.7464 19.9197 11.2946 19.9197ZM18.0714 9.6518V15.4018H19.5089C20.9875 15.4018 22.1786 14.2107 22.1786 12.7322V12.3214C22.1786 10.8429 20.9875 9.6518 19.5089 9.6518H18.0714ZM0.821428 12.7322C0.821428 14.2107 2.0125 15.4018 3.49107 15.4018H4.92857V9.6518H3.49107C2.0125 9.6518 0.821428 10.8429 0.821428 12.3214V12.7322Z" fill="black"/>
<path d="M8.09118 3.717C8.13225 3.69647 8.19386 3.6554 8.25547 3.61432C8.31707 3.57325 8.37868 3.53218 8.41975 3.51165C8.60457 3.38843 8.87154 3.45004 8.97422 3.65539C9.07689 3.86075 9.03582 4.08664 8.83047 4.20986C8.78939 4.23039 8.72779 4.27147 8.66618 4.31254C8.60457 4.35361 8.54297 4.39468 8.48136 4.41522C8.41975 4.45629 8.33761 4.47682 8.276 4.47682C8.13225 4.47682 8.00904 4.41522 7.92689 4.27147C7.82422 4.08664 7.88582 3.84022 8.09118 3.717Z" fill="black"/>
<path d="M11.5 2.66968C13.2456 2.66968 14.8884 3.4295 16.0179 4.74379C16.1616 4.90807 16.1411 5.17503 15.9768 5.31878C15.8947 5.38039 15.8125 5.42146 15.7098 5.42146C15.5866 5.42146 15.484 5.38039 15.4018 5.27771C14.4161 4.14825 12.9991 3.49111 11.5 3.49111C11.1304 3.49111 10.7607 3.53218 10.3911 3.61432C10.1652 3.65539 9.95985 3.51164 9.89824 3.30628C9.83663 3.10093 10.0009 2.87503 10.2063 2.81343C10.6375 2.71075 11.0688 2.66968 11.5 2.66968Z" fill="black"/>
</g>
<defs>
<clipPath id="clip0_116_5726">
<rect width="23" height="23" fill="white" transform="matrix(-1 0 0 1 23 0)"/>
</clipPath>
</defs>
</svg>
