<svg width="159" height="148" viewBox="0 0 159 148" fill="none" xmlns="http://www.w3.org/2000/svg">
<g clip-path="url(#clip0_8_3864)">
<path d="M79.5 147.944C123.199 147.944 158.624 127.488 158.624 102.254C158.624 77.0205 123.199 56.5645 79.5 56.5645C35.801 56.5645 0.375977 77.0205 0.375977 102.254C0.375977 127.488 35.801 147.944 79.5 147.944Z" fill="#F0F0F0"/>
<path d="M63.1271 136.876C78.1961 136.876 90.4119 129.823 90.4119 121.122C90.4119 112.421 78.1961 105.368 63.1271 105.368C48.0581 105.368 35.8423 112.421 35.8423 121.122C35.8423 129.823 48.0581 136.876 63.1271 136.876Z" fill="#E0E0E0"/>
<path d="M140.719 101.411L137.519 99.5636C137.519 99.5636 136.736 92.7112 137.257 87.4039C137.989 79.9468 142.805 70.9714 148.552 73.0809C154.298 75.187 145.919 82.7818 144.051 89.1103C142.187 95.4354 140.719 101.414 140.719 101.414V101.411Z" fill="#0081FF"/>
<path opacity="0.15" d="M140.719 101.411L137.519 99.5636C137.519 99.5636 136.736 92.7112 137.257 87.4039C137.989 79.9468 142.805 70.9714 148.552 73.0809C154.298 75.187 145.919 82.7818 144.051 89.1103C142.187 95.4354 140.719 101.414 140.719 101.414V101.411Z" fill="black"/>
<path d="M139.037 100.635H139.044C139.151 100.632 139.235 100.541 139.232 100.434C138.671 83.8635 146.916 75.5263 147 75.4457C147.077 75.3718 147.077 75.2475 147 75.1702C146.923 75.093 146.802 75.093 146.725 75.1702C146.641 75.2542 138.271 83.709 138.839 100.447C138.842 100.551 138.929 100.635 139.033 100.635H139.037Z" fill="white"/>
<path d="M142.731 102.563L140.454 101.25C140.454 101.25 140.068 96.5472 142.372 90.8335C144.38 85.8587 149.358 81.7338 151.863 82.6005C154.369 83.4671 154.305 85.244 153.086 87.1083C151.863 88.9726 144.437 93.4132 142.731 102.563Z" fill="#0081FF"/>
<path d="M141.529 102.066C141.636 102.066 141.724 101.979 141.72 101.871C141.677 91.3945 151.511 84.3136 151.611 84.2431C151.699 84.1826 151.719 84.0617 151.658 83.9744C151.598 83.887 151.477 83.8669 151.39 83.9273C151.289 83.9979 141.29 91.1963 141.334 101.875C141.334 101.982 141.421 102.066 141.529 102.066Z" fill="white"/>
<path d="M22.2905 97.2962L25.246 95.3009C25.246 95.3009 26.5458 87.5583 25.3367 80.7596C23.6373 71.1997 17.0445 68.0187 14.6935 69.0164C12.3425 70.014 11.8387 72.8658 16.2283 78.3243C18.8178 81.5456 22.1998 88.3914 22.2905 97.2929V97.2962Z" fill="#0081FF"/>
<g opacity="0.15">
<path d="M22.2905 97.2962L25.246 95.3009C25.246 95.3009 26.5458 87.5583 25.3367 80.7596C23.6373 71.1997 17.0445 68.0187 14.6935 69.0164C12.3425 70.014 11.8387 72.8658 16.2283 78.3243C18.8178 81.5456 22.1998 88.3914 22.2905 97.2929V97.2962Z" fill="black"/>
</g>
<path d="M23.3047 93.4669C23.3047 93.4669 23.2846 93.4669 23.2745 93.4669C23.157 93.4534 23.073 93.3459 23.0864 93.2284C24.1544 84.2261 20.3526 74.4613 16.2216 70.5749C16.1342 70.4943 16.1309 70.3599 16.2115 70.2726C16.2921 70.1886 16.4264 70.1819 16.5137 70.2625C20.722 74.2195 24.5944 84.1455 23.5096 93.2788C23.4962 93.3862 23.4055 93.4669 23.3014 93.4669H23.3047Z" fill="white"/>
<path d="M14.5524 102.516C14.0822 102.798 12.7119 101.781 12.3324 101.535C11.6842 101.119 11.1535 100.518 10.7942 99.8356C10.3777 99.0429 10.2602 98.183 10.3676 97.2962C10.4247 96.836 10.5456 96.3859 10.6632 95.9358C10.7807 95.4957 10.8983 95.0557 11.0158 94.6123C11.1334 94.179 11.2476 93.7289 11.1838 93.2821C11.0528 92.3852 10.24 91.7705 9.50448 91.2398C8.69171 90.6553 7.83864 89.876 7.82185 88.7944C7.80841 87.958 8.22823 87.1753 8.73201 86.5103C9.23579 85.8452 9.84033 85.254 10.2937 84.5519C10.6195 84.0481 10.8714 83.4569 10.8076 82.859C10.7673 82.4861 10.6061 82.1401 10.4214 81.8143C10.0251 81.1156 9.50784 80.4808 9.22908 79.7283C8.95032 78.9759 8.97047 78.032 9.5515 77.4811C10.0284 77.0277 10.7471 76.9504 11.4054 76.9806C12.0133 77.0075 12.6111 77.2729 13.1485 77.5584C14.8849 78.4821 15.9059 80.4976 17.743 81.1996C18.4516 81.4683 19.2241 81.5154 19.9596 81.6967C20.6952 81.8748 21.4508 82.2375 21.8035 82.9094C22.4987 84.2328 21.2896 85.9056 21.7867 87.3164C22.2267 88.566 23.4559 89.0228 24.1645 90.1414C24.4735 90.6318 24.5541 91.2029 24.5172 91.7806C24.4534 92.7581 24.3257 93.4769 23.8791 94.572C23.5096 95.4756 22.4114 97.2156 22.4114 97.2156C22.4114 97.2156 14.6229 102.476 14.549 102.519L14.5524 102.516Z" fill="#0081FF"/>
<path d="M19.0931 99.7314H19.0864C18.9655 99.7314 18.8714 99.6307 18.8748 99.5131C19.0629 91.008 14.8815 81.7068 11.9159 79.0363C11.8286 78.9557 11.8218 78.8213 11.8991 78.734C11.9797 78.6467 12.114 78.64 12.2014 78.7172C15.2241 81.4414 19.4928 90.8971 19.3013 99.5232C19.3013 99.6374 19.2039 99.7314 19.0897 99.7314H19.0931Z" fill="white"/>
<path d="M17.5247 89.3721C17.5046 89.3721 17.4811 89.3721 17.4609 89.3621C14.7136 88.5693 11.3114 88.4887 11.2745 88.4887C11.1569 88.4887 11.0629 88.3879 11.0662 88.2704C11.0662 88.1528 11.1569 88.0587 11.2846 88.0621C11.3181 88.0621 14.7774 88.1461 17.5785 88.9556C17.6927 88.9892 17.7565 89.1068 17.7262 89.221C17.6994 89.315 17.6154 89.3755 17.5247 89.3755V89.3721Z" fill="white"/>
<path d="M96.6823 91.4515L95.4094 90.7159C95.0064 90.4841 94.684 89.9198 94.684 89.4563V36.5445C94.684 36.0809 95.0097 35.5166 95.4094 35.2849L130.792 14.8551C131.195 14.6233 131.843 14.6233 132.246 14.8551L133.519 15.5907C133.922 15.8225 134.248 16.3868 134.248 16.8504V69.7622C134.248 70.2257 133.922 70.79 133.519 71.0218L98.1365 91.4549C97.7335 91.6867 97.0853 91.6867 96.6823 91.4549V91.4515Z" fill="#455A64"/>
<path d="M134.238 16.7294C134.187 16.3532 133.882 16.2155 133.515 16.4271L98.1366 36.8602C97.935 36.9778 97.757 37.1726 97.6227 37.401L94.8922 35.8256C95.0232 35.5972 95.2046 35.399 95.4061 35.2814L130.788 14.8517C131.188 14.6199 131.84 14.6199 132.243 14.8517L133.515 15.5873C133.885 15.7989 134.191 16.2927 134.238 16.7294Z" fill="#455A64"/>
<path d="M98.0123 91.5085C97.6093 91.6798 97.0451 91.6597 96.6824 91.4514L95.4061 90.7124C95.0064 90.4807 94.6807 89.9163 94.6807 89.4528V36.541C94.6807 36.3093 94.7613 36.054 94.8923 35.8256L97.6227 37.401C97.4884 37.6294 97.4078 37.888 97.4078 38.1198V91.0316C97.4078 91.4481 97.6698 91.6395 98.0123 91.5085Z" fill="#263238"/>
<path d="M97.4077 38.1199V91.0316C97.4077 91.4952 97.7335 91.6833 98.1365 91.4515L133.519 71.0184C133.922 70.7866 134.248 70.2223 134.248 69.7588V16.847C134.248 16.3834 133.922 16.1953 133.519 16.4271L98.1365 36.8602C97.7335 37.092 97.4077 37.6563 97.4077 38.1199Z" fill="#37474F"/>
<path d="M89.1457 58.2876C88.689 58.0155 86.5697 56.8096 86.4589 56.7458C86.1231 56.5408 86.0021 56.0437 86.3145 55.7078L94.6806 46.7324L97.4078 48.2977L89.045 57.2765C88.7427 57.599 88.8401 58.0659 89.1457 58.2876Z" fill="#455A64"/>
<path d="M97.4078 48.3011L89.0417 57.2765C88.6219 57.7266 88.9779 58.4555 89.5891 58.4051L97.4045 57.7602V48.2977L97.4078 48.3011Z" fill="#37474F"/>
<path d="M115.826 32.1474C119.95 29.7659 123.292 31.6973 123.292 36.4571C123.292 41.2169 119.95 47.0112 115.826 49.3895C111.702 51.771 108.36 49.8396 108.36 45.0764C108.36 40.3133 111.702 34.5223 115.826 32.1441V32.1474Z" fill="#0081FF"/>
<path d="M115.776 35.8962C117.112 35.1236 118.197 35.7484 118.197 37.2935C118.197 38.8387 117.112 40.7164 115.776 41.489C114.439 42.2616 113.354 41.6368 113.354 40.0916C113.354 38.5465 114.439 36.6687 115.776 35.8962Z" fill="white"/>
<path d="M120.548 44.1325C120.548 41.5931 118.765 40.5652 116.568 41.8349L115.195 42.6277C112.998 43.8974 111.215 46.9843 111.215 49.5204V50.2124C111.611 50.3434 112.041 50.4106 112.498 50.4106C113.499 50.4106 114.63 50.0814 115.826 49.3894C117.616 48.3548 119.262 46.6753 120.548 44.717V44.1292V44.1325Z" fill="white"/>
<path d="M111.097 72.97L120.558 67.5082C120.961 67.2764 121.287 67.4645 121.287 67.928V70.9747C121.287 71.4383 120.961 72.0026 120.558 72.2344L111.097 77.6962C110.694 77.9279 110.368 77.7398 110.368 77.2763V74.2296C110.368 73.7661 110.694 73.2018 111.094 72.97H111.097Z" fill="#0081FF"/>
<path d="M106.466 66.1645L125.183 55.3551C125.663 55.0763 126.056 55.3013 126.056 55.8589V56.9943C126.056 57.5519 125.667 58.2271 125.183 58.5059L106.466 69.3153C105.985 69.5941 105.593 69.369 105.593 68.8114V67.6761C105.593 67.1185 105.982 66.4433 106.466 66.1645Z" fill="#FAFAFA"/>
<path d="M108.655 58.3414C108.911 58.1936 109.109 58.1734 109.25 58.2742C109.391 58.3783 109.462 58.6067 109.462 58.9628C109.462 59.3188 109.391 59.6312 109.25 59.9033C109.109 60.172 108.911 60.3803 108.655 60.5281L108.152 60.8203V61.9053C108.152 61.9423 108.142 61.9758 108.125 62.0128C108.108 62.0497 108.088 62.0733 108.064 62.0867L107.809 62.2345C107.786 62.2479 107.765 62.2479 107.749 62.2311C107.732 62.2143 107.722 62.1908 107.722 62.1539V59.0132C107.722 58.9762 107.732 58.9426 107.749 58.9057C107.765 58.8687 107.786 58.8452 107.809 58.8318L108.655 58.3414ZM108.152 60.2123L108.642 59.9302C108.763 59.8596 108.857 59.769 108.931 59.6547C109.001 59.5405 109.038 59.3927 109.038 59.2113C109.038 59.03 109.001 58.9258 108.931 58.8956C108.86 58.8687 108.763 58.8889 108.642 58.9561L108.152 59.2382V60.2123Z" fill="#FAFAFA"/>
<path d="M110.869 57.0615C110.902 57.0413 110.929 57.0413 110.946 57.0615C110.963 57.0783 110.976 57.1119 110.99 57.1589L111.762 59.7857C111.762 59.7857 111.762 59.8058 111.762 59.8193C111.762 59.8562 111.752 59.8898 111.735 59.9268C111.718 59.9637 111.698 59.9872 111.675 60.0007L111.446 60.1317C111.406 60.1552 111.376 60.1585 111.359 60.1418C111.342 60.125 111.332 60.1048 111.325 60.0813L111.191 59.6211L110.194 60.1989L110.059 60.8169C110.053 60.8472 110.043 60.8807 110.026 60.9177C110.009 60.9546 109.979 60.9849 109.938 61.0117L109.71 61.1427C109.686 61.1562 109.666 61.1562 109.65 61.1394C109.633 61.1226 109.623 61.0991 109.623 61.0621C109.623 61.0487 109.623 61.0386 109.623 61.0252L110.395 57.5049C110.409 57.4411 110.422 57.394 110.439 57.3537C110.456 57.3168 110.479 57.2866 110.516 57.2698L110.862 57.0682L110.869 57.0615ZM111.043 59.0971L110.697 57.9113L110.351 59.4968L111.047 59.0971H111.043Z" fill="#FAFAFA"/>
<path d="M112.941 55.8187C113.082 55.7381 113.206 55.6944 113.314 55.691C113.421 55.6877 113.512 55.7078 113.583 55.7549C113.653 55.8019 113.707 55.8657 113.744 55.9497C113.781 56.0337 113.801 56.121 113.804 56.2117C113.804 56.2486 113.797 56.2856 113.781 56.3192C113.764 56.3528 113.74 56.3763 113.72 56.3897L113.499 56.5174C113.462 56.5375 113.435 56.5442 113.418 56.5308C113.401 56.5207 113.384 56.5006 113.368 56.4737C113.337 56.4099 113.287 56.3662 113.223 56.346C113.159 56.3225 113.062 56.346 112.938 56.4199C112.884 56.4502 112.83 56.4905 112.783 56.5375C112.733 56.5845 112.689 56.6349 112.652 56.6887C112.615 56.7424 112.585 56.8029 112.565 56.8633C112.545 56.9238 112.535 56.9843 112.535 57.0481C112.535 57.122 112.545 57.1791 112.565 57.2127C112.585 57.2496 112.619 57.2698 112.666 57.2765C112.713 57.2832 112.776 57.2765 112.854 57.2631C112.931 57.2463 113.028 57.2261 113.146 57.1959C113.274 57.1657 113.381 57.1522 113.472 57.1556C113.562 57.1589 113.636 57.1858 113.697 57.2295C113.754 57.2765 113.797 57.3437 113.828 57.431C113.858 57.5184 113.871 57.6292 113.871 57.7602C113.871 57.9046 113.851 58.0524 113.808 58.2036C113.767 58.3514 113.707 58.4958 113.626 58.6268C113.549 58.7612 113.452 58.8855 113.337 59.0031C113.223 59.1206 113.096 59.2214 112.954 59.302C112.837 59.3692 112.723 59.4129 112.615 59.4297C112.508 59.4464 112.414 59.4397 112.33 59.4061C112.246 59.3726 112.179 59.3087 112.128 59.2214C112.078 59.1341 112.051 59.0199 112.044 58.8821C112.044 58.8452 112.051 58.8082 112.068 58.7746C112.085 58.741 112.105 58.7175 112.128 58.7041L112.35 58.5765C112.387 58.5563 112.414 58.5496 112.431 58.5597C112.451 58.5697 112.464 58.5899 112.478 58.6201C112.491 58.6537 112.511 58.6873 112.531 58.7175C112.551 58.7478 112.582 58.7679 112.615 58.7814C112.652 58.7948 112.696 58.7948 112.75 58.7814C112.803 58.7713 112.871 58.7444 112.951 58.6974C113.015 58.6604 113.075 58.6201 113.136 58.5697C113.193 58.5227 113.247 58.4656 113.29 58.4085C113.334 58.348 113.371 58.2876 113.398 58.2204C113.425 58.1532 113.438 58.0827 113.438 58.0088C113.438 57.9382 113.425 57.8878 113.394 57.861C113.364 57.8307 113.321 57.8207 113.26 57.8207C113.2 57.8207 113.126 57.8341 113.038 57.8576C112.951 57.8778 112.847 57.9013 112.733 57.9214C112.629 57.945 112.535 57.9517 112.457 57.9416C112.377 57.9349 112.313 57.9046 112.263 57.8576C112.212 57.8106 112.172 57.7401 112.148 57.6494C112.125 57.5587 112.111 57.4411 112.111 57.2933C112.111 57.1455 112.132 57.0011 112.175 56.8533C112.216 56.7055 112.276 56.5677 112.35 56.4367C112.424 56.3057 112.511 56.1882 112.615 56.0773C112.716 55.9665 112.827 55.8791 112.944 55.812L112.941 55.8187Z" fill="#FAFAFA"/>
<path d="M115.148 54.5456C115.289 54.465 115.413 54.4213 115.52 54.418C115.628 54.4146 115.719 54.4348 115.789 54.4818C115.86 54.5288 115.913 54.5926 115.95 54.6766C115.987 54.7606 116.007 54.8479 116.011 54.9386C116.011 54.9756 116.004 55.0125 115.987 55.0461C115.97 55.0797 115.947 55.1032 115.927 55.1166L115.705 55.2443C115.668 55.2644 115.641 55.2712 115.624 55.2577C115.608 55.2476 115.591 55.2275 115.574 55.2006C115.544 55.1368 115.494 55.0931 115.43 55.073C115.366 55.0495 115.272 55.073 115.144 55.1469C115.09 55.1771 115.037 55.2174 114.99 55.2644C114.939 55.3115 114.896 55.3619 114.859 55.4156C114.822 55.4693 114.792 55.5298 114.771 55.5903C114.751 55.6507 114.741 55.7112 114.741 55.775C114.741 55.8489 114.751 55.906 114.771 55.9396C114.792 55.9766 114.825 55.9967 114.872 56.0034C114.919 56.0102 114.983 56.0034 115.06 55.99C115.138 55.9732 115.235 55.9531 115.352 55.9228C115.48 55.8926 115.588 55.8791 115.678 55.8825C115.769 55.8859 115.846 55.9094 115.903 55.9564C115.96 56.0034 116.004 56.0706 116.034 56.158C116.061 56.2453 116.078 56.3561 116.078 56.4871C116.078 56.6316 116.058 56.7794 116.014 56.9305C115.974 57.0783 115.913 57.2228 115.833 57.3538C115.755 57.4881 115.658 57.6124 115.544 57.73C115.43 57.8476 115.302 57.9483 115.161 58.0289C115.043 58.0961 114.929 58.1398 114.822 58.1599C114.714 58.1767 114.62 58.17 114.536 58.1364C114.452 58.1028 114.385 58.0424 114.335 57.9517C114.284 57.8643 114.254 57.7501 114.251 57.6124C114.251 57.5755 114.258 57.5385 114.274 57.5049C114.291 57.4713 114.311 57.4478 114.335 57.4344L114.556 57.3067C114.593 57.2866 114.62 57.2799 114.637 57.29C114.657 57.2967 114.671 57.3168 114.684 57.3504C114.698 57.384 114.718 57.4176 114.738 57.4478C114.758 57.4781 114.788 57.4982 114.822 57.5116C114.859 57.5251 114.902 57.5251 114.956 57.5116C115.01 57.5016 115.077 57.4747 115.158 57.4277C115.221 57.3907 115.282 57.3504 115.339 57.3C115.396 57.253 115.45 57.1993 115.494 57.1388C115.537 57.0783 115.574 57.0179 115.601 56.9507C115.628 56.8835 115.641 56.813 115.641 56.7391C115.641 56.6652 115.628 56.6181 115.598 56.5879C115.567 56.561 115.524 56.5476 115.463 56.5476C115.403 56.5476 115.329 56.561 115.242 56.5845C115.154 56.6081 115.05 56.6282 114.936 56.6484C114.832 56.6685 114.738 56.6786 114.661 56.6685C114.583 56.6618 114.516 56.6316 114.466 56.5845C114.415 56.5375 114.375 56.467 114.352 56.3763C114.325 56.2856 114.315 56.168 114.315 56.0202C114.315 55.8724 114.335 55.728 114.378 55.5802C114.419 55.4324 114.479 55.2947 114.553 55.1637C114.627 55.0327 114.714 54.9151 114.818 54.8043C114.923 54.6934 115.03 54.6061 115.148 54.5389V54.5456Z" fill="#FAFAFA"/>
<path d="M117.596 54.9654L117.324 56.5778C117.314 56.6315 117.3 56.6785 117.284 56.7189C117.267 56.7592 117.243 56.7894 117.213 56.8062L116.958 56.954C116.928 56.9708 116.901 56.9708 116.884 56.9506C116.867 56.9305 116.854 56.8969 116.847 56.8532L116.441 54.0182C116.441 54.0182 116.441 53.9913 116.441 53.9812C116.441 53.9443 116.451 53.9107 116.467 53.8737C116.484 53.8368 116.504 53.8133 116.528 53.7998L116.763 53.6655C116.783 53.652 116.803 53.652 116.823 53.6588C116.844 53.6688 116.854 53.6924 116.86 53.7394L117.126 55.6473L117.361 54.213C117.364 54.1861 117.374 54.1525 117.391 54.1089C117.408 54.0652 117.435 54.0316 117.472 54.0081L117.73 53.8569C117.767 53.8334 117.794 53.8368 117.811 53.8637C117.828 53.8905 117.838 53.914 117.841 53.9342L118.076 55.0964L118.341 52.8828C118.348 52.8291 118.362 52.7888 118.378 52.7585C118.399 52.7283 118.419 52.7082 118.439 52.6947L118.674 52.5604C118.698 52.5469 118.718 52.5469 118.734 52.5637C118.751 52.5805 118.761 52.604 118.761 52.641C118.761 52.651 118.761 52.6645 118.761 52.6813L118.358 55.9832C118.352 56.037 118.341 56.0806 118.321 56.1243C118.305 56.1646 118.278 56.1948 118.247 56.215L117.992 56.3628C117.962 56.3796 117.935 56.3796 117.922 56.3594C117.905 56.3359 117.891 56.3057 117.881 56.262L117.609 54.9654H117.596Z" fill="#FAFAFA"/>
<path d="M119.168 53.5412C119.174 53.3565 119.198 53.1717 119.235 52.9903C119.272 52.809 119.332 52.6343 119.406 52.473C119.48 52.3118 119.577 52.1607 119.692 52.0263C119.806 51.8919 119.94 51.7777 120.098 51.687C120.253 51.5997 120.387 51.556 120.498 51.556C120.612 51.556 120.706 51.5963 120.783 51.6736C120.86 51.7509 120.918 51.855 120.958 51.9927C120.998 52.1304 121.022 52.2883 121.028 52.4697C121.028 52.5302 121.032 52.5973 121.032 52.6712C121.032 52.7451 121.032 52.8224 121.032 52.8997C121.032 52.9769 121.032 53.0575 121.032 53.1314C121.032 53.2053 121.032 53.2759 121.028 53.3397C121.022 53.5244 120.998 53.7092 120.961 53.8906C120.921 54.072 120.864 54.2466 120.79 54.4079C120.716 54.5691 120.619 54.7169 120.504 54.8513C120.39 54.9856 120.256 55.0965 120.101 55.1872C119.947 55.2779 119.809 55.3215 119.695 55.3182C119.581 55.3182 119.487 55.2779 119.41 55.204C119.332 55.1301 119.275 55.0226 119.238 54.8848C119.198 54.7471 119.178 54.5893 119.171 54.4112C119.171 54.3508 119.168 54.2836 119.168 54.2097C119.168 54.1358 119.168 54.0585 119.168 53.9813C119.168 53.904 119.168 53.8234 119.168 53.7495C119.168 53.6756 119.168 53.605 119.171 53.5412H119.168ZM120.598 52.7384C120.588 52.51 120.541 52.3588 120.451 52.2816C120.36 52.2043 120.242 52.211 120.095 52.295C119.947 52.379 119.829 52.5134 119.739 52.6914C119.648 52.8728 119.601 53.081 119.591 53.3195C119.588 53.4438 119.584 53.5849 119.584 53.7361C119.584 53.8872 119.584 54.0216 119.591 54.1425C119.598 54.3709 119.648 54.5221 119.739 54.596C119.829 54.6699 119.947 54.6665 120.095 54.5792C120.242 54.4952 120.36 54.3608 120.451 54.1862C120.541 54.0081 120.588 53.7999 120.598 53.5614C120.602 53.4371 120.605 53.296 120.605 53.1482C120.605 53.0004 120.605 52.8627 120.598 52.7418V52.7384Z" fill="#FAFAFA"/>
<path d="M122.499 50.3468C122.761 50.1956 122.963 50.1721 123.101 50.2829C123.238 50.3938 123.305 50.6121 123.305 50.948C123.305 51.1865 123.272 51.4082 123.201 51.6131C123.131 51.8214 123.027 52.0061 122.889 52.164L123.326 53.1146C123.326 53.1146 123.336 53.1448 123.336 53.1616C123.336 53.1919 123.329 53.2187 123.316 53.249C123.302 53.2792 123.285 53.296 123.265 53.3094L122.996 53.464C122.956 53.4875 122.923 53.4908 122.902 53.4707C122.882 53.4505 122.869 53.4304 122.859 53.4102L122.446 52.5167L122.026 52.7586V53.8906C122.026 53.9275 122.016 53.9611 121.999 53.998C121.982 54.035 121.962 54.0585 121.939 54.0719L121.683 54.2197C121.66 54.2332 121.64 54.2332 121.623 54.2164C121.606 54.1996 121.596 54.1761 121.596 54.1391V50.9984C121.596 50.9615 121.603 50.9279 121.623 50.8909C121.64 50.854 121.66 50.8305 121.683 50.817L122.499 50.3468ZM122.026 52.1539L122.483 51.8886C122.604 51.818 122.698 51.7307 122.771 51.6266C122.842 51.5191 122.879 51.378 122.879 51.1932C122.879 51.0085 122.842 50.9111 122.771 50.8909C122.701 50.8708 122.604 50.8943 122.483 50.9648L122.026 51.2302V52.1539Z" fill="#FAFAFA"/>
<path d="M124.74 49.0536C124.894 48.9629 125.032 48.9158 125.146 48.9125C125.26 48.9125 125.358 48.9427 125.435 49.0166C125.512 49.0871 125.569 49.1946 125.613 49.3391C125.653 49.4802 125.68 49.6515 125.687 49.8497C125.697 50.0848 125.697 50.3233 125.687 50.5685C125.677 50.7768 125.653 50.9783 125.613 51.1664C125.573 51.3545 125.512 51.5292 125.438 51.6904C125.361 51.8516 125.267 51.9961 125.156 52.1237C125.042 52.2514 124.911 52.3589 124.76 52.4462L123.964 52.9064C123.94 52.9198 123.92 52.9198 123.903 52.903C123.887 52.8862 123.876 52.8627 123.876 52.8258V49.6851C123.876 49.6481 123.887 49.6145 123.903 49.5776C123.92 49.5406 123.94 49.5171 123.964 49.5037L124.743 49.0536H124.74ZM125.257 50.0982C125.253 49.9974 125.24 49.9068 125.217 49.8329C125.193 49.7556 125.163 49.6985 125.119 49.6548C125.075 49.6145 125.022 49.5944 124.958 49.5944C124.891 49.5944 124.813 49.6212 124.723 49.675L124.3 49.9202V52.1103L124.74 51.8584C124.827 51.808 124.901 51.7475 124.965 51.6736C125.028 51.5997 125.079 51.5191 125.122 51.4284C125.163 51.3377 125.196 51.2437 125.22 51.1395C125.243 51.0354 125.253 50.9313 125.26 50.8238C125.267 50.5786 125.267 50.3401 125.26 50.1049L125.257 50.0982Z" fill="#FAFAFA"/>
<path d="M78.62 0.303661C79.2078 0.434664 79.7619 0.642925 80.2792 0.928445C80.7997 1.21396 81.2397 1.56331 81.5991 1.97647C81.9584 2.38963 82.2204 2.8599 82.3782 3.38727C82.5361 3.91464 82.5495 4.48232 82.4118 5.09367C82.301 5.59417 82.1264 6.01069 81.8913 6.34323C81.6528 6.67578 81.3808 6.96466 81.0718 7.20315C80.7628 7.44164 80.437 7.65326 80.0978 7.83129C79.7552 8.01268 79.4328 8.18399 79.1305 8.34523C78.8249 8.50646 78.5495 8.68449 78.3043 8.87932C78.0591 9.07414 77.8845 9.30592 77.7871 9.57128C77.73 9.70228 77.6494 9.80977 77.5386 9.89039C77.4277 9.97101 77.3068 9.99452 77.1691 9.96429L75.7451 9.64854C75.6074 9.61831 75.4966 9.54105 75.4126 9.41677C75.3287 9.29248 75.3085 9.16484 75.3522 9.03047C75.4865 8.55013 75.6813 8.14369 75.9466 7.8145C76.2086 7.48531 76.5008 7.20315 76.8232 6.96802C77.1456 6.73288 77.4781 6.52798 77.8241 6.35331C78.17 6.182 78.4924 6.01405 78.7913 5.84945C79.0902 5.68486 79.3421 5.51355 79.5537 5.33216C79.7653 5.15077 79.8996 4.92571 79.9567 4.66371C80.0608 4.19008 79.95 3.75341 79.6175 3.3604C79.285 2.96739 78.788 2.69531 78.1263 2.54751C77.065 2.31237 76.1683 2.67179 75.4328 3.6224C75.3387 3.74669 75.2514 3.83402 75.1674 3.88777C75.0835 3.94151 74.9592 3.95159 74.798 3.91464L73.2799 3.57874C73.1691 3.55522 73.0784 3.49476 73.0146 3.40071C72.9508 3.30665 72.9306 3.19916 72.9575 3.07488C73.065 2.64156 73.3001 2.22504 73.6561 1.82531C74.0121 1.42558 74.4487 1.08968 74.9592 0.817596C75.4731 0.545513 76.044 0.354047 76.6788 0.246557C77.3136 0.139068 77.9584 0.155863 78.62 0.303661ZM77.0146 11.1097C77.1523 11.14 77.2598 11.2172 77.3371 11.3381C77.4143 11.4591 77.4378 11.5901 77.4076 11.7278L77.0415 13.3771C77.0113 13.5148 76.934 13.6223 76.8131 13.6996C76.6922 13.7768 76.5612 13.8003 76.4235 13.7701L74.8114 13.414C74.6737 13.3838 74.5663 13.3065 74.489 13.1856C74.4118 13.0647 74.3883 12.9337 74.4185 12.796L74.7846 11.1467C74.8148 11.009 74.892 10.9015 75.0129 10.8242C75.1339 10.747 75.2648 10.7234 75.4025 10.7537L77.0146 11.1097Z" fill="#0081FF"/>
<path d="M80.4134 16.0609C80.8232 15.9937 81.2296 15.9837 81.636 16.0341C82.0423 16.0844 82.4151 16.1953 82.751 16.3666C83.0869 16.5413 83.3757 16.7764 83.6108 17.072C83.8492 17.3676 84.0004 17.7304 84.0709 18.157C84.128 18.5063 84.1213 18.8187 84.0541 19.0942C83.9869 19.3696 83.8862 19.6215 83.7485 19.8567C83.6108 20.0884 83.4563 20.3068 83.285 20.5083C83.1137 20.7099 82.9491 20.9013 82.7947 21.0861C82.6402 21.2675 82.5092 21.4522 82.4017 21.6403C82.2942 21.8284 82.2439 22.0199 82.2472 22.2147C82.2472 22.3155 82.2203 22.4028 82.17 22.4834C82.1196 22.5641 82.0457 22.6111 81.9517 22.6279L80.9575 22.7891C80.8601 22.8059 80.7695 22.7824 80.6855 22.7253C80.6015 22.6682 80.5545 22.5909 80.5478 22.4935C80.5108 22.1509 80.5344 21.8419 80.6183 21.5631C80.7023 21.2843 80.8165 21.029 80.9609 20.7938C81.1053 20.5587 81.2665 20.3437 81.4445 20.1455C81.6225 19.9474 81.7871 19.7559 81.9349 19.5745C82.0826 19.3931 82.2036 19.2184 82.2909 19.0471C82.3782 18.8758 82.4084 18.6978 82.3782 18.5164C82.3245 18.1872 82.1397 17.9353 81.8274 17.7673C81.5151 17.5994 81.1255 17.5523 80.6653 17.6296C79.9265 17.7505 79.4395 18.2107 79.2144 19.0068C79.1876 19.1109 79.154 19.1882 79.1137 19.2453C79.0734 19.3024 78.9961 19.3394 78.8853 19.3562L77.8274 19.5308C77.7501 19.5443 77.6762 19.5308 77.6124 19.4872C77.5486 19.4435 77.5083 19.3797 77.4949 19.2923C77.4546 18.9867 77.4949 18.6608 77.6225 18.3115C77.7501 17.9655 77.9416 17.6363 78.2002 17.3307C78.4588 17.025 78.7778 16.7563 79.154 16.5245C79.5335 16.2927 79.9533 16.1382 80.4134 16.0643V16.0609ZM82.1498 23.4005C82.2472 23.3837 82.3345 23.4072 82.4151 23.4643C82.4957 23.5214 82.5428 23.5986 82.5596 23.6961L82.7476 24.8482C82.7644 24.9456 82.7409 25.033 82.6838 25.1136C82.6267 25.1942 82.5495 25.2412 82.4521 25.258L81.327 25.4428C81.2296 25.4596 81.1423 25.436 81.0616 25.3789C80.981 25.3218 80.9307 25.2446 80.9172 25.1472L80.7292 23.995C80.7124 23.901 80.7359 23.8103 80.793 23.7296C80.8501 23.649 80.9273 23.5986 81.0247 23.5852L82.1498 23.4005Z" fill="#0081FF"/>
<g opacity="0.2">
<path d="M80.4134 16.0609C80.8232 15.9937 81.2296 15.9837 81.636 16.0341C82.0423 16.0844 82.4151 16.1953 82.751 16.3666C83.0869 16.5413 83.3757 16.7764 83.6108 17.072C83.8492 17.3676 84.0004 17.7304 84.0709 18.157C84.128 18.5063 84.1213 18.8187 84.0541 19.0942C83.9869 19.3696 83.8862 19.6215 83.7485 19.8567C83.6108 20.0884 83.4563 20.3068 83.285 20.5083C83.1137 20.7099 82.9491 20.9013 82.7947 21.0861C82.6402 21.2675 82.5092 21.4522 82.4017 21.6403C82.2942 21.8284 82.2439 22.0199 82.2472 22.2147C82.2472 22.3155 82.2203 22.4028 82.17 22.4834C82.1196 22.5641 82.0457 22.6111 81.9517 22.6279L80.9575 22.7891C80.8601 22.8059 80.7695 22.7824 80.6855 22.7253C80.6015 22.6682 80.5545 22.5909 80.5478 22.4935C80.5108 22.1509 80.5344 21.8419 80.6183 21.5631C80.7023 21.2843 80.8165 21.029 80.9609 20.7938C81.1053 20.5587 81.2665 20.3437 81.4445 20.1455C81.6225 19.9474 81.7871 19.7559 81.9349 19.5745C82.0826 19.3931 82.2036 19.2184 82.2909 19.0471C82.3782 18.8758 82.4084 18.6978 82.3782 18.5164C82.3245 18.1872 82.1397 17.9353 81.8274 17.7673C81.5151 17.5994 81.1255 17.5523 80.6653 17.6296C79.9265 17.7505 79.4395 18.2107 79.2144 19.0068C79.1876 19.1109 79.154 19.1882 79.1137 19.2453C79.0734 19.3024 78.9961 19.3394 78.8853 19.3562L77.8274 19.5308C77.7501 19.5443 77.6762 19.5308 77.6124 19.4872C77.5486 19.4435 77.5083 19.3797 77.4949 19.2923C77.4546 18.9867 77.4949 18.6608 77.6225 18.3115C77.7501 17.9655 77.9416 17.6363 78.2002 17.3307C78.4588 17.025 78.7778 16.7563 79.154 16.5245C79.5335 16.2927 79.9533 16.1382 80.4134 16.0643V16.0609ZM82.1498 23.4005C82.2472 23.3837 82.3345 23.4072 82.4151 23.4643C82.4957 23.5214 82.5428 23.5986 82.5596 23.6961L82.7476 24.8482C82.7644 24.9456 82.7409 25.033 82.6838 25.1136C82.6267 25.1942 82.5495 25.2412 82.4521 25.258L81.327 25.4428C81.2296 25.4596 81.1423 25.436 81.0616 25.3789C80.981 25.3218 80.9307 25.2446 80.9172 25.1472L80.7292 23.995C80.7124 23.901 80.7359 23.8103 80.793 23.7296C80.8501 23.649 80.9273 23.5986 81.0247 23.5852L82.1498 23.4005Z" fill="black"/>
</g>
<path d="M89.9081 17.8682C90.0021 17.9353 90.0592 18.026 90.0794 18.1436C90.0995 18.2612 90.076 18.3653 90.0089 18.4593L89.2095 19.5846C89.1424 19.6787 89.0517 19.7358 88.9341 19.7559C88.8166 19.7761 88.7125 19.7526 88.6184 19.6854L87.5202 18.9027C87.4261 18.8356 87.369 18.7449 87.3489 18.6273C87.3287 18.5097 87.3523 18.4056 87.4194 18.3115L88.2188 17.1863C88.2859 17.0922 88.3766 17.0351 88.4942 17.015C88.6117 16.9948 88.7158 17.0183 88.8099 17.0855L89.9081 17.8682ZM94.5597 10.2397C94.9594 10.5253 95.312 10.8578 95.6109 11.2374C95.9098 11.617 96.1315 12.02 96.2726 12.4466C96.4136 12.8732 96.4573 13.3099 96.4103 13.7567C96.3632 14.2034 96.1886 14.6367 95.893 15.0533C95.6512 15.3959 95.3859 15.6545 95.1004 15.8292C94.8149 16.0039 94.5194 16.1349 94.2104 16.2155C93.9014 16.2995 93.5891 16.3532 93.2767 16.3801C92.961 16.407 92.6655 16.4338 92.3834 16.4574C92.1012 16.4809 91.8393 16.5279 91.5907 16.5984C91.3422 16.6656 91.1407 16.7865 90.9828 16.9545C90.8989 17.0351 90.8015 17.0889 90.694 17.1157C90.5865 17.1426 90.4858 17.1224 90.3917 17.0553L89.4211 16.3633C89.3271 16.2961 89.2666 16.2021 89.2431 16.0845C89.2196 15.9636 89.2431 15.8628 89.3204 15.7721C89.5756 15.453 89.851 15.2111 90.1533 15.0466C90.4556 14.882 90.7645 14.7644 91.0836 14.6871C91.3993 14.6099 91.7184 14.5628 92.0341 14.5427C92.3498 14.5225 92.6453 14.499 92.9207 14.4722C93.1961 14.4453 93.4447 14.3949 93.6596 14.3244C93.8746 14.2538 94.0492 14.1295 94.1768 13.9515C94.4086 13.629 94.4589 13.2629 94.3347 12.8598C94.2104 12.4567 93.9216 12.0939 93.4715 11.7748C92.7461 11.2609 91.9568 11.2441 91.1004 11.7245C90.9896 11.7883 90.8955 11.8252 90.8149 11.8387C90.7343 11.8521 90.6403 11.8185 90.5294 11.7412L89.4916 11.0056C89.4144 10.9519 89.3674 10.878 89.3472 10.7873C89.3271 10.6966 89.3472 10.6092 89.411 10.5219C89.6327 10.2297 89.9383 9.98782 90.3346 9.80307C90.731 9.61497 91.1642 9.50076 91.6378 9.46045C92.1113 9.41678 92.6017 9.45709 93.1155 9.57802C93.626 9.69894 94.1096 9.91728 94.5597 10.2397Z" fill="#0081FF"/>
<g opacity="0.6">
<path d="M89.9081 17.8682C90.0021 17.9353 90.0592 18.026 90.0794 18.1436C90.0995 18.2612 90.076 18.3653 90.0089 18.4593L89.2095 19.5846C89.1424 19.6787 89.0517 19.7358 88.9341 19.7559C88.8166 19.7761 88.7125 19.7526 88.6184 19.6854L87.5202 18.9027C87.4261 18.8356 87.369 18.7449 87.3489 18.6273C87.3287 18.5097 87.3523 18.4056 87.4194 18.3115L88.2188 17.1863C88.2859 17.0922 88.3766 17.0351 88.4942 17.015C88.6117 16.9948 88.7158 17.0183 88.8099 17.0855L89.9081 17.8682ZM94.5597 10.2397C94.9594 10.5253 95.312 10.8578 95.6109 11.2374C95.9098 11.617 96.1315 12.02 96.2726 12.4466C96.4136 12.8732 96.4573 13.3099 96.4103 13.7567C96.3632 14.2034 96.1886 14.6367 95.893 15.0533C95.6512 15.3959 95.3859 15.6545 95.1004 15.8292C94.8149 16.0039 94.5194 16.1349 94.2104 16.2155C93.9014 16.2995 93.5891 16.3532 93.2767 16.3801C92.961 16.407 92.6655 16.4338 92.3834 16.4574C92.1012 16.4809 91.8393 16.5279 91.5907 16.5984C91.3422 16.6656 91.1407 16.7865 90.9828 16.9545C90.8989 17.0351 90.8015 17.0889 90.694 17.1157C90.5865 17.1426 90.4858 17.1224 90.3917 17.0553L89.4211 16.3633C89.3271 16.2961 89.2666 16.2021 89.2431 16.0845C89.2196 15.9636 89.2431 15.8628 89.3204 15.7721C89.5756 15.453 89.851 15.2111 90.1533 15.0466C90.4556 14.882 90.7645 14.7644 91.0836 14.6871C91.3993 14.6099 91.7184 14.5628 92.0341 14.5427C92.3498 14.5225 92.6453 14.499 92.9207 14.4722C93.1961 14.4453 93.4447 14.3949 93.6596 14.3244C93.8746 14.2538 94.0492 14.1295 94.1768 13.9515C94.4086 13.629 94.4589 13.2629 94.3347 12.8598C94.2104 12.4567 93.9216 12.0939 93.4715 11.7748C92.7461 11.2609 91.9568 11.2441 91.1004 11.7245C90.9896 11.7883 90.8955 11.8252 90.8149 11.8387C90.7343 11.8521 90.6403 11.8185 90.5294 11.7412L89.4916 11.0056C89.4144 10.9519 89.3674 10.878 89.3472 10.7873C89.3271 10.6966 89.3472 10.6092 89.411 10.5219C89.6327 10.2297 89.9383 9.98782 90.3346 9.80307C90.731 9.61497 91.1642 9.50076 91.6378 9.46045C92.1113 9.41678 92.6017 9.45709 93.1155 9.57802C93.626 9.69894 94.1096 9.91728 94.5597 10.2397Z" fill="white"/>
</g>
<path d="M64.9003 47.6025H52.9674V18.6878C52.9674 13.4578 57.2059 9.21863 62.4352 9.21863H63.5368C68.766 9.21863 73.0045 13.4578 73.0045 18.6878V39.4971C73.0045 43.9747 69.3773 47.6025 64.9003 47.6025Z" fill="#263238"/>
<path d="M51.8053 117.212C51.7079 117.938 51.4997 118.787 51.4594 120.84C51.4191 123.043 51.0127 123.826 50.9589 125.633C50.8985 127.699 51.2545 128.472 52.0941 129.634C52.9338 130.796 55.1336 131.847 56.0606 129.886C57.001 127.901 56.87 126.638 56.5744 124.612C56.2655 122.516 56.2285 121.36 56.0505 119.762C55.8927 118.354 55.7046 117.283 55.7046 117.283L51.8053 117.212Z" fill="#263238"/>
<path d="M58.0589 102.577L50.8044 102.446C50.9119 107.289 51.681 112.667 51.8087 117.212C51.8322 118.069 51.7885 123.86 52.1109 125.62C52.5945 128.263 55.7348 127.907 55.9027 126.325C56.0706 124.743 55.7012 117.978 55.7113 117.283C55.6844 114.367 57.048 109.446 57.7667 104.213C57.8003 103.954 58.032 102.825 58.0656 102.577H58.0589Z" fill="#FFA8A7"/>
<path d="M67.379 113.443C67.379 113.443 67.0935 113.289 67.0331 113.595C66.9626 113.957 66.8584 114.71 66.7073 115.304C66.4957 116.134 66.3244 117.501 66.4487 118.176C66.573 118.851 68.1515 119.725 69.1758 120.037C70.6872 120.501 71.7216 121.257 72.5478 122.036C73.5621 122.99 75.7485 123.89 77.2397 123.88C79.0029 123.866 80.2322 123.292 80.8132 122.348C81.4211 121.364 80.2825 121.29 78.2708 119.983C77.814 119.688 77.2934 119.352 76.7057 118.969C73.5151 116.883 72.3463 115.768 71.4429 113.682L67.3824 113.44L67.379 113.443Z" fill="#263238"/>
<path d="M71.4663 112.153C71.4126 110.652 72.4403 97.9279 72.4403 97.9279L65.5486 101.069C67.023 109.876 67.3387 111.955 67.3656 113.396C67.3555 113.43 67.3253 113.551 67.3253 113.766C67.332 115.476 69.2631 116.399 70.7678 117.541C71.3622 117.991 73.0919 119.322 74.8417 120.202C75.9366 120.753 78.1599 120.803 78.4353 120.098C76.6016 118.697 73.9349 116.601 72.4773 115.005C71.782 114.243 71.5167 113.655 71.463 112.153H71.4663Z" fill="#FFA8A7"/>
<path d="M53.7768 55.3115C51.1303 61.1227 51.1303 65.6137 51.5703 73.0272C51.9699 79.8259 52.6114 85.8151 52.6114 85.8151C52.5073 87.021 50.8314 89.3757 50.6164 94.7098C50.4149 99.6947 50.959 106.033 50.959 106.033C50.959 106.033 54.7239 108.119 57.5082 106.016C57.5082 106.016 60.195 93.1882 60.9809 86.9471C61.6694 81.502 62.8617 74.5421 62.8617 74.5421L65.3907 86.9168C65.3907 86.9168 64.4301 89.9669 64.2051 92.2913C63.8491 95.9628 65.9012 103.171 65.9012 103.171C65.9012 103.171 69.7904 104.334 72.1649 102.224C72.1649 102.224 73.0549 90.5043 73.384 86.0838C73.8273 80.1618 72.8937 64.1324 72.1649 55.6441L53.7802 55.3115H53.7768Z" fill="#455A64"/>
<path d="M62.8583 74.5421L63.9028 65.2275C63.9028 65.2275 68.5846 64.6027 70.7072 62.6074C70.7072 62.6074 69.1152 65.5264 65.1891 66.0941L63.6778 74.7638L65.3873 86.9202L62.8583 74.5455V74.5421Z" fill="#263238"/>
<path d="M81.8173 53.0206C82.1095 50.1654 82.0961 48.2642 82.0726 47.8981C81.9718 46.4201 81.7065 46.1782 79.641 43.5615C76.85 40.0244 74.4688 36.8468 71.9533 33.6859C70.1564 31.4286 68.2656 31.0793 66.4184 31.1834C65.1287 31.254 67.6443 37.4581 68.9138 41.1296L76.1515 48.9158C76.3731 49.2249 76.4772 49.6011 76.4403 49.9807L75.997 56.6081L78.1632 59.5069C78.1632 59.5069 81.4445 56.6753 81.8173 53.024V53.0206Z" fill="#FFA8A7"/>
<path d="M59.4427 31.3816C58.0422 31.479 55.4964 31.7007 55.4964 31.7007C54.0287 32.5203 53.656 33.1921 53.3839 35.1437C53.2664 35.9734 53.9448 38.187 54.5258 41.3345L55.6274 47.1691L55.5065 50.0646C54.9356 51.8315 53.6392 54.025 52.5006 57.2597C58.1094 60.3904 62.8114 60.5046 67.0767 59.957C70.3278 59.5405 72.0507 58.7511 72.625 57.9752C72.5041 54.7774 72.2791 52.8056 72.2254 49.4667C72.2018 48.0626 72.2858 46.6485 72.3395 45.0361C74.5226 43.2424 74.5461 40.2629 73.3572 38.3348C70.5931 33.8572 67.9029 31.039 66.1229 31.1834L59.4461 31.3782L59.4427 31.3816Z" fill="#0081FF"/>
<path opacity="0.6" d="M59.4427 31.3816C58.0422 31.479 55.4964 31.7007 55.4964 31.7007C54.0287 32.5203 53.656 33.1921 53.3839 35.1437C53.2664 35.9734 53.9448 38.187 54.5258 41.3345L55.6274 47.1691L55.5065 50.0646C54.9356 51.8315 53.6392 54.025 52.5006 57.2597C58.1094 60.3904 62.8114 60.5046 67.0767 59.957C70.3278 59.5405 72.0507 58.7511 72.625 57.9752C72.5041 54.7774 72.2791 52.8056 72.2254 49.4667C72.2018 48.0626 72.2858 46.6485 72.3395 45.0361C74.5226 43.2424 74.5461 40.2629 73.3572 38.3348C70.5931 33.8572 67.9029 31.039 66.1229 31.1834L59.4461 31.3782L59.4427 31.3816Z" fill="white"/>
<path opacity="0.1" d="M67.9969 45.0865C67.9969 45.0865 65.4344 47.0751 62.5124 46.0371C59.5905 44.9992 59.164 42.4463 59.164 42.4463C59.164 42.4463 58.855 45.7885 62.5393 46.9273C66.096 48.0257 67.9969 45.0865 67.9969 45.0865Z" fill="black"/>
<path d="M71.4697 22.2081C71.3589 27.0585 69.7871 28.2577 68.9978 28.6003C68.2085 28.9463 66.6871 28.7347 65.2094 28.4895V31.3984C65.2094 31.3984 66.9155 33.1854 66.7879 34.519C66.6569 35.8559 64.1078 36.0037 62.1934 34.697C60.7962 33.7464 59.7987 32.6581 59.3621 32.1408C59.2043 31.9527 59.117 31.7175 59.117 31.4723V24.6232C59.117 24.6232 58.3076 25.4798 56.8735 24.4989C55.4427 23.5215 55.3218 21.6941 56.195 20.6629C56.8197 19.9306 58.4016 19.8769 59.164 21.019C59.5905 21.8554 59.651 22.6951 60.1279 22.3491C61.4041 21.4288 60.719 19.3394 62.2639 18.3048C62.2673 18.3048 62.2673 18.3015 62.2706 18.3015C62.7308 18.0529 63.2547 17.8178 63.8424 17.6162C66.5931 16.6656 68.9777 15.8662 69.552 13.9851C70.6368 14.63 71.604 16.4842 71.4697 22.2081Z" fill="#FFA8A7"/>
<path d="M66.0456 26.5412C66.398 26.5412 66.6837 26.2555 66.6837 25.903C66.6837 25.5505 66.398 25.2648 66.0456 25.2648C65.6932 25.2648 65.4075 25.5505 65.4075 25.903C65.4075 26.2555 65.6932 26.5412 66.0456 26.5412Z" fill="#B16668"/>
<path d="M65.6224 21.4724C65.6426 21.8553 65.3571 22.1812 64.9877 22.2013C64.6182 22.2181 64.3025 21.9225 64.2824 21.5362C64.2622 21.1533 64.5477 20.8275 64.9171 20.8073C65.2866 20.7905 65.6023 21.0861 65.6224 21.4724Z" fill="#263238"/>
<path d="M70.7107 21.5396C70.7274 21.8889 70.4688 22.1845 70.133 22.2013C69.7635 22.2181 69.5116 21.983 69.4915 21.5967C69.4747 21.2473 69.7333 20.9517 70.0692 20.9349C70.405 20.9181 70.6939 21.1902 70.7107 21.5396Z" fill="#263238"/>
<path d="M64.7593 23.199C63.5536 23.199 62.5763 22.2181 62.5763 21.0156C62.5763 19.5309 64.1078 19.5309 64.7593 19.5309C65.4109 19.5309 66.9424 19.5309 66.9424 21.0156C66.9424 22.2215 65.9617 23.199 64.7593 23.199ZM64.7593 19.8735C63.4361 19.8735 62.9189 20.1926 62.9189 21.0156C62.9189 22.03 63.7451 22.8563 64.7593 22.8563C65.7736 22.8563 66.5998 22.03 66.5998 21.0156C66.5998 20.196 66.0826 19.8735 64.7593 19.8735Z" fill="#455A64"/>
<path d="M70.3043 23.199C69.0986 23.199 68.1212 22.2181 68.1212 21.0156C68.1212 19.5309 69.6527 19.5309 70.3043 19.5309C70.9558 19.5309 72.4873 19.5309 72.4873 21.0156C72.4873 22.2215 71.5066 23.199 70.3043 23.199ZM70.3043 19.8735C68.981 19.8735 68.4638 20.1926 68.4638 21.0156C68.4638 22.03 69.29 22.8563 70.3043 22.8563C71.3186 22.8563 72.1448 22.03 72.1448 21.0156C72.1448 20.196 71.6275 19.8735 70.3043 19.8735Z" fill="#455A64"/>
<path d="M67.2816 20.3102L67.3891 24.3914L69.5352 23.7263L67.2816 20.3102Z" fill="#F28F8F"/>
<path d="M65.206 28.4895C63.6477 28.2846 60.4369 27.3642 59.9398 26.0945C59.9398 26.0945 60.1077 26.8906 61.0649 27.7135C62.0221 28.5365 65.206 29.4602 65.206 29.4602V28.4895Z" fill="#F28F8F"/>
<path d="M65.2832 18.3317L63.8592 19.1984C63.6275 18.7886 63.7551 18.2612 64.1481 18.0227C64.541 17.7842 65.0481 17.9219 65.2799 18.3317H65.2832Z" fill="#263238"/>
<path d="M71.0767 19.2957L69.4915 18.7415C69.6292 18.2947 70.096 18.0562 70.5326 18.2074C70.9692 18.3585 71.2144 18.8456 71.0767 19.2924V19.2957Z" fill="#263238"/>
<path d="M66.7711 21.1903C66.6771 21.1903 66.5999 21.113 66.5999 21.0156C66.5999 20.7368 67.154 20.5554 67.6477 20.5554C68.1414 20.5554 68.4638 20.7368 68.4638 21.0156C68.4638 21.1097 68.3866 21.1869 68.2926 21.1869C68.1985 21.1869 68.1213 21.1097 68.1213 21.0156C68.1045 20.9854 67.9466 20.9014 67.6477 20.9014C67.3488 20.9014 66.9592 20.9854 66.9424 21.019C66.9424 21.113 66.8652 21.1903 66.7711 21.1903Z" fill="#455A64"/>
<path d="M62.7509 21.0425C62.7509 21.0425 62.7375 21.0425 62.7308 21.0425L58.892 20.6931C58.8214 20.6293 58.6401 20.4412 58.2639 20.2833L62.7711 20.6998C62.8651 20.7099 62.9323 20.7973 62.9222 20.8913C62.9121 20.9786 62.8383 21.0458 62.7509 21.0458V21.0425Z" fill="#455A64"/>
<path d="M46.9892 25.0465C48.2453 23.3703 49.1017 22.1006 50.247 20.6629C50.8986 19.8467 51.315 19.2622 51.9397 18.4258C52.3696 17.848 52.6215 17.3643 53.1018 17.1829C53.6391 16.9814 54.1564 16.585 54.5023 16.2222C54.7508 15.9636 54.9523 15.6646 55.1639 15.3758C55.8826 14.4084 56.7391 13.5451 57.6996 12.8195C58.7105 12.057 59.8323 11.4759 60.8701 10.7503C61.4881 10.317 62.153 9.59819 61.4007 8.92638C61.1757 8.72484 60.8902 8.60727 60.598 8.54345C58.771 8.14372 57.1757 8.77522 55.3889 9.23205C54.6131 9.43024 53.8474 9.67881 53.1118 10.0013C52.7558 10.1558 52.3998 10.3271 52.1043 10.579C51.6442 10.972 51.3688 11.533 51.0698 12.0604C50.2672 13.4779 48.6013 14.7275 47.4292 15.8292C46.0555 17.1225 44.8263 18.3082 43.2579 19.7358C41.8473 21.019 40.4669 22.2047 39.1705 23.6054C38.0991 24.7643 38.4887 25.6746 38.6432 25.987C39.5164 27.7807 40.4938 28.4257 41.6592 29.5375C43.681 31.4623 50.6433 37.0047 52.954 38.832C53.4477 39.225 53.8373 39.7322 54.0858 40.31L54.5258 41.3345C57.1589 41.8182 58.9154 37.8646 56.7357 33.1048C56.3831 32.3322 55.8222 31.6739 55.1337 31.1734C52.383 29.168 46.9892 25.0431 46.9892 25.0431V25.0465Z" fill="#FFA8A7"/>
<path d="M46.9892 25.0465C46.9892 25.0465 45.8003 26.6387 43.7717 27.2635C43.7717 27.2635 45.451 27.6934 47.7516 25.6276L46.9926 25.0465H46.9892Z" fill="#F28F8F"/>
<path d="M81.1322 49.5172H81.1422L80.7123 49.1477V49.1544C80.6149 49.0771 80.4638 49.0536 80.269 49.104L75.6073 50.3737C75.1741 50.4913 74.7073 50.9313 74.5595 51.3546L71.2043 61.0387C71.127 61.2638 71.1573 61.4351 71.2648 61.5325H71.2614L71.7047 61.9154V61.9087C71.8021 61.9893 71.9533 62.0162 72.1514 61.9625L76.8131 60.6927C77.2463 60.5752 77.7132 60.1351 77.8609 59.7119C78.5192 57.8073 80.5578 51.9323 81.2161 50.0278C81.3001 49.7893 81.2564 49.6112 81.1322 49.5172Z" fill="#455A64"/>
<path d="M71.6308 61.4049L74.986 51.7208C75.1338 51.2975 75.6006 50.8575 76.0339 50.7399L80.6989 49.4702C81.1321 49.3526 81.3639 49.6012 81.2161 50.0244C80.5578 51.929 78.5192 57.804 77.8609 59.7086C77.7131 60.1318 77.2463 60.5719 76.813 60.6894L72.1514 61.9591C71.7181 62.0767 71.4864 61.8281 71.6342 61.4049H71.6308Z" fill="#0081FF"/>
<path d="M75.5301 51.012C75.2883 51.2035 75.0801 51.4688 74.9894 51.7241L71.6308 61.4049C71.5569 61.6232 71.5805 61.7912 71.6779 61.892L71.2614 61.5325H71.2648C71.1539 61.4318 71.1237 61.2604 71.2009 61.0354L74.5595 51.3513C74.6401 51.1128 74.8315 50.8709 75.0565 50.6794L75.5301 51.0153V51.012Z" fill="#37474F"/>
<path d="M79.8525 53.9309C79.5234 54.9185 78.3512 55.5769 76.4268 56.0337C74.5023 56.4905 73.4343 58.5362 73.7433 59.1576C74.0557 59.779 77.1657 60.3568 78.4117 60.1788C79.6577 60.0007 80.9105 58.2003 81.2866 57.6427C81.6628 57.0851 82.1027 53.1953 81.7031 52.6612C81.3034 52.1271 80.4604 52.2111 80.4604 52.2111L79.8525 53.9309Z" fill="#F28F8F"/>
</g>
<defs>
<clipPath id="clip0_8_3864">
<rect width="158.248" height="147.768" fill="white" transform="translate(0.375977 0.176025)"/>
</clipPath>
</defs>
</svg>
