<svg width="209" height="119" viewBox="0 0 209 119" fill="none" xmlns="http://www.w3.org/2000/svg">
<path opacity="0.0845424" d="M194.089 55.5425C196.788 51.9386 201.901 51.2042 205.507 53.9024C209.077 56.5735 209.833 61.6074 207.228 65.2048L207.148 65.3133L185.756 93.8687C183.031 97.5057 177.971 98.4279 174.141 96.0074L174.026 95.933L160.558 87.1245L146.98 106.887C144.456 110.562 139.453 111.523 135.75 109.069L135.638 108.993C131.961 106.471 131 101.472 133.455 97.7709L133.531 97.6592L151.324 71.7617C153.975 67.9037 159.198 66.8405 163.143 69.3315L163.262 69.408L176.98 78.3801L194.089 55.5425Z" fill="#0081FF"/>
<path opacity="0.0845424" d="M124.065 9.20426C124.75 8.20975 126.113 7.95682 127.111 8.63932C128.095 9.31284 128.355 10.6457 127.704 11.6364L127.677 11.6758L122.346 19.4202C121.564 20.5116 120.052 20.7745 118.948 20.0195L118.908 19.9921L115.846 17.8125L112.528 23.0693C111.892 24.0768 110.566 24.3887 109.547 23.7788L109.507 23.7543C108.497 23.1201 108.184 21.7983 108.795 20.7825L108.82 20.7426L113.221 13.7714C113.946 12.623 115.467 12.2779 116.619 13.0007L116.68 13.0398L116.739 13.0805L119.865 15.306L124.065 9.20426Z" fill="#0081FF"/>
<path opacity="0.070266" fill-rule="evenodd" clip-rule="evenodd" d="M181.041 45.4832C182.138 45.4832 183.027 44.594 183.027 43.4972V39.5879H186.961C188.046 39.5879 188.926 38.7079 188.926 37.6223C188.926 36.5367 188.046 35.6567 186.961 35.6567H183.027V31.7093C183.027 30.6124 182.138 29.7233 181.041 29.7233C179.944 29.7233 179.055 30.6124 179.055 31.7093V35.6567H175.121C174.036 35.6567 173.156 36.5367 173.156 37.6223C173.156 38.7079 174.036 39.5879 175.121 39.5879H179.055V43.4972C179.055 44.594 179.944 45.4832 181.041 45.4832Z" fill="#00CFE8"/>
<path opacity="0.0739397" fill-rule="evenodd" clip-rule="evenodd" d="M26.599 14.0138C41.1654 14.0138 52.9738 25.8143 52.9738 40.3709C52.9738 54.9275 41.1654 66.728 26.599 66.728C12.0325 66.728 0.224121 54.9275 0.224121 40.3709C0.224121 25.8143 12.0325 14.0138 26.599 14.0138ZM26.5988 27.0566C19.2405 27.0566 13.2754 33.0176 13.2754 40.371C13.2754 47.7243 19.2405 53.6854 26.5988 53.6854C33.9571 53.6854 39.9221 47.7243 39.9221 40.371C39.9221 33.0176 33.9571 27.0566 26.5988 27.0566Z" fill="#00CFE8"/>
<path fill-rule="evenodd" clip-rule="evenodd" d="M157.88 98.4486C157.88 85.1323 147.084 74.3373 133.768 74.3373L111.179 74.3373V108.576C111.179 110.785 112.969 112.576 115.179 112.576H153.88C156.089 112.576 157.88 110.785 157.88 108.576V98.4486Z" fill="#DFDFDF"/>
<path fill-rule="evenodd" clip-rule="evenodd" d="M153.491 105.68L119.954 105.68V113.203H153.491L153.491 105.68Z" fill="#D1D1D1"/>
<path fill-rule="evenodd" clip-rule="evenodd" d="M109.87 113.203L107.731 118.531H118.074L116.282 113.203H109.87Z" fill="#DFDFDF"/>
<path fill-rule="evenodd" clip-rule="evenodd" d="M145.288 112.576L143.148 118.531H153.491L151.699 112.576H145.288Z" fill="#F1F1F1"/>
<path fill-rule="evenodd" clip-rule="evenodd" d="M75.0797 113.203L72.94 118.531H83.2832L81.4908 113.203H75.0797Z" fill="#DFDFDF"/>
<path fill-rule="evenodd" clip-rule="evenodd" d="M131.238 55.0401C131.238 43.8877 122.328 34.7786 111.178 34.5319V78.0985H131.238L131.238 55.0401Z" fill="#DFDFDF"/>
<path fill-rule="evenodd" clip-rule="evenodd" d="M127.477 58.6432C127.477 45.3269 116.682 34.5319 103.365 34.5319H95.0936C83.0317 34.5319 73.2536 44.31 73.2536 56.3719V76.9781C73.2536 77.9431 74.0358 78.7253 75.0008 78.7253H127.477L127.477 58.6432Z" fill="#F2F2F2"/>
<path fill-rule="evenodd" clip-rule="evenodd" d="M88.2981 42.5904C88.2981 38.1398 84.6901 34.5319 80.2395 34.5319C76.2081 34.5319 72.9401 37.7999 72.9401 41.8313V72.5901C72.9401 73.5551 73.7223 74.3373 74.6873 74.3373H88.2981V42.5904Z" fill="#DFDFDF"/>
<path fill-rule="evenodd" clip-rule="evenodd" d="M153.491 91.3253C153.491 84.3666 147.85 78.7253 140.891 78.7253H113.372V107.561H153.491V91.3253Z" fill="#F2F2F2"/>
<path fill-rule="evenodd" clip-rule="evenodd" d="M111.564 30.5424C106.174 29.2797 105.819 21.8377 109.917 19.2562C105.691 10.3448 115.464 1.49699 122.158 6.95358C126.546 5.06394 130.193 12.4377 126.109 18.1647C127.821 27.998 124.337 30.5398 118.056 30.6478L111.564 30.5424Z" fill="#33373E"/>
<path fill-rule="evenodd" clip-rule="evenodd" d="M111.631 28.7652C111.631 28.7652 114.253 28.146 114.344 23.8244C114.435 19.5027 114.371 18.0276 114.371 18.0276L120.146 17.9227C120.146 17.9227 120.209 22.7391 120.21 24.4812C120.212 29.1603 123.453 28.7652 123.453 28.7652C123.453 28.7652 122.78 32.5591 117.547 32.8551C113.461 33.0866 111.631 28.7652 111.631 28.7652Z" fill="#EDC2C2"/>
<path fill-rule="evenodd" clip-rule="evenodd" d="M113.025 15.8695C110.448 15.7692 110.869 19.5632 113.545 19.5581C113.545 19.5581 115.099 24.9476 120.496 24.9476C124.879 24.9476 125.164 18.666 125.204 17.4129C125.247 16.0768 125.252 11.6873 125.252 11.6873L112.924 11.6815L113.025 15.8695Z" fill="#FFD7D7"/>
<path d="M119.455 21.3269C119.455 21.3269 120.741 22.4218 122.23 21.3966" stroke="#F77B7B" stroke-width="1.5" stroke-linecap="round"/>
<path d="M120.304 22.595C120.704 22.7806 121.089 22.7942 121.433 22.6091" stroke="#F49494" stroke-linecap="round"/>
<path d="M113.287 17.91C113.314 17.3014 113.129 16.8181 112.512 16.7209" stroke="#F77B7B" stroke-linecap="round"/>
<path fill-rule="evenodd" clip-rule="evenodd" d="M112.617 15.4007C112.617 15.4007 114.029 17.3068 114.315 17.3169C114.601 17.327 114.701 14.8379 114.701 14.8379C116.434 14.7048 120.818 13.8266 121.892 11.7808C122.644 13.5859 124.08 14.3877 125.024 14.2338L125.203 18.0688L125.644 10.3588H112.272L112.617 15.4007Z" fill="#33373E"/>
<path fill-rule="evenodd" clip-rule="evenodd" d="M138.018 104.975C138.018 104.975 135.707 109.671 137.601 111.151C139.499 112.631 144.511 115.405 144.511 115.405L131.232 114.565L134.184 104.324L138.018 104.975Z" fill="#FFD7D7"/>
<path fill-rule="evenodd" clip-rule="evenodd" d="M132.517 109.444C133.172 109.521 132.472 111.741 133.891 111.909C135.307 112.078 135.995 109.975 137.602 110.642C139.209 111.309 145.07 114.755 145.3 116.164C145.534 117.573 143.351 117.987 140.356 117.669C137.362 117.351 136.81 116.279 134.562 116.711C132.317 117.142 130.635 116.455 130.709 114.804C130.783 113.154 131.861 109.367 132.517 109.444Z" fill="#2B2E35"/>
<path fill-rule="evenodd" clip-rule="evenodd" d="M138.335 110.984C138.034 111.437 138.182 112.051 138.657 112.317L141.895 114.135C142.187 114.299 142.541 114.306 142.839 114.154L143.187 113.976C142.221 113.273 141.432 112.744 140.559 112.225C139.889 111.826 139.147 111.415 138.335 110.984Z" fill="white" fill-opacity="0.540975"/>
<path fill-rule="evenodd" clip-rule="evenodd" d="M118.014 63.5871C122.035 63.7676 144.41 68.746 148.475 69.5918C152.54 70.4376 155.977 75.0142 152.877 80.3137C149.395 86.2627 140.412 103.158 138.231 106.966C137.151 108.851 131.705 107.794 132.984 104.63C135.369 98.7322 136.477 83.9155 142.557 78.5131C142.557 78.5131 122.11 82.0929 113.277 77.9923C106.858 75.0115 108.31 63.1505 118.014 63.5871Z" fill="#33373E"/>
<path fill-rule="evenodd" clip-rule="evenodd" d="M146.499 39.6728C146.499 39.6728 146.453 36.3822 147.598 34.6625C148.742 32.9429 148.787 31.1162 149.653 31.176C150.519 31.2358 149.662 35.4816 149.662 35.4816C149.662 35.4816 150.761 35.0593 151.55 34.5252C152.339 33.9911 154.733 31.3579 155.292 31.8245C156.24 32.6196 154.713 37.1043 153.881 38.0009C153.046 38.8977 148.486 41.847 148.486 41.847L146.499 39.6728Z" fill="#FFD7D7"/>
<path fill-rule="evenodd" clip-rule="evenodd" d="M121.794 37.7009C123.664 42.0642 127.088 50.0798 128.5 52.4712C130.269 55.466 133.058 56.7855 136.325 54.5634C139.756 52.2286 149.206 43.1219 149.483 41.0591C149.758 38.9963 147.445 36.5212 145.352 37.8026C143.259 39.0841 134.563 46.3642 134.563 46.3642C134.563 46.3642 131.054 37.314 128.23 32.0713C125.785 27.5355 118.947 31.0676 121.794 37.7009Z" fill="#0081FF"/>
<path fill-rule="evenodd" clip-rule="evenodd" d="M134.599 46.369C134.599 46.369 135.542 49.5853 135.762 49.399C135.983 49.2128 135.594 45.5284 135.594 45.5284L134.599 46.369Z" fill="black" fill-opacity="0.302803"/>
<path d="M158.031 32.6646C158.441 31.404 157.751 30.05 156.49 29.6404L154.016 28.8365C152.755 28.4269 151.401 29.1167 150.991 30.3773L147.873 39.9752C147.463 41.2358 148.153 42.5898 149.414 42.9994L151.888 43.8034C153.149 44.213 154.503 43.5231 154.912 42.2625L158.031 32.6646Z" fill="#7596FF"/>
<rect width="7.40176" height="14.8918" rx="2.4" transform="matrix(-0.951057 -0.309017 -0.309017 0.951057 158.303 30.0236)" fill="#93C2F9"/>
<path d="M156.88 30.1205L156.346 29.9471C156.237 29.9117 156.121 29.9612 156.069 30.059L156.052 30.0979C156.012 30.221 155.881 30.2886 155.758 30.2488L153.184 29.4124C153.075 29.377 153.01 29.2688 153.025 29.1587L153.035 29.1175C153.075 28.9944 153.008 28.8624 152.886 28.8226L152.354 28.65C151.96 28.5218 151.537 28.7224 151.379 29.101L151.356 29.1629L147.624 40.6835C147.462 41.1864 147.735 41.7252 148.234 41.8883L152.458 43.2607C152.936 43.4168 153.449 43.1711 153.635 42.7094L153.659 42.6451C153.659 42.6448 153.659 42.6445 153.658 42.644L157.389 31.1261C157.525 30.7062 157.297 30.2561 156.88 30.1205Z" fill="#E6F3FF"/>
<path fill-rule="evenodd" clip-rule="evenodd" d="M103.104 32.4435C103.104 32.4435 107.611 47.6236 107.745 50.497C107.878 53.3708 104.059 61.8167 104.709 63.9514C106.208 68.8845 125.351 71.0087 126.082 64.3725C126.423 61.2776 125.713 58.4998 126.531 54.8531C127.346 51.2063 130.622 45.7872 128.764 40.6923C126.906 35.5973 127.404 30.8837 126.075 29.9928C124.746 29.1019 121.639 28.1557 121.639 28.1557C120.128 30.3922 115.028 30.3596 112.595 27.998C112.595 27.998 106.549 29.1778 103.104 32.4435Z" fill="#0081FF"/>
<path fill-rule="evenodd" clip-rule="evenodd" d="M107.143 34.9021C110.147 39.6977 110.138 48.0475 111.751 49.141C113.365 50.2345 119.644 49.1614 119.644 50.0274C119.644 50.8934 110.966 58.8299 112.391 62.6238C113.137 64.6104 112.934 66.3877 111.784 67.9556L111.408 67.8733C107.989 67.096 105.24 65.7002 104.709 63.9514C104.059 61.8166 108.319 53.3708 108.185 50.497C108.072 48.0578 104.49 36.7508 103.41 33.3888C104.289 31.8281 105.533 32.3324 107.143 34.9021Z" fill="black" fill-opacity="0.199355"/>
<path fill-rule="evenodd" clip-rule="evenodd" d="M112.266 47.6251C112.266 47.6251 116.061 44.2455 117.223 43.8533C118.385 43.4611 125.191 42.99 125.148 43.8762C125.099 44.8257 121.444 44.771 121.065 45.2382C120.686 45.705 120.6 48.8975 119.169 49.256C117.74 49.6144 113.456 50.2323 113.456 50.2323L112.266 47.6251Z" fill="#FFD7D7"/>
<path fill-rule="evenodd" clip-rule="evenodd" d="M102.167 33.3159C98.1679 38.9937 94.7535 47.6424 93.4429 51.0143C92.1323 54.3862 93.4544 59.472 99.2174 58.4736C104.97 57.4777 114.123 52.0667 115.136 50.4883C116.149 48.9098 114.61 46.0376 112.673 46.4136C110.878 46.7615 101.974 50.5698 101.974 50.5698C101.974 50.5698 107.702 40.3564 109.101 37.6185C111.437 33.046 105.69 28.3132 102.167 33.3159Z" fill="#0081FF"/>
<path fill-rule="evenodd" clip-rule="evenodd" d="M102.065 50.4999C102.065 50.4999 99.0647 51.9993 99.4306 51.3705C99.7966 50.7417 103.21 48.5325 103.21 48.5325L102.065 50.4999Z" fill="black" fill-opacity="0.302803"/>
<path fill-rule="evenodd" clip-rule="evenodd" d="M151.981 105.164C151.981 105.164 151.912 110.691 156.439 112.757C160.963 114.824 164.187 114.699 163.777 116.297C163.366 117.894 151.59 117.83 150.49 116.58C149.553 115.517 147.514 105.621 146.953 106.378L151.981 105.164Z" fill="#FFD7D7"/>
<path fill-rule="evenodd" clip-rule="evenodd" d="M148.399 111.351C148.905 110.368 148.937 113.132 150.931 112.523C152.549 112.029 153.103 109.199 154.125 109.819C155.148 110.439 164.149 115.244 164.2 115.273C165.309 115.873 164.999 117.693 163.127 118.01C161.047 118.363 150.27 118.125 149.692 117.568C149.114 117.01 147.994 112.139 148.399 111.351Z" fill="#2B2E35"/>
<path fill-rule="evenodd" clip-rule="evenodd" d="M155.456 111.472C155.416 111.472 155.376 111.483 155.336 111.504C154.86 111.757 155.203 112.46 155.701 112.666L159.538 114.255C159.879 114.397 160.436 114.38 160.439 114.01C160.439 113.99 160.435 113.971 160.427 113.953C160.339 113.769 155.796 111.472 155.456 111.472Z" fill="white" fill-opacity="0.540975"/>
<path fill-rule="evenodd" clip-rule="evenodd" d="M104.977 61.8784C104.977 61.8784 99.1328 74.2951 107.346 78.5587C115.289 82.682 139.068 77.8053 139.068 77.8053C139.068 77.8053 138.644 81.2467 139.068 84.316C140.178 92.3324 145.456 105.688 146.573 107.366C148.117 109.687 152.821 107.937 152.91 106.004C152.998 104.072 149.364 79.3925 148.811 74.6863C148.261 69.9799 146.525 69.2962 141.454 68.0097C140.289 67.7141 126.514 64.2702 125.252 64.3706C114.409 65.2331 104.977 61.8784 104.977 61.8784Z" fill="#42474F"/>
<path fill-rule="evenodd" clip-rule="evenodd" d="M111.384 77.2774C119.248 78.1638 140.068 76.3366 140.904 77.1669C141.702 77.9596 141.569 91.7503 143.36 99.7322L143.087 98.9785C141.403 94.2729 139.654 88.5499 139.068 84.3161C138.643 81.2468 139.068 77.8054 139.068 77.8054L138.11 77.9921C133.589 78.8462 114.336 82.1873 107.346 78.5588C103.559 76.5928 102.013 73.3266 102.71 68.7601C103.909 73.9215 106.8 76.7607 111.384 77.2774Z" fill="#52565E"/>
<ellipse cx="152.164" cy="75.318" rx="1.32214" ry="2.43691" transform="rotate(13 152.164 75.318)" fill="#52565E"/>
<ellipse cx="145.996" cy="73.7667" rx="1.76312" ry="2.65805" transform="rotate(-16 145.996 73.7667)" fill="#52565E"/>
<path fill-rule="evenodd" clip-rule="evenodd" d="M119.955 98.4486C119.955 85.1323 109.16 74.3373 95.8432 74.3373L73.2537 74.3373V110.828C73.2537 111.793 74.0359 112.576 75.0009 112.576H119.955L119.955 98.4486Z" fill="#DFDFDF"/>
<path fill-rule="evenodd" clip-rule="evenodd" d="M144.715 1.92308C144.715 1.06426 145.412 0.368042 146.27 0.368042L146.476 0.368042C147.221 0.368042 147.825 0.972 147.825 1.71702C147.825 1.94411 148.01 2.12821 148.237 2.12821H154.841C157.05 2.12821 158.841 3.91907 158.841 6.12821V8.36011C158.841 10.5693 157.05 12.3601 154.841 12.3601H148.715C146.506 12.3601 144.715 10.5692 144.715 8.36011V1.92308Z" fill="url(#paint0_linear_8_3296)"/>
<path fill-rule="evenodd" clip-rule="evenodd" d="M147.89 2.48897C147.983 1.89561 148.494 1.45825 149.095 1.45825H157.959C158.708 1.45825 159.279 2.12652 159.164 2.86608L157.839 11.3294C157.746 11.9228 157.235 12.3601 156.634 12.3601H147.77C147.022 12.3601 146.45 11.6919 146.566 10.9523L147.89 2.48897Z" fill="url(#paint1_linear_8_3296)"/>
<path fill-rule="evenodd" clip-rule="evenodd" d="M157.251 4.18372C159.202 4.18372 160.669 5.96226 160.299 7.87759C159.733 10.7968 157.177 12.9052 154.204 12.9052H148.478C146.527 12.9052 145.06 11.1267 145.431 9.21134C145.996 6.29215 148.552 4.18372 151.525 4.18372L157.251 4.18372Z" fill="#FFCC7B"/>
<path fill-rule="evenodd" clip-rule="evenodd" d="M53.6755 98.9727C50.2251 91.184 47.0904 83.1849 44.2208 75.0092C50.8308 81.2257 55.9709 88.7993 55.2389 98.9727H53.6755Z" fill="#57E295"/>
<path fill-rule="evenodd" clip-rule="evenodd" d="M55.5146 99.7861C56.3312 86.5055 55.9852 74.1714 49.1405 67.1284C50.0846 81.7099 51.8507 91.9819 54.0875 99.7861H55.5146Z" fill="#28C76F"/>
<path fill-rule="evenodd" clip-rule="evenodd" d="M55.8286 98.4032C59.6527 89.1227 63.4953 86.4624 66.6716 76.936C56.2762 82.3148 55.6246 86.7562 53.5841 98.4032H55.8286Z" fill="#57E295"/>
<path fill-rule="evenodd" clip-rule="evenodd" d="M57.8867 98.403L64.7468 89.1224C61.4337 90.0648 55.8958 91.5908 55.8958 98.403H57.8867Z" fill="#28C76F"/>
<path fill-rule="evenodd" clip-rule="evenodd" d="M51.4706 98.4031H49.182C47.7277 95.3731 45.6783 93.2872 40.7202 95.8157C43.9702 90.876 50.6385 89.3811 51.4706 98.4031Z" fill="#57E295"/>
<path fill-rule="evenodd" clip-rule="evenodd" d="M53.5758 98.4032H51.6727C48.1799 93.4191 46.6782 91.2474 43.0637 86.9911C47.8253 88.794 52.7129 91.2474 53.5758 98.4032Z" fill="#28C76F"/>
<path fill-rule="evenodd" clip-rule="evenodd" d="M58.3599 97.6838H48.7461C48.3799 97.6838 48.0831 97.9785 48.0831 98.342V100.152C45.652 103.196 44.4365 106.24 44.4365 109.283C44.4365 112.234 45.4745 115.184 47.5505 118.134C47.6745 118.31 47.8775 118.415 48.094 118.415H59.012C59.2286 118.415 59.4315 118.31 59.5555 118.134C61.6315 115.184 62.6696 112.234 62.6696 109.283C62.6696 106.297 61.4995 103.311 59.1592 100.324L59.0229 100.152V98.342C59.0229 97.9785 58.7261 97.6838 58.3599 97.6838Z" fill="#0081FF"/>
<mask id="mask0_8_3296" style="mask-type:luminance" maskUnits="userSpaceOnUse" x="44" y="97" width="19" height="22">
<path fill-rule="evenodd" clip-rule="evenodd" d="M58.3599 97.6838H48.7461C48.3799 97.6838 48.0831 97.9785 48.0831 98.342V100.152C45.652 103.196 44.4365 106.24 44.4365 109.283C44.4365 112.234 45.4745 115.184 47.5505 118.134C47.6745 118.31 47.8775 118.415 48.094 118.415H59.012C59.2286 118.415 59.4315 118.31 59.5555 118.134C61.6315 115.184 62.6696 112.234 62.6696 109.283C62.6696 106.297 61.4995 103.311 59.1592 100.324L59.0229 100.152V98.342C59.0229 97.9785 58.7261 97.6838 58.3599 97.6838Z" fill="white"/>
</mask>
<g mask="url(#mask0_8_3296)">
<path fill-rule="evenodd" clip-rule="evenodd" d="M64.9904 97.1138H56.3711C60.4975 106.648 52.3578 112.295 56.3711 121.794H64.9904V97.1138Z" fill="#0081FF"/>
</g>
<defs>
<linearGradient id="paint0_linear_8_3296" x1="159.949" y1="10.1028" x2="159.949" y2="-3.77079" gradientUnits="userSpaceOnUse">
<stop stop-color="#FF8C19"/>
<stop offset="1" stop-color="#FFC967"/>
</linearGradient>
<linearGradient id="paint1_linear_8_3296" x1="158.281" y1="4.87936" x2="158.281" y2="-1.53736" gradientUnits="userSpaceOnUse">
<stop stop-color="#F8FDFF"/>
<stop offset="1" stop-color="#AAD4FF"/>
</linearGradient>
</defs>
</svg>
