<svg width="203" height="167" viewBox="0 0 203 167" fill="none" xmlns="http://www.w3.org/2000/svg">
<g clip-path="url(#clip0_8_5211)">
<path d="M95.9065 130.134H2.75452C1.23495 130.134 0 128.956 0 127.507V2.62706C0 1.17781 1.23495 0 2.75452 0H95.9065C97.4261 0 98.6611 1.17781 98.6611 2.62706V127.507C98.6611 128.956 97.4261 130.134 95.9065 130.134ZM2.75452 0.11502C1.30249 0.11502 0.120601 1.24222 0.120601 2.62706V127.507C0.120601 128.892 1.30249 130.019 2.75452 130.019H95.9065C97.3586 130.019 98.5405 128.892 98.5405 127.507V2.62706C98.5405 1.24222 97.3586 0.11502 95.9065 0.11502H2.75452Z" fill="#EBEBEB"/>
<path d="M200.245 130.134H107.093C105.574 130.134 104.339 128.956 104.339 127.507V2.62706C104.339 1.17781 105.574 0 107.093 0H200.245C201.765 0 203 1.17781 203 2.62706V127.507C203 128.956 201.765 130.134 200.245 130.134ZM107.093 0.11502C105.641 0.11502 104.46 1.24222 104.46 2.62706V127.507C104.46 128.892 105.641 130.019 107.093 130.019H200.245C201.698 130.019 202.879 128.892 202.879 127.507V2.62706C202.879 1.24222 201.698 0.11502 200.245 0.11502H107.093Z" fill="#EBEBEB"/>
<path d="M149.772 147.985H195.687V89.7157H149.772V147.985Z" fill="#F5F5F5"/>
<path d="M141.016 147.985H149.776V89.7157H141.016V147.985Z" fill="#E6E6E6"/>
<path d="M152.758 108.188H192.474V94.0359H152.758V108.188Z" fill="#FAFAFA"/>
<path d="M177.794 94.0359L177.621 95.9222C177.563 96.5433 177.018 97.0218 176.362 97.0218H168.865C168.209 97.0218 167.664 96.5433 167.606 95.9222L167.432 94.0359H177.79H177.794Z" fill="#EBEBEB"/>
<path d="M152.758 123.881H192.474V109.729H152.758V123.881Z" fill="#FAFAFA"/>
<path d="M177.794 109.734L177.621 111.62C177.563 112.241 177.018 112.72 176.362 112.72H168.865C168.209 112.72 167.664 112.241 167.606 111.62L167.432 109.734H177.79H177.794Z" fill="#EBEBEB"/>
<path d="M152.758 139.579H192.474V125.427H152.758V139.579Z" fill="#FAFAFA"/>
<path d="M177.794 125.427L177.621 127.313C177.563 127.935 177.018 128.413 176.362 128.413H168.865C168.209 128.413 167.664 127.935 167.606 127.313L167.432 125.427H177.79H177.794Z" fill="#EBEBEB"/>
<path d="M152.758 150.888H191.992L192.474 147.976H152.758V150.888Z" fill="#E6E6E6"/>
<path d="M144.557 150.888H152.758V147.976H144.074L144.557 150.888Z" fill="#E0E0E0"/>
<path d="M171.2 89.7755H186.878L185.137 70.8156H169.459L171.2 89.7755Z" fill="#FAFAFA"/>
<path d="M171.2 89.7755H170.452L168.711 70.8156H169.459L171.2 89.7755Z" fill="#EBEBEB"/>
<path d="M172.618 87.8432H185.103L183.718 72.7479H171.234L172.618 87.8432Z" fill="#F0F0F0"/>
<path d="M173.535 86.6009H183.96L182.802 73.9901H172.377L173.535 86.6009Z" fill="#E6E6E6"/>
<path d="M166.796 89.7755L167.871 78.0388H152.261L151.185 89.7755H166.796Z" fill="#F0F0F0"/>
<path d="M166.796 89.7755L167.871 78.0388H168.711L167.635 89.7755H166.796Z" fill="#E0E0E0"/>
<path d="M165.31 88.5792L166.169 79.235H153.747L152.888 88.5792H165.31Z" fill="#EBEBEB"/>
<path d="M164.36 87.811L165.073 80.0034H154.697L153.983 87.811H164.36Z" fill="#F5F5F5"/>
<path d="M130.755 143.002C130.755 146.112 130.244 148.123 129.38 149.416C128.734 150.386 127.567 150.934 126.361 150.934H121.638C120.432 150.934 119.269 150.386 118.618 149.416C117.755 148.123 117.243 146.112 117.243 143.002C117.243 138.489 119.303 134.882 119.978 131.997C120.22 130.957 119.414 127.778 119.414 127.778H128.58C128.58 127.778 127.774 130.962 128.015 131.997C128.691 134.882 130.751 138.493 130.751 143.002H130.755Z" fill="#EBEBEB"/>
<path d="M146.366 124.742C146.366 120.826 139.926 122.45 138.305 116.373C137.692 114.072 142.926 108.86 142.926 108.86H126.597C126.597 108.86 131.836 114.072 131.218 116.373C129.598 122.45 123.157 120.822 123.157 124.742C123.157 129.057 132.241 138.038 132.675 148.15C132.714 149.052 130.968 150.929 130.968 150.929H138.551C138.551 150.929 136.805 149.057 136.843 148.15C137.282 138.038 146.361 129.053 146.361 124.742H146.366Z" fill="#F5F5F5"/>
<path d="M141.431 134.923C142.381 133.019 140.418 126.545 140.418 126.545H147.495C147.495 126.545 145.531 133.019 146.482 134.923C147.152 136.267 148.677 137.127 148.677 138.714V148.27C148.677 150.745 146.554 150.929 143.959 150.929C141.363 150.929 139.241 150.745 139.241 148.27V138.714C139.241 137.122 140.765 136.267 141.436 134.923H141.431Z" fill="#F0F0F0"/>
<path d="M60.5705 78.4805C56.5039 76.8012 54.1883 73.2586 55.3992 70.5809C56.6148 67.9033 60.9082 67.0935 64.9749 68.7728C69.0415 70.4521 71.3619 73.9947 70.1462 76.6724C68.9306 79.3501 64.6372 80.1598 60.5705 78.4805ZM63.8075 71.3539C61.902 70.5671 59.8903 70.949 59.3211 72.2004C58.7519 73.4564 59.8373 75.1127 61.7428 75.8995C63.6483 76.6862 65.6599 76.3043 66.2291 75.0529C66.7983 73.7969 65.7129 72.1406 63.8075 71.3539Z" fill="#E6E6E6"/>
<path d="M65.3512 71.5011L63.4215 70.7052L75.0957 44.9683C75.3272 44.4576 75.9447 44.2275 76.4802 44.4438C77.0157 44.6646 77.2569 45.2535 77.0301 45.7642L65.356 71.5011H65.3512Z" fill="#E6E6E6"/>
<path d="M77.9177 48.2533L74.2129 46.7074L75.0475 44.8671L78.7571 46.4083L77.9177 48.2533Z" fill="#E6E6E6"/>
<path d="M76.0943 50.3144L73.4362 49.2148L74.2756 47.3699L76.9288 48.4695L76.0943 50.3144Z" fill="#E6E6E6"/>
<path d="M73.1943 50.8895L72.3587 52.7303L75.3336 53.9587L76.1692 52.1179L73.1943 50.8895Z" fill="#E6E6E6"/>
<path d="M66.1037 68.7545L65.0424 68.3174C64.5118 68.1011 64.2706 67.5122 64.4973 67.0107V66.9969C64.7337 66.4909 65.3463 66.2608 65.877 66.4771L66.9383 66.9141C67.4689 67.1304 67.7101 67.7193 67.4834 68.2208V68.2346C67.247 68.7407 66.6343 68.9707 66.1037 68.7545Z" fill="#E6E6E6"/>
<path d="M149.005 59.9071C152.227 61.9544 153.057 66.1826 150.857 69.3295C148.657 72.4765 144.248 73.3736 141.026 71.3309C137.803 69.2835 136.974 65.0554 139.173 61.9084C141.373 58.7615 145.782 57.8643 149.005 59.9117V59.9071ZM143.143 68.2943C144.653 69.2513 146.718 68.8326 147.75 67.3558C148.783 65.8789 148.392 63.9006 146.882 62.939C145.372 61.982 143.307 62.4007 142.275 63.8776C141.243 65.3544 141.634 67.3328 143.143 68.2943Z" fill="#E6E6E6"/>
<path d="M142.362 67.4755L144.359 68.7453L130.075 89.5961C129.709 90.1206 128.961 90.2632 128.411 89.9136C127.861 89.5639 127.711 88.8554 128.078 88.3263L142.362 67.4755Z" fill="#E6E6E6"/>
<path d="M128.165 83.7807L132.367 86.4721L130.268 89.4765L126.057 86.7804C125.454 86.3939 125.29 85.6118 125.695 85.0367L126.327 84.1303C126.732 83.5506 127.557 83.3942 128.165 83.7807Z" fill="#E6E6E6"/>
<path d="M90.6628 20.0595L88.4438 25.5391C88.246 26.0314 87.6623 26.2798 87.1461 26.0866C86.6299 25.898 86.3694 25.3413 86.5721 24.849L88.7911 19.3694C89.5051 17.5981 88.5788 15.606 86.7264 14.9204L84.6714 14.1659C82.8141 13.485 80.7253 14.3683 80.0066 16.135L79.0996 18.371L77.2231 17.6809L78.13 15.4449C79.2444 12.689 82.5054 11.3134 85.3902 12.3762L87.4452 13.1307C90.3348 14.1935 91.7772 17.3037 90.6628 20.0595Z" fill="#F0F0F0"/>
<path d="M90.3155 20.9244C90.1659 20.745 89.9682 20.5932 89.727 20.5058L78.5352 16.3835C78.2844 16.2914 78.0239 16.273 77.7778 16.319C77.3292 16.4019 76.9336 16.6963 76.76 17.1334L72.4376 27.8073C72.1627 28.4836 72.5148 29.2381 73.224 29.5003L84.4157 33.6227C85.1248 33.8849 85.916 33.5491 86.1909 32.8727L90.5133 22.1989C90.6918 21.7572 90.6049 21.2741 90.3155 20.9244ZM81.8156 29.1737L78.2651 27.8671L80.1416 24.7431C79.9052 24.2876 79.8618 23.7447 80.0693 23.2341C80.46 22.2679 81.5985 21.7848 82.6163 22.1575C83.6342 22.5301 84.1359 23.6205 83.7452 24.5867C83.5377 25.0974 83.1229 25.47 82.626 25.6541L81.8156 29.1737Z" fill="#E6E6E6"/>
<path d="M14.2647 144.7H103.572V98.8621H14.2647V144.7Z" fill="#E6E6E6"/>
<path d="M96.4082 150.644H102.023V146.6H96.4082V150.644Z" fill="#E6E6E6"/>
<path d="M7.44348 150.644H13.0587L13.0587 95.4483H7.44348L7.44348 150.644Z" fill="#E6E6E6"/>
<path d="M12.9911 95.4484V150.644H15.9868V147.552H102.023V150.644H105.019V95.4484H12.9911ZM15.9868 100.445H57.5073V119.616H15.982V100.445H15.9868ZM102.023 142.556H60.503V100.445H102.023V142.556ZM15.9868 142.556V122.469H57.5073V142.556H15.982H15.9868Z" fill="#F0F0F0"/>
<path d="M60.4982 142.556H99.2158V102.506H60.4982L60.4982 142.556Z" fill="#F5F5F5"/>
<path d="M62.2541 121.332C62.2541 122.28 63.0597 123.049 64.0535 123.049C65.0472 123.049 65.8528 122.28 65.8528 121.332C65.8528 120.385 65.0472 119.616 64.0535 119.616C63.0597 119.616 62.2541 120.385 62.2541 121.332Z" fill="#FAFAFA"/>
<path d="M64.0486 123.049C64.7722 123.049 65.3945 122.635 65.6792 122.046C65.7853 122.262 65.848 122.506 65.848 122.759C65.848 123.707 65.0424 124.475 64.0486 124.475C63.0549 124.475 62.2493 123.707 62.2493 122.759C62.2493 122.501 62.312 122.262 62.4181 122.046C62.7027 122.635 63.325 123.049 64.0486 123.049Z" fill="#E0E0E0"/>
<path d="M84.1986 142.556H74.9654L70.5515 102.506H79.7846L84.1986 142.556Z" fill="#FAFAFA"/>
<path d="M72.5968 142.556H70.7589L66.3449 102.506H68.1828L72.5968 142.556Z" fill="#FAFAFA"/>
<path d="M48.1487 119.598H51.8053V102.469H48.1487V119.598Z" fill="#FAFAFA"/>
<path d="M32.9819 119.598H36.6385V102.469H32.9819V119.598Z" fill="#F5F5F5"/>
<path d="M44.492 119.598H48.1487V103.67H44.492V119.598Z" fill="#F5F5F5"/>
<path d="M36.6385 119.598H40.2951V103.67H36.6385V119.598Z" fill="#FAFAFA"/>
<path d="M40.2951 119.598H42.6589V102.469H40.2951V119.598Z" fill="#EBEBEB"/>
<path d="M42.6637 119.598H44.492V103.67H42.6637V119.598Z" fill="#FAFAFA"/>
<path d="M29.3205 119.598H32.9771V102.469H29.3205L29.3205 119.598Z" fill="#EBEBEB"/>
<path d="M25.6638 119.598H29.3205L29.3205 103.67H25.6638L25.6638 119.598Z" fill="#E6E6E6"/>
<path d="M17.8055 119.598H21.4621L21.4621 103.67H17.8055L17.8055 119.598Z" fill="#E6E6E6"/>
<path d="M21.4669 119.598H23.8307L23.8307 102.469H21.4669L21.4669 119.598Z" fill="#FAFAFA"/>
<path d="M23.8307 119.598H25.659L25.659 103.67H23.8307L23.8307 119.598Z" fill="#EBEBEB"/>
<path d="M15.982 119.593H17.8103L17.8103 102.869H15.982L15.982 119.593Z" fill="#EBEBEB"/>
<path d="M19.6338 125.427H15.9772V142.556H19.6338V125.427Z" fill="#EBEBEB"/>
<path d="M34.8054 125.427H31.1488V142.556H34.8054V125.427Z" fill="#FAFAFA"/>
<path d="M23.2953 126.628H19.6386V142.556H23.2953V126.628Z" fill="#FAFAFA"/>
<path d="M31.1488 126.628H27.4922V142.556H31.1488V126.628Z" fill="#EBEBEB"/>
<path d="M27.4873 125.427H25.1235V142.556H27.4873V125.427Z" fill="#FAFAFA"/>
<path d="M25.1236 126.628H23.2953V142.556H25.1236V126.628Z" fill="#F5F5F5"/>
<path d="M38.462 125.427H34.8054V142.556H38.462V125.427Z" fill="#EBEBEB"/>
<path d="M42.1234 126.628H38.4668V142.556H42.1234V126.628Z" fill="#F5F5F5"/>
<path d="M49.977 126.628H46.3203V142.556H49.977V126.628Z" fill="#E6E6E6"/>
<path d="M46.3155 125.427H43.9518V142.556H46.3155V125.427Z" fill="#FAFAFA"/>
<path d="M54.169 125.427H51.8053V142.556H54.169V125.427Z" fill="#FAFAFA"/>
<path d="M43.9518 126.628H42.1234V142.556H43.9518V126.628Z" fill="#EBEBEB"/>
<path d="M51.8053 125.832H49.977V142.556H51.8053V125.832Z" fill="#EBEBEB"/>
<path d="M20.0632 65.948C20.0632 65.948 19.4505 66.2194 19.1707 66.7623C18.8909 67.3052 19.7592 68.3128 19.7592 68.3128C19.7592 68.3128 20.4925 68.8005 21.2161 68.483L21.9445 68.1702C21.9445 68.1702 20.7048 66.1136 20.1018 66.0952L20.068 65.9526L20.0632 65.948Z" fill="#E6E6E6"/>
<path d="M23.1698 65.9296C23.2567 66.905 22.6247 68.1334 21.713 68.2116C20.8012 68.2852 19.9522 67.181 19.8654 66.2057C19.7785 65.2303 20.5118 65.1337 21.4283 65.0601C22.3401 64.9864 23.083 64.9588 23.1746 65.9342L23.1698 65.9296Z" fill="#E6E6E6"/>
<path d="M20.4973 65.6444C20.4973 65.6444 21.1968 66.1735 22.6344 65.8653C22.6344 65.8653 20.3671 67.3053 20.4973 65.6444Z" fill="#E6E6E6"/>
<path d="M21.1148 65.4511C21.1148 65.4511 21.9204 65.3177 21.93 65.6397C21.93 65.6397 22.6102 65.6029 22.5186 65.3315C22.4221 65.06 21.1148 65.4557 21.1148 65.4557V65.4511Z" fill="#E6E6E6"/>
<g opacity="0.2">
<path d="M20.4973 65.6444C20.4973 65.6444 21.1968 66.1735 22.6344 65.8653C22.6344 65.8653 20.3671 67.3053 20.4973 65.6444Z" fill="#FAFAFA"/>
</g>
<g opacity="0.2">
<path d="M21.1148 65.4511C21.1148 65.4511 21.9204 65.3177 21.93 65.6397C21.93 65.6397 22.6102 65.6029 22.5186 65.3315C22.4221 65.06 21.1148 65.4557 21.1148 65.4557V65.4511Z" fill="#FAFAFA"/>
</g>
<path d="M20.1837 68.5198C20.4732 68.9707 21.0665 69.2007 21.6165 69.1363C22.1664 69.0719 22.6585 68.7453 22.9769 68.3128C23.2952 67.8803 23.4448 67.3512 23.4786 66.8267C23.4882 66.6887 23.4979 66.3482 23.3097 66.2976C23.1361 66.2516 23.0299 66.4817 22.9527 66.5875C22.7212 66.8957 22.48 67.1856 22.1857 67.4432C21.9011 67.6917 21.5875 67.9125 21.2499 68.0919C21.1534 68.1426 20.2368 68.598 20.1837 68.5198Z" fill="#E6E6E6"/>
<path d="M24.096 66.5737C24.2697 66.9693 24.207 67.4478 23.9368 67.7929C23.7584 68.0183 23.5075 68.1794 23.2567 68.322C23.083 68.4232 22.8563 68.5198 22.6826 68.414C22.4945 68.299 22.5138 68.0413 22.5572 67.8297C22.6247 67.5122 22.6971 67.1948 22.7791 66.8773C22.8466 66.6197 22.89 66.1872 23.0492 65.9664C23.1988 65.7593 23.411 65.8836 23.6378 66.0308C23.8404 66.1642 24.0044 66.3528 24.1009 66.5691L24.096 66.5737Z" fill="#E6E6E6"/>
<g opacity="0.2">
<path d="M20.4153 67.9769C20.0631 67.9631 19.7303 67.7331 19.6 67.4202C19.5036 67.1902 19.5084 66.6013 19.8219 66.5231C19.9618 67.0476 20.0824 67.5215 20.4153 67.9723V67.9769Z" fill="#FAFAFA"/>
</g>
<g opacity="0.2">
<path d="M22.7936 67.954C23.1264 67.8619 23.4014 67.6043 23.5027 67.2868C23.5606 67.112 23.4882 66.2195 23.2084 66.5967C23.1168 66.7209 23.1361 67.112 23.0878 67.2684C23.0155 67.5077 22.919 67.7377 22.7887 67.954H22.7936Z" fill="#FAFAFA"/>
</g>
<g opacity="0.2">
<path d="M21.52 68.5061C21.7757 68.7131 22.1906 68.7269 22.4559 68.5291C22.4221 68.6993 21.8529 68.8466 21.6744 68.8972C21.2161 69.026 20.9749 68.8328 20.5263 68.6533C20.5263 68.6533 21.2306 68.7545 21.5152 68.5061H21.52Z" fill="#FAFAFA"/>
</g>
<path d="M20.7192 86.4262L20.7627 73.1529L21.4766 69.1134L21.7468 69.1594L21.0376 73.1759L20.9894 86.6793L20.7192 86.4262Z" fill="#E0E0E0"/>
<path d="M21.0087 73.0839L20.7916 73.2449C20.5745 72.9735 20.3767 72.6192 20.15 72.2097C19.7978 71.5748 19.3974 70.8571 18.7896 70.2222L18.9922 70.0474C19.6242 70.7099 20.0294 71.4414 20.3912 72.0901C20.6131 72.4904 20.8061 72.8355 21.0087 73.0885V73.0839Z" fill="#E0E0E0"/>
<path d="M21.1775 71.3033C21.549 71.2113 21.8818 70.9859 22.0941 70.6822C22.3353 70.3371 22.4221 69.9185 22.4993 69.509C22.0169 69.647 21.5007 69.4216 21.0038 69.4768C20.6083 69.5182 20.2368 69.7528 20.0342 70.0795C19.7737 70.5074 19.6676 70.9905 19.8991 71.1883C20.0873 71.3493 20.6806 71.4275 21.1775 71.3033Z" fill="#E6E6E6"/>
<path d="M19.3299 70.3878C18.8861 70.6546 18.3169 70.7236 17.8152 70.5672C17.3135 70.4108 17.1688 69.6976 16.9758 69.2284C17.4293 69.1409 18.5774 69.2008 18.8379 69.2284C19.0984 69.2514 19.3637 69.3664 19.5036 69.578C19.6435 69.7897 19.6194 70.1071 19.4071 70.2497C19.3926 70.2405 19.3299 70.3878 19.3299 70.3878Z" fill="#E6E6E6"/>
<path d="M17.0433 71.1608C17.3472 70.8065 18.0998 70.5535 18.5725 70.6363C19.0453 70.7191 19.4457 71.0273 19.6145 71.3954C19.4891 71.6806 19.1563 71.8417 18.833 71.8647C18.5098 71.8877 18.1914 71.7957 17.8827 71.7037C17.574 71.6116 17.2556 71.5242 16.9324 71.5426L17.0482 71.1608H17.0433Z" fill="#E6E6E6"/>
<path d="M26.3296 68.8787C26.3296 68.8787 26.8313 69.3065 26.9326 69.9092C27.0339 70.5073 25.8906 71.2251 25.8906 71.2251C25.8906 71.2251 25.0416 71.4827 24.4434 70.9812L23.8452 70.4751C23.8452 70.4751 25.6639 68.8603 26.2476 69.0075L26.3248 68.8787H26.3296Z" fill="#E6E6E6"/>
<path d="M23.3628 67.9907C22.9769 68.8971 23.2036 70.2497 24.0526 70.581C24.9017 70.9123 26.0498 70.0887 26.4357 69.1824C26.8216 68.276 26.1463 67.9769 25.2972 67.6503C24.4482 67.3236 23.7439 67.089 23.3628 67.9953V67.9907Z" fill="#E6E6E6"/>
<path d="M26.0064 68.4692C26.0064 68.4692 25.1767 68.7821 23.8983 68.0828C23.8983 68.0828 25.6205 70.0979 26.0064 68.4692Z" fill="#E6E6E6"/>
<path d="M25.4806 68.1103C25.4806 68.1103 24.7521 67.7561 24.6412 68.0597C24.6412 68.0597 23.9996 67.8343 24.1733 67.5997C24.3469 67.365 25.4757 68.1103 25.4757 68.1103H25.4806Z" fill="#E6E6E6"/>
<g opacity="0.2">
<path d="M26.0064 68.4692C26.0064 68.4692 25.1767 68.7821 23.8983 68.0828C23.8983 68.0828 25.6205 70.0979 26.0064 68.4692Z" fill="#FAFAFA"/>
</g>
<g opacity="0.2">
<path d="M25.4806 68.1103C25.4806 68.1103 24.7521 67.7561 24.6412 68.0597C24.6412 68.0597 23.9996 67.8343 24.1733 67.5997C24.3469 67.365 25.4757 68.1103 25.4757 68.1103H25.4806Z" fill="#FAFAFA"/>
</g>
<path d="M25.4227 71.3033C25.0078 71.6529 24.371 71.7035 23.8645 71.4919C23.358 71.2803 22.9865 70.8248 22.8177 70.3233C22.6489 69.8218 22.6682 69.2743 22.7936 68.759C22.8273 68.6256 22.919 68.299 23.1168 68.299C23.2953 68.299 23.329 68.552 23.3725 68.6762C23.4979 69.0351 23.6426 69.3801 23.8404 69.7114C24.0334 70.0289 24.2697 70.3279 24.5351 70.5948C24.6074 70.6684 25.3503 71.3631 25.4227 71.3033Z" fill="#E6E6E6"/>
<path d="M22.2822 68.345C21.9976 68.6763 21.906 69.1501 22.0603 69.555C22.1616 69.8218 22.3498 70.0427 22.5476 70.2543C22.6826 70.4015 22.8708 70.5534 23.0686 70.5028C23.2808 70.4476 23.3435 70.1899 23.3676 69.9829C23.4014 69.6608 23.4304 69.3342 23.4448 69.0121C23.4593 68.7453 23.551 68.322 23.469 68.0643C23.3918 67.8251 23.1506 67.8803 22.8901 67.9631C22.6537 68.0367 22.4414 68.1656 22.2822 68.3496V68.345Z" fill="#E6E6E6"/>
<g opacity="0.2">
<path d="M25.3648 70.7236C25.7073 70.811 26.0932 70.6868 26.3151 70.42C26.4792 70.2267 26.6576 69.6608 26.3779 69.5044C26.0836 69.9645 25.8231 70.3831 25.3648 70.7236Z" fill="#FAFAFA"/>
</g>
<g opacity="0.2">
<path d="M23.1023 70.0336C22.8129 69.8541 22.6248 69.5275 22.6296 69.1962C22.6296 69.0122 22.9721 68.184 23.1216 68.6165C23.1699 68.7591 23.0348 69.1272 23.03 69.2928C23.0251 69.5413 23.0493 69.7897 23.1023 70.0336Z" fill="#FAFAFA"/>
</g>
<g opacity="0.2">
<path d="M24.1491 70.9169C23.8404 71.0457 23.44 70.9399 23.247 70.6776C23.2277 70.8524 23.7294 71.1515 23.879 71.2481C24.2794 71.5012 24.5688 71.3815 25.0512 71.3401C25.0512 71.3401 24.3421 71.2389 24.1491 70.9215V70.9169Z" fill="#FAFAFA"/>
</g>
<path d="M20.3237 84.4432L20.4973 83.9003L20.7337 83.1688L21.0039 82.313L23.165 75.5177L23.44 73.5669L23.6764 71.837L23.7294 71.4781L23.8597 71.492L23.8645 71.4965L23.9996 71.5104L23.9948 71.5426L23.9465 71.883L23.6908 73.7325L23.4834 75.237L23.44 75.5683L23.4207 75.6235L20.999 83.2148L20.7289 84.066L20.6035 84.4616L20.4298 84.9999L20.3237 84.4432Z" fill="#E0E0E0"/>
<path d="M23.2229 75.4348L23.3821 75.6465C23.6764 75.4486 23.9706 75.1634 24.318 74.8367C24.8486 74.3306 25.4516 73.7555 26.2283 73.3185L26.0884 73.093C25.2828 73.5485 24.6653 74.1374 24.125 74.6527C23.7873 74.9747 23.4979 75.2508 23.2277 75.4348H23.2229Z" fill="#E0E0E0"/>
<path d="M23.6137 73.6866C23.2904 73.4933 23.0396 73.1851 22.9286 72.8354C22.8032 72.4398 22.8515 72.0119 22.8997 71.6024C23.3146 71.8693 23.879 71.8002 24.3373 71.9935C24.7039 72.1453 24.9837 72.472 25.0753 72.84C25.1911 73.3231 25.1429 73.8154 24.8631 73.935C24.6315 74.0362 24.043 73.9442 23.6088 73.6866H23.6137Z" fill="#E6E6E6"/>
<path d="M25.6639 73.3323C26.0064 73.7142 26.5322 73.9396 27.0532 73.9304C27.579 73.9212 27.9408 73.2771 28.2689 72.886C27.8636 72.6744 26.7445 72.4121 26.4888 72.3615C26.2331 72.3109 25.9437 72.3431 25.7459 72.5088C25.5481 72.6698 25.4757 72.9826 25.6301 73.1805C25.6446 73.1759 25.6639 73.3323 25.6639 73.3323Z" fill="#E6E6E6"/>
<path d="M27.6031 74.7125C27.4198 74.2893 26.7782 73.8338 26.3055 73.7832C25.8279 73.728 25.3503 73.912 25.0753 74.2157C25.1043 74.5239 25.3744 74.7724 25.6784 74.8828C25.9823 74.9932 26.3151 74.9978 26.6383 74.9978C26.9615 74.9978 27.2944 74.9978 27.5983 75.1128L27.608 74.7125H27.6031Z" fill="#E6E6E6"/>
<path d="M16.5609 68.3497C16.5609 68.3497 16.0062 68.7224 15.8325 69.3021C15.6588 69.8864 16.7056 70.7283 16.7056 70.7283C16.7056 70.7283 17.5161 71.0826 18.1721 70.6455L18.8282 70.2131C18.8282 70.2131 17.217 68.4049 16.6236 68.4878L16.5609 68.3497Z" fill="#E6E6E6"/>
<path d="M19.6194 67.8022C19.8895 68.7454 19.4988 70.0658 18.616 70.2958C17.7332 70.5259 16.6912 69.5827 16.421 68.6395C16.1509 67.6964 16.8552 67.4755 17.7428 67.2455C18.6304 67.0155 19.354 66.859 19.6242 67.8068L19.6194 67.8022Z" fill="#E6E6E6"/>
<path d="M16.9324 67.9771C16.9324 67.9771 17.7187 68.3773 19.0742 67.8298C19.0742 67.8298 17.1157 69.638 16.9324 67.9771Z" fill="#E6E6E6"/>
<path d="M17.5016 67.6825C17.5016 67.6825 18.2686 67.4111 18.341 67.7285C18.341 67.7285 19.0067 67.5767 18.862 67.3236C18.7173 67.0706 17.5016 67.6825 17.5016 67.6825Z" fill="#E6E6E6"/>
<g opacity="0.2">
<path d="M16.9324 67.9771C16.9324 67.9771 17.7187 68.3773 19.0742 67.8298C19.0742 67.8298 17.1157 69.638 16.9324 67.9771Z" fill="#FAFAFA"/>
</g>
<g opacity="0.2">
<path d="M17.5016 67.6825C17.5016 67.6825 18.2686 67.4111 18.341 67.7285C18.341 67.7285 19.0067 67.5767 18.862 67.3236C18.7173 67.0706 17.5016 67.6825 17.5016 67.6825Z" fill="#FAFAFA"/>
</g>
<path d="M17.1639 70.8618C17.5354 71.2529 18.1625 71.3817 18.6883 71.2252C19.2189 71.0688 19.6435 70.664 19.8702 70.1855C20.1017 69.707 20.15 69.1595 20.0825 68.635C20.068 68.5016 20.0101 68.1611 19.8171 68.1427C19.6386 68.1243 19.5759 68.3681 19.518 68.4878C19.3492 68.8328 19.1659 69.1595 18.9247 69.4631C18.6931 69.7576 18.423 70.0244 18.1287 70.2637C18.0467 70.3281 17.2266 70.9354 17.1591 70.8664L17.1639 70.8618Z" fill="#E6E6E6"/>
<path d="M20.6469 68.2715C20.8929 68.6304 20.9218 69.1134 20.7192 69.4953C20.589 69.7483 20.3719 69.9462 20.15 70.1348C19.9956 70.2636 19.793 70.3971 19.6001 70.3235C19.3974 70.2406 19.3637 69.983 19.3685 69.7713C19.3685 69.4447 19.3878 69.1226 19.4119 68.796C19.4312 68.5291 19.3878 68.0967 19.5036 67.8528C19.6097 67.6228 19.8413 67.7102 20.0921 67.816C20.314 67.9126 20.5118 68.0691 20.6469 68.2669V68.2715Z" fill="#E6E6E6"/>
<g opacity="0.2">
<path d="M17.2894 70.2866C16.942 70.3326 16.5706 70.167 16.3824 69.8817C16.2474 69.6701 16.1364 69.0904 16.4307 68.9615C16.6671 69.4538 16.8745 69.9001 17.2845 70.2866H17.2894Z" fill="#FAFAFA"/>
</g>
<g opacity="0.2">
<path d="M19.629 69.8588C19.9377 69.7116 20.1645 69.4079 20.2031 69.0813C20.2272 68.9018 19.986 68.0369 19.7834 68.4509C19.7158 68.589 19.8075 68.9708 19.793 69.1319C19.7689 69.3803 19.711 69.6241 19.629 69.8588Z" fill="#FAFAFA"/>
</g>
<g opacity="0.2">
<path d="M18.4761 70.6179C18.7703 70.7789 19.1755 70.7191 19.4023 70.4799C19.4023 70.6547 18.8668 70.8939 18.7028 70.9721C18.2734 71.1792 18.0033 71.0274 17.5305 70.9307C17.5305 70.9307 18.2445 70.9123 18.4761 70.6179Z" fill="#FAFAFA"/>
</g>
<path d="M21.0665 88.3816L18.6111 75.3153L18.5532 71.2252L18.8282 71.2206L18.8861 75.2969L21.3801 88.584L21.0665 88.3816Z" fill="#E0E0E0"/>
<path d="M18.8378 75.2095L18.6545 75.4027C18.3892 75.1727 18.1287 74.8598 17.8248 74.4918C17.3569 73.9305 16.8311 73.291 16.1123 72.7665L16.2811 72.5594C17.024 73.1023 17.5643 73.7557 18.0419 74.3308C18.3362 74.685 18.587 74.9933 18.8378 75.2095Z" fill="#E0E0E0"/>
<path d="M18.669 73.429C19.0163 73.2726 19.301 72.9966 19.4553 72.6607C19.629 72.2788 19.6338 71.851 19.6338 71.4369C19.1852 71.6531 18.6352 71.5243 18.1577 71.6623C17.7766 71.7727 17.4534 72.0626 17.3183 72.4215C17.1446 72.8861 17.1301 73.383 17.3906 73.5349C17.6077 73.6591 18.2011 73.6361 18.669 73.429Z" fill="#E6E6E6"/>
<path d="M16.6767 72.8447C16.2908 73.1851 15.7408 73.3508 15.2198 73.2818C14.6988 73.2127 14.419 72.5364 14.1441 72.1086C14.5734 71.9429 15.7167 71.8095 15.9772 71.7865C16.2377 71.7635 16.5175 71.8325 16.696 72.0165C16.8745 72.2006 16.9082 72.5134 16.7249 72.6975C16.7105 72.6929 16.6719 72.8447 16.6719 72.8447H16.6767Z" fill="#E6E6E6"/>
<path d="M14.5782 73.9995C14.8098 73.5992 15.5044 73.2219 15.982 73.2219C16.4596 73.2219 16.9131 73.4566 17.1494 73.7924C17.0819 74.0961 16.7828 74.3123 16.4693 74.3859C16.1557 74.4595 15.8228 74.4273 15.5044 74.3905C15.1812 74.3537 14.8532 74.3215 14.5396 74.3951L14.5782 73.9995Z" fill="#E6E6E6"/>
<path d="M22.0748 80.3669H19.19C18.9729 80.3669 18.78 80.4958 18.7173 80.6936C18.4809 81.4067 17.9744 83.2839 17.9744 86.2422C17.9744 89.4903 18.862 93.8013 19.1418 95.0757C19.19 95.292 19.3878 95.4438 19.6145 95.4438H21.6213C21.8529 95.4438 22.0458 95.2874 22.0941 95.0757C22.3739 93.8013 23.2615 89.4903 23.2615 86.2422C23.2615 83.2839 22.755 81.4113 22.5186 80.6936C22.4559 80.505 22.2774 80.3761 22.07 80.3669H22.0748Z" fill="#F0F0F0"/>
<path d="M39.1663 148.063C39.0023 148.054 38.872 147.92 38.8768 147.764C39.2338 134.242 39.9671 112.062 40.0057 111.938C40.0539 111.781 40.2276 111.698 40.3868 111.74C40.5508 111.786 40.6424 111.951 40.5942 112.103C40.5845 112.131 39.8465 134.389 39.4943 147.773C39.4943 147.934 39.3496 148.063 39.1808 148.058C39.1808 148.058 39.1711 148.058 39.1663 148.058V148.063Z" fill="#263238"/>
<path d="M37.2608 102.911C37.3814 103.951 38.6887 107.562 39.7789 107.452C40.8691 107.337 41.3323 103.546 41.2165 102.501C41.0959 101.462 40.1166 100.707 39.0264 100.822C37.9361 100.937 37.145 101.871 37.2656 102.911H37.2608Z" fill="#0081FF"/>
<path d="M42.5624 114.298C42.4418 113.258 41.1345 109.646 40.0443 109.761C38.954 109.876 38.4909 113.667 38.6067 114.712C38.7273 115.752 39.7066 116.506 40.7968 116.391C41.887 116.276 42.6782 115.342 42.5576 114.302L42.5624 114.298Z" fill="#0081FF"/>
<path d="M33.937 111.132C35.0273 111.017 38.8141 109.771 38.6935 108.731C38.5729 107.691 34.5979 107.249 33.5029 107.36C32.4126 107.475 31.6215 108.409 31.7421 109.449C31.8627 110.488 32.842 111.243 33.9322 111.128L33.937 111.132Z" fill="#0081FF"/>
<path d="M45.8813 106.076C44.7911 106.191 41.0042 107.438 41.12 108.478C41.2406 109.517 45.2156 109.959 46.3107 109.849C47.4009 109.734 48.192 108.8 48.0714 107.76C47.9508 106.72 46.9715 105.966 45.8813 106.081V106.076Z" fill="#0081FF"/>
<path d="M33.8164 106.366C34.6751 107.024 38.2738 108.694 38.9637 107.875C39.6535 107.056 37.1643 104.061 36.3105 103.408C35.4566 102.75 34.2024 102.883 33.5125 103.698C32.8227 104.512 32.9626 105.708 33.8164 106.366Z" fill="#0081FF"/>
<path d="M46.0067 110.843C45.1529 110.185 41.5493 108.515 40.8595 109.334C40.1697 110.148 42.6589 113.143 43.5127 113.801C44.3666 114.459 45.6208 114.325 46.3107 113.511C47.0005 112.697 46.8606 111.501 46.0067 110.843Z" fill="#0081FF"/>
<path d="M37.5599 114.417C38.2497 113.603 40.0009 110.166 39.1422 109.508C38.2883 108.85 35.1479 111.224 34.458 112.039C33.7682 112.853 33.9081 114.049 34.762 114.707C35.6158 115.365 36.8701 115.232 37.5599 114.417Z" fill="#0081FF"/>
<path d="M42.2585 102.791C41.5686 103.605 39.8175 107.042 40.6762 107.7C41.5301 108.358 44.6705 105.984 45.3603 105.17C46.0502 104.355 45.9103 103.159 45.0564 102.501C44.2026 101.843 42.9483 101.977 42.2585 102.791Z" fill="#0081FF"/>
<g opacity="0.6">
<path d="M37.2608 102.911C37.3814 103.951 38.6887 107.562 39.7789 107.452C40.8691 107.337 41.3323 103.546 41.2165 102.501C41.0959 101.462 40.1166 100.707 39.0264 100.822C37.9361 100.937 37.145 101.871 37.2656 102.911H37.2608Z" fill="white"/>
<path d="M42.5624 114.298C42.4418 113.258 41.1345 109.646 40.0443 109.761C38.954 109.876 38.4909 113.667 38.6067 114.712C38.7273 115.752 39.7066 116.506 40.7968 116.391C41.887 116.276 42.6782 115.342 42.5576 114.302L42.5624 114.298Z" fill="white"/>
<path d="M33.937 111.132C35.0273 111.017 38.8141 109.771 38.6935 108.731C38.5729 107.691 34.5979 107.249 33.5029 107.36C32.4126 107.475 31.6215 108.409 31.7421 109.449C31.8627 110.488 32.842 111.243 33.9322 111.128L33.937 111.132Z" fill="white"/>
<path d="M45.8813 106.076C44.7911 106.191 41.0042 107.438 41.12 108.478C41.2406 109.517 45.2156 109.959 46.3107 109.849C47.4009 109.734 48.192 108.8 48.0714 107.76C47.9508 106.72 46.9715 105.966 45.8813 106.081V106.076Z" fill="white"/>
<path d="M33.8164 106.366C34.6751 107.024 38.2738 108.694 38.9637 107.875C39.6535 107.056 37.1643 104.061 36.3105 103.408C35.4566 102.75 34.2024 102.883 33.5125 103.698C32.8227 104.512 32.9626 105.708 33.8164 106.366Z" fill="white"/>
<path d="M46.0067 110.843C45.1529 110.185 41.5493 108.515 40.8595 109.334C40.1697 110.148 42.6589 113.143 43.5127 113.801C44.3666 114.459 45.6208 114.325 46.3107 113.511C47.0005 112.697 46.8606 111.501 46.0067 110.843Z" fill="white"/>
<path d="M37.5599 114.417C38.2497 113.603 40.0009 110.166 39.1422 109.508C38.2883 108.85 35.1479 111.224 34.458 112.039C33.7682 112.853 33.9081 114.049 34.762 114.707C35.6158 115.365 36.8701 115.232 37.5599 114.417Z" fill="white"/>
<path d="M42.2585 102.791C41.5686 103.605 39.8175 107.042 40.6762 107.7C41.5301 108.358 44.6705 105.984 45.3603 105.17C46.0502 104.355 45.9103 103.159 45.0564 102.501C44.2026 101.843 42.9483 101.977 42.2585 102.791Z" fill="white"/>
</g>
<path d="M37.5695 108.846C37.7094 110.079 38.872 110.971 40.1648 110.838C41.4577 110.705 42.3935 109.596 42.2536 108.363C42.1137 107.13 40.9512 106.237 39.6583 106.371C38.3655 106.504 37.4296 107.613 37.5695 108.846Z" fill="#0081FF"/>
<path d="M37.8011 138.158C35.0852 138.213 30.4348 135.82 28.6017 133.483C26.7444 131.114 31.9544 132.572 31.4141 130.709C30.8738 128.846 24.4627 130.24 23.2711 127.571C22.0796 124.903 26.7106 125.501 26.5225 124.139C26.3344 122.772 21.5393 123.062 19.9908 120.228C18.4423 117.39 22.6633 118.972 21.9976 117.794C21.3319 116.617 16.0302 111.675 18.2397 110.636C20.4491 109.596 25.4178 114.744 27.0821 115.315C28.7464 115.885 29.1227 112.319 31.2887 114.017C33.4546 115.715 31.8579 123.177 34.405 124.153C36.3008 124.88 35.4856 121.47 37.6708 122.326C41.4915 123.821 38.9058 138.135 37.8011 138.158Z" fill="#0081FF"/>
<g opacity="0.2">
<path d="M37.8011 138.158C35.0852 138.213 30.4348 135.82 28.6017 133.483C26.7444 131.114 31.9544 132.572 31.4141 130.709C30.8738 128.846 24.4627 130.24 23.2711 127.571C22.0796 124.903 26.7106 125.501 26.5225 124.139C26.3344 122.772 21.5393 123.062 19.9908 120.228C18.4423 117.39 22.6633 118.972 21.9976 117.794C21.3319 116.617 16.0302 111.675 18.2397 110.636C20.4491 109.596 25.4178 114.744 27.0821 115.315C28.7464 115.885 29.1227 112.319 31.2887 114.017C33.4546 115.715 31.8579 123.177 34.405 124.153C36.3008 124.88 35.4856 121.47 37.6708 122.326C41.4915 123.821 38.9058 138.135 37.8011 138.158Z" fill="white"/>
</g>
<path d="M41.7037 134.868C41.7471 134.942 41.3419 135.31 42.683 135.36C45.9875 135.489 51.8294 135.277 54.0243 132.411C57.1551 128.321 49.9335 128.694 50.633 126.439C51.3373 124.185 59.0992 126.025 60.6139 122.805C62.1287 119.584 56.4846 120.214 56.7451 118.553C57.0056 116.897 62.9295 119.046 64.8832 115.627C66.8369 112.209 61.6607 114.04 62.5001 112.623C63.3395 111.206 69.9098 105.312 67.247 104.001C64.5841 102.69 58.4142 108.841 56.3784 109.499C54.3427 110.157 53.8699 104.125 51.1974 106.141C48.5201 108.16 50.276 117.27 47.1549 118.397C44.8297 119.239 46.0984 115.977 43.2281 116.101C39.3303 116.271 38.0519 129.043 41.6989 134.863L41.7037 134.868Z" fill="#0081FF"/>
<g opacity="0.3">
<path d="M41.7037 134.868C41.7471 134.942 41.3419 135.31 42.683 135.36C45.9875 135.489 51.8294 135.277 54.0243 132.411C57.1551 128.321 49.9335 128.694 50.633 126.439C51.3373 124.185 59.0992 126.025 60.6139 122.805C62.1287 119.584 56.4846 120.214 56.7451 118.553C57.0056 116.897 62.9295 119.046 64.8832 115.627C66.8369 112.209 61.6607 114.04 62.5001 112.623C63.3395 111.206 69.9098 105.312 67.247 104.001C64.5841 102.69 58.4142 108.841 56.3784 109.499C54.3427 110.157 53.8699 104.125 51.1974 106.141C48.5201 108.16 50.276 117.27 47.1549 118.397C44.8297 119.239 46.0984 115.977 43.2281 116.101C39.3303 116.271 38.0519 129.043 41.6989 134.863L41.7037 134.868Z" fill="white"/>
</g>
<path d="M39.229 146.02C39.229 146.02 39.2194 146.02 39.2097 146.02C39.0939 146.006 39.0071 145.905 39.0216 145.79C41.7327 124.617 54.5212 116.014 54.6514 115.931C54.7479 115.867 54.883 115.89 54.9505 115.982C55.0181 116.074 54.9939 116.202 54.8975 116.267C54.772 116.35 42.1379 124.861 39.4509 145.841C39.4364 145.947 39.34 146.025 39.229 146.02Z" fill="#263238"/>
<path d="M51.7425 118.871C51.6557 118.871 51.5737 118.811 51.5447 118.728C51.5061 118.622 51.5689 118.503 51.6846 118.471C51.7618 118.448 53.6673 117.873 56.7885 118.503C56.9042 118.526 56.9766 118.636 56.9525 118.747C56.9284 118.857 56.8126 118.931 56.6968 118.903C53.6963 118.296 51.8342 118.852 51.8149 118.857C51.7908 118.866 51.7666 118.866 51.7377 118.866L51.7425 118.871Z" fill="#263238"/>
<path d="M49.3788 121.443C49.263 121.443 49.1762 121.351 49.1713 121.24C49.1038 114.836 52.992 109.835 53.0306 109.784C53.1029 109.692 53.238 109.674 53.3297 109.743C53.4261 109.812 53.4454 109.941 53.3731 110.028C53.3345 110.079 49.5331 114.974 49.6007 121.231C49.6007 121.346 49.5042 121.438 49.3884 121.438H49.3788V121.443Z" fill="#263238"/>
<path d="M45.5726 126.863C45.5195 126.863 45.4665 126.84 45.423 126.798C45.341 126.715 45.3459 126.586 45.4327 126.508C45.4616 126.481 48.3368 123.946 52.1043 125.234C52.2153 125.271 52.2732 125.39 52.2346 125.496C52.196 125.602 52.0706 125.657 51.9596 125.62C48.4381 124.415 45.7511 126.784 45.727 126.807C45.6835 126.844 45.6257 126.867 45.5726 126.863Z" fill="#263238"/>
<path d="M43.5803 130.64C43.4983 130.64 43.4259 130.589 43.3921 130.516C43.3294 130.382 41.9208 127.162 42.6975 122.575C42.7168 122.464 42.8229 122.386 42.9435 122.404C43.0593 122.423 43.1413 122.529 43.122 122.639C42.3646 127.102 43.7732 130.322 43.7877 130.354C43.8359 130.46 43.7877 130.58 43.6719 130.621C43.643 130.635 43.6092 130.64 43.5803 130.64Z" fill="#263238"/>
<path d="M39.3158 153.584C39.2049 153.584 39.1132 153.492 39.1084 153.386L38.8286 147.778C38.0037 129.135 24.5977 116.451 24.4626 116.327C24.3758 116.248 24.3758 116.12 24.4626 116.037C24.5447 115.954 24.6797 115.954 24.7666 116.037C24.9016 116.166 38.433 128.951 39.2628 147.769L39.5426 153.377C39.5426 153.492 39.4509 153.584 39.3351 153.589C39.3303 153.589 39.3255 153.589 39.3207 153.589L39.3158 153.584Z" fill="#263238"/>
<path d="M29.9958 123.329C29.9958 123.329 29.9717 123.329 29.962 123.329C29.9427 123.329 29.9186 123.315 29.8993 123.306L29.8318 123.279C28.0758 122.584 26.1173 122.22 24.3083 122.262C24.1877 122.266 24.0912 122.174 24.0864 122.059C24.0864 121.944 24.178 121.852 24.2986 121.848C26.1607 121.811 28.1868 122.179 29.9958 122.897L30.0682 122.924C30.0682 122.924 30.0923 122.934 30.1068 122.943C30.1888 122.984 30.2418 123.076 30.2177 123.168C30.1984 123.269 30.1019 123.334 30.0006 123.329H29.9958Z" fill="#263238"/>
<path d="M31.8917 125.731C31.8917 125.731 31.8868 125.731 31.882 125.731C31.7662 125.722 31.6746 125.62 31.689 125.51C32.21 120.007 29.2191 115.48 29.1902 115.434C29.1275 115.338 29.1564 115.213 29.2577 115.149C29.359 115.089 29.4893 115.117 29.5568 115.213C29.5858 115.259 32.6538 119.902 32.1232 125.547C32.1136 125.657 32.0123 125.735 31.9013 125.735L31.8917 125.731Z" fill="#263238"/>
<path d="M33.8454 128.919C33.7923 128.919 33.7393 128.896 33.7007 128.859C33.6766 128.836 31.5009 126.789 28.3122 127.599C28.1965 127.631 28.0807 127.562 28.0469 127.451C28.018 127.341 28.0855 127.231 28.2013 127.198C31.636 126.324 33.9081 128.477 34.0046 128.569C34.0866 128.652 34.0866 128.781 34.0046 128.859C33.9612 128.901 33.9033 128.919 33.8454 128.919Z" fill="#263238"/>
<path d="M36.3297 134.173C36.3008 134.173 36.267 134.164 36.2381 134.15C36.132 134.1 36.0934 133.975 36.1464 133.874C36.1609 133.847 37.6371 131.095 37.2994 127.125C37.2897 127.01 37.3766 126.913 37.4972 126.904C37.6178 126.89 37.7191 126.978 37.7287 127.093C38.076 131.187 36.5902 133.948 36.5275 134.063C36.4889 134.136 36.4069 134.178 36.3297 134.173Z" fill="#263238"/>
<path d="M51.4048 154.467C51.4048 161.005 48.3223 166.31 38.983 166.31C29.6436 166.31 26.5611 161.005 26.5611 154.467C26.5611 152.001 27.3571 149.706 28.7078 147.81H49.263C50.6137 149.706 51.4097 152.001 51.4097 154.467H51.4048Z" fill="#0081FF"/>
<path opacity="0.7" d="M51.4048 154.467C51.4048 161.005 48.3223 166.31 38.983 166.31C29.6436 166.31 26.5611 161.005 26.5611 154.467C26.5611 152.001 27.3571 149.706 28.7078 147.81H49.263C50.6137 149.706 51.4097 152.001 51.4097 154.467H51.4048Z" fill="white"/>
<path d="M122.776 160.527L127.581 159.859L126.365 149.135L121.561 149.807L122.776 160.527Z" fill="#E8BFBF"/>
<path d="M131.271 160.021C131.691 159.993 132.082 159.827 132.391 159.556C132.521 159.399 132.564 159.188 132.502 158.995C132.473 158.875 132.381 158.774 132.26 158.737C131.619 158.516 129.863 159.754 129.665 159.892C129.627 159.919 129.612 159.97 129.622 160.016C129.636 160.057 129.68 160.09 129.728 160.09C130.244 160.113 130.76 160.09 131.271 160.021ZM131.947 158.944C132.019 158.926 132.096 158.93 132.164 158.949C132.212 158.962 132.251 159.004 132.265 159.054C132.304 159.183 132.28 159.321 132.193 159.422C131.947 159.717 131.161 159.882 130.065 159.882C130.635 159.468 131.276 159.146 131.957 158.935H131.942L131.947 158.944Z" fill="#0081FF"/>
<path d="M129.757 160.09L129.795 160.071C130.331 159.735 131.291 158.571 131.107 158.065C131.054 157.95 130.953 157.808 130.63 157.826C130.398 157.826 130.176 157.927 130.022 158.097C129.501 158.668 129.607 159.924 129.607 159.975C129.607 160.011 129.622 160.048 129.655 160.071C129.684 160.094 129.718 160.099 129.757 160.09ZM130.562 158.056L130.625 158.028C130.837 158.019 130.861 158.093 130.866 158.12C130.977 158.424 130.34 159.321 129.81 159.735C129.762 159.206 129.887 158.677 130.176 158.226C130.278 158.125 130.418 158.061 130.567 158.051H130.558L130.562 158.056Z" fill="#0081FF"/>
<path d="M127.089 157.959L122.829 158.926C122.636 158.962 122.506 159.133 122.526 159.321L122.665 165.201C122.723 165.615 123.124 165.9 123.553 165.845C123.582 165.845 123.611 165.836 123.64 165.827C125.487 165.39 126.356 165.091 128.705 164.575C130.143 164.258 134.701 163.931 136.568 163.14C138.435 162.349 137.707 160.54 136.858 160.715C134.118 161.277 130.601 160.159 128.604 158.456C128.334 158.327 127.383 157.89 127.094 157.959H127.089Z" fill="#263238"/>
<path opacity="0.2" d="M126.365 149.135L126.993 154.665L122.188 155.337L121.556 149.811L126.365 149.135Z" fill="black"/>
<path d="M128.932 152.388L120.041 153.97C120.041 153.97 115.724 148.091 114.908 143.918C114.059 139.57 114.966 124.774 114.908 124.576C112.395 116.478 105.559 95.4988 102.265 87.7787C100.436 83.4999 99.1531 80.6198 99.1531 80.6198L100.074 80.422L107.33 77.5879L112.617 78.5403C112.617 78.5403 128.686 109.531 130.374 121.19C131.633 129.894 128.927 152.388 128.927 152.388H128.932Z" fill="#0081FF"/>
<path opacity="0.3" d="M128.932 152.388L120.041 153.97C120.041 153.97 115.724 148.091 114.908 143.918C114.059 139.57 114.966 124.774 114.908 124.576C112.395 116.478 105.559 95.4988 102.265 87.7787C100.436 83.4999 99.1531 80.6198 99.1531 80.6198L100.074 80.422L107.33 77.5879L112.617 78.5403C112.617 78.5403 128.686 109.531 130.374 121.19C131.633 129.894 128.927 152.388 128.927 152.388H128.932Z" fill="white"/>
<path opacity="0.2" d="M112.815 117.569C110.301 109.471 105.227 97.1919 101.927 89.4717L99.7416 82.115L99.322 80.698L100.089 82.0368L108.7 100.233C112.501 107.199 112.873 117.767 112.815 117.573V117.569Z" fill="black"/>
<path d="M73.798 158.001L78.0817 159.722L82.6501 150.373L78.3664 148.652L73.798 158.001Z" fill="#E8BFBF"/>
<path d="M80.87 161.681C81.2077 161.884 81.6129 161.971 82.0085 161.925C82.2015 161.875 82.3606 161.737 82.4234 161.553C82.4716 161.447 82.4619 161.318 82.3896 161.221C82.023 160.706 79.9342 160.711 79.7026 160.715C79.6544 160.715 79.6158 160.747 79.5965 160.784C79.582 160.826 79.5965 160.872 79.6351 160.899C80.021 161.194 80.431 161.456 80.8652 161.677L80.87 161.681ZM82.0278 161.217C82.0953 161.244 82.1532 161.286 82.1918 161.341C82.2208 161.378 82.2256 161.433 82.2063 161.474C82.1629 161.594 82.0616 161.686 81.9313 161.723C81.5647 161.815 80.8652 161.52 80.0162 160.931C80.7012 160.918 81.3862 161.014 82.0374 161.221H82.023L82.0278 161.217Z" fill="#0081FF"/>
<path d="M79.6544 160.922L79.693 160.932C80.3008 160.959 81.7384 160.577 81.8976 160.09C81.9217 159.975 81.9313 159.809 81.6708 159.648C81.4875 159.524 81.2608 159.482 81.0437 159.528C80.3056 159.689 79.6399 160.711 79.611 160.752C79.5868 160.78 79.5772 160.821 79.5917 160.853C79.6013 160.885 79.6254 160.908 79.6592 160.922H79.6544ZM81.4827 159.786L81.5502 159.8C81.7191 159.906 81.6949 159.979 81.6853 160.002C81.5936 160.297 80.5709 160.646 79.9149 160.683C80.1898 160.251 80.6047 159.91 81.0919 159.717C81.2318 159.694 81.3766 159.717 81.4972 159.795H81.4875L81.4827 159.786Z" fill="#0081FF"/>
<path d="M78.8584 157.835L74.9944 156.285C74.8255 156.211 74.6229 156.271 74.5264 156.427L71.1496 161.042C70.9518 161.392 71.0869 161.829 71.4535 162.017C71.4777 162.031 71.5066 162.04 71.5307 162.054C73.2143 162.712 74.0633 162.951 76.1859 163.816C77.4836 164.35 81.1981 166.549 83.1084 166.945C85.0187 167.34 85.5252 165.555 84.7679 165.224C82.3221 164.18 80.267 161.424 79.7316 159.031C79.5965 158.788 79.1237 157.936 78.8584 157.835Z" fill="#263238"/>
<path opacity="0.2" d="M82.8383 150.483L80.3587 155.245L76.1184 153.432L78.5931 148.666L82.8383 150.483Z" fill="black"/>
<path d="M83.7307 155.673L75.2018 151.339C75.2018 151.339 73.5664 145.546 75.2018 141.852C78.3471 134.744 86.5383 124.291 86.5913 124.093C88.7766 115.908 92.6069 93.5022 93.919 85.2575C94.6475 80.6889 95.072 79.7043 95.072 79.7043L95.9741 79.985L109.023 80.008C109.023 80.008 111.483 98.8575 102.048 128.04C99.6982 135.3 95.7666 141.337 89.2928 149.508C86.8374 152.609 83.7259 155.673 83.7259 155.673H83.7307Z" fill="#0081FF"/>
<path opacity="0.3" d="M83.7307 155.673L75.2018 151.339C75.2018 151.339 73.5664 145.546 75.2018 141.852C78.3471 134.744 86.5383 124.291 86.5913 124.093C88.7766 115.908 92.6069 93.5022 93.919 85.2575C94.6475 80.6889 95.072 79.7043 95.072 79.7043L95.9741 79.985L109.023 80.008C109.023 80.008 111.483 98.8575 102.048 128.04C99.6982 135.3 95.7666 141.337 89.2928 149.508C86.8374 152.609 83.7259 155.673 83.7259 155.673H83.7307Z" fill="white"/>
<path d="M120.581 64.609C120.678 63.2104 121.648 61.4115 122.487 60.5787C122.757 60.3119 123.775 59.907 124.349 59.5481C127.181 57.7768 132.854 55.5638 132.854 55.5638L134.605 57.0177C134.605 57.0177 131.151 60.2015 129.096 61.7289C128.691 62.028 128.223 62.3914 127.731 62.7779C126.838 63.491 122.632 66.1365 121.826 66.799L120.581 64.6044V64.609Z" fill="#E8BFBF"/>
<path d="M137.847 54.7449L134.61 57.0269L132.796 55.7525C132.796 55.7525 133.539 54.8507 134.296 54.156C134.629 53.8478 134.812 53.4291 134.817 52.9874C134.822 52.3065 134.933 51.5198 135.319 50.9401C135.329 50.9263 135.333 50.9125 135.343 50.9033C136.042 49.8957 137.687 50.1993 138.016 51.3633L138.483 53.0104C138.667 53.6591 138.416 54.3493 137.847 54.7495V54.7449Z" fill="#E8BFBF"/>
<path d="M121.619 65.2256L120.765 65.9709C120.499 65.7685 120.075 65.4419 119.544 65.0232C115.386 61.729 104.961 53.7466 109.12 51.4646C112.68 49.5093 116.467 55.4903 118.353 57.2846C118.739 57.6573 119.79 58.8121 120.639 60.266C121.527 61.7888 122.183 63.6337 121.619 65.2256Z" fill="#263238"/>
<path d="M120.635 59.5529C119.158 60.5834 117.899 61.8901 116.949 63.3807C117.634 65.5431 119.356 67.4202 121.527 68.322C122.719 65.6903 123.268 62.8562 123.037 59.9991C122.284 59.8427 121.387 59.7093 120.635 59.5529Z" fill="#263238"/>
<path d="M97.7397 50.9999C96.2539 51.4554 94.551 51.0919 93.5959 52.2697C92.6407 53.4475 92.3561 55.0072 92.3561 56.4978C92.3561 58.5682 92.853 60.611 93.3498 62.6261C93.948 65.0737 94.5462 67.5214 95.1492 69.969C95.5592 71.6437 95.1299 79.4191 95.5641 79.5525C95.5641 79.5525 109.202 79.2994 112.622 78.8394C112.622 78.8394 112.921 70.8432 113.191 68.1195C113.254 67.5168 114.214 64.9495 114.325 64.3054C114.855 61.2689 113.813 59.1249 112.709 56.231C112.709 56.231 110.292 51.5934 109.115 51.4692C107.016 51.2437 101.884 49.7301 97.7397 51.0045V50.9999Z" fill="#263238"/>
<path d="M97.1656 54.837C97.1174 54.5655 94.6957 49.9049 92.3754 53.1623C89.1481 57.6987 88.931 63.3945 88.931 63.3945C88.931 63.3945 86.9483 68.9338 88.328 70.1439C89.7125 71.3539 91.2031 72.1314 92.1679 71.4459C93.1327 70.7604 93.7599 69.3893 93.7599 69.3893C93.7599 69.3893 98.0098 59.585 97.1656 54.837Z" fill="#263238"/>
<path d="M97.0113 49.27C95.9934 50.0291 96.1285 51.782 97.2476 52.3939C96.9678 53.3325 97.2959 54.4183 98.0629 55.067C98.8299 55.7157 99.9973 55.8998 100.943 55.5225C100.533 56.2218 100.996 57.142 101.7 57.5744C102.405 58.0069 103.278 58.0851 104.107 58.191C104.937 58.2968 105.815 58.467 106.423 59.0237C107.282 57.8459 108.14 56.6635 109.004 55.4857C109.337 55.0256 109.684 54.5333 109.713 53.9766C109.737 53.4199 109.293 52.8034 108.71 52.8448C109.303 52.2559 109.317 51.2161 108.734 50.6134C108.155 50.0107 107.069 49.9325 106.399 50.4478C106.519 49.9739 106.23 49.4724 105.81 49.1964C105.391 48.9203 104.87 48.8237 104.363 48.7777L97.0113 49.2746V49.27Z" fill="#263238"/>
<path d="M98.5598 43.266C99.2303 45.6124 100.046 49.9418 98.415 51.6533C98.415 51.6533 103.022 53.4108 106.293 56.9396C107.817 55.5271 107.658 53.9399 107.19 52.7805C106.828 51.8833 106.051 51.2162 105.12 50.8389C103.326 50.112 103.311 48.4281 103.611 46.8178L98.5549 43.266H98.5598Z" fill="#E8BFBF"/>
<path opacity="0.2" d="M99.5632 47.264L101.256 47.7011C101.98 47.8897 102.742 47.9311 103.485 47.8253C103.48 48.175 103.413 48.9111 103.644 49.3022C102.67 49.7484 101.025 49.4448 100.301 48.6258C100.002 48.3084 99.732 47.6597 99.568 47.2594L99.5632 47.264Z" fill="black"/>
<path d="M95.2698 41.2692C97.0643 44.8763 97.7397 46.4405 100.504 47.5907C104.662 49.3253 108.907 46.4267 108.275 42.3826C107.711 38.7434 104.87 33.4525 100.456 33.4341C97.3007 33.4065 94.7198 35.8173 94.6861 38.8262C94.6764 39.6728 94.8742 40.5101 95.2649 41.2738L95.2698 41.2692Z" fill="#E8BFBF"/>
<path d="M97.2428 34.3772C95.9355 33.7975 94.3146 34.2714 93.2244 35.1823C92.1197 36.1117 91.4443 37.4091 90.7979 38.6744C90.4458 39.3599 90.0936 40.0592 89.9296 40.8045C89.7656 41.5545 89.8138 42.3734 90.2287 43.0267C90.6339 43.6662 91.3913 44.0895 92.1728 44.1309C92.6214 44.1539 93.1472 44.4668 93.2967 44.8716C93.4318 45.2489 93.3691 45.6584 93.3064 46.0494C93.2437 46.4313 93.1858 46.827 93.3112 47.1904C93.5187 47.7978 94.1988 48.1658 94.8694 48.2302C95.5351 48.29 96.196 48.106 96.8424 47.9266C97.2476 47.8116 97.6577 47.876 97.9761 48.1474C98.0532 48.2164 98.1208 48.2946 98.169 48.3867C98.3668 48.7501 98.9457 48.6903 99.1145 48.313C99.6982 46.988 98.8492 44.8762 97.5853 43.2614C96.9148 42.4056 96.9485 42.6218 96.688 41.5821C96.4661 40.7171 96.799 39.8154 97.209 39.0148C97.7493 37.9474 98.4488 36.9031 98.2317 35.6286C98.1401 35.0903 97.7735 34.6072 97.2573 34.3772H97.2428Z" fill="#263238"/>
<path d="M95.3856 44.9591C95.9789 45.5618 96.8038 45.9161 97.6721 45.9437C98.8251 45.9667 99.1145 44.9177 98.5598 44.0252C98.0581 43.22 96.8521 42.24 95.8101 42.6265C94.7681 43.0176 94.6619 44.2046 95.3856 44.9591Z" fill="#E8BFBF"/>
<path d="M102.482 40.6251C102.617 40.9425 102.877 41.1081 103.085 41.0253C103.292 40.9425 103.345 40.6435 103.229 40.3352C103.114 40.027 102.834 39.8567 102.626 39.9349C102.419 40.0132 102.356 40.3214 102.482 40.6251Z" fill="#263238"/>
<path d="M106.013 39.1758C106.143 39.4933 106.408 39.6589 106.616 39.5807C106.819 39.5025 106.876 39.1988 106.761 38.8905C106.645 38.5823 106.365 38.4121 106.158 38.4857C105.95 38.5593 105.887 38.8721 106.013 39.1758Z" fill="#263238"/>
<path d="M106.066 38.5456L106.737 38.0441C106.737 38.0441 106.592 38.7572 106.066 38.5456Z" fill="#263238"/>
<path d="M105.096 39.8522C105.916 40.6251 106.534 40.7631 107.422 41.2968C107.397 42.0468 106.654 42.2216 106.654 42.2216L105.096 39.8568V39.8522Z" fill="#ED847E"/>
<path d="M106.278 43.6939C106.433 43.6387 106.577 43.5742 106.722 43.496C106.77 43.473 106.785 43.4178 106.761 43.3718C106.732 43.3258 106.674 43.312 106.626 43.3304C105.878 43.7445 104.966 43.7905 104.175 43.4546C104.127 43.4316 104.064 43.4454 104.04 43.496C104.016 43.542 104.03 43.6018 104.083 43.6248C104.778 43.9285 105.569 43.9561 106.283 43.6985L106.278 43.6939Z" fill="#263238"/>
<path d="M102.351 38.1223C102.347 38.2097 102.284 38.2833 102.197 38.3063C101.271 38.5685 100.861 39.6865 100.861 39.6957C100.822 39.8015 100.706 39.8568 100.596 39.82C100.485 39.7831 100.427 39.6727 100.465 39.5669C100.499 39.5255 100.948 38.2419 102.076 37.9198C102.187 37.8922 102.303 37.952 102.337 38.0532C102.347 38.0762 102.351 38.0946 102.356 38.1177L102.351 38.1223Z" fill="#263238"/>
<path d="M106.616 37.5794C106.539 37.6254 106.442 37.6162 106.37 37.561C105.617 36.9859 104.416 37.3033 104.411 37.3033C104.3 37.3355 104.185 37.2757 104.151 37.1699C104.117 37.0641 104.18 36.9536 104.291 36.9214C104.349 36.9214 105.709 36.5442 106.63 37.2435C106.717 37.3125 106.732 37.4367 106.664 37.5241C106.654 37.5425 106.635 37.561 106.616 37.5748V37.5794Z" fill="#263238"/>
<path d="M102.54 39.9902L103.21 39.4933C103.21 39.4933 103.056 40.2064 102.54 39.9902Z" fill="#263238"/>
<path d="M97.5274 33.7745C96.4758 33.8527 95.4724 34.4278 94.9031 35.2744C94.522 35.8449 94.387 36.7098 94.9514 37.1147C95.2167 37.3033 95.5689 37.3401 95.8969 37.3677C97.3634 37.4919 99.1772 36.4108 99.1772 36.4108C98.6128 34.1242 103.639 32.3528 106.119 35.8955C106.847 36.9352 106.65 37.6898 107.86 38.1729C108.43 38.3983 109.182 38.3385 109.549 38.8124C110.157 39.5991 108.989 40.9333 109.732 41.6097C110.239 42.0743 111.387 41.8949 111.454 42.562C111.488 42.8749 111.271 43.3258 111.589 43.4178C111.763 43.4684 111.922 43.3166 112.038 43.1785C112.313 42.8473 112.593 42.5022 112.685 42.0927C112.776 41.6833 112.627 41.1864 112.221 41.0116C111.913 40.8781 111.097 41.0254 111.155 41.3474C111.223 41.7293 110.876 39.8476 111.03 39.139C111.165 38.5179 111.782 37.9842 111.594 37.3769C111.392 36.7282 110.586 36.4706 109.887 36.3739C109.187 36.2773 108.391 36.1945 107.962 35.6608C107.484 35.0627 107.701 34.207 107.547 33.4708C107.349 32.5323 106.529 31.8008 105.608 31.4189C102.81 30.2641 98.4874 30.4251 97.5226 33.7791L97.5274 33.7745Z" fill="#263238"/>
<path d="M105.473 46.0494L95.8294 50.6686C92.66 52.1869 91.2224 55.7617 92.5201 58.9132L97.1705 70.2266C98.4681 73.3782 102.067 75.0713 105.477 74.1327L115.849 71.2802C119.737 70.2128 121.816 66.1871 120.34 62.5939L114.961 49.5092C113.485 45.916 109.091 44.3103 105.477 46.0448L105.473 46.0494ZM103.881 65.4832C101.729 66.2883 99.3027 65.2762 98.4585 63.2242C97.6143 61.1722 98.6756 58.858 100.827 58.0575C102.979 57.2524 105.405 58.2645 106.249 60.3165C107.093 62.3685 106.032 64.6827 103.881 65.4832Z" fill="#0081FF"/>
<path d="M105.473 46.0494L95.8294 50.6686C92.66 52.1869 91.2224 55.7617 92.5201 58.9132L97.1705 70.2266C98.4681 73.3782 102.067 75.0713 105.477 74.1327L115.849 71.2802C119.737 70.2128 121.816 66.1871 120.34 62.5939L114.961 49.5092C113.485 45.916 109.091 44.3103 105.477 46.0448L105.473 46.0494ZM103.881 65.4832C101.729 66.2883 99.3027 65.2762 98.4585 63.2242C97.6143 61.1722 98.6756 58.858 100.827 58.0575C102.979 57.2524 105.405 58.2645 106.249 60.3165C107.093 62.3685 106.032 64.6827 103.881 65.4832Z" fill="#0081FF"/>
<path opacity="0.1" d="M120.34 62.6031L114.957 49.5184C113.481 45.9252 109.086 44.3195 105.473 46.0494L102.67 47.3928L100.788 48.2946L95.8294 50.6732C92.6552 52.1915 91.2224 55.7663 92.5153 58.9178L97.1656 70.2312C98.4633 73.3828 102.062 75.0759 105.473 74.1373L115.849 71.2848C116.698 71.0502 117.46 70.6729 118.121 70.1898C118.633 69.8172 119.081 69.3847 119.453 68.9016C120.813 67.1579 121.242 64.7977 120.34 62.6031ZM103.876 65.4832C101.729 66.2883 99.2979 65.2762 98.4585 63.2242C97.6143 61.1768 98.6756 58.858 100.827 58.0575C102.974 57.2524 105.405 58.2645 106.244 60.3119C107.084 62.3638 106.027 64.6781 103.876 65.4786V65.4832Z" fill="white"/>
<path d="M105.574 46.9098L96.5289 51.2438C93.5524 52.67 92.2114 56.0194 93.4222 58.9731L97.7831 69.5826C98.9988 72.5363 102.376 74.1282 105.574 73.2448L115.304 70.5672C118.951 69.5642 120.9 65.7915 119.515 62.4237L114.469 50.1534C113.085 46.7856 108.96 45.2765 105.574 46.9052V46.9098ZM98.4585 63.2197C97.6143 61.1677 98.6756 58.8535 100.827 58.053C102.979 57.2478 105.405 58.26 106.249 60.312C107.093 62.3639 106.032 64.6781 103.881 65.4787C101.729 66.2838 99.3027 65.2716 98.4585 63.2197Z" fill="#0081FF"/>
<path opacity="0.1" d="M105.574 46.9098L96.5289 51.2438C93.5524 52.67 92.2114 56.0194 93.4222 58.9731L97.7831 69.5826C98.9988 72.5363 102.376 74.1282 105.574 73.2448L115.304 70.5672C118.951 69.5642 120.9 65.7915 119.515 62.4237L114.469 50.1534C113.085 46.7856 108.96 45.2765 105.574 46.9052V46.9098ZM98.4585 63.2197C97.6143 61.1677 98.6756 58.8535 100.827 58.053C102.979 57.2478 105.405 58.26 106.249 60.312C107.093 62.3639 106.032 64.6781 103.881 65.4787C101.729 66.2838 99.3027 65.2716 98.4585 63.2197Z" fill="#0081FF"/>
<path d="M150.519 42.8197L150.244 43.3028L150.09 43.5696L149.656 44.3287L149.839 46.2749C149.849 46.3577 149.839 46.4405 149.81 46.5187C149.752 46.689 149.617 46.827 149.439 46.896L145.628 48.3176C145.449 48.3866 145.252 48.3682 145.088 48.2808C145.035 48.2532 144.986 48.2164 144.943 48.175L142.786 46.0862H142.782L139.718 47.2226L140.162 48.3038L137.099 49.4494L137.832 51.2299L135.575 52.0719C135.391 52.1409 135.184 52.1271 135.015 52.0443C134.957 52.0167 134.909 51.9799 134.861 51.9385L133.558 50.7699L130.495 51.9155L131.228 53.696L128.006 54.9014L128.739 56.6865C128.86 56.9764 128.71 57.3076 128.401 57.4226L119.573 60.7168L115.743 51.4002L147.673 39.4795L148.175 39.7233L149.796 40.5147C150.679 40.9471 151.011 41.9869 150.539 42.8151L150.519 42.8197Z" fill="#0081FF"/>
<g opacity="0.1">
<path d="M150.519 42.8197L150.244 43.3028L150.09 43.5696L149.656 44.3287L149.839 46.2749C149.849 46.3577 149.839 46.4405 149.81 46.5187C149.752 46.689 149.617 46.827 149.439 46.896L145.628 48.3176C145.449 48.3866 145.252 48.3682 145.088 48.2808C145.035 48.2532 144.986 48.2164 144.943 48.175L142.786 46.0862H142.782L139.718 47.2226L140.162 48.3038L137.099 49.4494L137.832 51.2299L135.575 52.0719C135.391 52.1409 135.184 52.1271 135.015 52.0443C134.957 52.0167 134.909 51.9799 134.861 51.9385L133.558 50.7699L130.495 51.9155L131.228 53.696L128.006 54.9014L128.739 56.6865C128.86 56.9764 128.71 57.3076 128.401 57.4226L119.573 60.7168L115.743 51.4002L147.673 39.4795L148.175 39.7233L149.796 40.5147C150.679 40.9471 151.011 41.9869 150.539 42.8151L150.519 42.8197Z" fill="white"/>
</g>
<path d="M150.394 41.7569L116.259 54.5012L115.265 52.1087L147.813 39.958L149.434 40.7493C150.051 41.053 150.404 41.329 150.399 41.7569H150.394Z" fill="#0081FF"/>
<path opacity="0.1" d="M150.394 41.7569L116.259 54.5012L115.265 52.1087L147.813 39.958L149.434 40.7493C150.051 41.053 150.404 41.329 150.399 41.7569H150.394Z" fill="black"/>
<path d="M149.723 43.5558L149.395 44.2644C149.395 44.2644 149.386 44.2874 149.391 44.3012L149.574 46.2289C149.579 46.2979 149.574 46.3669 149.555 46.4359C149.55 46.4589 149.53 46.4773 149.506 46.4865L145.363 48.0416C145.363 48.0416 145.314 48.0508 145.295 48.037C145.256 48.014 145.218 47.9864 145.184 47.9496L142.815 45.6768C142.815 45.6768 142.762 45.6492 142.733 45.6584L139.366 46.9236C139.328 46.9374 139.308 46.9834 139.323 47.0202L139.723 47.9864C139.738 48.0232 139.723 48.0692 139.68 48.083L136.81 49.1596C136.771 49.1734 136.752 49.2194 136.766 49.2562L137.456 50.9263C137.47 50.9631 137.456 51.0091 137.413 51.0229L135.309 51.8143C135.309 51.8143 135.261 51.8235 135.242 51.8143C135.198 51.7913 135.155 51.7591 135.116 51.7269L133.577 50.3742C133.577 50.3742 133.524 50.3512 133.495 50.3604L130.152 51.6164C130.114 51.6302 130.094 51.6763 130.109 51.7131L130.818 53.4246C130.833 53.4614 130.818 53.5074 130.775 53.5212L117.938 58.3382C117.899 58.352 117.851 58.3382 117.837 58.2968L116.553 55.2327C116.539 55.1959 116.553 55.1499 116.597 55.1361L150.047 42.5805C150.109 42.5575 150.177 42.6173 150.148 42.6817L149.728 43.565L149.723 43.5558Z" fill="#0081FF"/>
<path opacity="0.1" d="M149.723 43.5558L149.395 44.2644C149.395 44.2644 149.386 44.2874 149.391 44.3012L149.574 46.2289C149.579 46.2979 149.574 46.3669 149.555 46.4359C149.55 46.4589 149.53 46.4773 149.506 46.4865L145.363 48.0416C145.363 48.0416 145.314 48.0508 145.295 48.037C145.256 48.014 145.218 47.9864 145.184 47.9496L142.815 45.6768C142.815 45.6768 142.762 45.6492 142.733 45.6584L139.366 46.9236C139.328 46.9374 139.308 46.9834 139.323 47.0202L139.723 47.9864C139.738 48.0232 139.723 48.0692 139.68 48.083L136.81 49.1596C136.771 49.1734 136.752 49.2194 136.766 49.2562L137.456 50.9263C137.47 50.9631 137.456 51.0091 137.413 51.0229L135.309 51.8143C135.309 51.8143 135.261 51.8235 135.242 51.8143C135.198 51.7913 135.155 51.7591 135.116 51.7269L133.577 50.3742C133.577 50.3742 133.524 50.3512 133.495 50.3604L130.152 51.6164C130.114 51.6302 130.094 51.6763 130.109 51.7131L130.818 53.4246C130.833 53.4614 130.818 53.5074 130.775 53.5212L117.938 58.3382C117.899 58.352 117.851 58.3382 117.837 58.2968L116.553 55.2327C116.539 55.1959 116.553 55.1499 116.597 55.1361L150.047 42.5805C150.109 42.5575 150.177 42.6173 150.148 42.6817L149.728 43.565L149.723 43.5558Z" fill="black"/>
<path opacity="0.3" d="M100.571 57.0592C97.8748 58.0668 96.5433 60.9699 97.5998 63.5418C98.6563 66.1136 101.7 67.3834 104.402 66.3759C107.098 65.3683 108.43 62.4652 107.373 59.8933C106.317 57.3215 103.273 56.0516 100.571 57.0592ZM103.881 65.4787C101.729 66.2838 99.3027 65.2717 98.4585 63.2197C97.6143 61.1677 98.6756 58.8535 100.827 58.053C102.979 57.2479 105.405 58.26 106.249 60.312C107.093 62.3639 106.032 64.6782 103.881 65.4787Z" fill="white"/>
<path opacity="0.1" d="M119.453 68.897C119.076 69.3801 118.633 69.8172 118.121 70.1853L100.788 48.29L100.774 48.2716C100.774 48.2716 102.303 47.5401 102.646 47.3239C102.646 47.3423 102.655 47.3653 102.67 47.3929C103.427 48.9433 117.05 65.8145 119.453 68.9016V68.897Z" fill="white"/>
<path opacity="0.1" d="M116.949 70.8754C116.838 70.926 111.792 72.3891 111.792 72.3891L106.162 65.2808C107.619 63.919 108.164 61.8118 107.373 59.8887C106.317 57.3168 103.273 56.047 100.571 57.0546C100.335 57.142 100.113 57.2432 99.896 57.3628L94.9176 51.0735C94.9176 51.0735 99.293 49.086 99.7803 48.7961C99.9105 49.6795 116.949 70.6914 116.949 70.88V70.8754Z" fill="white"/>
<path d="M96.2828 36.3417C95.7184 36.9812 95.4869 37.8784 95.6798 38.6927C95.868 39.5071 96.4758 40.2248 97.2717 40.579C97.6818 40.7631 98.1352 40.8505 98.5453 41.0391C98.9505 41.2324 99.3316 41.5682 99.375 42.0007C99.4233 42.4792 99.0566 42.9208 99.0904 43.3993C99.1242 43.8364 99.4812 44.1815 99.843 44.4529C100.205 44.7244 100.61 44.9774 100.808 45.3731C101.006 45.7687 100.88 46.353 100.436 46.4681C100.345 46.6061 100.306 46.9327 100.427 47.0478C100.547 47.1628 100.755 47.1904 100.899 47.103C101.58 46.7027 102.048 45.9528 102.052 45.189C102.057 44.4253 101.555 43.6846 100.827 43.3717C100.697 43.1187 100.798 42.7966 100.909 42.5344C101.131 42.0099 101.353 41.4808 101.57 40.9563C101.657 40.7493 101.58 40.372 101.43 40.2018C101.281 40.0315 101.059 39.9349 100.842 39.8475L99.4184 39.2678C98.883 39.047 97.2862 37.0134 99.1772 36.4199C98.9312 35.8954 98.5019 35.7344 97.9133 35.6286C97.3248 35.5228 96.6736 35.9138 96.2876 36.3509L96.2828 36.3417Z" fill="#263238"/>
<path d="M98.8637 34.1518C98.8154 34.6855 98.7672 35.2238 98.7238 35.7575C99.1965 35.0214 100.07 33.5905 100.036 33.6457C99.6645 33.839 99.2351 33.9586 98.8637 34.1518Z" fill="#263238"/>
<path d="M99.5053 35.0305C100.166 34.4508 100.822 33.8665 101.483 33.2868C100.977 33.1073 100.359 33.2408 99.9877 33.618C99.9973 33.5766 99.6934 34.4692 99.5101 35.0305H99.5053Z" fill="#263238"/>
<path d="M95.4869 78.5588C92.9157 81.6045 93.7695 83.9371 90.219 89.3293C94.6957 92.4946 99.6066 93.0191 105.714 92.5682C106.437 91.349 106.799 90.0792 107.523 88.86C108.555 90.0838 109.39 91.1144 110.422 92.3382C113.62 91.8597 117.422 91.0039 119.95 89.4489C117.716 87.0058 116.327 83.9555 114.899 81.2594C114.228 79.9942 114.508 79.4651 112.728 77.8088C107.06 78.0573 101.44 78.1907 95.7715 78.4392C95.921 78.4484 95.3373 78.5542 95.4869 78.5588Z" fill="#263238"/>
<path d="M96.1912 78.048L95.8342 79.4697C95.7811 79.5801 95.921 79.6859 96.114 79.6767L111.734 79.0188C111.884 79.0188 112.004 78.936 112.009 78.8486L112.091 77.4361C112.091 77.3395 111.961 77.2613 111.797 77.2705L96.4468 77.9146C96.3407 77.9146 96.2442 77.9606 96.1863 78.0435L96.1912 78.048Z" fill="#0081FF"/>
<path d="M96.1912 78.048L95.8342 79.4697C95.7811 79.5801 95.921 79.6859 96.114 79.6767L111.734 79.0188C111.884 79.0188 112.004 78.936 112.009 78.8486L112.091 77.4361C112.091 77.3395 111.961 77.2613 111.797 77.2705L96.4468 77.9146C96.3407 77.9146 96.2442 77.9606 96.1863 78.0435L96.1912 78.048Z" fill="#0081FF"/>
<path d="M99.6307 79.6813L99.1772 79.6997C99.0904 79.6997 99.018 79.6629 99.0229 79.6123L99.1435 77.7766C99.1435 77.726 99.2207 77.6799 99.3123 77.6753L99.7658 77.6523C99.8526 77.6523 99.925 77.6891 99.9201 77.7444L99.7995 79.5755C99.7947 79.6261 99.7175 79.6767 99.6307 79.6813Z" fill="#263238"/>
<path d="M110.909 79.2166L110.456 79.235C110.369 79.235 110.297 79.1982 110.301 79.1476L110.422 77.3165C110.422 77.2613 110.499 77.2153 110.586 77.2107L111.04 77.1923C111.126 77.1923 111.199 77.2291 111.194 77.2797L111.073 79.1108C111.073 79.166 111.001 79.212 110.909 79.2166Z" fill="#263238"/>
<path d="M101.647 70.7465C101.676 70.88 102.892 72.7249 103.842 72.5961C103.852 72.5961 103.857 72.5961 103.866 72.5961C104.141 72.5593 104.421 72.6651 104.59 72.8767C104.971 73.3506 105.202 73.622 105.458 73.9349C105.878 74.441 106.606 74.602 107.214 74.3306C107.397 74.2523 107.576 74.1603 107.754 74.0729C108.343 73.7739 108.642 73.1298 108.483 72.5132C108.309 71.8369 108.034 71.1836 107.672 70.5763C107.547 70.3693 107.407 70.1622 107.19 70.0426C106.973 69.923 104.879 69.3203 104.069 69.3433C103.225 69.3709 102.419 70.4245 101.647 70.7511V70.7465Z" fill="#E8BFBF"/>
<path d="M104.093 69.2789C104.093 69.2789 91.2707 65.5753 88.5017 68.0413C86.876 69.4906 87.643 70.8616 88.5547 71.7404C89.2301 72.3983 90.7062 72.2373 91.6662 72.1912L101.768 71.2481L104.093 69.2789Z" fill="#E8BFBF"/>
<path d="M96.7266 67.5858C96.6591 66.9233 96.1188 66.3758 95.4965 66.0768C94.8742 65.7823 94.1651 65.6903 93.4752 65.6075C91.864 65.4143 90.2528 65.2164 88.6416 65.0232C87.8215 66.0078 87.2329 67.365 87.2619 68.6256C87.286 69.8816 87.7829 71.1285 88.6416 72.0854C89.4134 70.6638 90.4313 69.2007 91.9364 68.4922C93.4415 67.7883 95.0816 67.3006 96.7315 67.5858H96.7266Z" fill="#263238"/>
<path opacity="0.1" d="M93.4223 45.2496C93.4077 45.2216 93.4077 45.2077 93.4223 45.203C93.5246 45.1751 93.51 45.1937 93.4223 45.2496Z" fill="white"/>
<path d="M125.275 25.4471L128.85 31.764L143.428 19.9583C143.558 19.8525 143.409 19.6639 143.269 19.7559L129.602 28.3594L127.494 24.4395L125.275 25.4471Z" fill="#0081FF"/>
<path d="M148.276 25.4792C148.276 31.1106 142.077 35.6746 134.436 35.6746C131.503 35.6746 128.782 35.0075 126.544 33.8527L118.415 37.2205L123.543 31.7731C121.696 30.0478 120.591 27.8625 120.591 25.4838C120.591 19.8525 126.79 15.2885 134.431 15.2885C142.073 15.2885 148.271 19.8525 148.271 25.4838L148.276 25.4792Z" stroke="#0081FF" stroke-width="1.3" stroke-miterlimit="10"/>
</g>
<defs>
<clipPath id="clip0_8_5211">
<rect width="203" height="167" fill="white"/>
</clipPath>
</defs>
</svg>
