<svg width="211" height="157" viewBox="0 0 211 157" fill="none" xmlns="http://www.w3.org/2000/svg">
<g clip-path="url(#clip0_8_4692)">
<path d="M211 137.972H0V138.077H211V137.972Z" fill="#EBEBEB"/>
<path d="M189.858 144.751H175.881V144.857H189.858V144.751Z" fill="#EBEBEB"/>
<path d="M139.775 145.897H136.108V146.003H139.775V145.897Z" fill="#EBEBEB"/>
<path d="M175.459 140.841H167.361V140.947H175.459V140.841Z" fill="#EBEBEB"/>
<path d="M40.3643 141.549H22.1381V141.654H40.3643V141.549Z" fill="#EBEBEB"/>
<path d="M46.7956 141.549H44.1243V141.654H46.7956V141.549Z" fill="#EBEBEB"/>
<path d="M95.0133 143.327H55.4803V143.432H95.0133V143.327Z" fill="#EBEBEB"/>
<path d="M100.018 119.179H18.53C17.2007 119.179 16.1204 118.101 16.1204 116.774V2.40592C16.1204 1.07866 17.2007 0 18.53 0H100.018C101.348 0 102.428 1.07866 102.428 2.40592V116.774C102.428 118.101 101.348 119.179 100.018 119.179ZM18.53 0.105338C17.2598 0.105338 16.2259 1.13765 16.2259 2.40592V116.774C16.2259 118.042 17.2598 119.074 18.53 119.074H100.018C101.288 119.074 102.322 118.042 102.322 116.774V2.40592C102.322 1.13765 101.288 0.105338 100.018 0.105338H18.53Z" fill="#EBEBEB"/>
<path d="M191.297 119.179H109.809C108.479 119.179 107.399 118.101 107.399 116.774V2.40592C107.399 1.07866 108.479 0 109.809 0H191.297C192.626 0 193.706 1.07866 193.706 2.40592V116.774C193.706 118.101 192.626 119.179 191.297 119.179ZM109.809 0.105338C108.538 0.105338 107.504 1.13765 107.504 2.40592V116.774C107.504 118.042 108.538 119.074 109.809 119.074H191.297C192.567 119.074 193.601 118.042 193.601 116.774V2.40592C193.601 1.13765 192.567 0.105338 191.297 0.105338H109.809Z" fill="#EBEBEB"/>
<path d="M93.9752 54.2617H27.9153V137.782H93.9752V54.2617Z" fill="#F0F0F0"/>
<path d="M91.6373 57.3038H30.249V75.1649H91.6373V57.3038Z" fill="#E0E0E0"/>
<path d="M33.7347 60.1985H30.249V75.1649H33.7347V60.1985Z" fill="#EBEBEB"/>
<path d="M50.5978 60.1985H47.1121V75.1649H50.5978V60.1985Z" fill="#EBEBEB"/>
<path d="M69.738 59.8221L66.303 60.4133L68.8492 75.1623L72.2842 74.5711L69.738 59.8221Z" fill="#EBEBEB"/>
<path d="M38.056 62.1704H34.5703V75.1649H38.056V62.1704Z" fill="#EBEBEB"/>
<path d="M46.0698 62.1704H42.584V75.1649H46.0698V62.1704Z" fill="#EBEBEB"/>
<path d="M66.3004 62.1704H62.8147V75.1649H66.3004V62.1704Z" fill="#EBEBEB"/>
<path d="M55.1765 61.722L51.7738 62.4771L54.5973 75.1621L58 74.407L55.1765 61.722Z" fill="#EBEBEB"/>
<path d="M41.0732 59.4528H39.3304V75.165H41.0732V59.4528Z" fill="#EBEBEB"/>
<path d="M61.8146 59.4528H60.0717V75.165H61.8146V59.4528Z" fill="#EBEBEB"/>
<path d="M30.249 95.8534L91.6373 95.8534V77.9923H30.249V95.8534Z" fill="#E0E0E0"/>
<path d="M88.1516 95.8534H91.6373V80.887H88.1516V95.8534Z" fill="#EBEBEB"/>
<path d="M71.2884 95.8534H74.7742V80.887H71.2884V95.8534Z" fill="#EBEBEB"/>
<path d="M49.5992 95.2606L53.0343 95.8518L55.5805 81.1029L52.1454 80.5117L49.5992 95.2606Z" fill="#EBEBEB"/>
<path d="M83.8261 95.8534H87.3118V82.8589H83.8261V95.8534Z" fill="#EBEBEB"/>
<path d="M75.8165 95.8534H79.3022V82.8589H75.8165V95.8534Z" fill="#EBEBEB"/>
<path d="M55.5816 95.8534H59.0673V82.8589H55.5816V95.8534Z" fill="#EBEBEB"/>
<path d="M63.89 95.0958L67.2927 95.8508L70.1162 83.1658L66.7135 82.4108L63.89 95.0958Z" fill="#EBEBEB"/>
<path d="M80.813 95.8534H82.5558V80.1412H80.813V95.8534Z" fill="#EBEBEB"/>
<path d="M60.0717 95.8534H61.8146V80.1412H60.0717V95.8534Z" fill="#EBEBEB"/>
<path d="M33.7347 80.8828H30.249V95.8492H33.7347V80.8828Z" fill="#EBEBEB"/>
<path d="M38.056 82.8547H34.5703V95.8492H38.056V82.8547Z" fill="#EBEBEB"/>
<path d="M46.0698 82.8547H42.584V95.8492H46.0698V82.8547Z" fill="#EBEBEB"/>
<path d="M41.0732 80.1412H39.3304V95.8535H41.0732V80.1412Z" fill="#EBEBEB"/>
<path d="M91.6373 98.6807H30.249V116.542H91.6373V98.6807Z" fill="#E0E0E0"/>
<path d="M68.9674 101.571H65.4817V116.538H68.9674V101.571Z" fill="#EBEBEB"/>
<path d="M88.1152 101.198L84.6802 101.789L87.2264 116.538L90.6614 115.947L88.1152 101.198Z" fill="#EBEBEB"/>
<path d="M56.4256 103.543H52.9399V116.538H56.4256V103.543Z" fill="#EBEBEB"/>
<path d="M64.4436 103.543H60.9579V116.538H64.4436V103.543Z" fill="#EBEBEB"/>
<path d="M84.6743 103.543H81.1885V116.538H84.6743V103.543Z" fill="#EBEBEB"/>
<path d="M73.5527 103.093L70.15 103.848L72.9735 116.533L76.3762 115.778L73.5527 103.093Z" fill="#EBEBEB"/>
<path d="M59.4429 100.83H57.7V116.542H59.4429V100.83Z" fill="#EBEBEB"/>
<path d="M80.1842 100.83H78.4413V116.542H80.1842V100.83Z" fill="#EBEBEB"/>
<path d="M47.9922 101.197L44.5571 101.789L47.1033 116.538L50.5384 115.946L47.9922 101.197Z" fill="#EBEBEB"/>
<path d="M44.5548 103.543H41.069V116.538H44.5548V103.543Z" fill="#EBEBEB"/>
<path d="M33.4307 103.095L30.028 103.85L32.8515 116.535L36.2542 115.78L33.4307 103.095Z" fill="#EBEBEB"/>
<path d="M40.0646 100.83H38.3218V116.542H40.0646V100.83Z" fill="#EBEBEB"/>
<path d="M128.828 87.9277H166.053C170.091 87.9277 173.366 91.1974 173.366 95.2298V124.253H121.519V95.2298C121.519 91.1974 124.794 87.9277 128.832 87.9277H128.828Z" fill="#E6E6E6"/>
<path d="M110.513 109.442H117.177C119.578 109.442 121.523 111.384 121.523 113.782V137.786H106.171V113.782C106.171 111.384 108.116 109.442 110.518 109.442H110.513Z" fill="#E0E0E0"/>
<path d="M110.513 109.442H110.653C113.054 109.442 114.999 111.384 114.999 113.782V137.786H106.171V113.782C106.171 111.384 108.116 109.442 110.518 109.442H110.513Z" fill="#EBEBEB"/>
<path d="M167.943 126.755H116.856V137.782H167.943V126.755Z" fill="#E6E6E6"/>
<path d="M166.053 116.672H116.784C114.344 116.672 112.366 118.647 112.366 121.084V123.827C112.366 126.263 114.344 128.238 116.784 128.238H166.053C168.493 128.238 170.471 126.263 170.471 123.827V121.084C170.471 118.647 168.493 116.672 166.053 116.672Z" fill="#F5F5F5"/>
<path d="M165.968 116.672H159.862C157.422 116.672 155.444 118.647 155.444 121.084V123.827C155.444 126.263 157.422 128.238 159.862 128.238H165.968C168.409 128.238 170.387 126.263 170.387 123.827V121.084C170.387 118.647 168.409 116.672 165.968 116.672Z" fill="#E0E0E0"/>
<path d="M166.631 109.442H173.294C175.695 109.442 177.641 111.384 177.641 113.782V137.786H162.289V113.782C162.289 111.384 164.234 109.442 166.635 109.442H166.631Z" fill="#E0E0E0"/>
<path d="M166.631 109.442H166.77C169.171 109.442 171.117 111.384 171.117 113.782V137.786H162.289V113.782C162.289 111.384 164.234 109.442 166.635 109.442H166.631Z" fill="#F0F0F0"/>
<path d="M63.4102 44.1128C68.828 43.2347 72.507 38.1377 71.6276 32.7283C70.7482 27.3188 65.6433 23.6454 60.2255 24.5235C54.8078 25.4016 51.1287 30.4986 52.0082 35.908C52.8876 41.3175 57.9925 44.9909 63.4102 44.1128Z" fill="#E0E0E0"/>
<path d="M63.1722 42.6488C67.7801 41.9019 70.9093 37.5667 70.1613 32.9659C69.4133 28.365 65.0715 25.2406 60.4635 25.9875C55.8555 26.7343 52.7264 31.0695 53.4744 35.6704C54.2224 40.2713 58.5642 43.3956 63.1722 42.6488Z" fill="#F0F0F0"/>
<path d="M61.4137 40.1043V34.2053L57.5017 36.4174" fill="#F0F0F0"/>
<path d="M61.4137 40.1043V34.2053L57.5017 36.4174" stroke="#E0E0E0" stroke-width="2" stroke-linecap="round" stroke-linejoin="round"/>
<path d="M180.873 21.7965H117.257V78.1608H180.873V21.7965Z" fill="#E6E6E6"/>
<path d="M179.198 23.3429H118.848V76.6482H179.198V23.3429Z" fill="#F0F0F0"/>
<path d="M133.01 23.3429L118.848 76.5302V51.5356L126.326 23.3429H133.01Z" fill="white"/>
<path d="M138.028 23.3429L123.739 76.6482H121.46L135.749 23.3429H138.028Z" fill="white"/>
<path d="M179.198 56.9794V65.4949L176.307 76.6481H174.029L179.198 56.9794Z" fill="white"/>
<path d="M139.897 22.3822H138.88V77.8363H139.897V22.3822Z" fill="#E6E6E6"/>
<path d="M159.6 22.3822H158.583V77.8363H159.6V22.3822Z" fill="#E6E6E6"/>
<path d="M105.5 157C150.689 157 187.322 154.865 187.322 152.23C187.322 149.596 150.689 147.461 105.5 147.461C60.3112 147.461 23.6784 149.596 23.6784 152.23C23.6784 154.865 60.3112 157 105.5 157Z" fill="#F5F5F5"/>
<path d="M169.602 141.692C169.602 141.692 171.606 137.327 169.315 133.021C167.023 128.715 166.361 127.703 167.821 126.819C169.281 125.934 169.952 130.261 169.952 130.261C169.952 130.261 171.184 127.286 170.167 124.173C169.15 121.059 168.513 115.986 169.901 115.442C171.29 114.899 170.167 121.771 171.37 124.114C171.37 124.114 172.383 121.505 172.547 119.003C172.712 116.5 172.455 112.505 173.552 111.481C174.649 110.457 175.349 111.165 174.273 116.685C173.197 122.205 173.206 126.692 173.206 126.692C173.206 126.692 175.586 119.449 177.181 119.238C178.776 119.028 178.776 121.371 177.409 123.406C176.042 125.441 173.408 129.085 172.974 130.96C172.974 130.96 175.586 125.512 177.932 127.181C180.283 128.85 175.89 132.144 173.932 133.333C171.973 134.521 170.615 141.979 170.615 141.979L169.606 141.692H169.602Z" fill="#0081FF"/>
<path opacity="0.2" d="M169.602 141.692C169.602 141.692 171.606 137.327 169.315 133.021C167.023 128.715 166.361 127.703 167.821 126.819C169.281 125.934 169.952 130.261 169.952 130.261C169.952 130.261 171.184 127.286 170.167 124.173C169.15 121.059 168.513 115.986 169.901 115.442C171.29 114.899 170.167 121.771 171.37 124.114C171.37 124.114 172.383 121.505 172.547 119.003C172.712 116.5 172.455 112.505 173.552 111.481C174.649 110.457 175.349 111.165 174.273 116.685C173.197 122.205 173.206 126.692 173.206 126.692C173.206 126.692 175.586 119.449 177.181 119.238C178.776 119.028 178.776 121.371 177.409 123.406C176.042 125.441 173.408 129.085 172.974 130.96C172.974 130.96 175.586 125.512 177.932 127.181C180.283 128.85 175.89 132.144 173.932 133.333C171.973 134.521 170.615 141.979 170.615 141.979L169.606 141.692H169.602Z" fill="black"/>
<path d="M171.184 143.483C171.184 143.483 169.23 139.088 171.573 134.816C173.915 130.543 174.59 129.54 173.142 128.639C171.695 127.737 170.973 132.052 170.973 132.052C170.973 132.052 169.779 129.056 170.834 125.959C171.889 122.858 172.585 117.797 171.205 117.233C169.825 116.668 170.864 123.557 169.631 125.879C169.631 125.879 168.652 123.258 168.513 120.751C168.374 118.244 168.686 114.258 167.602 113.217C166.517 112.177 165.808 112.876 166.817 118.413C167.825 123.949 167.766 128.437 167.766 128.437C167.766 128.437 165.475 121.16 163.879 120.924C162.284 120.688 162.259 123.035 163.601 125.087C164.943 127.143 167.534 130.826 167.943 132.705C167.943 132.705 165.399 127.219 163.031 128.854C160.664 130.489 165.015 133.847 166.96 135.064C168.906 136.282 170.171 143.757 170.171 143.757L171.184 143.483Z" fill="#0081FF"/>
<path d="M162.179 140.348H178.303L176.999 151.868H163.487L162.179 140.348Z" fill="#263238"/>
<path d="M102.377 150.018V151.531C102.377 151.72 102.225 151.868 102.035 151.868H59.2362C57.6537 151.868 56.5734 150.271 57.1642 148.809L70.7272 115.269L92.6459 115.417L91.899 119.769L87.0629 147.937C86.9067 148.847 87.6072 149.677 88.5314 149.677H102.035C102.225 149.677 102.377 149.824 102.377 150.014V150.018Z" fill="#263238"/>
<path opacity="0.5" d="M102.377 150.018V151.531C102.377 151.72 102.225 151.868 102.035 151.868H59.2362C57.6537 151.868 56.5734 150.271 57.1642 148.809L65.5746 128.019L70.7272 115.269L92.6459 115.417L91.899 119.769L89.7974 132.018L87.0671 147.932C86.9109 148.843 87.6115 149.673 88.5356 149.673H102.04C102.23 149.673 102.381 149.82 102.381 150.01L102.377 150.018Z" fill="white"/>
<path opacity="0.2" d="M88.5314 149.681H60.6836C59.9873 149.681 59.5147 148.973 59.7806 148.333L71.6725 119.778H91.899L87.0629 147.945C86.9067 148.855 87.6072 149.685 88.5314 149.685V149.681Z" fill="black"/>
<path opacity="0.1" d="M92.6459 115.421L91.8989 119.773L89.7932 132.022L65.5746 128.019L70.7272 115.273L92.6459 115.421Z" fill="black"/>
<path d="M135.264 52.901H33.7938C32.359 52.901 31.1985 54.0597 31.1985 55.4923V124.08C31.1985 125.513 32.359 126.671 33.7938 126.671H135.264C136.698 126.671 137.859 125.513 137.859 124.08V55.4923C137.859 54.0597 136.694 52.901 135.264 52.901Z" fill="#263238"/>
<path opacity="0.6" d="M135.264 52.901H33.7938C32.359 52.901 31.1985 54.0597 31.1985 55.4923V124.08C31.1985 125.513 32.359 126.671 33.7938 126.671H135.264C136.698 126.671 137.859 125.513 137.859 124.08V55.4923C137.859 54.0597 136.694 52.901 135.264 52.901Z" fill="white"/>
<path opacity="0.2" d="M35.946 126.671H33.7938C32.3632 126.671 31.1985 125.512 31.1985 124.08V55.492C31.1985 54.0594 32.359 52.8965 33.7938 52.8965H35.946C34.5154 52.8965 33.3507 54.0552 33.3507 55.492V124.08C33.3507 125.508 34.5112 126.671 35.946 126.671Z" fill="black"/>
<path d="M135.525 55.1255H35.6928V121.265H135.525V55.1255Z" fill="#0081FF"/>
<path opacity="0.4" d="M84.2312 80.3055C89.0184 80.3055 92.8991 76.4307 92.8991 71.6509C92.8991 66.8711 89.0184 62.9963 84.2312 62.9963C79.4441 62.9963 75.5634 66.8711 75.5634 71.6509C75.5634 76.4307 79.4441 80.3055 84.2312 80.3055Z" fill="white"/>
<path d="M82.1634 70.3363V69.5273C82.1634 68.7394 82.8049 68.1032 83.5898 68.1032H84.8685C85.6576 68.1032 86.2948 68.7436 86.2948 69.5273V70.3363H87.219V69.5273C87.219 68.2338 86.164 67.1804 84.8685 67.1804H83.5898C82.2943 67.1804 81.2393 68.2338 81.2393 69.5273V70.3363H82.1634Z" fill="white"/>
<path d="M80.0745 71.4023V75.6538C80.0745 75.915 80.2855 76.1257 80.5472 76.1257H87.9153C88.1769 76.1257 88.3879 75.915 88.3879 75.6538V71.4023C88.3879 71.1411 88.1769 70.9304 87.9153 70.9304H80.5472C80.2855 70.9304 80.0745 71.1411 80.0745 71.4023ZM84.4971 73.8125V74.6467H83.9654V73.8125C83.8134 73.7198 83.7079 73.5597 83.7079 73.3701C83.7079 73.0793 83.9443 72.8434 84.2354 72.8434C84.5266 72.8434 84.7629 73.0793 84.7629 73.3701C84.7629 73.5597 84.6574 73.7198 84.5055 73.8125H84.4971Z" fill="white"/>
<path d="M63.0848 87.4728H54.898C54.4109 87.4728 54.0161 87.867 54.0161 88.3534V96.5276C54.0161 97.014 54.4109 97.4083 54.898 97.4083H63.0848C63.5719 97.4083 63.9668 97.014 63.9668 96.5276V88.3534C63.9668 87.867 63.5719 87.4728 63.0848 87.4728Z" fill="white"/>
<path d="M75.7068 87.4601H67.52C67.0329 87.4601 66.6381 87.8544 66.6381 88.3407V96.5149C66.6381 97.0013 67.0329 97.3956 67.52 97.3956H75.7068C76.1939 97.3956 76.5888 97.0013 76.5888 96.5149V88.3407C76.5888 87.8544 76.1939 87.4601 75.7068 87.4601Z" fill="white"/>
<path d="M88.3246 87.4432H80.1378C79.6507 87.4432 79.2559 87.8375 79.2559 88.3239V96.4981C79.2559 96.9845 79.6507 97.3787 80.1378 97.3787H88.3246C88.8117 97.3787 89.2066 96.9845 89.2066 96.4981V88.3239C89.2066 87.8375 88.8117 87.4432 88.3246 87.4432Z" fill="white"/>
<path d="M100.942 87.4307H92.7556C92.2685 87.4307 91.8737 87.8249 91.8737 88.3113V96.4855C91.8737 96.9719 92.2685 97.3661 92.7556 97.3661H100.942C101.43 97.3661 101.824 96.9719 101.824 96.4855V88.3113C101.824 87.8249 101.43 87.4307 100.942 87.4307Z" fill="white"/>
<path d="M113.56 87.418H105.373C104.886 87.418 104.491 87.8122 104.491 88.2986V96.4728C104.491 96.9592 104.886 97.3535 105.373 97.3535H113.56C114.047 97.3535 114.442 96.9592 114.442 96.4728V88.2986C114.442 87.8122 114.047 87.418 113.56 87.418Z" fill="white"/>
<path d="M107.277 92.5795C107.277 90.8309 108.214 89.8365 109.471 89.8365C110.729 89.8365 111.657 90.8351 111.657 92.5795C111.657 94.3239 110.72 95.3225 109.471 95.3225C108.222 95.3225 107.277 94.3282 107.277 92.5795ZM110.893 92.5795C110.893 91.2059 110.311 90.5191 109.471 90.5191C108.631 90.5191 108.045 91.2102 108.045 92.5795C108.045 93.9489 108.627 94.64 109.471 94.64C110.315 94.64 110.893 93.9489 110.893 92.5795Z" fill="#263238"/>
<path d="M60.9917 92.5079C60.9917 94.3408 59.9536 95.3183 58.4513 95.3183C57.9449 95.3183 57.4596 95.2172 57.1177 95.0023L57.4089 94.404C57.6917 94.5894 58.0546 94.6568 58.447 94.6568C59.5358 94.6568 60.2279 93.9742 60.2279 92.6343V92.4447C59.9114 92.9124 59.3459 93.1484 58.6791 93.1484C57.6115 93.1484 56.8434 92.5121 56.8434 91.522C56.8434 90.5318 57.6706 89.8281 58.7382 89.8281C60.1815 89.8281 60.9959 90.793 60.9959 92.5037L60.9917 92.5079ZM60.0464 91.4883C60.0464 90.9363 59.6033 90.4517 58.7635 90.4517C58.063 90.4517 57.5819 90.8562 57.5819 91.4925C57.5819 92.1287 58.0504 92.529 58.8015 92.529C59.5527 92.529 60.0464 92.0781 60.0464 91.4883Z" fill="#263238"/>
<path d="M69.4191 92.5795C69.4191 90.8309 70.3559 89.8365 71.6135 89.8365C72.871 89.8365 73.7994 90.8351 73.7994 92.5795C73.7994 94.3239 72.8626 95.3225 71.6135 95.3225C70.3643 95.3225 69.4191 94.3282 69.4191 92.5795ZM73.0356 92.5795C73.0356 91.2059 72.4532 90.5191 71.6135 90.5191C70.7737 90.5191 70.1871 91.2102 70.1871 92.5795C70.1871 93.9489 70.7695 94.64 71.6135 94.64C72.4575 94.64 73.0356 93.9489 73.0356 92.5795Z" fill="#263238"/>
<path d="M86.1725 94.5936V95.2593H82.3112V94.7368L84.4971 92.6301C85.0668 92.0781 85.1723 91.741 85.1723 91.4039C85.1723 90.8519 84.7799 90.5149 84.0287 90.5149C83.4548 90.5149 82.9864 90.7003 82.653 91.0963L82.1297 90.6455C82.5433 90.1314 83.2564 89.8323 84.0962 89.8323C85.2187 89.8323 85.9404 90.4053 85.9404 91.3281C85.9404 91.8506 85.7884 92.3183 85.0584 93.0135L83.4168 94.5936H86.1725Z" fill="#263238"/>
<path d="M97.4652 89.8955V95.2593H96.7056V90.5612H95.4944V89.8955H97.4652Z" fill="#263238"/>
<g opacity="0.6">
<path d="M74.7911 85.0458V85.2354H73.3268V83.1708H74.7447V83.3604H73.5462V84.0935H74.6181V84.2789H73.5462V85.0458H74.7911Z" fill="white"/>
<path d="M76.6901 84.3337V85.2354H76.4791V84.3548C76.4791 84.0261 76.3061 83.8576 76.0107 83.8576C75.6773 83.8576 75.4663 84.064 75.4663 84.418V85.2312H75.2553V83.6806H75.4579V83.9671C75.5718 83.7775 75.7786 83.668 76.0487 83.668C76.4285 83.668 76.6859 83.8871 76.6859 84.3337H76.6901Z" fill="white"/>
<path d="M78.0785 85.1384C77.9941 85.21 77.8717 85.248 77.7494 85.248C77.4582 85.248 77.2936 85.0836 77.2936 84.7971V83.8575H77.0151V83.6805H77.2936V83.3392H77.5046V83.6805H77.9772V83.8575H77.5046V84.7845C77.5046 84.9657 77.5974 85.0668 77.7747 85.0668C77.8591 85.0668 77.9477 85.0415 78.0068 84.9867L78.0785 85.1384Z" fill="white"/>
<path d="M79.7539 84.5233H78.4541C78.4794 84.8478 78.7242 85.0626 79.066 85.0626C79.2559 85.0626 79.4247 84.9952 79.5429 84.8604L79.661 84.9952C79.5218 85.1596 79.3065 85.248 79.0618 85.248C78.5765 85.248 78.2473 84.9194 78.2473 84.4559C78.2473 83.9924 78.568 83.668 79.0069 83.668C79.4458 83.668 79.7623 83.9882 79.7623 84.4559C79.7623 84.4727 79.7623 84.498 79.7623 84.5191L79.7539 84.5233ZM78.4541 84.3674H79.5555C79.5302 84.064 79.3065 83.8491 79.0027 83.8491C78.6989 83.8491 78.4794 84.0598 78.4541 84.3674Z" fill="white"/>
<path d="M80.9692 83.668V83.8702C80.9692 83.8702 80.9354 83.8702 80.9185 83.8702C80.5936 83.8702 80.3953 84.0767 80.3953 84.4433V85.2354H80.1843V83.6848H80.3868V83.9882C80.4839 83.7817 80.6822 83.6722 80.9692 83.6722V83.668Z" fill="white"/>
<path d="M83.4505 83.6805L82.6741 85.4165C82.5432 85.7199 82.3787 85.8168 82.155 85.8168C82.0115 85.8168 81.8723 85.7705 81.7752 85.6735L81.8723 85.5176C81.9482 85.5935 82.0453 85.6356 82.155 85.6356C82.2943 85.6356 82.3871 85.5724 82.4757 85.3744L82.5433 85.2227L81.8469 83.6721H82.0664L82.653 84.991L83.2395 83.6721H83.4463L83.4505 83.6805Z" fill="white"/>
<path d="M83.5434 84.4559C83.5434 83.9966 83.881 83.668 84.3368 83.668C84.7925 83.668 85.1259 83.9966 85.1259 84.4559C85.1259 84.9152 84.7925 85.248 84.3368 85.248C83.881 85.248 83.5434 84.9194 83.5434 84.4559ZM84.9107 84.4559C84.9107 84.0935 84.6659 83.8491 84.3325 83.8491C83.9992 83.8491 83.7544 84.0893 83.7544 84.4559C83.7544 84.8225 84.0034 85.0626 84.3325 85.0626C84.6617 85.0626 84.9107 84.8225 84.9107 84.4559Z" fill="white"/>
<path d="M86.9531 83.6805V85.2311H86.7506V84.9488C86.6409 85.1384 86.4383 85.248 86.1935 85.248C85.7969 85.248 85.5352 85.0247 85.5352 84.5822V83.6805H85.7462V84.5612C85.7462 84.8898 85.9192 85.0584 86.2146 85.0584C86.5396 85.0584 86.7421 84.8477 86.7421 84.4937V83.6805H86.9531Z" fill="white"/>
<path d="M88.3247 83.668V83.8702C88.3247 83.8702 88.2909 83.8702 88.274 83.8702C87.9491 83.8702 87.7507 84.0767 87.7507 84.4433V85.2354H87.5397V83.6848H87.7423V83.9882C87.8394 83.7817 88.0377 83.6722 88.3247 83.6722V83.668Z" fill="white"/>
<path d="M89.3586 84.1988C89.3586 83.5963 89.8186 83.1497 90.4473 83.1497C91.0761 83.1497 91.5319 83.5963 91.5319 84.1988C91.5319 84.8014 91.0677 85.248 90.4473 85.248C89.827 85.248 89.3586 84.8014 89.3586 84.1988ZM91.3124 84.1988C91.3124 83.7058 90.9411 83.3435 90.4473 83.3435C89.9536 83.3435 89.5738 83.7058 89.5738 84.1988C89.5738 84.6918 89.9452 85.0542 90.4473 85.0542C90.9495 85.0542 91.3124 84.6918 91.3124 84.1988Z" fill="white"/>
<path d="M92.3928 83.3561H91.6669V83.1665H93.338V83.3561H92.6122V85.2311H92.3928V83.3561Z" fill="white"/>
<path d="M95.3088 83.8744C95.3088 84.3126 94.9881 84.578 94.4648 84.578H93.9077V85.2311H93.6883V83.1665H94.4606C94.9881 83.1665 95.3046 83.432 95.3046 83.8744H95.3088ZM95.0893 83.8744C95.0893 83.5457 94.8699 83.3561 94.4563 83.3561H93.9077V84.3884H94.4563C94.8699 84.3884 95.0893 84.1988 95.0893 83.8744Z" fill="white"/>
</g>
<g opacity="0.6">
<path d="M76.0234 102.785L76.1078 102.616C76.2555 102.759 76.5171 102.865 76.7914 102.865C77.1797 102.865 77.3485 102.705 77.3485 102.498C77.3485 101.934 76.074 102.279 76.074 101.516C76.074 101.213 76.3103 100.952 76.8378 100.952C77.0699 100.952 77.3147 101.019 77.4793 101.133L77.4075 101.306C77.2303 101.192 77.0235 101.133 76.8421 101.133C76.4623 101.133 76.2935 101.302 76.2935 101.508C76.2935 102.073 77.5679 101.731 77.5679 102.486C77.5679 102.789 77.3274 103.05 76.7956 103.05C76.4834 103.05 76.1795 102.941 76.0276 102.78L76.0234 102.785Z" fill="white"/>
<path d="M79.3445 102.325H78.0447C78.0701 102.65 78.3148 102.865 78.6566 102.865C78.8465 102.865 79.0153 102.797 79.1335 102.663L79.2517 102.797C79.1124 102.962 78.8972 103.05 78.6524 103.05C78.1671 103.05 77.838 102.722 77.838 102.258C77.838 101.795 78.1587 101.47 78.5976 101.47C79.0364 101.47 79.3529 101.79 79.3529 102.258C79.3529 102.275 79.3529 102.3 79.3529 102.321L79.3445 102.325ZM78.0447 102.17H79.1462C79.1208 101.866 78.8972 101.651 78.5933 101.651C78.2895 101.651 78.0701 101.862 78.0447 102.17Z" fill="white"/>
<path d="M81.2055 102.136V103.038H80.9945V102.157C80.9945 101.828 80.8215 101.66 80.5261 101.66C80.1928 101.66 79.9818 101.866 79.9818 102.22V103.033H79.7708V101.483H79.9733V101.769C80.0873 101.58 80.294 101.47 80.5641 101.47C80.9439 101.47 81.2013 101.689 81.2013 102.136H81.2055Z" fill="white"/>
<path d="M83.2016 100.846V103.037H82.999V102.73C82.8724 102.941 82.6572 103.05 82.3998 103.05C81.9567 103.05 81.6233 102.73 81.6233 102.258C81.6233 101.786 81.9524 101.47 82.3998 101.47C82.6487 101.47 82.8598 101.575 82.9906 101.778V100.846H83.2016ZM82.9948 102.262C82.9948 101.9 82.7458 101.655 82.4167 101.655C82.0875 101.655 81.8385 101.896 81.8385 102.262C81.8385 102.629 82.0875 102.869 82.4167 102.869C82.7458 102.869 82.9948 102.629 82.9948 102.262Z" fill="white"/>
<path d="M85.7336 102.073V103.033H85.531V102.793C85.4382 102.953 85.2525 103.05 84.9951 103.05C84.6448 103.05 84.4296 102.869 84.4296 102.599C84.4296 102.359 84.5815 102.161 85.0289 102.161H85.5226V102.068C85.5226 101.803 85.3707 101.66 85.0837 101.66C84.8812 101.66 84.6955 101.731 84.5647 101.841L84.4718 101.685C84.628 101.55 84.8601 101.474 85.1048 101.474C85.5057 101.474 85.7336 101.676 85.7336 102.077V102.073ZM85.5226 102.57V102.317H85.0331C84.7335 102.317 84.6322 102.435 84.6322 102.595C84.6322 102.776 84.7757 102.886 85.0246 102.886C85.2736 102.886 85.434 102.772 85.5184 102.57H85.5226Z" fill="white"/>
<path d="M87.7465 101.483V102.848C87.7465 103.383 87.4849 103.623 86.9701 103.623C86.6873 103.623 86.4088 103.539 86.2442 103.383L86.3497 103.223C86.4974 103.358 86.7211 103.434 86.9616 103.434C87.3541 103.434 87.5355 103.252 87.5355 102.869V102.671C87.4047 102.869 87.1853 102.97 86.9279 102.97C86.4848 102.97 86.1472 102.658 86.1472 102.216C86.1472 101.773 86.4848 101.466 86.9279 101.466C87.1895 101.466 87.4132 101.571 87.544 101.778V101.478H87.7465V101.483ZM87.544 102.22C87.544 101.883 87.295 101.655 86.9532 101.655C86.6114 101.655 86.3666 101.887 86.3666 102.22C86.3666 102.553 86.6114 102.789 86.9532 102.789C87.295 102.789 87.544 102.557 87.544 102.22Z" fill="white"/>
<path d="M89.5063 102.073V103.033H89.3037V102.793C89.2109 102.953 89.0252 103.05 88.7678 103.05C88.4175 103.05 88.2023 102.869 88.2023 102.599C88.2023 102.359 88.3542 102.161 88.8015 102.161H89.2953V102.068C89.2953 101.803 89.1433 101.66 88.8564 101.66C88.6538 101.66 88.4681 101.731 88.3373 101.841L88.2445 101.685C88.4006 101.55 88.6327 101.474 88.8775 101.474C89.2784 101.474 89.5063 101.676 89.5063 102.077V102.073ZM89.2953 102.57V102.317H88.8057C88.5061 102.317 88.4048 102.435 88.4048 102.595C88.4048 102.776 88.5483 102.886 88.7973 102.886C89.0463 102.886 89.2066 102.772 89.291 102.57H89.2953Z" fill="white"/>
<path d="M90.0295 100.994C90.0295 100.914 90.0971 100.846 90.1815 100.846C90.2659 100.846 90.3334 100.91 90.3334 100.99C90.3334 101.074 90.2701 101.141 90.1815 101.141C90.0928 101.141 90.0295 101.074 90.0295 100.99V100.994ZM90.076 101.483H90.287V103.033H90.076V101.483Z" fill="white"/>
<path d="M92.2999 102.136V103.038H92.0889V102.157C92.0889 101.828 91.9159 101.66 91.6205 101.66C91.2871 101.66 91.0761 101.866 91.0761 102.22V103.033H90.8651V101.483H91.0677V101.769C91.1816 101.58 91.3884 101.47 91.6585 101.47C92.0383 101.47 92.2957 101.689 92.2957 102.136H92.2999Z" fill="white"/>
</g>
<path opacity="0.4" d="M95.9882 113.571H72.4701C70.5332 113.571 68.9633 112.004 68.9633 110.07C68.9633 108.136 70.5332 106.568 72.4701 106.568H95.9882C97.9252 106.568 99.495 108.136 99.495 110.07C99.495 112.004 97.9252 113.571 95.9882 113.571Z" fill="white"/>
<path d="M75.0569 109.889C75.0569 109.193 75.5887 108.684 76.3103 108.684C76.6732 108.684 76.9939 108.81 77.2091 109.05L76.9897 109.261C76.8082 109.071 76.5846 108.983 76.3272 108.983C75.7954 108.983 75.3988 109.366 75.3988 109.889C75.3988 110.411 75.7954 110.795 76.3272 110.795C76.5888 110.795 76.8082 110.702 76.9897 110.512L77.2091 110.723C76.9939 110.967 76.6774 111.094 76.3103 111.094C75.5929 111.094 75.0612 110.584 75.0612 109.889H75.0569Z" fill="white"/>
<path d="M77.4497 109.889C77.4497 109.198 77.9814 108.684 78.7073 108.684C79.4331 108.684 79.9606 109.198 79.9606 109.889C79.9606 110.58 79.4289 111.094 78.7073 111.094C77.9856 111.094 77.4497 110.58 77.4497 109.889ZM79.623 109.889C79.623 109.366 79.2305 108.983 78.7073 108.983C78.184 108.983 77.7873 109.366 77.7873 109.889C77.7873 110.411 78.1798 110.795 78.7073 110.795C79.2348 110.795 79.623 110.411 79.623 109.889Z" fill="white"/>
<path d="M82.5094 108.713V111.073H82.2309L80.813 109.316V111.073H80.4754V108.713H80.7539L82.1718 110.47V108.713H82.5094Z" fill="white"/>
<path d="M83.6868 109.004H82.8766V108.709H84.8304V109.004H84.0202V111.068H83.6868V109.004Z" fill="white"/>
<path d="M85.1976 108.713H85.5352V111.073H85.1976V108.713Z" fill="white"/>
<path d="M88.2782 108.713V111.073H87.9997L86.5817 109.316V111.073H86.2441V108.713H86.5227L87.9406 110.47V108.713H88.2782Z" fill="white"/>
<path d="M88.9661 110.053V108.713H89.3037V110.04C89.3037 110.563 89.5442 110.799 89.9662 110.799C90.3882 110.799 90.633 110.563 90.633 110.04V108.713H90.9621V110.053C90.9621 110.736 90.5866 111.098 89.962 111.098C89.3374 111.098 88.9619 110.736 88.9619 110.053H88.9661Z" fill="white"/>
<path d="M93.3718 110.778V111.073H91.6584V108.713H93.3253V109.008H91.996V109.733H93.1819V110.019H91.996V110.782H93.3718V110.778Z" fill="white"/>
<path opacity="0.1" d="M125.119 55.4373C111.315 69.245 75.863 99.9742 35.6928 97.7031V55.4373H125.119Z" fill="white"/>
<path opacity="0.1" d="M135.521 80.8153V121.577H75.4156C77.7198 113.344 82.328 102.068 91.266 94.012C107.344 79.5175 126.005 79.5597 135.521 80.8153Z" fill="white"/>
<path d="M148.219 48.9359L149.62 55.1129L151.021 48.9359H148.219Z" fill="#0081FF"/>
<path opacity="0.7" d="M148.219 48.9359L149.62 55.1129L151.021 48.9359H148.219Z" fill="white"/>
<path d="M165.302 31.4456H133.943C131.941 31.4456 130.318 33.066 130.318 35.065V46.6859C130.318 48.6848 131.941 50.3053 133.943 50.3053H165.302C167.304 50.3053 168.927 48.6848 168.927 46.6859V35.065C168.927 33.066 167.304 31.4456 165.302 31.4456Z" fill="#0081FF"/>
<path opacity="0.7" d="M165.302 31.4456H133.943C131.941 31.4456 130.318 33.066 130.318 35.065V46.6859C130.318 48.6848 131.941 50.3053 133.943 50.3053H165.302C167.304 50.3053 168.927 48.6848 168.927 46.6859V35.065C168.927 33.066 167.304 31.4456 165.302 31.4456Z" fill="white"/>
<g opacity="0.5">
<path d="M138.028 38.3642V39.1816H137.694V38.36L136.758 36.822H137.12L137.876 38.065L138.635 36.822H138.969L138.032 38.3642H138.028Z" fill="#263238"/>
<path d="M138.893 38.2883C138.893 37.7574 139.289 37.3782 139.825 37.3782C140.361 37.3782 140.754 37.7574 140.754 38.2883C140.754 38.8192 140.361 39.2026 139.825 39.2026C139.289 39.2026 138.893 38.8234 138.893 38.2883ZM140.425 38.2883C140.425 37.9091 140.167 37.6605 139.825 37.6605C139.484 37.6605 139.222 37.9049 139.222 38.2883C139.222 38.6717 139.484 38.9203 139.825 38.9203C140.167 38.9203 140.425 38.6717 140.425 38.2883Z" fill="#263238"/>
<path d="M142.868 37.395V39.1816H142.56V38.9119C142.429 39.0973 142.206 39.2026 141.952 39.2026C141.488 39.2026 141.184 38.9498 141.184 38.4231V37.395H141.509V38.3852C141.509 38.7349 141.686 38.9119 141.99 38.9119C142.328 38.9119 142.543 38.7012 142.543 38.3178V37.395H142.868Z" fill="#263238"/>
<path d="M144.451 37.3782V37.69C144.425 37.69 144.4 37.69 144.375 37.69C144.029 37.69 143.809 37.9006 143.809 38.2925V39.1816H143.484V37.395H143.796V37.6942C143.91 37.4835 144.134 37.3782 144.446 37.3782H144.451Z" fill="#263238"/>
<path d="M145.636 38.0018C145.636 37.3108 146.168 36.7968 146.894 36.7968C147.62 36.7968 148.147 37.3066 148.147 38.0018C148.147 38.6971 147.616 39.2069 146.894 39.2069C146.172 39.2069 145.636 38.6928 145.636 38.0018ZM147.81 38.0018C147.81 37.4793 147.417 37.0959 146.894 37.0959C146.371 37.0959 145.974 37.4793 145.974 38.0018C145.974 38.5243 146.366 38.9077 146.894 38.9077C147.421 38.9077 147.81 38.5243 147.81 38.0018Z" fill="#263238"/>
<path d="M149.101 37.117H148.291V36.822H150.245V37.117H149.434V39.1816H149.101V37.117Z" fill="#263238"/>
<path d="M152.519 37.6437C152.519 38.1578 152.148 38.4654 151.536 38.4654H150.954V39.1774H150.616V36.8179H151.536C152.152 36.8179 152.519 37.1297 152.519 37.6395V37.6437ZM152.182 37.6437C152.182 37.3066 151.954 37.1128 151.523 37.1128H150.949V38.1704H151.523C151.954 38.1704 152.182 37.9766 152.182 37.6395V37.6437Z" fill="#263238"/>
<path d="M153.764 38.0018C153.764 37.3024 154.296 36.7968 155.017 36.7968C155.38 36.7968 155.701 36.9232 155.916 37.1633L155.697 37.374C155.515 37.1802 155.292 37.0959 155.034 37.0959C154.503 37.0959 154.106 37.4793 154.106 38.0018C154.106 38.5243 154.503 38.9077 155.034 38.9077C155.296 38.9077 155.515 38.815 155.697 38.6254L155.916 38.8361C155.701 39.0805 155.385 39.2069 155.017 39.2069C154.3 39.2069 153.768 38.6971 153.768 38.0018H153.764Z" fill="#263238"/>
<path d="M156.11 38.2883C156.11 37.7574 156.507 37.3782 157.043 37.3782C157.579 37.3782 157.971 37.7574 157.971 38.2883C157.971 38.8192 157.579 39.2026 157.043 39.2026C156.507 39.2026 156.11 38.8234 156.11 38.2883ZM157.642 38.2883C157.642 37.9091 157.385 37.6605 157.043 37.6605C156.701 37.6605 156.44 37.9049 156.44 38.2883C156.44 38.6717 156.701 38.9203 157.043 38.9203C157.385 38.9203 157.642 38.6717 157.642 38.2883Z" fill="#263238"/>
<path d="M160.107 36.683V39.1816H159.795V38.8993C159.651 39.1015 159.419 39.2027 159.157 39.2027C158.634 39.2027 158.254 38.8361 158.254 38.2883C158.254 37.7406 158.634 37.3782 159.157 37.3782C159.41 37.3782 159.634 37.4709 159.782 37.6647V36.683H160.107ZM159.786 38.2883C159.786 37.9091 159.524 37.6605 159.187 37.6605C158.849 37.6605 158.583 37.9049 158.583 38.2883C158.583 38.6718 158.845 38.9204 159.187 38.9204C159.529 38.9204 159.786 38.6718 159.786 38.2883Z" fill="#263238"/>
<path d="M162.331 38.3979H160.879C160.921 38.7097 161.174 38.9204 161.529 38.9204C161.74 38.9204 161.913 38.8488 162.044 38.7055L162.221 38.9162C162.061 39.1058 161.812 39.2069 161.516 39.2069C160.938 39.2069 160.554 38.8277 160.554 38.2926C160.554 37.7574 160.934 37.3824 161.453 37.3824C161.972 37.3824 162.339 37.7532 162.339 38.301C162.339 38.3263 162.339 38.3684 162.331 38.3979ZM160.879 38.1662H162.027C161.993 37.867 161.765 37.6521 161.453 37.6521C161.141 37.6521 160.913 37.8628 160.879 38.1662Z" fill="#263238"/>
</g>
<g opacity="0.5">
<path d="M144.742 42.8726C144.742 44.1999 143.991 44.9077 142.902 44.9077C142.535 44.9077 142.184 44.8361 141.935 44.6802L142.146 44.2462C142.353 44.3811 142.615 44.4274 142.898 44.4274C143.687 44.4274 144.185 43.9344 144.185 42.9611V42.822C143.957 43.1591 143.548 43.3319 143.062 43.3319C142.29 43.3319 141.733 42.8726 141.733 42.1563C141.733 41.44 142.332 40.9302 143.104 40.9302C144.151 40.9302 144.738 41.6296 144.738 42.8684L144.742 42.8726ZM144.058 42.1352C144.058 41.735 143.737 41.3852 143.13 41.3852C142.623 41.3852 142.273 41.6802 142.273 42.1395C142.273 42.5987 142.611 42.8895 143.155 42.8895C143.699 42.8895 144.054 42.5608 144.054 42.1352H144.058Z" fill="#263238"/>
<path d="M145.278 42.9232C145.278 41.6591 145.957 40.9386 146.869 40.9386C147.78 40.9386 148.451 41.6591 148.451 42.9232C148.451 44.1872 147.772 44.9077 146.869 44.9077C145.966 44.9077 145.278 44.1872 145.278 42.9232ZM147.894 42.9232C147.894 41.9288 147.472 41.4316 146.864 41.4316C146.257 41.4316 145.831 41.933 145.831 42.9232C145.831 43.9133 146.253 44.4148 146.864 44.4148C147.476 44.4148 147.894 43.9133 147.894 42.9232Z" fill="#263238"/>
<path d="M151.705 44.3811V44.8656H148.911V44.4864L150.494 42.9611C150.903 42.5608 150.983 42.3164 150.983 42.072C150.983 41.6718 150.7 41.4274 150.156 41.4274C149.738 41.4274 149.401 41.5622 149.16 41.8487L148.78 41.5201C149.08 41.1493 149.599 40.9302 150.202 40.9302C151.013 40.9302 151.536 41.3473 151.536 42.0131C151.536 42.3923 151.426 42.7293 150.899 43.235L149.709 44.3768H151.705V44.3811Z" fill="#263238"/>
<path d="M153.367 40.9807V44.8656H152.819V41.4653H151.941V40.9807H153.367Z" fill="#263238"/>
<path d="M154.216 42.9232C154.216 41.6591 154.895 40.9386 155.807 40.9386C156.718 40.9386 157.389 41.6591 157.389 42.9232C157.389 44.1872 156.71 44.9077 155.807 44.9077C154.904 44.9077 154.216 44.1872 154.216 42.9232ZM156.832 42.9232C156.832 41.9288 156.41 41.4316 155.802 41.4316C155.195 41.4316 154.769 41.933 154.769 42.9232C154.769 43.9133 155.191 44.4148 155.802 44.4148C156.414 44.4148 156.832 43.9133 156.832 42.9232Z" fill="#263238"/>
</g>
<path d="M146.151 67.054L146.586 67.3405L147.063 67.6439C147.388 67.8461 147.721 68.0399 148.055 68.2295C148.725 68.6045 149.409 68.9669 150.105 69.2829C151.502 69.9192 152.937 70.4374 154.397 70.7619L154.465 70.7787C154.49 70.7829 154.52 70.7914 154.49 70.7871C154.469 70.7871 154.444 70.7871 154.385 70.7871C154.287 70.7914 154.093 70.8209 153.861 70.9599C153.633 71.099 153.481 71.3138 153.431 71.436C153.376 71.5666 153.38 71.6256 153.38 71.6341C153.393 71.6593 153.405 71.5498 153.401 71.4234C153.401 71.297 153.38 71.1411 153.355 70.9768C153.241 70.311 153.034 69.5442 152.789 68.7942C152.308 67.2857 151.734 65.7351 151.165 64.2098L152.794 63.3376C153.768 64.745 154.638 66.186 155.402 67.745C155.773 68.5329 156.14 69.3293 156.406 70.2731C156.473 70.5133 156.532 70.7661 156.579 71.0484C156.621 71.3349 156.659 71.6425 156.617 72.0807C156.596 72.2914 156.545 72.5568 156.397 72.8728C156.258 73.1804 155.971 73.5639 155.566 73.8082C155.157 74.0568 154.752 74.12 154.448 74.1327C154.287 74.1369 154.157 74.1327 154.034 74.1158L153.908 74.099L153.823 74.0863C152.013 73.842 150.262 73.349 148.624 72.6537C147.801 72.3082 146.995 71.9332 146.215 71.5034C145.826 71.2843 145.442 71.061 145.063 70.8209C144.873 70.6987 144.683 70.5807 144.497 70.4543C144.303 70.3237 144.134 70.2015 143.91 70.0329L146.143 67.0498L146.151 67.054Z" fill="#DC897C"/>
<path d="M145.679 66.5738C148.11 66.8519 149.743 68.2213 149.743 68.2213L148.046 73.4376C148.046 73.4376 139.855 65.908 145.683 66.5738H145.679Z" fill="#0081FF"/>
<path opacity="0.6" d="M145.662 70.9768C146.822 72.3167 148.038 73.4333 148.038 73.4333L148.734 71.2886L149.734 68.2169C149.734 68.2169 148.101 66.8433 145.674 66.5695C142.092 66.1607 143.805 68.8448 145.658 70.9726L145.662 70.9768Z" fill="white"/>
<path opacity="0.2" d="M145.662 70.9768C146.822 72.3167 148.038 73.4333 148.038 73.4333L148.734 71.2886C147.244 70.1425 145.67 70.2352 145.67 70.2352C145.641 70.488 145.641 70.7408 145.658 70.9768H145.662Z" fill="black"/>
<path d="M127.448 58.8798C127.448 58.8798 123.524 71.908 131.791 73.6566C140.058 75.4052 140.923 69.4093 140.923 69.4093C140.923 69.4093 134.15 59.1452 127.448 58.8798Z" fill="#263238"/>
<path d="M125.507 63.0932C125.507 63.0932 125.912 62.3432 126.638 62.2969" stroke="#263238" stroke-width="0.48" stroke-linecap="round" stroke-linejoin="round"/>
<path d="M126.689 64.8124C126.689 64.8124 126.6 65.6972 126.347 66.2998C126.347 66.2998 126.739 66.5821 127.212 66.3166L126.689 64.8166V64.8124Z" fill="#DE5753"/>
<path d="M125.891 64.2435C125.98 64.4753 126.174 64.6143 126.33 64.5554C126.486 64.4964 126.537 64.2604 126.448 64.0329C126.359 63.8011 126.165 63.6621 126.009 63.7211C125.853 63.7801 125.802 64.016 125.891 64.2435Z" fill="#263238"/>
<path d="M126.081 63.7042H125.503C125.503 63.7042 125.916 64.0245 126.081 63.7042Z" fill="#263238"/>
<path d="M134.293 66.4261C134.276 66.464 134.259 66.502 134.234 66.5315C134.196 66.6031 134.154 66.6705 134.112 66.7421C133.863 67.1635 133.555 67.5806 133.141 67.9008C131.862 68.9079 130.774 69.2113 129.816 68.9205C129.769 68.9079 129.723 68.891 129.676 68.8742H129.672C128.25 68.3011 127.157 66.6031 126.258 64.3573C125.84 63.3292 125.57 62.3938 125.528 61.5848C125.528 61.5764 125.515 61.5511 125.515 61.5426C125.515 61.5089 125.507 61.4668 125.507 61.4331C125.473 60.2912 125.87 59.3558 126.841 58.5805C127.178 58.3109 127.583 58.0581 128.064 57.8263C132.305 55.7701 136.407 62.4528 134.293 66.4261Z" fill="#E4897B"/>
<path opacity="0.2" d="M134.112 66.7422C133.863 67.1635 133.555 67.5807 133.141 67.9009C131.862 68.9079 130.774 69.2113 129.816 68.9206C130.592 68.7141 131.521 68.3012 132.217 67.4669C132.673 66.9318 133.365 66.7464 134.112 66.7422Z" fill="black"/>
<path d="M125.511 61.5595C125.511 61.5595 126.689 64.6523 130.128 64.5975C130.128 64.5975 132.812 67.1214 134.622 66.3208C137.091 65.2295 137.602 60.7463 135.082 57.6115C131.816 53.5496 124.693 56.457 125.511 61.5553V61.5595Z" fill="#263238"/>
<path d="M128.288 64.4163C128.069 63.9486 128.073 62.9922 128.849 62.7562C129.651 62.5118 130.942 64.1635 129.292 65.4444C129.056 65.6298 128.748 65.3897 128.288 64.4163Z" fill="#E4897B"/>
<path d="M129.212 55.9303C129.212 55.9303 126.022 56.5581 124.988 58.4457C123.781 60.6494 123.739 62.3643 126.933 63.4809C126.933 63.4809 130.985 59.6719 132.732 59.2505C134.479 58.8292 135.838 58.7533 135.838 58.7533C134.677 55.4373 130.504 54.5356 129.216 55.9345L129.212 55.9303Z" fill="#263238"/>
<path d="M132.305 67.9852C132.305 67.9852 134.5 69.5021 135.074 72.0049L141.914 68.0189C141.914 68.0189 136.559 66.797 135.635 64.7281C135.635 64.7281 132.056 65.1706 132.305 67.981V67.9852Z" fill="#E4897B"/>
<path d="M139.1 84.3968C139.1 84.3968 130.255 75.7001 129.284 72.9697C129.284 72.9697 133.01 67.1761 140.458 66.9317C147.907 66.6873 152.975 80.8363 152.975 80.8363L139.1 84.3925V84.3968Z" fill="#0081FF"/>
<path opacity="0.6" d="M152.975 80.8406L139.104 84.3968C139.104 84.3968 137.171 82.4965 135.01 80.1959C134.344 79.4754 133.647 78.7169 132.976 77.9669C131.217 75.9739 129.664 74.0273 129.288 72.9697C129.288 72.9697 133.01 67.1761 140.458 66.9317C147.911 66.6916 152.975 80.8406 152.975 80.8406Z" fill="white"/>
<path d="M130.812 63.1101C130.812 63.1101 132.107 67.4079 136.656 68.8363C141.205 70.2647 140.062 74.8953 144.472 74.3518C146.818 74.061 148.827 69.2913 141.632 65.0862C137.437 62.6382 139.066 54.5904 130.162 55.3446C130.162 55.3446 132.006 60.8601 130.812 63.1101Z" fill="#263238"/>
<path d="M135.238 149.909L133.133 149.428C133.449 138.903 134.972 126.157 136.319 116.588C136.53 115.088 136.736 113.672 136.935 112.349C137.032 111.721 137.12 111.119 137.209 110.537C137.644 107.668 138.019 105.401 138.251 103.998C138.42 102.974 138.522 102.414 138.522 102.414L146.105 104.264L145.56 106.176L143.767 112.488L143.564 113.209L142.374 117.376L140.357 124.472C140.492 135.187 135.238 149.909 135.238 149.909Z" fill="#E4897B"/>
<path d="M153.3 148.143L151.139 148.034C149.494 136.708 148.801 122.546 148.502 112.695C148.455 111.169 148.422 109.741 148.392 108.452C148.392 108.384 148.392 108.321 148.392 108.262C148.337 105.696 148.312 103.657 148.299 102.363C148.295 101.352 148.291 100.796 148.291 100.796L156.085 101.306L155.752 104.55L155.262 109.316L155.165 110.251L154.828 113.495L153.929 122.2C155.921 132.73 153.304 148.143 153.304 148.143H153.3Z" fill="#E4897B"/>
<path d="M154.11 147.726C154.102 147.456 150.776 147.667 150.776 147.667C150.776 147.667 148.73 149.744 146.742 150.212C144.754 150.68 145.864 151.868 148.088 151.868H153.583C155.161 151.868 154.174 150.524 154.11 147.726Z" fill="#263238"/>
<path d="M148.734 148.438C148.671 148.383 148.603 148.282 148.654 148.084C148.679 147.987 148.738 147.911 148.831 147.861C149.008 147.76 149.295 147.751 149.578 147.781C149.308 147.638 149.072 147.461 149.059 147.288C149.05 147.174 149.126 147.081 149.278 147.01C149.422 146.942 149.565 146.938 149.709 146.997C150.16 147.182 150.439 147.958 150.451 147.992C150.46 148.013 150.456 148.038 150.451 148.059C150.451 148.067 150.443 148.072 150.439 148.076C150.439 148.076 150.422 148.093 150.409 148.097C150.236 148.181 149.498 148.518 149.029 148.518C148.907 148.518 148.806 148.497 148.738 148.438H148.734ZM148.92 148.013C148.869 148.042 148.835 148.08 148.823 148.131C148.789 148.261 148.831 148.295 148.844 148.308C149 148.438 149.612 148.253 150.101 148.046C149.73 147.962 149.156 147.878 148.92 148.017V148.013ZM149.354 147.166C149.308 147.187 149.232 147.229 149.236 147.275C149.245 147.423 149.721 147.684 150.215 147.869C150.101 147.616 149.89 147.258 149.645 147.157C149.599 147.14 149.557 147.128 149.51 147.128C149.46 147.128 149.409 147.14 149.358 147.166H149.354Z" fill="#263238"/>
<path d="M136.31 147.726C136.302 147.456 132.976 147.667 132.976 147.667C132.976 147.667 130.93 149.744 128.942 150.212C126.954 150.68 128.064 151.868 130.288 151.868H135.783C137.361 151.868 136.374 150.524 136.31 147.726Z" fill="#263238"/>
<path d="M130.934 148.438C130.871 148.383 130.803 148.282 130.854 148.084C130.879 147.987 130.938 147.911 131.031 147.861C131.208 147.76 131.495 147.751 131.778 147.781C131.508 147.638 131.272 147.461 131.259 147.288C131.25 147.174 131.326 147.081 131.478 147.01C131.622 146.942 131.765 146.938 131.909 146.997C132.36 147.182 132.639 147.958 132.651 147.992C132.66 148.013 132.656 148.038 132.651 148.059C132.651 148.067 132.643 148.072 132.639 148.076C132.639 148.076 132.622 148.093 132.609 148.097C132.436 148.181 131.694 148.518 131.229 148.518C131.107 148.518 131.006 148.497 130.934 148.438ZM131.12 148.013C131.069 148.042 131.035 148.08 131.023 148.131C130.989 148.261 131.031 148.295 131.044 148.308C131.2 148.438 131.812 148.253 132.301 148.046C131.93 147.962 131.356 147.878 131.12 148.017V148.013ZM131.554 147.166C131.508 147.187 131.432 147.229 131.436 147.275C131.445 147.423 131.921 147.684 132.415 147.869C132.301 147.616 132.09 147.258 131.845 147.157C131.799 147.14 131.757 147.128 131.71 147.128C131.66 147.128 131.609 147.14 131.558 147.166H131.554Z" fill="#263238"/>
<path d="M137.302 105.578L139.104 92.9502V84.3968C143.843 80.8406 152.979 80.8406 152.979 80.8406C152.979 80.8406 160.001 90.557 156.587 106.56L147.776 107.845L147.215 104.862L146.109 107.845L137.306 105.582L137.302 105.578Z" fill="#263238"/>
<path opacity="0.2" d="M137.302 105.578L139.104 92.9502V84.3968C143.843 80.8406 152.979 80.8406 152.979 80.8406C152.979 80.8406 160.001 90.557 156.587 106.56L147.776 107.845L147.215 104.862L146.109 107.845L137.306 105.582L137.302 105.578Z" fill="white"/>
<path opacity="0.2" d="M147.211 104.858L148.907 99.5949C148.907 99.5949 150.688 99.0556 152.975 95.5247C152.975 95.5247 152.578 101.537 147.211 104.858Z" fill="black"/>
<path opacity="0.2" d="M143.455 86.8238L147.409 86.4446C147.409 86.4446 148.367 88.3322 148.042 91.1342L145.506 92.6553L143.67 91.3533C143.67 91.3533 143.615 88.0078 143.455 86.8238Z" fill="black"/>
<path opacity="0.2" d="M152.975 85.8547C152.975 85.8547 153.714 87.5275 154.144 89.8955L155.549 90.4896L156.305 89.5499C156.305 89.5499 155.79 86.7943 154.929 85.4502L152.979 85.8547H152.975Z" fill="black"/>
<path d="M137.137 104.858L146.489 107.601L145.902 108.852L137.015 106.126L137.137 104.858Z" fill="#263238"/>
<path d="M147.409 107.42L147.565 108.57L156.735 107.42L156.874 105.962L147.409 107.42Z" fill="#263238"/>
<path d="M149.333 82.5892C152.038 82.1595 153.87 82.1468 153.87 82.1468L153.304 81.2156C151.764 81.1693 150.278 81.2788 148.882 81.4811L149.333 82.5892Z" fill="#263238"/>
<path d="M140.923 83.7522C139.716 84.2747 139.015 84.6707 139.015 84.6707L139.024 85.821C139.703 85.4755 140.391 85.1637 141.07 84.8814L140.923 83.7564V83.7522Z" fill="#263238"/>
<path d="M141.505 84.7044C144.113 83.6679 146.666 83.0527 148.768 82.6861L148.346 81.5653C145.459 82.0372 142.999 82.8884 141.332 83.5794L141.505 84.7044Z" fill="#263238"/>
<path d="M116.151 88.0035L113.754 87.0428L113.349 89.3013C113.349 89.3013 115.51 90.6117 116.409 89.0527L116.147 88.0035H116.151Z" fill="#E4897B"/>
<path d="M112.564 87.1777L111.796 88.9263L113.349 89.2971L113.754 87.0428L112.564 87.1777Z" fill="#E4897B"/>
<path d="M152.937 63.7295L152.654 61.1677L150.468 61.8798C150.468 61.8798 150.333 64.3995 152.135 64.4543L152.937 63.7295Z" fill="#E4897B"/>
<path d="M151.966 60.1859L150.063 60.3334L150.468 61.8755L152.654 61.1635L151.966 60.1859Z" fill="#E4897B"/>
<path opacity="0.2" d="M135.01 80.1959C134.344 79.4754 133.647 78.717 132.976 77.967C132.719 76.3995 132.554 75.0217 132.554 75.0217C132.554 75.0217 135.188 76.7746 135.01 80.1959Z" fill="black"/>
<path d="M132.799 74.2928C132.55 75.342 132.255 76.2942 131.947 77.2844C131.635 78.2619 131.276 79.2226 130.909 80.1833C130.546 81.144 130.141 82.092 129.698 83.0274C129.482 83.4951 129.254 83.9628 129.014 84.4263C128.9 84.6581 128.769 84.8856 128.647 85.1173L128.461 85.4628L128.364 85.6398C128.309 85.7367 128.25 85.8378 128.191 85.9263C127.693 86.6468 127.119 87.064 126.583 87.3926C126.039 87.7171 125.507 87.9573 124.984 88.1595C123.933 88.5556 122.899 88.8084 121.869 89.0106C119.806 89.3898 117.789 89.5879 115.712 89.5963L115.544 87.7592C116.485 87.557 117.455 87.3421 118.396 87.0977C119.342 86.866 120.278 86.6089 121.186 86.3098C122.089 86.019 122.975 85.6904 123.76 85.3027C124.152 85.1131 124.515 84.9024 124.811 84.6833C125.102 84.4685 125.321 84.2367 125.368 84.1187C125.376 84.1019 125.376 84.0935 125.38 84.085L125.452 83.9249L125.6 83.6005C125.697 83.3814 125.798 83.1707 125.891 82.9474C126.077 82.5092 126.267 82.071 126.444 81.6201C126.798 80.7311 127.136 79.8252 127.461 78.915C127.786 78.0049 128.077 77.0822 128.368 76.1552C128.664 75.2408 128.934 74.2844 129.183 73.3995L132.803 74.297L132.799 74.2928Z" fill="#DC897C"/>
<path d="M130.731 71.12C128.664 72.4684 127.562 75.974 127.212 77.6889L131.499 80.8406L133.664 78.7339C134.542 73.8968 131.516 70.6102 130.731 71.12Z" fill="#0081FF"/>
<path opacity="0.6" d="M130.731 71.12C128.664 72.4684 127.562 75.974 127.212 77.6889L131.499 80.8406L133.664 78.7339C134.542 73.8968 131.516 70.6102 130.731 71.12Z" fill="white"/>
<path d="M151.663 64.5511L148.603 64.8755C148.43 64.8924 148.287 64.7491 148.282 64.5469L148.097 58.0707C148.092 57.8726 148.228 57.6957 148.396 57.6788L151.456 57.3544C151.629 57.3375 151.772 57.4808 151.777 57.683L151.962 64.1592C151.966 64.3572 151.831 64.5342 151.663 64.5511Z" fill="#263238"/>
<path opacity="0.6" d="M151.663 64.5511L148.603 64.8755C148.43 64.8924 148.287 64.7491 148.282 64.5469L148.097 58.0707C148.092 57.8726 148.228 57.6957 148.396 57.6788L151.456 57.3544C151.629 57.3375 151.772 57.4808 151.777 57.683L151.962 64.1592C151.966 64.3572 151.831 64.5342 151.663 64.5511Z" fill="white"/>
<path d="M151.393 64.5806L148.333 64.905C148.16 64.9219 148.017 64.7786 148.012 64.5764L147.827 58.1002C147.822 57.9022 147.957 57.7252 148.126 57.7084L151.186 57.3839C151.359 57.3671 151.502 57.5103 151.506 57.7126L151.692 64.1887C151.696 64.3868 151.561 64.5638 151.393 64.5806Z" fill="#263238"/>
<path opacity="0.7" d="M151.393 64.5806L148.333 64.905C148.16 64.9219 148.017 64.7786 148.012 64.5764L147.827 58.1002C147.822 57.9022 147.957 57.7252 148.126 57.7084L151.186 57.3839C151.359 57.3671 151.502 57.5103 151.506 57.7126L151.692 64.1887C151.696 64.3868 151.561 64.5638 151.393 64.5806Z" fill="white"/>
<path d="M151.19 57.5103L150.388 57.5945L150.287 57.8389L149.046 57.9695L148.928 57.7462L148.126 57.8305C148.017 57.8431 147.928 57.9569 147.932 58.0875L148.118 64.5637C148.118 64.6943 148.215 64.787 148.329 64.7744L151.388 64.4499C151.498 64.4373 151.587 64.3235 151.582 64.1929L151.397 57.7167C151.397 57.5861 151.3 57.4934 151.186 57.506L151.19 57.5103Z" fill="#0081FF"/>
<path opacity="0.8" d="M150.781 59.8487L148.531 60.0889C148.422 60.1015 148.329 60.0088 148.325 59.8824L148.308 59.2588C148.308 59.1324 148.392 59.0187 148.502 59.0102L150.751 58.7701C150.861 58.7574 150.954 58.8501 150.958 58.9765L150.975 59.6001C150.975 59.7265 150.89 59.8403 150.781 59.8487Z" fill="white"/>
</g>
<defs>
<clipPath id="clip0_8_4692">
<rect width="211" height="157" fill="white"/>
</clipPath>
</defs>
</svg>
