<svg width="36" height="68" viewBox="0 0 36 68" fill="none" xmlns="http://www.w3.org/2000/svg">
<g id="Pot4">
<g id="Group 32">
<g id="Group 33">
<path id="Path" fill-rule="evenodd" clip-rule="evenodd" d="M21.9375 21.2982V15.1893L29.3834 15.1888L29.3836 11.9497C29.3836 10.1605 30.7726 8.71008 32.4861 8.71008C34.1996 8.71008 35.5886 10.1605 35.5886 11.9497V18.7065C35.5886 20.1379 34.4774 21.2982 33.1066 21.2982H21.9375Z" fill="#65E09C"/>
<path id="Path_2" fill-rule="evenodd" clip-rule="evenodd" d="M1.2832 24.8154V18.9842C1.2832 17.195 2.67225 15.7446 4.38574 15.7446C6.09922 15.7446 7.48827 17.195 7.48827 18.9842L7.48788 22.223H11.2101L11.2113 7.32167C11.2113 3.38549 14.2672 0.19458 18.0369 0.19458C21.8065 0.19458 24.8625 3.38549 24.8625 7.32167V44.253H11.2113L11.2101 28.7018L5.00624 28.7029C2.95006 28.7029 1.2832 26.9625 1.2832 24.8154Z" fill="#28C76F"/>
</g>
</g>
<g id="Group 34">
<path id="Rectangle" fill-rule="evenodd" clip-rule="evenodd" d="M1.76172 33.3864H33.2795L31.025 65.5788C30.9634 66.4595 30.2782 67.1403 29.4536 67.1403H5.58768C4.76306 67.1403 4.07787 66.4595 4.0162 65.5788L1.76172 33.3864Z" fill="#7367F0"/>
<path id="Rectangle_2" fill-rule="evenodd" clip-rule="evenodd" d="M1.76193 33.3864H33.2797C34.1501 33.3864 34.8556 34.142 34.8556 35.074V41.8248C34.8556 42.7569 34.1501 43.5125 33.2797 43.5125H1.76193C0.891585 43.5125 0.186035 42.7569 0.186035 41.8248V35.074C0.186035 34.142 0.891585 33.3864 1.76193 33.3864Z" fill="#968BFF"/>
</g>
</g>
</svg>
