<svg width="50" height="50" viewBox="0 0 50 50" fill="none" xmlns="http://www.w3.org/2000/svg">
<path d="M7.40642 27.7547H12.1481C12.5267 27.7547 12.8335 27.4479 12.8335 27.0693V17.3457C12.8335 16.9671 12.5267 16.6603 12.1481 16.6603H7.40642C7.02777 16.6603 6.72099 16.9671 6.72099 17.3457V27.0698C6.72099 27.4479 7.02777 27.7547 7.40642 27.7547ZM8.09131 18.0306H11.4627V26.3839H8.09131V18.0306ZM15.9576 27.7547H20.6993C21.0779 27.7547 21.3847 27.4479 21.3847 27.0693V13.0664C21.3847 12.6877 21.0779 12.3809 20.6993 12.3809H15.9576C15.579 12.3809 15.2722 12.6877 15.2722 13.0664V27.0693C15.2722 27.4479 15.579 27.7547 15.9576 27.7547ZM16.6425 13.7518H20.0138V26.3844H16.6425V13.7518ZM29.2504 8.10212H24.5088C24.1301 8.10212 23.8234 8.4089 23.8234 8.78755V27.0693C23.8234 27.4479 24.1301 27.7547 24.5088 27.7547H29.2504C29.6291 27.7547 29.9359 27.4479 29.9359 27.0693V8.78755C29.9359 8.4089 29.6291 8.10212 29.2504 8.10212ZM28.565 26.3844H25.1937V9.47297H28.565V26.3844ZM19.0136 36.994C19.0136 37.3727 18.7068 37.6794 18.3282 37.6794H7.40642C7.02777 37.6794 6.72099 37.3727 6.72099 36.994C6.72099 36.6154 7.02777 36.3086 7.40642 36.3086H18.3287C18.7068 36.3091 19.0136 36.6159 19.0136 36.994ZM29.9359 32.2148C29.9359 32.5935 29.6291 32.9002 29.2504 32.9002H7.40642C7.02777 32.9002 6.72099 32.5935 6.72099 32.2148C6.72099 31.8362 7.02777 31.5294 7.40642 31.5294H29.2504C29.6291 31.5299 29.9359 31.8367 29.9359 32.2148ZM47.3842 38.4437H35.6569V35.3802C37.0588 36.3252 38.7472 36.8776 40.5616 36.8776C45.4121 36.8776 49.3589 32.9313 49.3589 28.0803C49.3589 23.2292 45.4126 19.2829 40.5616 19.2829C38.7472 19.2829 37.0594 19.8353 35.6569 20.7803V1.81531C35.6569 1.43666 35.3501 1.12988 34.9714 1.12988H8.5386C8.35679 1.12988 8.18248 1.20229 8.0543 1.33047L1.20059 8.18472C1.07187 8.31344 1 8.48774 1 8.66902V43.9663C1 44.3449 1.30678 44.6517 1.68543 44.6517H30.4314C30.3446 44.8941 30.2963 45.1569 30.2963 45.4326V47.3381C30.2963 48.5245 31.1823 49.4893 32.271 49.4893H45.9163C47.005 49.4893 47.891 48.5245 47.891 47.3381V45.4326C47.891 45.1435 47.8379 44.8678 47.743 44.6157C48.6617 44.4318 49.36 43.5538 49.36 42.5005V40.5949C49.3589 39.4086 48.4729 38.4437 47.3842 38.4437ZM47.9881 28.0803C47.9881 32.1751 44.6564 35.5068 40.5616 35.5068C36.4667 35.5068 33.1351 32.1751 33.1351 28.0803C33.1351 23.9854 36.4667 20.6538 40.5616 20.6538C44.6564 20.6538 47.9881 23.9849 47.9881 28.0803ZM7.85371 3.46987V7.98413H3.33945L7.85371 3.46987ZM2.37031 9.35445H8.53914C8.91779 9.35445 9.22456 9.04767 9.22456 8.66902V2.50073H34.2871V21.9216C32.728 23.5097 31.7647 25.6845 31.7647 28.0803C31.7647 30.476 32.728 32.6509 34.2871 34.2389V38.4437H33.739C32.6502 38.4437 31.7642 39.4086 31.7642 40.5949V42.5005C31.7642 42.7756 31.8125 43.039 31.8994 43.2814H2.37031V9.35445ZM46.5196 47.3381C46.5196 47.7613 46.2429 48.119 45.9152 48.119H32.2705C31.9428 48.119 31.6661 47.7613 31.6661 47.3381V45.4326C31.6661 45.0094 31.9428 44.6517 32.2705 44.6517H33.739H45.9157C46.2434 44.6517 46.5202 45.0094 46.5202 45.4326L46.5196 47.3381ZM47.9881 42.5005C47.9881 42.9236 47.7113 43.2814 47.3836 43.2814H33.739C33.4113 43.2814 33.1345 42.9236 33.1345 42.5005V40.5949C33.1345 40.1718 33.4113 39.814 33.739 39.814H47.3842C47.7119 39.814 47.9886 40.1718 47.9886 40.5949L47.9881 42.5005ZM37.6954 26.1683C37.6954 24.9374 38.6201 23.9012 39.8643 23.6143L39.8504 23.0367C39.8413 22.6586 40.1406 22.3443 40.5192 22.3351C40.8952 22.3233 41.2116 22.6253 41.2207 23.0039L41.2357 23.6314C41.9158 23.8031 42.709 24.1962 43.0689 24.7443C43.277 25.0608 43.189 25.4855 42.8726 25.6931C42.5562 25.9006 42.1314 25.8132 41.9238 25.4968C41.7603 25.2485 40.9713 24.9058 40.5616 24.9058C39.7372 24.9058 39.0663 25.4721 39.0658 26.1683C39.0658 26.8644 39.7367 27.4302 40.5616 27.4302C42.1421 27.4302 43.4277 28.6112 43.4277 30.0631C43.4277 31.2934 42.5041 32.3296 41.2604 32.6165L41.2727 33.1228C41.2819 33.5009 40.9826 33.8152 40.6045 33.8243C40.5986 33.8243 40.5932 33.8243 40.5879 33.8243C40.2173 33.8243 39.9121 33.5283 39.903 33.1555L39.8901 32.6289C39.1784 32.4782 38.7123 32.0915 38.2672 31.6715C37.992 31.4119 37.9792 30.978 38.2387 30.7029C38.4983 30.4278 38.9322 30.4149 39.2073 30.6745C39.7158 31.1545 39.9968 31.3245 40.5616 31.3245C41.3864 31.3245 42.0574 30.7582 42.0574 30.0625C42.0574 29.3664 41.3864 28.8006 40.5616 28.8006C38.981 28.8011 37.6954 27.6201 37.6954 26.1683Z" fill="#7268EF" stroke="#7268EF" stroke-width="0.9"/>
</svg>
