<svg width="35" height="71" viewBox="0 0 35 71" fill="none" xmlns="http://www.w3.org/2000/svg">
<g id="Pot5">
<g id="Group 39">
<path id="Rectangle" fill-rule="evenodd" clip-rule="evenodd" d="M0.628418 27.5643V27.5643C4.61161 25.8564 9.23066 27.6286 11.0493 31.5624L12.3157 34.3018V34.3018C8.33254 36.0098 3.71349 34.2376 1.89485 30.3037L0.628418 27.5643Z" fill="#65E09C"/>
<path id="Path" fill-rule="evenodd" clip-rule="evenodd" d="M6.26317 29.3664C10.1991 32.0409 12.7514 35.0213 13.9275 38.3068C15.1095 41.6085 15.5937 47.1432 15.3738 54.8999C15.3704 55.02 15.4687 55.1201 15.5934 55.1233C15.7181 55.1266 15.822 55.0319 15.8254 54.9118C16.0467 47.1068 15.5586 41.5282 14.3547 38.165C13.145 34.7858 10.5321 31.7346 6.52364 29.0109C6.4217 28.9416 6.28075 28.965 6.20882 29.0632C6.13689 29.1614 6.16123 29.2971 6.26317 29.3664Z" fill="#28C76F"/>
<path id="Rectangle_2" fill-rule="evenodd" clip-rule="evenodd" d="M34.0864 25.7299V25.7299C30.1652 23.9689 25.5545 25.6461 23.6813 29.515L22.2462 32.4788V32.4788C26.1674 34.2398 30.7781 32.5626 32.6514 28.6937L34.0864 25.7299Z" fill="#65E09C"/>
<g id="Group 88">
<path id="Rectangle_3" d="M3.22852 18.5078V18.5078C6.97102 17.7123 10.6498 20.1013 11.4453 23.8438L11.9952 26.431V26.431C8.25271 27.2265 4.57393 24.8375 3.77844 21.095L3.22852 18.5078Z" fill="#65E09C"/>
<path id="Path_2" fill-rule="evenodd" clip-rule="evenodd" d="M5.95338 20.7955C8.81363 22.6957 10.7412 24.7554 11.7412 26.9721L11.8026 27.1115L11.8644 27.2584C12.8873 29.7395 14.5573 36.2473 16.8655 46.7569C16.8913 46.8743 17.011 46.9478 17.1328 46.9211C17.2547 46.8944 17.3326 46.7776 17.3068 46.6602L17.0208 45.3638L16.6865 43.8633C14.5994 34.5515 13.0916 28.8685 12.1551 26.7928C11.1189 24.4959 9.13643 22.3775 6.21281 20.4351C6.11091 20.3674 5.97022 20.3932 5.89858 20.4927C5.82694 20.5922 5.85148 20.7278 5.95338 20.7955Z" fill="#28C76F"/>
</g>
<path id="Rectangle_4" fill-rule="evenodd" clip-rule="evenodd" d="M28.4253 16.2722V16.2722C24.2985 16.2028 20.8954 19.4891 20.8206 23.6158L20.763 26.793V26.793C24.8898 26.8623 28.2929 23.5761 28.3677 19.4494L28.4253 16.2722Z" fill="#65E09C"/>
<path id="Path_3" fill-rule="evenodd" clip-rule="evenodd" d="M25.7188 17.6852C23.0655 21.4031 21.1269 24.9917 19.9036 28.4515C18.6824 31.9052 17.4644 37.2389 16.2476 44.4565C16.2276 44.5751 16.3112 44.6869 16.4344 44.7062C16.5575 44.7254 16.6736 44.6449 16.6936 44.5263L16.8431 43.6487L16.9458 43.0574C18.0748 36.6033 19.2039 31.7802 20.3313 28.5917C21.5404 25.1719 23.4602 21.6183 26.0912 17.9316C26.1619 17.8326 26.1358 17.6972 26.033 17.6291C25.9301 17.561 25.7895 17.5861 25.7188 17.6852Z" fill="#28C76F"/>
<g id="Group 87">
<path id="Path_4" fill-rule="evenodd" clip-rule="evenodd" d="M19.9715 15.2499C19.9715 15.2499 17.8198 21.103 16.8687 29.7249C15.9176 38.3468 16.4725 46.9688 16.4725 46.9688L17.5225 47.0599C17.5225 47.0599 16.9586 36.9969 17.6359 29.7631C18.3132 22.5293 20.4965 15.2955 20.4965 15.2955L19.9715 15.2499Z" fill="#02B596"/>
<ellipse id="Oval" cx="21.0487" cy="12.3455" rx="3.45644" ry="5.08791" transform="rotate(14 21.0487 12.3455)" fill="#65E09C"/>
<ellipse id="Oval_2" cx="21.1265" cy="12.655" rx="2.40448" ry="3.31632" transform="rotate(14 21.1265 12.655)" fill="#28C76F"/>
<path id="Path_5" fill-rule="evenodd" clip-rule="evenodd" d="M20.8404 15.5637L22.7764 9.79413C22.8915 9.45112 22.6961 9.0832 22.3399 8.97235C21.9838 8.86151 21.6017 9.04971 21.4866 9.39271L19.5506 15.1623C19.4355 15.5053 19.6309 15.8732 19.9871 15.9841C20.3432 16.0949 20.7253 15.9067 20.8404 15.5637Z" fill="url(#paint0_linear_315_31931)"/>
</g>
<g id="Group 87_2">
<path id="Path_6" fill-rule="evenodd" clip-rule="evenodd" d="M9.55463 9.44461C9.55463 9.44461 12.3064 15.0407 14.1535 23.516C16.0006 31.9913 16.35 40.624 16.35 40.624L15.3153 40.8244C15.3153 40.8244 14.8242 30.7576 13.3945 23.6342C11.9648 16.5108 9.03728 9.54483 9.03728 9.54483L9.55463 9.44461Z" fill="#28C76F"/>
<ellipse id="Oval_3" cx="3.45643" cy="5.08791" rx="3.45643" ry="5.08791" transform="matrix(-0.939693 0.34202 0.34202 0.939693 9.6875 0.705444)" fill="#65E09C"/>
<ellipse id="Oval_4" cx="2.40448" cy="3.31632" rx="2.40448" ry="3.31632" transform="matrix(-0.939693 0.34202 0.34202 0.939693 9.25977 3.04602)" fill="#28C76F"/>
<path id="Path_7" fill-rule="evenodd" clip-rule="evenodd" d="M8.72394 9.84757L6.19541 4.31198C6.04509 3.98288 6.20098 3.59655 6.5436 3.44908C6.88622 3.30161 7.28583 3.44885 7.43615 3.77794L9.96468 9.31354C10.115 9.64263 9.95911 10.029 9.61649 10.1764C9.27387 10.3239 8.87426 10.1767 8.72394 9.84757Z" fill="url(#paint1_linear_315_31931)"/>
</g>
<path id="Path_8" fill-rule="evenodd" clip-rule="evenodd" d="M31.955 26.6542C26.5982 28.6558 22.8629 30.9689 20.7509 33.6022C18.639 36.2352 17.2436 40.3187 16.5553 45.8536C16.5405 45.9729 16.6289 46.0812 16.7528 46.0955C16.8767 46.1097 16.9891 46.0246 17.0039 45.9053C17.6834 40.4416 19.0546 36.4289 21.1084 33.8682C23.1621 31.3077 26.8315 29.0354 32.1184 27.0599C32.2347 27.0164 32.2924 26.8904 32.2473 26.7783C32.2022 26.6663 32.0713 26.6107 31.955 26.6542Z" fill="#28C76F"/>
</g>
<path id="Path 151" fill-rule="evenodd" clip-rule="evenodd" d="M18.2587 42.4328C15.7777 34.4969 5.97998 36.8192 5.97998 36.8192C5.97998 36.8192 13.3155 38.971 17.0565 42.4328H18.2587Z" fill="#28C76F"/>
<path id="Path 151_2" fill-rule="evenodd" clip-rule="evenodd" d="M17.6448 41.2051C20.3368 32.7606 29.3096 33.9954 29.3096 33.9954C29.3096 33.9954 23.8599 37.9387 18.9492 41.2051H17.6448Z" fill="#28C76F"/>
<path id="Path 151_3" fill-rule="evenodd" clip-rule="evenodd" d="M17.9686 43.2808C15.6854 35.6244 21.0113 29.0339 21.0113 29.0339C21.0113 29.0339 20.7413 38.1015 18.8904 42.7216L17.9686 43.2808Z" fill="#28C76F"/>
<path id="Path 114" fill-rule="evenodd" clip-rule="evenodd" d="M15.5876 41.819C14.5459 38.8727 13.5097 34.7574 12.7334 30.7682C16.5709 32.2788 17.8035 38.2969 16.5709 41.819H15.5876Z" fill="#65E09C"/>
<g id="Group">
<path id="Rectangle_5" fill-rule="evenodd" clip-rule="evenodd" d="M8.05407 40.3462C7.94766 39.1661 8.87704 38.1492 10.0619 38.1492H22.0657C23.2506 38.1492 24.18 39.1661 24.0736 40.3462L21.5058 68.8228C21.4121 69.8619 20.5412 70.6578 19.4979 70.6578H12.6297C11.5865 70.6578 10.7156 69.8619 10.6219 68.8228L8.05407 40.3462Z" fill="#7367F0"/>
<mask id="mask0_315_31931" style="mask-type:luminance" maskUnits="userSpaceOnUse" x="8" y="38" width="17" height="33">
<path id="Rectangle_6" fill-rule="evenodd" clip-rule="evenodd" d="M8.05407 40.3462C7.94766 39.1661 8.87704 38.1492 10.0619 38.1492H22.0657C23.2506 38.1492 24.18 39.1661 24.0736 40.3462L21.5058 68.8228C21.4121 69.8619 20.5412 70.6578 19.4979 70.6578H12.6297C11.5865 70.6578 10.7156 69.8619 10.6219 68.8228L8.05407 40.3462Z" fill="white"/>
</mask>
<g mask="url(#mask0_315_31931)">
<path id="Rectangle_7" fill-rule="evenodd" clip-rule="evenodd" d="M5.78564 37.5593H11.8479C8.09121 51.381 19.4001 57.14 11.8479 70.9617H5.78564V37.5593Z" fill="#8B81EB"/>
</g>
</g>
</g>
<defs>
<linearGradient id="paint0_linear_315_31931" x1="20.0225" y1="8.46903" x2="20.0225" y2="16.0159" gradientUnits="userSpaceOnUse">
<stop stop-color="#FE62BE"/>
<stop offset="1" stop-color="#FDB3A8"/>
</linearGradient>
<linearGradient id="paint1_linear_315_31931" x1="8.79576" y1="2.70627" x2="9.58462" y2="10.2118" gradientUnits="userSpaceOnUse">
<stop stop-color="#FE62BE"/>
<stop offset="1" stop-color="#FDB3A8"/>
</linearGradient>
</defs>
</svg>
