<svg width="36" height="42" viewBox="0 0 36 42" fill="none" xmlns="http://www.w3.org/2000/svg">
<path fill-rule="evenodd" clip-rule="evenodd" d="M8.19482 10.4807V8.01166C8.19482 7.2541 9.0352 6.63998 10.0719 6.63998C11.1085 6.63998 11.9489 7.2541 11.9489 8.01166L11.9487 9.38302H14.2006L14.2013 3.07361C14.2013 1.40698 16.0502 0.0559082 18.3308 0.0559082C20.6115 0.0559082 22.4603 1.40698 22.4603 3.07361V18.7108H14.2013L14.2006 12.1262L10.4473 12.1267C9.20328 12.1267 8.19482 11.3898 8.19482 10.4807Z" fill="#28C76F"/>
<path fill-rule="evenodd" clip-rule="evenodd" d="M2.08887 8.83472H33.6067L31.3522 39.6997C31.2905 40.544 30.6053 41.1967 29.7807 41.1967H5.91483C5.09021 41.1967 4.40502 40.544 4.34335 39.6997L2.08887 8.83472Z" fill="#7367F0"/>
<path fill-rule="evenodd" clip-rule="evenodd" d="M2.08907 8.83472H33.6069C34.4772 8.83472 35.1828 9.55917 35.1828 10.4528V16.9252C35.1828 17.8189 34.4772 18.5433 33.6069 18.5433H2.08907C1.21873 18.5433 0.513184 17.8189 0.513184 16.9252V10.4528C0.513184 9.55917 1.21873 8.83472 2.08907 8.83472Z" fill="#968BFF"/>
</svg>
