<svg width="49" height="40" viewBox="0 0 49 40" fill="none" xmlns="http://www.w3.org/2000/svg">
<path d="M48.1328 17.4206L41.2673 6.33421L43.9118 5.72395C44.7255 5.52053 45.1832 4.7577 45.0306 3.94402C44.8272 3.13034 44.0644 2.62179 43.2507 2.82521L28.757 6.18164C28.1467 5.52053 27.333 5.06283 26.4176 4.91027V2.36751C26.4176 1.14699 25.4005 0.129883 24.18 0.129883C22.9595 0.129883 21.9424 1.14699 21.9424 2.36751V4.91027C20.1624 5.16454 18.7894 6.63934 18.6368 8.47012L4.39735 11.7249C3.58367 11.9283 3.12597 12.6911 3.27854 13.5048C3.4311 14.1659 4.04137 14.6745 4.70248 14.6745C4.80419 14.6745 4.9059 14.6745 5.00761 14.6236L6.3807 14.3185L0.22723 24.3369C-0.0270458 24.7438 -0.077901 25.2523 0.12552 25.71C1.75288 29.0156 5.05847 31.1007 8.72004 31.1007C12.3816 31.1007 15.6872 29.0156 17.3146 25.71C17.518 25.2523 17.4671 24.7438 17.2128 24.3369L10.5 13.3522L19.6539 11.2672C20.2642 11.9283 21.0778 12.386 21.9932 12.5385V32.728H18.8402C17.3146 32.728 16.094 33.9485 16.094 35.4742V35.5759H12.941C11.4154 35.5759 10.1948 36.7964 10.1948 38.3221V39.3392C10.1948 39.6443 10.4491 39.8477 10.7034 39.8477H37.7583C38.0635 39.8477 38.2669 39.5935 38.2669 39.3392V38.3221C38.2669 36.7964 37.0464 35.5759 35.5207 35.5759H32.3168V35.4742C32.3168 33.9485 31.0963 32.728 29.5706 32.728H26.4176V12.5385C28.1976 12.2843 29.5706 10.8095 29.7232 8.97868L37.4023 7.2496L31.1472 17.4206C30.8929 17.8275 30.842 18.336 31.0454 18.7937C32.6728 22.0993 35.9784 24.1844 39.64 24.1844C43.3015 24.1844 46.6071 22.0993 48.2345 18.7937C48.4379 18.336 48.3871 17.8275 48.1328 17.4206ZM3.83794 24.1844L8.77089 16.2001L13.7038 24.1844H3.83794ZM34.6562 17.2681L39.5891 9.28381L44.5221 17.2681H34.6562Z" fill="#7268EF"/>
</svg>
