<svg width="49" height="50" viewBox="0 0 49 50" fill="none" xmlns="http://www.w3.org/2000/svg">
<path d="M45.3331 43.0049H3.0222C1.32675 43.0049 0 41.6604 0 39.9424V12.3799C0 10.6924 1.35697 9.31738 3.0222 9.31738H9.06661C9.90074 9.31738 10.5777 10.0034 10.5777 10.8486C10.5777 11.6939 9.90074 12.3799 9.06661 12.3799H3.0222V39.9424H45.3331V12.3799H39.2886C38.4545 12.3799 37.7775 11.6939 37.7775 10.8486C37.7775 10.0034 38.4545 9.31738 39.2886 9.31738H45.3331C47.0285 9.31738 48.3553 10.6618 48.3553 12.3799V39.9424C48.3553 41.6604 47.0285 43.0049 45.3331 43.0049Z" fill="#7268EF"/>
<path d="M31.7331 49.1299H16.6221C16.0116 49.1299 15.4585 48.7563 15.2258 48.1836C14.9901 47.6109 15.12 46.9525 15.5522 46.5145L21.5966 40.3895C22.1859 39.7924 23.144 39.7924 23.7333 40.3895C24.0295 40.6897 24.1776 41.0786 24.1776 41.4675C24.1776 41.0786 24.3257 40.6897 24.6188 40.3895C25.2081 39.7924 26.1662 39.7924 26.7555 40.3895L32.7999 46.5145C33.2321 46.9525 33.3621 47.6109 33.1263 48.1836C32.8906 48.7563 32.3436 49.1299 31.7331 49.1299ZM20.2699 46.0674H28.0853L24.6218 42.5578C24.3257 42.2577 24.1776 41.8687 24.1776 41.4798C24.1776 41.8687 24.0295 42.2577 23.7363 42.5578L20.2699 46.0674Z" fill="#7268EF"/>
<path d="M46.8442 36.8799H1.5111C0.676974 36.8799 0 36.1939 0 35.3486C0 34.5034 0.676974 33.8174 1.5111 33.8174H46.8442C47.6783 33.8174 48.3553 34.5034 48.3553 35.3486C48.3553 36.1939 47.6783 36.8799 46.8442 36.8799Z" fill="#7268EF"/>
<path d="M24.1776 15.4424C21.6782 15.4424 19.6443 13.3813 19.6443 10.8486C19.6443 8.31595 21.6782 6.25488 24.1776 6.25488C26.677 6.25488 28.7109 8.31595 28.7109 10.8486C28.7109 13.3813 26.677 15.4424 24.1776 15.4424ZM24.1776 9.31738C23.3435 9.31738 22.6665 10.0034 22.6665 10.8486C22.6665 11.6939 23.3435 12.3799 24.1776 12.3799C25.0087 12.3799 25.6887 11.6939 25.6887 10.8486C25.6887 10.0034 25.0087 9.31738 24.1776 9.31738Z" fill="#7268EF"/>
<path d="M24.1776 27.6924C23.7484 27.6924 23.3404 27.5056 23.0533 27.184C22.0862 26.0938 13.5999 16.3519 13.5999 10.8486C13.5999 4.93801 18.3447 0.129883 24.1776 0.129883C30.0104 0.129883 34.7553 4.93801 34.7553 10.8486C34.7553 16.3519 26.2689 26.0938 25.3018 27.184C25.0147 27.5056 24.6067 27.6924 24.1776 27.6924ZM24.1776 3.19238C20.013 3.19238 16.6221 6.62851 16.6221 10.8486C16.6221 13.7733 20.8773 19.8616 24.1776 23.8275C27.4778 19.8585 31.7331 13.7703 31.7331 10.8486C31.7331 6.62851 28.3452 3.19238 24.1776 3.19238Z" fill="#7268EF"/>
</svg>
