<svg width="39" height="83" viewBox="0 0 39 83" fill="none" xmlns="http://www.w3.org/2000/svg">
<g id="Pot1">
<path id="Path" fill-rule="evenodd" clip-rule="evenodd" d="M29.6202 8.90344L30.0602 9.20337C26.7638 13.9151 24.6506 18.6061 23.3371 23.7235L23.2328 24.1357C22.3475 27.683 21.9485 30.6329 21.39 36.6828L21.164 39.1467C21.1137 39.6824 21.0668 40.1667 21.0203 40.6282L20.9924 40.9025L20.4604 40.8493L20.5443 40.0108L20.9847 35.2844C21.5041 29.8816 21.9225 27.0861 22.8189 23.5939C24.1086 18.5691 26.1617 13.9478 29.3292 9.32382L29.6202 8.90344Z" fill="#02B596"/>
<g id="Group 81">
<path id="Combined Shape" fill-rule="evenodd" clip-rule="evenodd" d="M32.9287 6.51307C33.5913 4.57072 33.653 2.83546 33.317 2.6415C32.9805 2.44723 31.5055 3.37211 30.1528 4.9215C29.3604 4.02584 28.5374 3.54394 28.2827 3.65541C27.8715 3.83535 27.5479 6.27256 28.6326 8.32026L28.6409 8.31634C29.0419 9.26004 30.3005 9.85448 31.2239 9.41085C33.2994 9.14514 35.1235 7.99386 35.1247 7.60559C35.1254 7.34326 34.1862 6.80729 32.9287 6.51307Z" fill="url(#paint0_linear_315_31908)"/>
<path id="Path 148" fill-rule="evenodd" clip-rule="evenodd" d="M26.1042 5.21702C27.9709 5.92042 29.4127 6.77175 29.7578 8.80744C32.4225 8.15742 33.3018 9.26929 34.7883 10.2308C33.2756 10.5183 31.2962 11.0048 29.1066 9.69606C27.2046 8.50985 26.6314 6.70339 26.1042 5.21702Z" fill="#02B596"/>
</g>
<g id="Group 81_2">
<path id="Combined Shape_2" fill-rule="evenodd" clip-rule="evenodd" d="M7.96738 9.69761C6.36878 8.41062 4.75922 7.75919 4.46206 8.00854C4.16442 8.25829 4.52903 9.96071 5.52234 11.7618C4.40967 12.2 3.67532 12.8086 3.69296 13.0861C3.72143 13.534 5.90097 14.6716 8.19612 14.3527L8.19528 14.3436C9.21921 14.2896 10.2083 13.3102 10.1073 12.2908C10.5674 10.2496 10.1095 8.14167 9.74503 8.00782C9.49879 7.91738 8.67392 8.61667 7.96738 9.69761Z" fill="url(#paint1_linear_315_31908)"/>
<path id="Path 148_2" fill-rule="evenodd" clip-rule="evenodd" d="M4.41567 15.6672C5.71509 14.1536 7.0082 13.09 9.03915 13.4619C9.33972 10.7356 10.6853 10.2896 12.0972 9.22156C11.85 10.7414 11.3715 12.2734 9.39273 13.8833C7.62753 15.2649 5.99272 15.6801 4.41567 15.6672Z" fill="#02B596"/>
</g>
<path id="Path_2" fill-rule="evenodd" clip-rule="evenodd" d="M8.8361 13.7034C12.6233 17.7467 15.1465 22.0556 16.8208 26.9939L16.9683 27.4357C18.1263 30.9618 18.772 34.3141 19.5612 40.0972L19.6606 40.8329L19.1492 40.9026L19.0013 39.814C18.2056 34.0421 17.5463 30.7425 16.3325 27.1622C14.725 22.421 12.3265 18.2725 8.75324 14.3761L8.46094 14.0608L8.8361 13.7034Z" fill="#02B596"/>
<path id="Path 151" fill-rule="evenodd" clip-rule="evenodd" d="M21.2608 43.3025C17.543 29.8596 2.86133 33.7933 2.86133 33.7933C2.86133 33.7933 13.8535 37.4384 19.4593 43.3025H21.2608Z" fill="#02D3AF"/>
<path id="Path 151_2" fill-rule="evenodd" clip-rule="evenodd" d="M22.0605 42.5024C25.7528 29.665 38.0601 31.5422 38.0601 31.5422C38.0601 31.5422 30.5853 37.5368 23.8497 42.5024H22.0605Z" fill="#02B596"/>
<path id="Path 151_3" fill-rule="evenodd" clip-rule="evenodd" d="M20.3627 42.1306C21.3764 32.2658 30.3745 27.0673 30.3745 27.0673C30.3745 27.0673 25.8596 37.4071 21.6497 41.9018L20.3627 42.1306Z" fill="#02D3AF"/>
<path id="Path 114" fill-rule="evenodd" clip-rule="evenodd" d="M19.6487 42.5024C18.4853 38.8765 17.328 33.8121 16.4609 28.9028C20.747 30.7618 22.1236 38.1679 20.747 42.5024H19.6487Z" fill="#02B596"/>
<g id="Group 82">
<path id="Rectangle" fill-rule="evenodd" clip-rule="evenodd" d="M11.8172 42.2872C11.7326 41.1284 12.65 40.1417 13.8119 40.1417H28.7089C29.8708 40.1417 30.7881 41.1284 30.7036 42.2872L27.882 80.9655C27.8057 82.0109 26.9354 82.82 25.8873 82.82H16.6335C15.5854 82.82 14.715 82.0109 14.6388 80.9655L11.8172 42.2872Z" fill="#7367F0"/>
<mask id="mask0_315_31908" style="mask-type:luminance" maskUnits="userSpaceOnUse" x="11" y="40" width="20" height="43">
<path id="Rectangle_2" fill-rule="evenodd" clip-rule="evenodd" d="M11.8172 42.2872C11.7326 41.1284 12.65 40.1417 13.8119 40.1417H28.7089C29.8708 40.1417 30.7881 41.1284 30.7036 42.2872L27.882 80.9655C27.8057 82.0109 26.9354 82.82 25.8873 82.82H16.6335C15.5854 82.82 14.715 82.0109 14.6388 80.9655L11.8172 42.2872Z" fill="white"/>
</mask>
<g mask="url(#mask0_315_31908)">
<path id="Rectangle_3" fill-rule="evenodd" clip-rule="evenodd" d="M9.06592 39.0616H16.3306C11.8288 55.7166 25.3808 67.1669 16.3306 83.8218H9.06592V39.0616Z" fill="#968BFF"/>
</g>
</g>
</g>
<defs>
<linearGradient id="paint0_linear_315_31908" x1="31.255" y1="0.862853" x2="27.179" y2="7.92271" gradientUnits="userSpaceOnUse">
<stop stop-color="#FE62BE"/>
<stop offset="1" stop-color="#FDB3A8"/>
</linearGradient>
<linearGradient id="paint1_linear_315_31908" x1="2.08539" y1="9.33791" x2="7.32541" y2="15.5827" gradientUnits="userSpaceOnUse">
<stop stop-color="#FE62BE"/>
<stop offset="1" stop-color="#FDB3A8"/>
</linearGradient>
</defs>
</svg>
